<svg width="116" height="79" viewBox="0 0 116 79" fill="none" xmlns="http://www.w3.org/2000/svg">
<path d="M38.9825 0.696716C37.3278 2.35136 37.3278 5.8058 39.0115 9.23121C40.2017 11.6987 42.0305 13.7307 46.7913 17.9399C50.6811 21.3943 52.1616 23.3973 52.9164 26.2421C54.513 32.106 51.4649 37.2731 44.498 40.6405C40.9565 42.3532 38.1697 43.0209 34.3379 43.0499C28.6772 43.0789 25.9485 41.9178 21.7684 37.6215C20.1718 35.9959 18.4881 33.9638 17.9656 33.093C17.2398 31.7867 17.0657 31.6125 17.0657 32.2221C17.0657 33.6155 18.2849 37.3022 19.5622 39.7696C21.3039 43.137 23.3649 45.8367 26.6452 48.9137C33.8734 55.7936 34.9475 56.9547 35.5861 58.7255C36.6021 61.3962 36.8924 65.1409 36.515 70.7435C36.3409 73.4141 36.1377 76.1719 36.0506 76.8395L35.8764 78.0878H40.6662H45.4269L45.6011 72.8045C45.7753 66.8826 46.2687 64.27 47.8653 60.9897C49.0846 58.5223 51.2037 56.4903 56.1966 53.0358C59.8252 50.5103 61.7702 48.8557 61.7702 48.217C61.7702 48.1009 61.3928 47.2881 60.9283 46.4172C59.8543 44.4433 58.9544 41.192 58.6931 38.4633C58.2867 33.9929 58.8383 33.8477 63.9764 37.128C64.4989 37.4763 64.7311 37.4473 65.7181 36.7506C67.3147 35.6765 70.2176 34.8347 72.3948 34.8347C73.9623 34.8347 74.2526 34.7476 74.2526 34.3122C74.2816 33.5284 75.0364 31.6415 75.5589 31.0609C76.2556 30.3062 76.691 30.5675 78.1425 32.6285C80.9583 36.5764 82.2356 40.147 82.0324 43.3692C81.8001 46.9398 80.0874 49.4072 76.5749 51.207C74.4558 52.2811 73.4398 53.7325 72.627 56.8967C71.9013 59.7415 72.1625 64.7635 73.2076 67.5793C73.643 68.7695 73.9623 69.7565 73.9043 69.7855C73.8462 69.8145 72.7721 70.0177 71.5239 70.1919C68.4178 70.6564 66.0955 71.7595 64.557 73.4722C63.4539 74.7204 62.641 76.5202 62.641 77.7975C62.641 78.0297 66.4438 78.0878 75.9363 78.0297L89.2025 77.9426L90.9733 76.9847C94.6019 75.0107 97.795 71.3531 99.6239 67.0278L100.437 65.1118L102.178 64.6184C110.742 62.238 116.49 54.3131 115.967 45.5754C115.793 42.5564 115.038 39.9148 113.703 37.5634C112.687 35.7346 112.222 35.3282 111.352 35.4733C110.684 35.5604 110.684 35.6475 110.51 40.0599C110.277 45.3141 109.726 47.4913 107.955 49.9588C106.707 51.7005 105.546 52.6875 103.717 53.6164C101.482 54.7485 101.308 54.7485 101.104 53.5003C100.814 51.6715 99.4787 47.5494 98.724 46.0108C95.8211 40.2631 92.4537 36.8377 84.6159 31.6996C78.4328 27.6355 71.8722 24.3262 60.609 19.5945C52.9744 16.4014 49.3748 14.5435 47.4299 12.7437C45.9785 11.4374 44.9334 10.015 44.9334 9.43442C44.9334 9.3183 45.5721 9.69568 46.3558 10.2763C50.2167 13.1211 54.7742 14.1371 57.561 12.7727C60.7832 11.2052 62.4378 7.98297 61.1896 5.66066C60.551 4.4995 59.3898 4.03504 56.1386 3.71572C52.4519 3.36738 50.565 2.90291 46.472 1.27729C43.8884 0.261283 42.8724 2.26311e-05 41.45 2.26311e-05C39.9695 2.26311e-05 39.5631 0.116138 38.9825 0.696716Z" fill="#004D95"/>
<path d="M11.8404 6.87984C8.61822 9.08604 2.84147 14.6886 1.59323 16.8368C-0.990342 21.2782 -0.351707 27.6936 2.92856 29.8417C3.88651 30.4803 4.49612 30.6255 6.29591 30.7126C10.389 30.8577 11.6372 29.4643 12.6823 23.4844C13.0306 21.5975 13.7563 18.9268 14.3369 17.3883C16.427 11.9599 16.7753 10.1311 15.9625 8.33128C15.6432 7.60556 15.1207 6.87984 14.8014 6.70567C13.9305 6.2412 12.6532 6.32829 11.8404 6.87984Z" fill="#004D95"/>
<path d="M34.9765 15.6176C34.3088 16.3433 34.3378 18.0851 35.0055 18.6656C35.8764 19.4494 37.531 19.3043 38.2277 18.4044C38.576 17.9689 38.8373 17.4174 38.8373 17.1271C38.8373 16.8368 38.576 16.2853 38.2277 15.8498C37.502 14.9209 35.7312 14.7758 34.9765 15.6176Z" fill="#004D95"/>
<path d="M24.4969 19.1881C22.9584 20.4073 23.9454 22.9329 25.9484 22.9329C27.8933 22.9329 28.8513 20.3783 27.3418 19.1881C26.9063 18.8398 26.2677 18.5785 25.9193 18.5785C25.571 18.5785 24.9324 18.8398 24.4969 19.1881Z" fill="#004D95"/>
<path d="M40.1438 26.997C36.6022 27.7228 33.5832 29.6677 33.0607 31.4675C32.2189 34.5446 34.6863 36.954 38.6923 36.983C41.4791 37.012 43.1047 36.3443 44.7884 34.4865C46.7043 32.3674 47.0526 30.3644 45.8624 28.5065C44.9916 27.1712 42.4661 26.5035 40.1438 26.997Z" fill="#004D95"/>
<path d="M75.7332 39.3051C75.53 39.5373 75.4139 40.0889 75.472 40.5533C75.6461 42.0338 78.0265 41.7435 78.0265 40.234C78.0265 39.0148 76.488 38.4052 75.7332 39.3051Z" fill="#004D95"/>
<path d="M67.3437 41.5695C67.1405 41.7727 66.9954 42.2662 66.9954 42.6726C66.9954 43.079 67.1405 43.5725 67.3437 43.7757C67.5469 43.9789 68.0404 44.124 68.4468 44.124C68.8532 44.124 69.3467 43.9789 69.5499 43.7757C69.7531 43.5725 69.8983 43.079 69.8983 42.6726C69.8983 42.2662 69.7531 41.7727 69.5499 41.5695C69.3467 41.3663 68.8532 41.2211 68.4468 41.2211C68.0404 41.2211 67.5469 41.3663 67.3437 41.5695Z" fill="#004D95"/>
<path d="M73.3818 43.9788C73.0915 44.3271 73.0915 44.5013 73.3818 44.8497C74.1075 45.7205 75.7041 45.198 75.7041 44.0659C75.7041 43.6595 75.4719 43.5434 74.7171 43.5434C74.1946 43.5434 73.585 43.7466 73.3818 43.9788Z" fill="#004D95"/>
<path d="M23.2489 52.3101C24.0036 57.8546 24.1778 71.3821 23.5682 76.5492L23.365 78.0878H27.5742H31.7834L32.1608 73.4722C32.364 70.9467 32.451 67.231 32.393 65.286C32.1898 59.9737 31.6673 58.9868 26.413 54.0809L23.0747 50.9457L23.2489 52.3101Z" fill="#004D95"/>
</svg>
