<svg width="206" height="206" viewBox="0 0 206 206" fill="none" xmlns="http://www.w3.org/2000/svg">
<path d="M154.5 154.5C182.943 126.057 182.943 79.9427 154.5 51.5C126.057 23.0573 79.9427 23.0573 51.5 51.5C23.0573 79.9427 23.0573 126.057 51.5 154.5C79.9427 182.943 126.057 182.943 154.5 154.5Z" fill="#EDEDED"/>
<path d="M56.3203 147.225L63.2589 174.849" stroke="black" stroke-miterlimit="10"/>
<path d="M89.2994 92.9903L67.0094 96.3722C67.0094 96.3722 64.7914 97.187 56.0164 96.7279C47.2414 96.2688 39.9019 101.086 37.3153 108.594C36.3453 111.394 34.4507 116.192 32.4719 121.216C34.8897 130.566 39.1479 139.34 44.9975 147.024C47.3857 147.277 49.787 147.385 52.1882 147.348C52.1882 147.348 53.4815 152.172 54.9365 157.694C67.9287 169.142 84.5878 175.564 101.903 175.8C107.597 173.946 113.107 171.564 118.36 168.687L115.773 140.053C115.773 140.053 123.1 137.868 129.566 130.535C130.982 128.937 115.34 102.205 110.813 96.7279C106.287 91.2508 89.2994 92.9903 89.2994 92.9903Z" fill="#7E7B44"/>
<path d="M99.0613 137.843C104.217 130.62 102.542 120.584 95.3183 115.428C88.095 110.272 78.0595 111.948 72.9034 119.171C67.7473 126.394 69.423 136.43 76.6463 141.586C83.8696 146.742 93.9051 145.066 99.0613 137.843Z" fill="#EFD79A"/>
<path d="M81.0872 122.232L82.0377 127.942" stroke="#7E7B44" stroke-linecap="round" stroke-linejoin="round"/>
<path d="M88.5686 120.977L89.5256 126.694" stroke="#7E7B44" stroke-linecap="round" stroke-linejoin="round"/>
<path d="M95.8695 125.64C96.2505 128.286 95.5805 130.976 94.003 133.134C92.4254 135.292 90.0657 136.747 87.4289 137.188C84.792 137.628 82.0876 137.019 79.8944 135.49C77.7012 133.961 76.1936 131.635 75.6941 129.009" stroke="#7E7B44" stroke-linecap="round" stroke-linejoin="round"/>
<path d="M64.4685 96.7603C64.4685 96.7603 74.7696 107.055 84.2301 104.552C92.3908 102.399 90.7612 92.8739 90.7612 92.8739" stroke="#514D27" stroke-width="0.75" stroke-linecap="round" stroke-linejoin="round"/>
<path d="M62.2051 77.432C62.2051 77.432 66.4018 83.4393 67.0097 96.3723C67.0097 96.3723 76.1274 103.485 82.5292 102.515C88.9311 101.545 89.2738 92.9774 89.2738 92.9774C86.1696 88.539 84.2488 83.3822 83.6932 77.9945L62.2051 77.432Z" fill="#FFB48C"/>
<path d="M78.2872 85.5539C81.417 85.0624 83.3634 83.9437 84.5791 82.7409C84.1696 81.1879 83.882 79.6053 83.7191 78.0075L62.2051 77.432C62.9722 78.6535 63.6053 79.9544 64.0933 81.3118C67.6628 83.5686 73.2434 86.3428 78.2872 85.5539Z" fill="#EF8D6F"/>
<path d="M47.772 68.0167C47.772 68.0167 38.318 47.3692 36.4169 42.9397C34.5157 38.5102 40.8206 35.7619 40.8206 35.7619C40.8206 35.7619 38.8159 29.9421 46.2847 22.6673C53.7535 15.3925 68.7881 18.7874 74.7696 12.4826C74.7696 12.4826 74.2846 17.6557 72.0213 20.5657C72.0213 20.5657 83.9843 13.9375 95.9473 22.8289C95.9473 22.8289 95.9473 30.5887 92.8757 36.2469C92.8757 36.2469 95.9473 33.822 97.5639 27.1938C97.5639 27.1938 102.09 43.6251 91.0975 51.0099L47.772 68.0167Z" fill="#D86224"/>
<path d="M69.4668 20.5657C69.4668 20.5657 80.1042 11.1893 96.1087 20.5657" stroke="#D86224" stroke-width="0.5" stroke-linecap="round" stroke-linejoin="round"/>
<path d="M95.947 22.8289C95.947 22.8289 91.7438 29.2954 79.7808 29.6187" stroke="#FF8326" stroke-width="0.5" stroke-linecap="round" stroke-linejoin="round"/>
<path d="M76.0757 26.2238C81.0506 27.6619 86.3073 27.8265 91.3625 26.7024" stroke="#FF8326" stroke-width="0.5" stroke-linecap="round" stroke-linejoin="round"/>
<path d="M64.824 25.8876C80.1948 21.6973 87.9999 30.246 91.9832 44.2136C95.9666 58.1812 95.9019 74.134 84.7343 77.6971C73.5667 81.2601 57.7044 80.6652 50.9146 66.4195C44.1248 52.1739 41.9197 32.1213 64.824 25.8876Z" fill="#FFB48C"/>
<path d="M84.3334 39.9845C81.9417 39.6338 79.6265 38.8818 77.4854 37.76C79.4253 35.1864 84.3334 36.7383 84.3334 39.9845Z" fill="#D86224"/>
<path d="M69.4667 38.9111C68.3739 40.0492 67.2099 41.1485 66.2335 42.3771C65.0825 43.457 64.3711 44.9637 63.2783 46.1083C62.9353 45.2372 62.8335 44.2897 62.9837 43.3656C63.1339 42.4415 63.5306 41.5751 64.1319 40.8575C65.2829 39.3896 67.5785 38.1739 69.4667 38.9111Z" fill="#D86224"/>
<path d="M83.1823 66.7235C83.1823 66.7235 75.6554 70.5063 69.7256 65.1392" stroke="#EF8D6F" stroke-width="0.75" stroke-linecap="round" stroke-linejoin="round"/>
<path d="M81.307 49.8136C81.5722 50.9194 82.3481 51.6824 83.0336 51.5143C83.719 51.3461 84.0618 50.3244 83.7966 49.2187C83.5315 48.1129 82.762 47.3499 82.0701 47.518C81.3782 47.6861 81.0419 48.7402 81.307 49.8136Z" fill="#3A130E"/>
<path d="M67.1 53.3314C67.3651 54.4371 68.1411 55.1937 68.8266 55.0321C69.512 54.8704 69.8547 53.8358 69.5896 52.73C69.3245 51.6242 68.555 50.8676 67.8631 51.0293C67.1711 51.191 66.8349 52.2256 67.1 53.3314Z" fill="#3A130E"/>
<path d="M61.6979 68.572C66.2907 67.8761 69.5505 64.2537 68.9789 60.4812C68.4073 56.7087 64.2208 54.2146 59.628 54.9105C55.0352 55.6064 51.7754 59.2287 52.347 63.0012C52.9186 66.7737 57.1051 69.2678 61.6979 68.572Z" fill="#F27F52"/>
<path d="M91.5888 47.5115C91.9915 47.4517 92.3975 47.4171 92.8045 47.4081C93.8943 51.8507 94.4157 56.4137 94.3564 60.9877C94.1107 61.0394 93.865 61.0911 93.6128 61.1235C89.0281 61.8089 84.8507 59.2999 84.2946 55.5364C83.7385 51.7729 87.0041 48.1905 91.5888 47.5115Z" fill="#F27F52"/>
<path d="M76.0757 42.9397C76.0757 42.9397 76.2568 49.6131 79.9556 55.1872C79.9556 55.1872 85.8789 53.8422 86.4997 54.9091C87.1204 55.9761 83.2664 62.6689 83.2664 62.6689" fill="#FFB48C"/>
<path d="M76.0757 42.9397C76.0757 42.9397 76.2568 49.6131 79.9556 55.1872C79.9556 55.1872 85.8789 53.8422 86.4997 54.9091C87.1204 55.9761 83.2664 62.6689 83.2664 62.6689" stroke="#EF8D6F" stroke-width="0.75" stroke-linecap="round" stroke-linejoin="round"/>
<path d="M53.2685 38.7624C61.9983 38.9111 72.3447 28.4871 72.0213 20.5657C74.2846 17.6557 74.7696 12.4826 74.7696 12.4826C68.7881 18.7874 53.747 15.3925 46.3171 22.6673C38.8871 29.9421 40.8206 35.7619 40.8206 35.7619C40.8206 35.7619 34.5157 38.5102 36.4169 42.9397C37.6455 45.7979 42.0233 55.42 44.972 61.88C59.5087 56.3964 53.2685 38.7624 53.2685 38.7624Z" fill="#FF8326"/>
<path d="M40.6265 32.8391C40.6265 32.8391 43.517 25.5255 54.2061 24.8271C64.8952 24.1287 68.7815 23.1523 72.0148 20.5657" stroke="#D86224" stroke-width="0.5" stroke-linecap="round" stroke-linejoin="round"/>
<path d="M74.7694 12.4826C72.8634 15.6392 70.3055 18.3526 67.2667 20.4413C64.2279 22.5301 60.7782 23.9459 57.1482 24.5943" stroke="#D86224" stroke-width="0.5" stroke-linecap="round" stroke-linejoin="round"/>
<path d="M36.2937 39.9845C36.2937 39.9845 41.1112 49.4191 54.4645 49.542" stroke="#D86224" stroke-width="0.5" stroke-linecap="round" stroke-linejoin="round"/>
<path d="M54.2059 71.5862L48.3861 60.244C48.3861 60.244 43.1612 53.1309 37.5353 57.457C32.582 61.2916 44.9071 78.1497 54.2059 71.5862Z" fill="#FFB48C"/>
<path d="M48.1602 59.9272C48.3218 60.1212 48.4124 60.2441 48.4124 60.2441L54.2322 71.5863C48.4124 75.6925 41.4027 70.6292 38.1953 65.3202C40.3099 60.6514 44.7588 59.7979 48.1602 59.9272Z" fill="#EF8D6F"/>
<path d="M99.4001 92.8739C99.4001 92.8739 111.887 114.213 115.767 140.079C115.767 140.079 123.093 137.894 129.56 130.561C130.976 128.963 115.334 102.231 110.807 96.7538C108.705 94.1931 103.92 93.2037 99.4001 92.8739Z" fill="#969269"/>
<path d="M115.256 136.982C115.256 136.982 121.988 134.609 129.011 127.929" stroke="#514D27" stroke-width="0.75" stroke-linecap="round" stroke-linejoin="round"/>
<path d="M110.083 38.8464L123.132 58.9572L98.9927 69.7433L92.7202 60.1082L110.083 38.8464Z" fill="#371315"/>
<path d="M146.502 38.8464L133.446 58.9572L157.586 69.7433L163.858 60.1082L146.502 38.8464Z" fill="#371315"/>
<path d="M168.107 135.656C163.283 113.166 155.762 98.3575 155.762 98.3575C155.762 98.3575 161.407 94.5293 162.707 91.4319C164.007 88.3344 160.515 70.6486 155.762 65.1844C151.009 59.7202 137.824 58.7761 128.292 58.7761C118.761 58.7761 105.569 59.7202 100.816 65.1844C96.0635 70.6486 92.5716 88.3344 93.8779 91.4319C95.1841 94.5293 100.816 98.3575 100.816 98.3575C100.816 98.3575 84.107 131.246 84.5403 173.466C100.693 177.678 117.802 176.222 133.011 169.341C148.219 162.46 160.607 150.57 168.107 135.656V135.656Z" fill="#D0915E"/>
<path d="M142.797 86.0776C151.514 90.6042 158.523 89.091 162.888 86.9894C162.274 80.4776 159.396 69.323 155.775 65.1844C151.682 60.4768 141.335 59.1253 132.45 58.8408C131.616 65.2361 131.157 79.9991 142.797 86.0776Z" fill="#AD7041"/>
<path d="M84.5403 173.091C84.5403 173.388 84.4563 173.446 84.7796 173.524C85.0059 173.589 85.2387 173.647 85.465 173.698C85.9306 173.815 86.3898 173.925 86.8553 174.028C87.8684 174.261 88.8837 174.477 89.901 174.675C91.8798 175.037 93.8779 175.322 95.8825 175.509C99.9964 175.911 104.137 175.961 108.259 175.658C109.249 175.587 110.238 175.496 111.228 175.38C111.609 175.341 112.32 175.38 112.573 175.089C112.825 174.798 113.135 174.397 113.413 174.048C114.42 172.746 115.348 171.386 116.194 169.974C117.971 167.018 119.342 163.836 120.268 160.513C122.288 153.377 121.682 145.753 118.561 139.025C116.053 133.702 112.224 129.109 107.438 125.685C103.895 123.164 99.9634 121.242 95.7985 119.994C95.0807 119.774 94.3629 119.574 93.6322 119.399L92.7722 119.199C92.4682 120.182 92.1643 121.171 91.8798 122.167C90.7201 126.107 89.6941 130.084 88.8017 134.098C85.8934 146.899 84.455 159.989 84.5145 173.116L84.5403 173.091Z" fill="#AD7041"/>
<path d="M168.016 135.372C165.917 125.579 163.022 115.975 159.358 106.654C156.124 109.37 154.443 113.411 153.952 117.524C153.176 124.029 154.721 131.362 158.562 136.736C159.847 138.549 161.438 140.125 163.263 141.392C163.47 141.534 163.684 141.67 163.91 141.806C164.136 141.942 164.35 142.226 164.557 141.903C164.996 141.211 165.423 140.506 165.85 139.795C166.277 139.083 166.671 138.366 167.066 137.641C167.37 137.046 168.184 136.038 168.016 135.372Z" fill="#AD7041"/>
<path d="M92.7203 60.1082C91.8538 57.9484 107.69 38.2968 110.083 38.8464C112.475 39.3961 116.504 64.5442 114.797 67.008C113.09 69.4717 95.3069 66.5876 92.7203 60.1082Z" fill="#AD7041"/>
<path d="M163.858 60.1082C164.725 57.9484 148.895 38.2968 146.502 38.8464C144.109 39.3961 140.074 64.5442 141.782 67.008C143.489 69.4717 161.272 66.5876 163.858 60.1082Z" fill="#D0915E"/>
<g style="mix-blend-mode:multiply">
<path d="M116.478 130.69C116.478 130.69 112.993 144.509 120.513 151.829C120.513 151.829 119.045 147.044 120.513 144.004C120.513 144.004 120.513 153.129 133.692 155.45C133.692 155.45 135.794 149.876 135.535 144.599C135.535 144.599 137.074 148.479 136.789 151.066C136.789 151.066 142.195 148.874 142.764 140.267" stroke="#EDC8B9" stroke-width="0.75" stroke-linejoin="round"/>
</g>
<path d="M112.275 82.728C113.689 82.728 114.836 81.3354 114.836 79.6176C114.836 77.8998 113.689 76.5072 112.275 76.5072C110.861 76.5072 109.714 77.8998 109.714 79.6176C109.714 81.3354 110.861 82.728 112.275 82.728Z" fill="#3A130E"/>
<path d="M112.275 82.728C113.691 82.728 114.862 81.3312 114.862 79.6176C114.862 79.1174 114.761 78.6224 114.564 78.1626L109.876 80.6328C109.996 81.1944 110.294 81.7019 110.727 82.0796C111.159 82.4573 111.703 82.6848 112.275 82.728Z" fill="#231012"/>
<path d="M111.835 79.3008C111.835 79.9474 111.59 80.4453 111.286 80.4453C110.982 80.4453 110.736 79.9345 110.736 79.3008C110.736 78.667 110.982 78.1626 111.286 78.1626C111.59 78.1626 111.835 78.6735 111.835 79.3008Z" fill="#EFF6FE"/>
<path d="M146.871 79.6176C146.871 81.3312 145.72 82.728 144.284 82.728C142.849 82.728 141.698 81.3312 141.698 79.6176C141.698 77.904 142.842 76.5072 144.284 76.5072C145.726 76.5072 146.871 77.8975 146.871 79.6176Z" fill="#3A130E"/>
<path d="M144.304 82.728C145.72 82.728 146.89 81.3312 146.89 79.6176C146.891 79.1175 146.79 78.6224 146.593 78.1627L141.905 80.6329C142.024 81.1944 142.323 81.702 142.755 82.0796C143.188 82.4573 143.731 82.6848 144.304 82.728V82.728Z" fill="#231012"/>
<path d="M143.864 79.3008C143.864 79.9474 143.618 80.4453 143.314 80.4453C143.01 80.4453 142.765 79.9345 142.765 79.3008C142.765 78.6671 143.01 78.1627 143.314 78.1627C143.618 78.1627 143.864 78.6735 143.864 79.3008Z" fill="#EFF6FE"/>
<path d="M128.293 86.0776C128.23 87.2003 127.801 88.2714 127.071 89.1266C126.341 89.9817 125.35 90.5735 124.251 90.8111V97.0706C124.251 98.1425 124.677 99.1705 125.435 99.9284C126.193 100.686 127.221 101.112 128.293 101.112C129.364 101.112 130.392 100.686 131.15 99.9284C131.908 99.1705 132.334 98.1425 132.334 97.0706V90.8111C131.234 90.5755 130.242 89.9843 129.512 89.1287C128.781 88.2732 128.353 87.2009 128.293 86.0776V86.0776Z" fill="#F49A8E"/>
<path d="M128.292 86.0711V95.7127" stroke="#E27169" stroke-linecap="round" stroke-linejoin="round"/>
<path d="M128.292 77.2832C124.07 77.2832 117.551 78.2273 117.713 80.5811C117.875 82.9349 123.533 85.6056 128.292 86.0777C133.013 85.6056 138.716 82.9349 138.871 80.5811C139.027 78.2273 132.515 77.2832 128.292 77.2832Z" fill="#231012"/>
<path d="M140.1 86.7566C140.1 86.7566 139.758 90.9986 134.087 90.9986C128.416 90.9986 128.267 86.0776 128.267 86.0776C128.267 86.0776 128.144 90.9986 122.447 90.9986C116.75 90.9986 116.433 86.7566 116.433 86.7566" stroke="#231012" stroke-linecap="round" stroke-linejoin="round"/>
<path d="M155.95 98.7325C152.833 100.175 140.902 105.283 128.293 105.283C115.683 105.283 103.72 100.175 100.629 98.7325C100.396 99.2175 99.9823 100.155 99.3357 101.513C101.528 104.313 110.329 113.799 128.28 113.799C146.231 113.799 155.025 104.287 157.224 101.513C156.635 100.155 156.183 99.2175 155.95 98.7325Z" fill="#EFD79A"/>
<path d="M135.331 124.502C136.25 120.609 133.839 116.709 129.946 115.79C126.053 114.871 122.152 117.282 121.233 121.175C120.315 125.068 122.726 128.969 126.619 129.887C130.512 130.806 134.412 128.395 135.331 124.502Z" fill="#F89D4A"/>
<path d="M118.25 125.213L136.79 112.37" stroke="#EFD79A" stroke-width="3" stroke-miterlimit="10"/>
<path d="M119.059 128.821L137.598 115.985" stroke="#EFD79A" stroke-width="5" stroke-miterlimit="10"/>
<path d="M133.538 124.079C134.223 121.177 132.425 118.268 129.523 117.583C126.621 116.898 123.712 118.696 123.027 121.598C122.342 124.501 124.14 127.409 127.042 128.094C129.945 128.779 132.853 126.981 133.538 124.079Z" fill="#B2552D"/>
<path d="M133.692 122.846C133.692 121.778 133.375 120.734 132.782 119.846C132.189 118.958 131.345 118.266 130.359 117.858C129.372 117.449 128.286 117.342 127.239 117.55C126.192 117.759 125.229 118.273 124.474 119.028C123.719 119.783 123.205 120.745 122.997 121.793C122.788 122.84 122.895 123.926 123.304 124.912C123.713 125.899 124.405 126.742 125.293 127.336C126.18 127.929 127.224 128.246 128.292 128.246C129.002 128.248 129.705 128.11 130.362 127.84C131.018 127.569 131.614 127.172 132.116 126.67C132.618 126.168 133.016 125.572 133.286 124.915C133.557 124.259 133.694 123.556 133.692 122.846V122.846Z" fill="#D46327"/>
<path d="M128.292 109.383V116.489" stroke="white" stroke-width="2" stroke-linecap="round" stroke-linejoin="round"/>
<path d="M128.099 150.691C128.014 149.908 117.591 151.04 118.839 150.639C120.087 150.238 132.535 145.867 131.435 145.311C130.336 144.754 115.767 146.888 117.907 146.08C120.048 145.272 134.022 139.536 132.994 138.495C131.965 137.454 116.077 143.668 117.254 142.698C118.431 141.728 131.713 133.522 130.892 132.759C130.071 131.996 123.087 135.533 121.354 136.561C119.621 137.59 107.684 142.174 106.966 141.638C106.248 141.101 107.154 139.782 108.958 137.24C110.762 134.699 110.833 132.067 110.367 130.696C109.721 128.821 108.104 130.05 105.459 134.576C103.836 137.383 101.017 139.749 97.6996 142.562C95.113 144.748 94.4664 149.624 94.3112 151.654C83.0854 153.077 62.3473 155.321 58.5257 154.545C56.6827 154.17 56.0813 135.643 56.4952 125.446C57.103 110.534 55.4347 104.843 45.6574 107.404C38.2662 109.344 34.2375 117.013 36.6431 145.821C38.195 164.393 44.9784 176.388 50.3003 177.727C54.5552 178.8 83.3763 168.396 98.6631 162.246C101.295 161.6 107.794 158.774 113.349 156.685C118.903 154.596 128.234 151.855 128.099 150.691Z" fill="#FFB48C"/>
<path d="M58.6485 146.287C59.2434 145.285 61.3192 103.084 45.7156 98.8941C41.7673 100.922 38.7554 104.397 37.3091 108.594C34.7225 116.095 25.4496 137.926 25.8829 140.053C26.3161 142.181 37.0893 147.567 52.182 147.348C55.1954 147.36 58.0019 147.36 58.6485 146.287Z" fill="#969269"/>
<path d="M26.0769 138.682C26.0769 138.682 37.1411 145.518 58.8684 144.573" stroke="#514D27" stroke-width="0.75" stroke-linecap="round" stroke-linejoin="round"/>
</svg>
