<svg width="128" height="92" viewBox="0 0 128 92" fill="none" xmlns="http://www.w3.org/2000/svg">
<path d="M106.962 91.1307H20.447C16.9564 91.1307 14.0025 88.3494 13.5333 84.6261L7.37402 35.348H120.035L113.876 84.6261C113.407 88.3532 110.453 91.1307 106.962 91.1307Z" fill="url(#paint0_linear_102_513)"/>
<path d="M119.492 44.4723H7.91868C3.92133 44.4723 0.682156 41.2332 0.682156 37.2358L0.00279485 29.4813C-0.0347389 29.0422 0.310574 28.6669 0.749719 28.6669H126.657C127.096 28.6669 127.441 29.046 127.404 29.4813L126.724 37.2358C126.728 41.2332 123.489 44.4723 119.492 44.4723Z" fill="url(#paint1_linear_102_513)"/>
<path d="M63.7052 82.3515C61.8886 82.3515 60.4172 80.8802 60.4172 79.0673V56.4456C60.4172 54.6328 61.8886 53.1614 63.7014 53.1614H63.7052C65.5181 53.1614 66.9894 54.6328 66.9894 56.4456V79.0673C66.9894 80.8802 65.5181 82.3515 63.7052 82.3515Z" fill="white"/>
<path d="M50.0956 82.3515C48.2865 82.5129 46.6913 81.1805 46.5299 79.3751L44.5106 56.8435C44.3492 55.0382 45.6816 53.443 47.487 53.2778H47.4907C49.2961 53.1164 50.8913 54.4489 51.0565 56.2543L53.0758 78.7858C53.2334 80.5949 51.901 82.1901 50.0956 82.3515Z" fill="white"/>
<path d="M35.059 82.3515C33.2649 82.6293 31.5834 81.4057 31.3056 79.6116L27.8225 57.2602C27.5448 55.4698 28.7684 53.7883 30.5625 53.5106H30.5662C32.3566 53.2328 34.0381 54.4564 34.3159 56.2505L37.799 78.6019C38.0767 80.3923 36.8531 82.0738 35.059 82.3515Z" fill="white"/>
<path d="M78.0991 82.3515C79.9082 82.5129 81.5034 81.1805 81.6648 79.3751L83.6841 56.8435C83.8455 55.0382 82.5131 53.443 80.7077 53.2778H80.704C78.8986 53.1164 77.3034 54.4489 77.1382 56.2543L75.1189 78.7858C74.9575 80.5949 76.2937 82.1901 78.0991 82.3515Z" fill="white"/>
<path d="M93.132 82.3515C94.9261 82.6293 96.6076 81.4057 96.8854 79.6116L100.368 57.2602C100.646 55.4698 99.4226 53.7883 97.6285 53.5106H97.6248C95.8344 53.2328 94.1529 54.4564 93.8751 56.2505L90.392 78.6019C90.1142 80.3923 91.3416 82.0738 93.132 82.3515Z" fill="white"/>
<path d="M31.5459 40.5088C28.5995 38.7335 27.7325 34.8562 29.6504 31.9962L49.8173 1.89404C51.086 0.0023401 53.6158 -0.564422 55.5675 0.61414C57.5193 1.78895 58.2061 4.2887 57.1252 6.29676L39.9572 38.2042C38.3245 41.2295 34.4923 42.2804 31.5459 40.5088Z" fill="url(#paint2_linear_102_513)"/>
<path d="M34.9088 37.2509C36.0655 37.2509 37.0032 36.3132 37.0032 35.1565C37.0032 33.9998 36.0655 33.0621 34.9088 33.0621C33.7521 33.0621 32.8145 33.9998 32.8145 35.1565C32.8145 36.3132 33.7521 37.2509 34.9088 37.2509Z" fill="white"/>
<path d="M99.0465 40.5088C101.993 38.7335 102.86 34.8562 100.942 31.9962L80.775 1.89404C79.5064 0.0023401 76.9766 -0.564422 75.0248 0.61414C73.0731 1.78895 72.3862 4.2887 73.4672 6.29676L90.6351 38.2042C92.2679 41.2295 96.1001 42.2804 99.0465 40.5088Z" fill="url(#paint3_linear_102_513)"/>
<path d="M95.6872 37.2509C96.8439 37.2509 97.7815 36.3132 97.7815 35.1565C97.7815 33.9998 96.8439 33.0621 95.6872 33.0621C94.5305 33.0621 93.5928 33.9998 93.5928 35.1565C93.5928 36.3132 94.5305 37.2509 95.6872 37.2509Z" fill="white"/>
<defs>
<linearGradient id="paint0_linear_102_513" x1="-77.4042" y1="18.3475" x2="196.098" y2="78.562" gradientUnits="userSpaceOnUse">
<stop stop-color="#B8C5E0"/>
<stop offset="0.9964" stop-color="#C9D8E8"/>
</linearGradient>
<linearGradient id="paint1_linear_102_513" x1="-0.549525" y1="28.6669" x2="26.9305" y2="84.6765" gradientUnits="userSpaceOnUse">
<stop stop-color="#81A8FB"/>
<stop offset="1" stop-color="#4F84F7"/>
</linearGradient>
<linearGradient id="paint2_linear_102_513" x1="43.1326" y1="0" x2="43.1326" y2="41.3711" gradientUnits="userSpaceOnUse">
<stop stop-color="#FFB52E"/>
<stop offset="1" stop-color="#E69603"/>
</linearGradient>
<linearGradient id="paint3_linear_102_513" x1="87.4598" y1="0" x2="87.4598" y2="41.3711" gradientUnits="userSpaceOnUse">
<stop stop-color="#FFB52E"/>
<stop offset="1" stop-color="#E69603"/>
</linearGradient>
</defs>
</svg>
