<svg width="203" height="231" viewBox="0 0 203 231" fill="none" xmlns="http://www.w3.org/2000/svg">
<g filter="url(#filter0_d_102_119)">
<path d="M91.1775 93.2638C118.561 89.7849 143.58 109.163 147.059 136.547C148.541 148.214 145.87 159.457 140.195 168.783L148.505 188.297C149.426 190.456 147.346 192.676 145.137 191.912L124.596 184.834C118.503 188.78 111.455 191.46 103.769 192.437C76.3854 195.916 51.3667 176.538 47.8878 149.154C44.4088 121.77 63.7861 96.7437 91.1775 93.2638Z" fill="white"/>
</g>
<path d="M123.538 143.628L123.535 143.596L123.535 143.564C123.492 140.467 120.98 137.83 117.692 137.876C114.6 137.92 111.965 140.432 112.011 143.725C112.054 146.823 114.566 149.459 117.854 149.413C121.202 149.366 123.779 146.615 123.538 143.628Z" fill="url(#paint0_linear_102_119)" stroke="url(#paint1_linear_102_119)" stroke-width="1.92301"/>
<path d="M96.7161 150.671C92.8742 150.724 89.949 147.64 89.8986 144.035C89.8448 140.189 92.9261 137.261 96.5279 137.211C100.37 137.157 103.295 140.241 103.345 143.847C103.636 147.449 100.558 150.617 96.7161 150.671Z" fill="url(#paint2_linear_102_119)"/>
<path d="M81.236 144.22L81.2334 144.188L81.233 144.156C81.1897 141.058 78.6782 138.422 75.3904 138.468C72.2979 138.511 69.663 141.024 69.7091 144.317C69.7524 147.415 72.2639 150.051 75.5517 150.005C78.8999 149.958 81.477 147.207 81.236 144.22Z" fill="url(#paint3_linear_102_119)" stroke="url(#paint4_linear_102_119)" stroke-width="1.92301"/>
<path opacity="0.3" d="M179.669 15.4042L131.219 23.2587C130.722 23.3399 130.545 23.961 130.918 24.2955L141.381 33.7123C141.562 33.8747 141.825 33.9129 142.045 33.803L142.012 33.8222C141.811 33.9225 141.682 34.1231 141.677 34.3525L141.472 47.1423C141.462 47.6583 142.069 47.945 142.461 47.6058L151.973 39.5267L163.975 50.2622C164.28 50.5345 164.758 50.4294 164.925 50.0567L179.856 15.968C180.161 15.8151 180.008 15.3469 179.669 15.4042Z" fill="url(#paint5_linear_102_119)"/>
<path d="M136.41 38.6452C128.259 41.9466 110.876 51.0698 117.048 64.4827C124.762 81.2487 141.85 73.3248 138.568 63.1468C134.644 50.976 106.932 55.7639 109.733 73.6543C111.973 87.9666 96.6623 77.813 92.5035 94.4481" stroke="url(#paint6_linear_102_119)" stroke-width="2.37644" stroke-dasharray="2.38 2.38"/>
<path d="M142.306 38.1884L142.304 38.1899C142.068 38.3942 141.705 38.2249 141.71 37.9114L141.71 37.9109L141.916 25.1222C141.916 25.122 141.916 25.1219 141.916 25.1217C141.919 24.9817 141.997 24.8615 142.118 24.8007C142.118 24.8006 142.118 24.8006 142.118 24.8006L177.614 7.26775C177.614 7.26763 177.614 7.26751 177.615 7.26739C177.994 7.08432 178.326 7.58988 178.009 7.86525C178.008 7.86546 178.008 7.86566 178.008 7.86587L142.306 38.1884ZM141.472 37.9071L141.472 37.9071L141.472 37.9071Z" fill="url(#paint7_linear_102_119)" stroke="white" stroke-width="0.477768"/>
<path d="M151.806 29.2165L179.479 6.45081C179.674 6.28837 179.952 6.50337 179.851 6.73269L164.921 40.8215C164.759 41.1941 164.276 41.2992 163.975 41.0269L151.787 30.1242C151.51 29.8806 151.52 29.4506 151.806 29.2165Z" fill="url(#paint8_linear_102_119)"/>
<path d="M131.219 14.0282L179.669 6.16896C180.008 6.11163 180.161 6.57984 179.851 6.73273L142.045 24.5726C141.825 24.6825 141.562 24.6443 141.381 24.4818L130.918 15.065C130.545 14.7258 130.722 14.1095 131.219 14.0282Z" fill="url(#paint9_linear_102_119)"/>
<path d="M55.244 106.763C31.1585 103.704 9.15324 120.748 6.09331 144.833C4.78963 155.095 7.13924 164.984 12.13 173.187L4.82158 190.35C4.01133 192.249 5.84042 194.202 7.78361 193.53L25.8505 187.304C31.2093 190.775 37.4088 193.133 44.169 193.992C68.2544 197.051 90.2597 180.007 93.3196 155.922C96.3796 131.836 79.3362 109.824 55.244 106.763Z" fill="url(#paint10_linear_102_119)"/>
<path d="M37.4358 150.049C33.3542 150.049 29.9256 147.437 28.6194 143.683C28.2929 142.867 28.7827 142.051 29.599 141.725C30.4154 141.398 31.2317 141.888 31.5582 142.704C32.3746 145.152 34.8236 146.948 37.4358 146.948C40.0481 146.948 42.4971 145.316 43.3135 142.704C43.64 141.888 44.4563 141.398 45.2727 141.725C46.089 142.051 46.5788 142.867 46.2523 143.683C44.9461 147.601 41.5175 150.049 37.4358 150.049Z" fill="#F5FBFF"/>
<path d="M62.0891 150.049C58.0074 150.049 54.5788 147.437 53.2727 143.683C52.9461 142.867 53.4359 142.051 54.2523 141.725C55.0686 141.398 55.8849 141.888 56.2115 142.704C57.0278 145.152 59.4768 146.948 62.0891 146.948C64.7013 146.948 67.1503 145.316 67.9667 142.704C68.2932 141.888 69.1095 141.398 69.9259 141.725C70.7422 142.051 71.232 142.867 70.9055 143.683C69.5994 147.601 66.1707 150.049 62.0891 150.049Z" fill="#F5FBFF"/>
<path d="M49.8438 170.033C51.9177 170.033 53.5989 168.352 53.5989 166.279C53.5989 164.206 51.9177 162.525 49.8438 162.525C47.7699 162.525 46.0886 164.206 46.0886 166.279C46.0886 168.352 47.7699 170.033 49.8438 170.033Z" fill="#F5FBFF"/>
<defs>
<filter id="filter0_d_102_119" x="9.65765" y="65.8412" width="166.09" height="164.826" filterUnits="userSpaceOnUse" color-interpolation-filters="sRGB">
<feFlood flood-opacity="0" result="BackgroundImageFix"/>
<feColorMatrix in="SourceAlpha" type="matrix" values="0 0 0 0 0 0 0 0 0 0 0 0 0 0 0 0 0 0 127 0" result="hardAlpha"/>
<feOffset dx="-5.40374" dy="5.40374"/>
<feGaussianBlur stdDeviation="16.2112"/>
<feComposite in2="hardAlpha" operator="out"/>
<feColorMatrix type="matrix" values="0 0 0 0 0.67451 0 0 0 0 0.721569 0 0 0 0 0.792157 0 0 0 0.5 0"/>
<feBlend mode="normal" in2="BackgroundImageFix" result="effect1_dropShadow_102_119"/>
<feBlend mode="normal" in="SourceGraphic" in2="effect1_dropShadow_102_119" result="shape"/>
</filter>
<linearGradient id="paint0_linear_102_119" x1="117.685" y1="136.915" x2="117.874" y2="150.375" gradientUnits="userSpaceOnUse">
<stop stop-color="#FFB52E"/>
<stop offset="1" stop-color="#E69603"/>
</linearGradient>
<linearGradient id="paint1_linear_102_119" x1="117.685" y1="136.915" x2="117.874" y2="150.375" gradientUnits="userSpaceOnUse">
<stop stop-color="#FFB52E"/>
<stop offset="1" stop-color="#E69603"/>
</linearGradient>
<linearGradient id="paint2_linear_102_119" x1="113.335" y1="132.873" x2="79.53" y2="137.037" gradientUnits="userSpaceOnUse">
<stop stop-color="#B8C5E0"/>
<stop offset="0.9964" stop-color="#C9D8E8"/>
</linearGradient>
<linearGradient id="paint3_linear_102_119" x1="75.3834" y1="137.507" x2="75.5716" y2="150.966" gradientUnits="userSpaceOnUse">
<stop stop-color="#FFB52E"/>
<stop offset="1" stop-color="#E69603"/>
</linearGradient>
<linearGradient id="paint4_linear_102_119" x1="75.3834" y1="137.507" x2="75.5716" y2="150.966" gradientUnits="userSpaceOnUse">
<stop stop-color="#FFB52E"/>
<stop offset="1" stop-color="#E69603"/>
</linearGradient>
<linearGradient id="paint5_linear_102_119" x1="93.618" y1="4.72788" x2="220.354" y2="27.587" gradientUnits="userSpaceOnUse">
<stop stop-color="#C5D2EC"/>
<stop offset="0.9964" stop-color="#F1F7FE"/>
</linearGradient>
<linearGradient id="paint6_linear_102_119" x1="95.1525" y1="94.669" x2="129.546" y2="113.407" gradientUnits="userSpaceOnUse">
<stop stop-color="#B0BBCC"/>
<stop offset="1" stop-color="#8D9EB7"/>
</linearGradient>
<linearGradient id="paint7_linear_102_119" x1="113.7" y1="-2.62201" x2="206.131" y2="9.17119" gradientUnits="userSpaceOnUse">
<stop stop-color="#B8C5E0"/>
<stop offset="0.9964" stop-color="#C9D8E8"/>
</linearGradient>
<linearGradient id="paint8_linear_102_119" x1="130.299" y1="-4.20735" x2="204.573" y2="3.5299" gradientUnits="userSpaceOnUse">
<stop stop-color="#C5D2EC"/>
<stop offset="0.9964" stop-color="#F1F7FE"/>
</linearGradient>
<linearGradient id="paint9_linear_102_119" x1="93.6189" y1="0.534901" x2="210.778" y2="40.5939" gradientUnits="userSpaceOnUse">
<stop stop-color="#C5D2EC"/>
<stop offset="0.9964" stop-color="#F1F7FE"/>
</linearGradient>
<linearGradient id="paint10_linear_102_119" x1="11.2575" y1="101.175" x2="100.107" y2="134.894" gradientUnits="userSpaceOnUse">
<stop stop-color="#81A8FB"/>
<stop offset="1" stop-color="#4F84F7"/>
</linearGradient>
</defs>
</svg>
