<svg width="147" height="119" viewBox="0 0 147 119" fill="none" xmlns="http://www.w3.org/2000/svg">
<path d="M61.0285 12.7525C58.5301 13.8908 55.5832 12.7863 54.4498 10.2927L53.2006 7.55319C52.0623 5.05479 53.1668 2.10785 55.6604 0.97441C58.1588 -0.163854 61.1057 0.940637 62.2392 3.43421L63.4884 6.17377C64.6266 8.66734 63.5269 11.6143 61.0285 12.7525Z" fill="url(#paint0_linear_109_503)"/>
<path d="M54.1988 90.7092C54.1988 90.7092 45.9078 49.9101 44.8949 45.1448C36.7824 7.02745 72.821 -8.38735 96.0638 21.8297C99.0107 25.6641 124.342 58.751 124.342 58.751L54.1988 90.7092Z" fill="url(#paint1_linear_109_503)"/>
<path d="M50.5957 104.47C50.5957 104.47 49.2259 93.1835 51.0539 91.0661C65.8079 73.9536 104.866 56.6095 126.676 56.6095C129.469 56.6095 137.089 65.0597 137.089 65.0597L50.5957 104.47Z" fill="url(#paint2_linear_109_503)"/>
<path d="M49.597 116.412C49.597 116.412 45.6806 106.283 47.7931 104.036C64.8526 85.8716 114.565 63.6755 138.603 62.6626C141.681 62.5324 146.759 72.145 146.759 72.145L49.597 116.412Z" fill="white"/>
<path d="M93.1942 83.349C120.025 71.1272 144.001 66.1063 146.75 72.1448C149.5 78.1834 129.98 92.9809 103.149 105.208C76.318 117.429 52.3421 122.45 49.5929 116.412C46.8485 110.373 66.3678 95.5709 93.1942 83.349Z" fill="url(#paint3_linear_109_503)"/>
<mask id="mask0_109_503" style="mask-type:alpha" maskUnits="userSpaceOnUse" x="49" y="69" width="97" height="50">
<path d="M92.7755 83.8492C119.119 71.5415 142.59 65.6347 145.418 71.4277C148.245 77.2206 129.185 91.8886 102.841 104.201C76.4975 116.509 52.8536 121.798 50.0261 116.005C47.2034 110.212 66.4367 96.1568 92.7755 83.8492Z" fill="url(#paint4_linear_109_503)"/>
</mask>
<g mask="url(#mask0_109_503)">
<path d="M95.5324 99.6062C102.972 99.6062 109.002 93.5756 109.002 86.1365C109.002 78.6973 102.972 72.6667 95.5324 72.6667C88.0932 72.6667 82.0626 78.6973 82.0626 86.1365C82.0626 93.5756 88.0932 99.6062 95.5324 99.6062Z" fill="url(#paint5_linear_109_503)"/>
</g>
<path d="M60.2412 54.4103H3.65112C1.63505 54.4103 0 52.7752 0 50.7591V35.0067C0 32.9906 1.63505 31.3556 3.65112 31.3556H60.2412C62.2573 31.3556 63.8923 32.9906 63.8923 35.0067V50.7591C63.8875 52.7752 62.2573 54.4103 60.2412 54.4103Z" fill="url(#paint6_linear_109_503)"/>
<path d="M23.0352 40.4954H58.0272" stroke="white" stroke-width="1.77075" stroke-miterlimit="10" stroke-linecap="round"/>
<path d="M23.0352 46.7125H39.5352" stroke="white" stroke-width="1.77075" stroke-miterlimit="10" stroke-linecap="round"/>
<path d="M11.2326 47.9666C13.6593 47.9666 15.6265 45.9994 15.6265 43.5727C15.6265 41.146 13.6593 39.1788 11.2326 39.1788C8.80595 39.1788 6.83875 41.146 6.83875 43.5727C6.83875 45.9994 8.80595 47.9666 11.2326 47.9666Z" fill="white"/>
<defs>
<linearGradient id="paint0_linear_109_503" x1="44.3353" y1="-3.33674" x2="72.5442" y2="-0.62309" gradientUnits="userSpaceOnUse">
<stop stop-color="#B8C5E0"/>
<stop offset="0.9964" stop-color="#C9D8E8"/>
</linearGradient>
<linearGradient id="paint1_linear_109_503" x1="-16.9338" y1="-19.9924" x2="193.909" y2="5.67024" gradientUnits="userSpaceOnUse">
<stop stop-color="#C5D2EC"/>
<stop offset="0.9964" stop-color="#F1F7FE"/>
</linearGradient>
<linearGradient id="paint2_linear_109_503" x1="49.7277" y1="56.6095" x2="129.569" y2="93.3011" gradientUnits="userSpaceOnUse">
<stop stop-color="#81A8FB"/>
<stop offset="1" stop-color="#4F84F7"/>
</linearGradient>
<linearGradient id="paint3_linear_109_503" x1="-24.164" y1="54.5375" x2="213.401" y2="105.759" gradientUnits="userSpaceOnUse">
<stop stop-color="#B8C5E0"/>
<stop offset="0.9964" stop-color="#C9D8E8"/>
</linearGradient>
<linearGradient id="paint4_linear_109_503" x1="-24.0634" y1="57.6235" x2="211.486" y2="105.238" gradientUnits="userSpaceOnUse">
<stop stop-color="#B8C5E0"/>
<stop offset="0.9964" stop-color="#C9D8E8"/>
</linearGradient>
<linearGradient id="paint5_linear_109_503" x1="81.9464" y1="72.6667" x2="110.096" y2="79.7842" gradientUnits="userSpaceOnUse">
<stop stop-color="#81A8FB"/>
<stop offset="1" stop-color="#4F84F7"/>
</linearGradient>
<linearGradient id="paint6_linear_109_503" x1="31.9462" y1="31.3556" x2="31.9462" y2="54.4103" gradientUnits="userSpaceOnUse">
<stop stop-color="#FFB52E"/>
<stop offset="1" stop-color="#E69603"/>
</linearGradient>
</defs>
</svg>
