<svg width="80" height="21" viewBox="0 0 80 21" fill="none" xmlns="http://www.w3.org/2000/svg">
<path d="M1.87494 12.8132H2.73968C3.23327 12.8132 3.63195 12.8525 4.07162 13.3601C4.38271 13.7111 4.72468 14.4865 4.72468 15.741C4.72468 16.1913 4.72797 16.6372 4.6427 17.0954C4.5057 17.8181 4.17214 18.9765 2.26464 18.9765C1.75421 18.9765 1.87494 18.9633 1.87494 18.9633V12.814V12.8132ZM2.85592 20.0457C5.42322 20.0457 6.57266 18.9001 6.57266 15.7713C6.57266 14.9442 6.32951 13.5578 5.55911 12.7121C4.7623 11.844 3.7319 11.7356 2.86153 11.7356H0V20.0457H2.85592V20.0457Z" fill="#046148"/>
<path d="M10.9585 17.8932C10.9585 18.1684 10.9506 18.5379 10.6587 18.8023C10.4138 19.0179 10.0691 19.0343 9.93768 19.0343C9.612 19.0343 9.31887 18.9158 9.19533 18.5132C9.16446 18.3863 9.15206 18.2583 9.15206 18.1358C9.15206 17.5288 9.55468 17.2733 10.0022 17.1644C10.2368 17.11 10.3947 17.0997 10.9585 17.0528V17.8934L10.9585 17.8932ZM10.9585 16.3035L10.023 16.3956C9.0151 16.5112 8.62933 16.6033 8.19807 16.8898C7.50177 17.3632 7.4928 18.0555 7.4928 18.2829C7.4928 18.8506 7.6651 19.2779 7.89991 19.5239C8.20929 19.8844 8.69951 20.0164 9.17288 20.0164C10.3336 20.0164 10.8872 19.4891 10.8872 19.4891L10.8952 19.8642H12.4601V15.9329C12.4601 15.4904 12.4707 14.8683 11.9632 14.428C11.6976 14.2006 11.4651 14.0956 11.1057 14.0445C10.7486 13.9804 10.6245 13.9545 10.2763 13.9545C9.22069 13.9545 8.42444 14.1403 7.97073 14.9479C7.776 15.2977 7.78602 15.6487 7.78602 15.9171H9.22072C9.23392 15.683 9.24445 15.3589 9.42732 15.1337C9.51993 15.0058 9.73672 14.8232 10.1382 14.8232C10.2691 14.8232 10.6492 14.8232 10.8429 15.1399C10.9509 15.327 10.9598 15.5701 10.9598 15.8458V16.3034L10.9585 16.3035Z" fill="#046148"/>
<path d="M23.4174 17.8932C23.4174 18.1684 23.4095 18.5379 23.1153 18.8023C22.8768 19.0179 22.5307 19.0343 22.3909 19.0343C22.0675 19.0343 21.7789 18.9158 21.6537 18.5132C21.6223 18.3863 21.6133 18.2583 21.6133 18.1358C21.6133 17.5288 22.0136 17.2733 22.4634 17.1644C22.698 17.11 22.8542 17.0997 23.4175 17.0528V17.8934L23.4174 17.8932ZM23.4174 16.3035L22.4858 16.3956C21.4717 16.5112 21.0916 16.6033 20.6575 16.8898C19.9652 17.3632 19.9545 18.0555 19.9545 18.2829C19.9545 18.8506 20.1217 19.2779 20.3543 19.5239C20.6682 19.8844 21.1612 20.0164 21.6323 20.0164C22.7958 20.0164 23.3483 19.4891 23.3483 19.4891L23.3563 19.8642H24.9156V15.9329C24.9156 15.4904 24.9288 14.8683 24.4243 14.428C24.1587 14.2006 23.9217 14.0956 23.5668 14.0445C23.208 13.9804 23.0856 13.9545 22.7352 13.9545C21.6801 13.9545 20.8855 14.1403 20.429 14.9479C20.237 15.2977 20.2494 15.6487 20.2494 15.9171H21.6801C21.6933 15.683 21.7038 15.3589 21.8872 15.1337C21.9788 15.0058 22.1955 14.8232 22.5976 14.8232C22.7285 14.8232 23.108 14.8232 23.3068 15.1399C23.4094 15.327 23.4184 15.5701 23.4184 15.8458V16.3034L23.4174 16.3035Z" fill="#046148"/>
<path d="M46.9939 19.8641H45.361V16.3456C45.361 16.1205 45.361 15.9329 45.3425 15.7414C45.3267 15.5572 45.2739 14.9598 44.562 14.9598C44.3734 14.9598 44.2133 15.0065 44.1111 15.0497C43.6299 15.2703 43.6176 15.6612 43.6058 15.9718V19.8643H41.9695V14.1064H43.6058V14.7611C44.0168 14.3933 44.3885 13.9907 45.3066 13.9907C46.0776 13.9907 46.4594 14.2894 46.6172 14.4742C46.9805 14.8824 46.9805 15.4119 46.9945 15.8247V19.8643L46.9939 19.8641Z" fill="#046148"/>
<path d="M18.7531 19.8641H17.1213V16.3456C17.1213 16.1205 17.1213 15.9329 17.0944 15.7414C17.0838 15.5572 17.0281 14.9598 16.3122 14.9598C16.1296 14.9598 15.9696 15.0065 15.8674 15.0497C15.3851 15.2703 15.371 15.6612 15.3576 15.9718V19.8643H13.7224V14.1064H15.3576V14.7611C15.7765 14.3933 16.1437 13.9907 17.0607 13.9907C17.8362 13.9907 18.2112 14.2894 18.3735 14.4742C18.7402 14.8824 18.7402 15.4119 18.7531 15.8247V19.8643L18.7531 19.8641Z" fill="#046148"/>
<path d="M26.1154 14.1036H27.75V14.7734C28.0639 14.4933 28.6175 13.9856 29.5991 13.9856C30.7221 13.9856 31.0343 14.6561 31.1107 14.8773C31.7795 14.2304 32.2192 13.9856 32.8599 13.9856C33.1737 13.9856 33.3888 14.0368 33.5966 14.1126C34.4771 14.4506 34.4961 15.2334 34.5124 15.741V19.8604H32.8492V16.1082C32.8413 15.7005 32.8281 15.4698 32.7223 15.2889C32.7012 15.2422 32.5386 14.9554 32.1254 14.9554C31.9855 14.9554 31.7188 14.9892 31.5936 15.058C31.136 15.2765 31.1186 15.6566 31.1107 15.9649V19.8602H29.4901V16.1323C29.4901 15.6892 29.4954 14.9553 28.7574 14.9553C28.5906 14.9553 28.3003 15.0025 28.1571 15.0817C27.75 15.3326 27.7387 15.7005 27.75 16.2126V19.8603H26.1154V14.1035V14.1036Z" fill="#046148"/>
<path d="M39.3398 16.8607C39.3398 17.1876 39.3266 17.5015 39.2926 17.8181C39.2583 18.136 39.2026 18.775 38.7131 19.0434C38.5722 19.1107 38.4239 19.146 38.2718 19.146C37.3447 19.146 37.261 18.1735 37.2419 17.818C37.2208 17.553 37.2042 17.2936 37.2042 17.0358C37.2042 16.8055 37.22 16.4855 37.2535 16.1082C37.2868 15.8033 37.3546 15.2199 37.8263 14.9442C37.9875 14.8626 38.1424 14.8291 38.3227 14.8291C39.2026 14.8291 39.2823 15.7523 39.3031 16.1083C39.3268 16.3605 39.3395 16.6142 39.3395 16.8607L39.3398 16.8607ZM41.0067 16.89C41.0067 16.379 41.0067 15.4227 40.4384 14.7736C39.7528 13.9549 38.7712 13.9549 38.4237 13.9549C38.0205 13.9549 37.0934 13.9707 36.3657 14.631C35.5425 15.3649 35.5425 16.5368 35.5425 17.1298C35.5425 18.2551 35.7963 19.4449 37.2197 19.8605C37.6342 19.9869 37.8543 20.0093 38.2715 20.0093C38.6617 20.0093 39.6377 20.0093 40.3626 19.2035C41.0067 18.4904 41.0067 17.4212 41.0067 16.89" fill="#046148"/>
<path d="M12.6459 5.87036H27.7711L14.3563 1.75583L12.6459 2.67473L6.8407 4.17271L12.6459 5.87036Z" fill="#EF9826"/>
<path d="M0 -8.90692e-05V5.87012H12.6478V2.67447L0 -8.90692e-05V-8.90692e-05Z" fill="#EB712D"/>
<path d="M27.7776 5.87036L12.6461 0.000184124L12.6485 2.67473L27.7777 5.87036H27.7776Z" fill="#FEC02B"/>
<path d="M79.92 16.905V5.86652H59.5478L55.3135 8.91916L59.5478 12.5975L79.92 16.905Z" fill="#EF9826"/>
<path d="M59.5477 12.5977L54.0099 7.82321L27.7793 5.87449L59.5477 16.9119V12.5977Z" fill="#FEC02B"/>
<path d="M27.7726 5.86642V5.87168L59.5477 12.5959V5.86775H27.7726V5.86642Z" fill="#EB712D"/>
</svg>
