<svg width="80" height="43" viewBox="0 0 80 43" fill="none" xmlns="http://www.w3.org/2000/svg">
<path fill-rule="evenodd" clip-rule="evenodd" d="M51.6182 41.6448C51.6265 41.4924 51.6352 41.2482 51.6431 40.9134V34.493L51.6223 33.8701C51.6172 33.7376 51.6108 33.6475 51.6043 33.6004C51.5974 33.5506 51.5868 33.5076 51.572 33.4679C51.524 33.3095 51.4173 33.1978 51.2571 33.1308C51.1093 33.0685 50.8909 33.0385 50.6074 33.0362V32.8178H54.2738C54.8066 32.8187 55.2883 32.8533 55.7182 32.9226C56.1476 32.9914 56.4935 33.0865 56.7581 33.2075C57.5246 33.5709 57.9032 34.1827 57.8991 35.0532C57.9078 36.2971 57.0896 37.0918 55.3959 37.2964L55.1119 37.3421C55.4928 37.356 56.0082 37.483 56.2478 37.5384C56.4856 37.5933 56.7188 37.6806 56.9474 37.7997C57.8464 38.2513 58.2893 38.9735 58.2805 39.9723C58.2851 41.1854 57.6936 41.9741 56.493 42.3467C56.2307 42.4215 55.9019 42.4806 55.5044 42.5236C55.1054 42.5665 54.6723 42.5887 54.2054 42.5896H50.6074V42.3707C51.0308 42.3656 51.3222 42.301 51.451 42.1491C51.505 42.0974 51.5434 42.0406 51.5688 41.9755C51.5946 41.9094 51.6099 41.7968 51.6182 41.6448ZM52.7476 33.1179V37.1925H54.1782C55.8419 37.1828 56.7036 36.4915 56.7128 35.1076C56.7243 33.7644 55.8161 33.1087 54.0554 33.1179H52.7476V33.1179ZM56.9991 39.8633C56.9899 38.9135 56.6463 38.2421 55.9615 37.8667C55.7537 37.7605 55.4896 37.6787 55.1724 37.621C54.8556 37.5638 54.506 37.5347 54.1237 37.5333H52.7476V42.289H54.1237C55.1206 42.2936 55.8493 42.1075 56.2981 41.7173C56.5258 41.5303 56.6985 41.2763 56.8185 40.9577C56.9381 40.6391 56.9977 40.2734 56.9991 39.8633" fill="#3A3A3A"/>
<path d="M63.528 42.3108C63.4536 42.1635 63.4015 41.9885 63.3788 41.541L63.3724 41.4085L63.2842 41.5078C63.1793 41.6265 63.0764 41.729 62.9757 41.8162C62.8746 41.9044 62.7573 41.9945 62.6257 42.0859C62.3362 42.2983 62.0573 42.4479 61.7899 42.5352C61.5225 42.622 61.221 42.6645 60.8853 42.6617C60.3007 42.664 59.8519 42.5255 59.5309 42.2526C59.3513 42.091 59.2105 41.8883 59.1075 41.6422C59.0045 41.3965 58.9519 41.1324 58.9496 40.8489C58.9565 39.8034 59.5984 39.1288 60.9112 38.83C61.2584 38.7497 61.6255 38.6836 62.0115 38.6319C62.399 38.5802 62.8376 38.5377 63.3285 38.5045L63.3788 37.5925C63.3797 37.2808 63.3645 37.0282 63.334 36.8357C63.3036 36.6408 63.2532 36.4709 63.1826 36.3273C62.9877 35.9477 62.5906 35.7658 62.0166 35.7658C61.0959 35.7611 60.5967 36.1994 60.545 37.0712C60.5394 37.2097 60.5265 37.3071 60.5085 37.3662C60.491 37.4216 60.4609 37.4627 60.4185 37.4928C60.327 37.5542 60.1811 37.5897 59.9715 37.592C59.5203 37.599 59.3513 37.4646 59.3587 37.2388C59.3615 37.0024 59.44 36.7738 59.5974 36.5535C59.7549 36.3323 59.9742 36.1402 60.2578 35.9763C60.7675 35.6937 61.4205 35.5497 62.2212 35.5473C63.0971 35.5497 63.6845 35.7482 64.0054 36.1273C64.1352 36.2871 64.2317 36.4843 64.2945 36.723C64.3568 36.9617 64.3887 37.2642 64.3882 37.6322L64.3869 37.7102L64.3799 38.0667L64.361 39.0083L64.3471 40.303L64.3338 40.9301C64.3347 41.2252 64.3471 41.4501 64.3675 41.7017C64.3878 41.9469 64.4755 42.2203 64.6718 42.2928C64.8763 42.3685 65.073 42.3985 65.4475 42.4008C65.7227 42.3953 65.9347 42.3639 66.0783 42.3029C66.2422 42.2332 66.3429 42.0855 66.3863 41.8758C66.4288 41.6713 66.4472 41.36 66.4426 40.9431V37.2887C66.4519 36.7913 66.3941 36.4413 66.2524 36.2585C66.1139 36.0798 65.8562 36.0026 65.502 36.0063V35.8124L67.4516 35.6702V37.2231L67.5532 37.0421C67.8418 36.5281 68.1692 36.1647 68.5335 35.9463C68.8978 35.7279 69.3545 35.6198 69.9045 35.6254C70.731 35.6143 71.3068 35.8914 71.6439 36.445C71.7672 36.6302 71.8573 36.8537 71.9108 37.115C71.9644 37.3769 71.9912 37.7116 71.9898 38.1194V40.9431C71.9847 41.3642 72.0023 41.6777 72.0429 41.8814C72.0845 42.091 72.1842 42.2383 72.3486 42.3062C72.4843 42.3621 72.8011 42.3925 73.0712 42.3999C73.3243 42.3921 73.5201 42.3611 73.654 42.3025C73.8138 42.2328 73.9103 42.0845 73.9514 41.8749C73.9911 41.6713 74.0082 41.3596 74.0031 40.9431V34.3038C74.0082 33.9233 73.9925 33.6412 73.9541 33.4592C73.9144 33.2695 73.8165 33.1388 73.6563 33.0825C73.5173 33.0335 73.3091 33.0104 73.0357 33.0095V32.8151L75.0633 32.7117C75.0379 33.1619 75.0185 33.6223 75.0056 34.0928C74.9917 34.5841 74.9853 35.0131 74.9853 35.3802V39.8404L77.2193 37.3926C77.5351 37.0425 77.7078 36.7484 77.7101 36.5129C77.7263 36.185 77.3952 36.0368 76.8517 36.0096V35.8161H79.7548V36.0128C79.5803 36.0331 79.4284 36.065 79.2995 36.1093C79.1591 36.1569 79.0151 36.2261 78.8682 36.3148C78.7191 36.4048 78.5944 36.4875 78.4933 36.5628C78.3903 36.6399 78.2689 36.7493 78.1289 36.8915C77.989 37.0333 77.7868 37.2485 77.5208 37.5375L76.7834 38.3313L78.7135 41.3674C78.9338 41.7271 79.1365 41.9816 79.3226 42.1261C79.5004 42.2637 79.7271 42.3524 80 42.3944V42.5929H78.2347C78.1862 42.4941 78.1197 42.3662 78.0347 42.2092L77.754 41.6971L77.5393 41.3115L76.1106 38.9833L74.988 40.2393L74.9853 40.9431C74.9802 41.3596 74.9973 41.6713 75.0374 41.8754C75.079 42.085 75.1769 42.2332 75.339 42.3029C75.4807 42.3634 75.6918 42.3953 75.966 42.4008V42.5929H69.9996V42.4004C70.4036 42.3893 70.6812 42.3233 70.7924 42.176C70.8372 42.1187 70.8709 42.0536 70.8945 41.9806C70.9185 41.9072 70.9328 41.8126 70.9397 41.6971C70.9476 41.6057 70.9559 41.4741 70.9651 41.3009C70.9748 41.1273 70.9799 41.0077 70.9808 40.944V38.2016C70.9832 37.5251 70.9107 37.0245 70.7573 36.7064C70.5251 36.2058 70.1049 35.9551 69.5092 35.9528C68.8452 35.9505 68.3155 36.2668 67.923 36.8915C67.7753 37.1275 67.6608 37.3962 67.5781 37.6959C67.495 37.9965 67.453 38.2921 67.4516 38.583V40.9431C67.4465 41.3642 67.464 41.6777 67.5047 41.8814C67.5462 42.091 67.6455 42.2383 67.8099 42.3062C67.9535 42.3653 68.1673 42.3958 68.4462 42.4008V42.5929L65.5117 42.5925C65.2513 42.6012 64.7558 42.6146 64.5101 42.6114C64.2525 42.6077 64.1283 42.5805 63.8932 42.5629C63.6845 42.502 63.5968 42.4475 63.528 42.3108ZM60.068 40.8082C60.0731 41.2524 60.1811 41.6135 60.3968 41.886C60.6129 42.1598 60.9056 42.3002 61.2667 42.3071C61.6315 42.302 61.9764 42.2069 62.2992 42.0222C62.6211 41.8375 62.8746 41.5914 63.0584 41.2852C63.1706 41.0899 63.2523 40.8387 63.3036 40.5344C63.3544 40.2315 63.3797 39.8547 63.3788 39.4045V38.7049C62.7254 38.7612 62.2581 38.8226 61.9183 38.8947C61.5761 38.9672 61.2741 39.0706 61.0109 39.2059C60.3861 39.5162 60.0726 40.0542 60.068 40.8082Z" fill="#3A3A3A"/>
<path fill-rule="evenodd" clip-rule="evenodd" d="M2.65791 38.4759V40.9071C2.65283 41.2973 2.675 41.5868 2.72487 41.7757C2.7752 41.965 2.88325 42.0897 3.04995 42.1506C3.21665 42.212 3.47246 42.2462 3.8174 42.2531V42.5925H0V42.2531C0.325544 42.2462 0.566123 42.212 0.722199 42.1506C0.878275 42.0897 0.979401 41.965 1.02558 41.7757C1.07175 41.5868 1.09207 41.2973 1.08699 40.9071V34.5163C1.09207 34.1261 1.07175 33.8361 1.02742 33.6468C0.982634 33.4575 0.885663 33.3314 0.736514 33.2686C0.586902 33.2053 0.357867 33.1684 0.0480235 33.1568V32.817H3.68488C4.91086 32.8119 5.80853 33.0285 6.37927 33.4658C6.94955 33.9035 7.23122 34.5934 7.22476 35.5354C7.22845 36.8597 6.71312 37.7265 5.67831 38.136C5.40818 38.2418 5.0637 38.3244 4.64534 38.3845C4.22699 38.444 3.76199 38.4745 3.24989 38.4759H2.65791ZM2.65791 38.0968H3.28637C4.04136 38.0945 4.59686 37.9158 4.95334 37.5612C5.14728 37.3557 5.29412 37.0869 5.39433 36.754C5.49453 36.4215 5.54486 36.0415 5.54532 35.6139C5.54117 34.0042 4.83652 33.1984 3.43091 33.1961H2.65791V38.0968Z" fill="#3A3A3A"/>
<path fill-rule="evenodd" clip-rule="evenodd" d="M13.3709 38.8865H8.92877C8.93385 39.3602 8.96156 39.7578 9.01235 40.0787C9.06269 40.3992 9.14396 40.6924 9.2557 40.9579C9.62465 41.8177 10.1945 42.2472 10.9656 42.2472C11.4024 42.2449 11.7986 42.1165 12.1537 41.8616C12.5093 41.6067 12.8044 41.2405 13.0403 40.7621L13.3548 40.9709C13.0454 41.5864 12.6677 42.0385 12.2216 42.3271C11.7755 42.6157 11.2311 42.7583 10.5884 42.7556C9.57709 42.7426 8.64756 42.4194 8.06481 41.7868C7.48253 41.1537 7.18562 40.2865 7.17407 39.1861C7.18562 38.0774 7.47283 37.2006 8.03526 36.5546C8.59723 35.909 9.49536 35.5788 10.4628 35.5645C11.1065 35.5664 11.7275 35.7128 12.1685 36.0041C12.6095 36.296 12.9346 36.7226 13.1447 37.2841C13.213 37.4707 13.2647 37.684 13.3003 37.9241C13.3354 38.1643 13.3589 38.4852 13.3709 38.8865ZM8.94124 38.5087H11.7201C11.7091 38.107 11.6874 37.7833 11.6555 37.5381C11.6241 37.2929 11.5742 37.0736 11.5063 36.8806C11.2718 36.1962 10.9111 35.8577 10.4254 35.8642C9.88047 35.8688 9.47366 36.2507 9.20537 37.0108C9.13703 37.2075 9.08208 37.4231 9.04052 37.6572C8.99896 37.8914 8.96572 38.1753 8.94124 38.5087Z" fill="#3A3A3A"/>
<path d="M13.655 35.7511L16.119 35.5807C16.1319 35.8263 16.1421 36.0332 16.1485 36.1999C16.155 36.3671 16.1582 36.5148 16.1582 36.6423V37.0357C16.6934 36.0572 17.3399 35.5631 18.0981 35.5544C18.4255 35.5608 18.6915 35.6564 18.896 35.8411C19.1001 36.0258 19.2059 36.2627 19.2119 36.5508C19.2073 36.7905 19.1186 36.9826 18.9464 37.1271C18.7746 37.2721 18.5488 37.3465 18.2685 37.3502C17.9319 37.3608 17.7269 37.2213 17.6525 36.9309C17.604 36.7512 17.5537 36.6289 17.5015 36.5638C17.4498 36.4987 17.3731 36.4682 17.2725 36.4719H17.2462C16.9885 36.494 16.7438 36.6991 16.5124 37.0879C16.4076 37.2823 16.3286 37.4965 16.276 37.732C16.2238 37.9671 16.1975 38.2372 16.1975 38.5429V40.9676C16.1924 41.3546 16.2113 41.6399 16.2538 41.8233C16.2963 42.0066 16.3928 42.1266 16.5434 42.1834C16.6934 42.2398 16.928 42.2716 17.2462 42.2781V42.593H13.6028V42.2781C13.8998 42.2795 14.1196 42.2509 14.2627 42.1917C14.4059 42.1331 14.4987 42.0103 14.5416 41.8233C14.5841 41.6358 14.603 41.3509 14.5989 40.9676V37.3368C14.6109 36.7965 14.5568 36.4456 14.4363 36.2835C14.3163 36.1214 14.0554 36.0489 13.655 36.0655V35.7511Z" fill="#3A3A3A"/>
<path d="M22.1389 35.5811L22.1523 36.8787C22.6829 36.005 23.443 35.5636 24.4325 35.5548C25.4396 35.5483 26.0598 36.0069 26.2934 36.9313C26.5783 36.4553 26.9034 36.1062 27.2682 35.884C27.6335 35.6624 28.0597 35.5525 28.5478 35.5548C29.3189 35.5594 29.8869 35.8125 30.2517 36.3149C30.3944 36.5051 30.4955 36.7379 30.5564 37.0131C30.6169 37.2883 30.6465 37.6452 30.6446 38.0844V40.9676C30.6405 41.3509 30.6594 41.6358 30.7019 41.8228C30.7448 42.0103 30.8377 42.1331 30.9808 42.1917C31.1239 42.2509 31.3437 42.2795 31.6411 42.2781V42.593H28.0892V42.2781C28.3732 42.2795 28.5838 42.2509 28.7214 42.1917C28.859 42.1331 28.9486 42.0103 28.9901 41.8228C29.0317 41.6358 29.0502 41.3509 29.046 40.9676V38.0973C29.0488 37.4088 28.9643 36.9119 28.792 36.6067C28.6193 36.3015 28.3418 36.1519 27.9581 36.1579C27.4973 36.1491 27.1084 36.3892 26.7917 36.8787C26.5188 37.2874 26.383 37.7283 26.3853 38.2026V40.9676C26.3812 41.3509 26.3996 41.6358 26.4417 41.8228C26.4832 42.0103 26.5742 42.1331 26.7136 42.1917C26.8531 42.2509 27.0669 42.2795 27.355 42.2781V42.593H23.8429V42.2781C24.1268 42.2795 24.3379 42.2509 24.475 42.1917C24.6126 42.1331 24.7022 42.0103 24.7438 41.8228C24.7853 41.6358 24.8038 41.3509 24.7996 40.9676V38.0844C24.8061 36.7868 24.4524 36.1445 23.738 36.1579C23.2934 36.1736 22.9207 36.3846 22.6206 36.79C22.3204 37.1959 22.1643 37.7016 22.1523 38.3074V40.9676C22.1482 41.355 22.1667 41.6422 22.2082 41.8288C22.2493 42.0158 22.3389 42.1377 22.4765 42.195C22.6141 42.2522 22.8247 42.2799 23.1087 42.2781V42.593H19.5568V42.2781C19.8541 42.2799 20.0739 42.2522 20.2171 42.195C20.3602 42.1377 20.4535 42.0158 20.496 41.8288C20.5385 41.6422 20.5574 41.355 20.5532 40.9676V37.3243C20.5666 36.791 20.5135 36.4456 20.3926 36.2872C20.272 36.1292 20.0024 36.0554 19.5835 36.066V35.7515L22.1389 35.5811Z" fill="#3A3A3A"/>
<path d="M40.9591 36.1808V40.5583C40.9587 40.8432 40.9693 41.0792 40.9901 41.2657C41.0113 41.4523 41.0446 41.6098 41.0903 41.7377C41.1457 41.884 41.2311 42.0009 41.3475 42.0881C41.4634 42.1754 41.5918 42.2207 41.7321 42.2225C42.012 42.2184 42.3176 42.0831 42.6497 41.8162L42.833 42.144C42.307 42.585 41.7081 42.8034 41.0376 42.7993C40.3145 42.7882 39.8209 42.5481 39.5568 42.0784C39.505 41.9745 39.4644 41.8559 39.4358 41.7229C39.4071 41.5899 39.3873 41.4103 39.3762 41.1845C39.3651 40.9582 39.3596 40.653 39.36 40.2697V36.1808H38.6129V35.7878C38.8983 35.7768 39.1402 35.7167 39.3388 35.6073C39.5374 35.4978 39.7105 35.3265 39.8583 35.0929C39.9742 34.9151 40.0698 34.717 40.145 34.5C40.2199 34.2825 40.2859 34.0128 40.3431 33.6905L40.9984 33.6249C40.9896 33.7986 40.9822 33.9745 40.9767 34.1527C40.9707 34.331 40.9665 34.5457 40.9638 34.7969C40.9605 35.0476 40.9591 35.3695 40.9591 35.7611H42.5448V36.1808H40.9591Z" fill="#3A3A3A"/>
<path fill-rule="evenodd" clip-rule="evenodd" d="M38.6066 42.3152V42.5923C38.2228 42.6177 38.0681 42.6172 37.665 42.6177C37.345 42.6182 37.0139 42.6126 36.7392 42.5092C36.5693 42.4455 36.4741 42.391 36.3476 42.2571C36.259 42.1167 36.2026 42.1093 36.174 41.7182C35.836 42.0834 35.4837 42.3522 35.1179 42.524C34.7518 42.6962 34.3565 42.7812 33.933 42.7798C33.3041 42.7728 32.8123 42.5992 32.4573 42.2584C32.1017 41.9177 31.9211 41.4494 31.9147 40.8528C31.9124 39.728 32.6119 39.0289 34.012 38.756C34.6432 38.6336 35.3594 38.5509 36.1611 38.5071V37.6551C36.168 36.9726 36.0955 36.4993 35.945 36.2366C35.7944 35.9734 35.5257 35.8478 35.1387 35.8598C34.7282 35.851 34.4354 35.9992 34.2609 36.3054C34.1972 36.4102 34.151 36.5312 34.1214 36.6674C34.0924 36.8036 34.0688 36.9929 34.0513 37.2358C34.0406 37.469 33.9728 37.6348 33.8481 37.7336C33.7229 37.8324 33.5239 37.8805 33.2515 37.8781C32.6443 37.8735 32.3386 37.6727 32.334 37.2751C32.3363 37.0433 32.4078 36.8221 32.5491 36.6115C32.69 36.401 32.8895 36.2158 33.1471 36.056C33.6929 35.7199 34.4091 35.5541 35.2962 35.5582C36.1985 35.5541 36.8449 35.7328 37.236 36.0957C37.412 36.2615 37.5413 36.4735 37.6239 36.7311C37.707 36.9888 37.7477 37.3185 37.7472 37.7207L37.7338 38.8608L37.7209 40.0009C37.7098 40.3744 37.7057 40.6104 37.7075 40.7088C37.7029 41.1811 37.7181 41.5265 37.7523 41.744C37.7865 41.962 37.8243 42.0576 37.9675 42.1758C38.2178 42.3189 38.432 42.3148 38.6066 42.3152ZM36.1611 39.8176V38.8086C35.2228 38.8723 34.5574 39.0459 34.1644 39.3295C33.7714 39.613 33.5807 40.0554 33.5923 40.6566C33.5964 41.128 33.6934 41.5021 33.8823 41.7787C34.0716 42.0553 34.3288 42.1966 34.6539 42.203C34.9208 42.2003 35.1669 42.1236 35.3927 41.9717C35.6185 41.8207 35.7963 41.6092 35.9251 41.3381C36.0096 41.1719 36.0701 40.9697 36.107 40.73C36.144 40.4903 36.162 40.1865 36.1611 39.8176Z" fill="#3A3A3A"/>
<path fill-rule="evenodd" clip-rule="evenodd" d="M49.8911 42.3153V42.5923C49.5074 42.6177 49.3527 42.6182 48.9496 42.6187C48.6296 42.6191 48.2985 42.6136 48.0237 42.5102C47.8538 42.4464 47.7587 42.3919 47.6322 42.258C47.5435 42.1177 47.4872 42.1103 47.4585 41.7192C47.1205 42.0844 46.7682 42.3532 46.402 42.5249C46.0363 42.6972 45.641 42.7821 45.2176 42.7807C44.5887 42.7738 44.0969 42.6002 43.7418 42.2594C43.3862 41.9186 43.2057 41.4504 43.1992 40.8538C43.1969 39.7289 43.896 39.0298 45.2966 38.7569C45.9278 38.6346 46.644 38.5519 47.4456 38.508V37.6561C47.4525 36.9736 47.38 36.5003 47.2295 36.2376C47.0785 35.9743 46.8098 35.8487 46.4233 35.8608C46.0128 35.852 45.72 36.0002 45.5454 36.3064C45.4817 36.4112 45.4351 36.5322 45.406 36.6684C45.3769 36.8046 45.3534 36.9939 45.3358 37.2368C45.3252 37.47 45.2573 37.6358 45.1326 37.7351C45.0075 37.8334 44.8085 37.8814 44.536 37.8791C43.9288 37.8745 43.6231 37.6736 43.6185 37.2761C43.6208 37.0443 43.6924 36.8231 43.8337 36.6125C43.9745 36.4019 44.174 36.2168 44.4312 36.057C44.9775 35.7208 45.6937 35.5551 46.5807 35.5592C47.483 35.5551 48.1295 35.7338 48.5206 36.0967C48.6965 36.2625 48.8258 36.4744 48.9085 36.7321C48.9916 36.9898 49.0322 37.3195 49.0318 37.7217L49.0184 38.8618L49.0054 40.0019C48.9944 40.3754 48.9902 40.6114 48.9921 40.7097C48.9874 41.1821 49.0027 41.5275 49.0368 41.7455C49.071 41.963 49.1089 42.0585 49.252 42.1768C49.5023 42.3199 49.7166 42.3148 49.8911 42.3153ZM47.4456 39.8185V38.8096C46.5073 38.8733 45.8414 39.0469 45.4489 39.3304C45.056 39.614 44.8653 40.0563 44.8768 40.6576C44.881 41.129 44.9779 41.503 45.1668 41.7796C45.3561 42.0562 45.6133 42.1975 45.9384 42.204C46.2053 42.2012 46.4514 42.1246 46.6772 41.9727C46.903 41.8212 47.0803 41.6102 47.2096 41.3387C47.2941 41.1733 47.3546 40.9706 47.3916 40.731C47.4285 40.4918 47.4465 40.1875 47.4456 39.8185Z" fill="#3A3A3A"/>
<path d="M26.3927 9.80804L26.3609 10.4281L38.2584 24.3848L38.6856 24.4546L38.7395 24.4279L38.9482 24.041L33.8745 7.05788L33.0134 6.47755L26.3927 9.80804Z" fill="#0097B9"/>
<path d="M45.4856 6.14106L53.1785 9.67804L53.1927 10.6759L40.5679 29.7994L39.9915 29.9514L39.9065 29.9123L39.7266 29.4811L44.8151 6.51376L45.4856 6.14106Z" fill="#80B13A"/>
<path d="M33.7345 0.699958L34.0408 0.109989L43.8899 0.0033406L44.5264 0.66422L39.8078 16.4294L39.5088 16.603L39.4992 16.6025L39.1758 16.3846L33.7345 0.699958Z" fill="#D81936"/>
<path fill-rule="evenodd" clip-rule="evenodd" d="M29.9112 11.1062L38.7097 24.4917L38.2417 24.4151L26.3289 10.4221L29.9112 11.1062Z" fill="#005874"/>
<path d="M33.0258 6.46265L33.8841 7.04525L31.2185 10.5896L29.9807 10.0484L33.0258 6.46265Z" fill="#2FB8E7"/>
<path d="M29.9802 10.0479L29.911 11.1064L26.3292 10.4223L26.3666 9.80681L29.9802 10.0479Z" fill="#007592"/>
<path d="M31.2183 10.5898L33.8896 7.03982L39.0275 24.0372L38.766 24.4768L31.2183 10.5898Z" fill="#007592"/>
<path d="M53.2191 10.6737L40.6046 29.8386L39.9596 30.0264L48.0677 11.1122L53.2191 10.6737Z" fill="#6E9123"/>
<path d="M46.615 10.3134L39.8871 29.9673L39.6976 29.4851L44.806 6.49446L46.615 10.3134Z" fill="#3F7937"/>
<path d="M53.1988 9.6779L53.2192 10.6735L48.0678 11.1125L47.7773 9.74824L53.1988 9.6779Z" fill="#A5C550"/>
<path d="M47.7775 9.74814L46.6145 10.312L44.8049 6.49253L45.4698 6.11756L47.7775 9.74814Z" fill="#5D8B27"/>
<path d="M38.2598 1.7602L37.5502 2.59863L33.7012 0.681801L34.012 0.098639L38.2598 1.7602Z" fill="#AF2C35"/>
<path d="M33.7007 0.681775L37.5502 2.59861L39.5017 16.6348L39.1602 16.4022L33.7007 0.681775Z" fill="#762624"/>
<path d="M39.4019 2.60063L44.5437 0.657135L39.8319 16.4507L39.5086 16.6345L39.4019 2.60063Z" fill="#B22B37"/>
<path d="M38.2604 1.76012L39.4017 2.60083L44.5441 0.657336L43.9003 -0.000139153L38.2604 1.76012Z" fill="#DC505E"/>
</svg>
