<svg width="80" height="57" viewBox="0 0 80 57" fill="none" xmlns="http://www.w3.org/2000/svg">
<path fill-rule="evenodd" clip-rule="evenodd" d="M9.17714 53.3995L12.189 45.1619L13.174 53.3995H16.3559L14.6326 41.3008H10.7495L8.17793 48.5688L5.60695 41.3008H1.72388L0 53.3995H3.18251L4.16688 45.1619L7.17934 53.3995H9.17714Z" fill="#231F20"/>
<path fill-rule="evenodd" clip-rule="evenodd" d="M69.5732 40.3032V53.3889H72.8695V48.8327L76.2499 53.3889H80L76.279 48.5787L79.668 44.4022H75.8808L72.8695 48.3315V40.3032H69.5732Z" fill="#231F20"/>
<path fill-rule="evenodd" clip-rule="evenodd" d="M33.8861 44.4023L31.7282 50.6946L29.5393 44.4023H25.9036L29.995 53.3996L28.3744 56.9292H31.8982L37.5231 44.4023H33.8861Z" fill="#231F20"/>
<path fill-rule="evenodd" clip-rule="evenodd" d="M41.4064 51.3128V46.58C42.0742 46.3545 44.4931 45.7492 44.4931 48.8241C44.4931 51.9578 42.0117 51.477 41.4064 51.3128V51.3128ZM38.0532 52.9361C38.0532 52.9361 39.7963 53.5891 42.2399 53.5891C44.6829 53.5891 47.8648 52.8289 47.8648 48.6165C47.8648 44.4023 43.6416 44.2505 43.1488 44.2505C42.2189 44.2505 41.6247 44.5039 41.4064 44.616V40.2834H38.0532V52.9361Z" fill="#231F20"/>
<path fill-rule="evenodd" clip-rule="evenodd" d="M51.3508 50.6274C51.3508 49.3344 53.8031 49.2421 54.4771 49.2414V51.5443C53.7753 51.6286 51.3508 51.8287 51.3508 50.6274V50.6274ZM49.6647 46.6802C54.4758 45.2564 54.4771 46.9658 54.4771 47.1925V47.498C50.5829 47.5308 48.2629 48.6454 48.2629 50.6658C48.2629 52.7153 50.4227 53.6075 53.2831 53.6075C56.1435 53.6075 57.6015 52.9427 57.6015 52.9427V47.3443C57.6015 45.3704 56.3327 44.1177 53.2831 44.1177C50.2329 44.1177 48.9078 44.8395 48.9078 44.8395L49.6647 46.6802Z" fill="#231F20"/>
<path fill-rule="evenodd" clip-rule="evenodd" d="M19.8701 50.6274C19.8701 49.3344 22.3224 49.2421 22.9951 49.2414V51.5443C22.294 51.6286 19.8701 51.8287 19.8701 50.6274V50.6274ZM18.184 46.6802C22.9951 45.2564 22.9951 46.9658 22.9951 47.1925V47.498C19.1022 47.5308 16.7822 48.6454 16.7822 50.6658C16.7822 52.7153 18.942 53.6075 21.8018 53.6075C24.6621 53.6075 26.1208 52.9427 26.1208 52.9427V47.3443C26.1208 45.3704 24.852 44.1177 21.8018 44.1177C18.7522 44.1177 17.4265 44.8395 17.4265 44.8395L18.184 46.6802Z" fill="#231F20"/>
<path fill-rule="evenodd" clip-rule="evenodd" d="M65.0077 53.3802H68.3225V47.6865C68.3225 44.7256 66.2017 44.0986 63.5868 44.0986C60.9738 44.0986 58.8708 44.8198 58.8708 44.8198V53.3802H62.1863V46.5725C64.735 45.826 65.0077 47.0527 65.0077 47.6481V53.3802Z" fill="#231F20"/>
<mask id="mask0_809_75" style="mask-type:luminance" maskUnits="userSpaceOnUse" x="21" y="0" width="36" height="35">
<path fill-rule="evenodd" clip-rule="evenodd" d="M21.9385 0H56.7819V34.9142H21.9385V0Z" fill="white"/>
</mask>
<g mask="url(#mask0_809_75)">
<path fill-rule="evenodd" clip-rule="evenodd" d="M39.3596 -0.000244141C29.7543 -0.000244141 21.9382 7.83257 21.9382 17.456C21.9382 27.0815 29.7543 34.9143 39.3596 34.9143C48.967 34.9143 56.782 27.0815 56.782 17.456C56.782 7.83257 48.967 -0.000244141 39.3596 -0.000244141" fill="#FFC600"/>
<path fill-rule="evenodd" clip-rule="evenodd" d="M39.3596 -0.000244141C29.7543 -0.000244141 21.9382 7.83257 21.9382 17.456C21.9382 27.0815 29.7543 34.9143 39.3596 34.9143C48.967 34.9143 56.782 27.0815 56.782 17.456C56.782 7.83257 48.967 -0.000244141 39.3596 -0.000244141M39.3595 1.45757C48.1767 1.45757 55.3257 8.61878 55.3257 17.4558C55.3257 26.2917 48.1767 33.454 39.3595 33.454C30.5433 33.454 23.3953 26.2917 23.3953 17.4558C23.3953 8.61878 30.5433 1.45757 39.3595 1.45757" fill="#231F20"/>
</g>
<path fill-rule="evenodd" clip-rule="evenodd" d="M31.8573 11.3441C31.8573 11.3441 32.2267 9.88931 32.8167 9.39688C33.4077 8.90337 35.5309 7.49795 38.5974 6.51201C38.9625 6.39399 39.3865 6.52917 39.4057 6.53561C39.3854 6.65684 39.3736 6.73945 39.3683 6.76627C39.3276 6.99693 39.1552 7.14391 39.1552 7.14391C39.7784 7.22652 40.1884 6.78344 40.303 6.27276C40.4186 5.76531 40.8116 3.74622 41.4519 3.77626C43.2389 3.8578 44.5183 9.64363 44.3877 9.9054C44.301 10.0771 43.5997 9.93759 43.5997 9.93759C44.7143 11.696 46.1736 11.6788 46.5023 11.4009C46.83 11.1231 46.6501 10.2176 46.6501 10.2176C50.1599 12.3053 49.9629 14.7868 49.9629 14.7868C51.0121 10.6789 48.5859 8.91946 48.5859 8.91946C49.5367 8.8862 50.5699 9.4945 50.5699 9.4945C49.0934 7.50653 46.043 6.40472 46.043 6.40472C46.043 6.40472 42.4851 2.44487 41.3373 2.59292C40.3854 2.71629 39.8415 4.46503 39.5749 5.66017C39.4443 5.64944 39.1948 5.63979 38.8704 5.67841C38.6188 5.36514 37.5534 4.09811 37.1391 4.51545C36.9774 4.67638 36.926 5.81788 36.9121 6.29744C35.1883 6.98406 32.2556 8.27468 31.6592 9.222C31.1196 10.0856 30.9954 10.7272 30.9954 10.7272C30.9954 10.7272 27.4792 12.9941 26.6173 15.4616C26.6173 15.4616 28.9793 12.6991 31.8573 11.3441" fill="#231F20"/>
<path fill-rule="evenodd" clip-rule="evenodd" d="M43.1733 9.51283C43.123 7.68685 42.2225 6.22564 41.7621 6.14089C41.3039 6.06043 41.1561 7.80058 41.1561 7.80058C42.3703 8.60521 43.1733 9.51283 43.1733 9.51283" fill="#231F20"/>
<path fill-rule="evenodd" clip-rule="evenodd" d="M34.5298 9.18392C33.8242 9.60876 34.1369 9.97138 34.1369 9.97138C34.1369 9.97138 34.0223 9.60876 34.8917 9.36308C36.4421 8.92429 37.8436 8.47477 37.8094 8.0982C37.7773 7.72056 36.728 7.57251 36.728 7.57251C37.0235 7.96624 35.2354 8.75585 34.5298 9.18392" fill="#231F20"/>
<path fill-rule="evenodd" clip-rule="evenodd" d="M35.2597 11.5977C35.4728 11.5977 35.6451 11.426 35.6451 11.2125C35.6451 11.0956 35.5927 10.9947 35.5102 10.9239C35.7661 10.9068 36.3507 10.939 36.3507 10.939C36.2854 10.9239 36.1377 11.0881 35.809 11.499C35.4813 11.911 35.1708 11.5977 35.1708 11.5977L35.1655 11.5794C35.1954 11.5859 35.2265 11.5977 35.2597 11.5977M34.022 13.3561C34.022 13.3561 34.4642 12.3219 34.7929 12.191C34.7929 12.191 35.3668 12.338 35.6783 12.2221C35.9899 12.1084 36.5799 11.3199 36.8101 11.3027C36.8101 11.3027 36.203 13.9462 33.7425 13.8979C33.7425 13.8979 35.5145 14.901 36.416 14.194C37.3186 13.487 36.6291 12.9452 37.794 11.8112C38.9579 10.6762 38.1881 10.629 38.1388 10.6461C38.0895 10.6612 37.7277 10.5464 37.7277 10.5464C37.7277 10.5464 37.8915 10.3329 38.2212 10.187C38.5489 10.0368 40.4344 9.18385 40.4676 8.67104C40.4997 8.16358 39.1056 7.58854 38.4011 7.60356C38.4011 7.60356 39.0393 7.86641 39.0071 8.22903C38.975 8.59057 37.1388 9.39628 37.1388 10.4316C37.1388 10.4316 36.4824 10.4798 36.006 10.3833C35.5306 10.2824 35.022 10.3329 34.4973 10.6762C33.9727 11.0227 33.9406 10.2513 33.9888 10.1516C33.9888 10.1516 32.9727 10.792 34.2522 11.6138C34.2522 11.6138 33.7264 12.1567 33.6772 12.2887C33.6279 12.4195 33.4149 13.1255 34.022 13.3561" fill="#231F20"/>
<path fill-rule="evenodd" clip-rule="evenodd" d="M32.3983 16.7419C32.3983 16.7419 32.3737 15.8053 31.5118 16.0027C30.0642 16.3331 29.5685 18.9101 29.5685 18.9101C31.1938 15.904 32.3983 16.7419 32.3983 16.7419" fill="#231F20"/>
<path fill-rule="evenodd" clip-rule="evenodd" d="M32.9401 19.0333C33.726 17.7534 32.7677 16.9392 31.5375 17.6279C30.3083 18.3188 30.0117 19.971 30.0117 19.971C32.4476 17.3093 32.9401 19.0333 32.9401 19.0333" fill="#231F20"/>
<path fill-rule="evenodd" clip-rule="evenodd" d="M44.5514 17.3821C44.5514 17.3821 43.6649 16.5957 43.7634 15.1388C43.8619 13.684 44.1328 11.4933 41.6734 9.96338C41.6734 9.96338 42.6809 11.5169 42.3115 13.0446C41.9422 14.5734 40.7108 17.1815 40.8115 18.0483C41.0331 19.9462 43.0011 20.2916 42.8533 22.8793C42.8533 22.8793 44.0097 21.4728 43.7891 19.8228C43.5675 18.1706 42.1156 17.455 42.7548 16.1505C42.7548 16.1505 43.4925 17.234 44.5514 17.3821" fill="#231F20"/>
<path fill-rule="evenodd" clip-rule="evenodd" d="M33.3703 24.9736C33.1476 24.9017 32.9516 24.0874 32.9516 24.0874C33.2718 24.347 33.9238 24.3588 33.9238 24.3588C33.6155 24.6528 33.5919 25.0476 33.3703 24.9736M35.8265 22.3784C35.8265 22.3784 36.5963 22.4106 36.6295 22.2797C36.6627 22.1477 36.3832 21.2433 36.3832 21.2433C36.3832 21.2433 37.3511 21.342 37.3683 21.6553C37.3843 21.9653 36.8265 22.7571 35.6455 23.2656C35.6455 23.2656 35.8597 22.6402 35.8265 22.3784M30.822 21.5405C30.928 21.4793 31.0276 21.4139 31.1186 21.342C31.3584 21.1607 31.5383 21.0738 31.6593 21.0341C31.6347 21.3806 31.6143 21.99 31.7225 22.4964C31.7225 22.4964 31.0854 22.0876 30.822 21.5405M27.7405 18.3842C27.3637 18.3842 26.6913 17.3821 26.5767 17.1847C26.4621 16.9884 27.2148 16.6258 27.4461 16.5603C27.6752 16.4938 27.9172 16.5496 27.9536 16.6612C27.9868 16.7567 27.4793 17.0699 27.4129 17.1847C27.3476 17.3006 27.8155 17.733 27.8883 17.8242C28.0189 17.9915 28.1185 18.3842 27.7405 18.3842M51.6332 10.5042C51.6332 10.5042 53.7842 16.364 51.357 21.6874C51.357 21.6874 51.4951 20.9139 50.8976 19.3883C50.2574 17.7533 50.4715 15.6409 50.7338 15.2472C50.7338 15.2472 49.5518 16.4295 49.6181 18.4024C49.6845 20.3721 50.2081 25.9273 46.208 27.9979C46.208 27.9979 47.7241 25.2203 47.1577 21.9653C47.1577 21.9653 47.6748 22.1649 47.9457 22.8547C47.9457 22.8547 49.0282 19.9956 47.6256 16.4938C47.6256 16.4938 48.4125 16.6429 48.9051 17.0614C48.9051 17.0614 49.4222 14.5563 46.5924 12.7968C45.8793 12.3527 45.9767 12.108 45.9767 12.108C45.9767 12.108 45.7561 12.6745 46.223 13.241C46.6898 13.8085 47.3311 14.9178 47.2326 15.4854C47.2326 15.4854 46.4692 14.9414 45.3621 15.0905C45.3621 15.0905 47.4778 16.8886 47.1577 20.7594C47.1577 20.7594 46.618 20.1683 45.2401 19.9216C45.2401 19.9216 46.7894 22.8311 45.4114 25.6151C45.4114 25.6151 45.3129 24.6292 44.8707 24.0123C44.8707 24.0123 44.5259 26.0593 42.0665 26.7749C42.0665 26.7749 44.058 24.2837 41.6971 23.0285C39.3351 21.769 37.3426 24.5552 36.9496 26.9969C36.9496 26.9969 34.2193 27.1922 33.9485 26.084C33.6776 24.9736 34.4645 24.5047 34.4645 24.5047C34.4645 24.5047 34.8832 24.7762 35.8436 24.3331C36.8019 23.89 38.8191 22.6809 38.6221 21.1532C38.4251 19.6265 36.0395 18.1224 34.1444 18.7371C32.2514 19.3551 31.1678 21.0309 30.1839 21.0062C29.1999 20.9815 27.9943 19.4774 28.1677 18.6899C28.3391 17.9003 28.9783 17.6782 29.1999 16.3468C29.1999 16.3468 28.8562 16.3801 28.6271 16.2321C28.3969 16.0829 27.7898 15.8372 27.4622 15.9209C27.1335 16.0025 26.3304 16.5453 26.2972 16.4455C26.264 16.3468 26.3797 15.7536 26.3797 15.7536C26.3797 15.7536 25.4942 16.6902 25.6259 17.0699C25.7565 17.4476 26.5274 18.3842 27.3305 18.9109C27.3305 18.9109 27.4793 20.0599 28.5286 21.1296C29.1549 21.7679 29.7395 21.8838 30.2385 21.7765C30.4494 22.0887 31.1678 23.0306 32.3124 23.2366C32.3124 23.2366 32.1143 21.916 32.2578 20.9182C32.3017 20.8946 32.3456 20.8689 32.382 20.8324C32.5619 20.6532 34.6615 18.7135 36.2194 20.5867C36.2194 20.5867 35.5138 20.8496 35.2354 21.7357C34.9571 22.6251 34.7932 24.8266 32.4805 23.4136C32.4805 23.4136 32.2835 24.6785 32.9891 25.436C32.9891 25.436 32.8906 26.7824 34.4153 27.5205C35.941 28.2607 37.0074 27.7029 37.9914 28.1953C37.9914 28.1953 37.8929 26.173 38.7281 24.9414C39.5653 23.7087 40.7463 23.2978 41.3202 23.7763C41.8931 24.2515 42.2549 26.0593 40.0407 27.9335C40.0407 27.9335 42.5826 28.2607 44.3214 26.9304C44.3214 26.9304 44.1051 29.2778 42.3502 31.2668C48.7091 29.9 53.4555 24.2354 53.4555 17.4551C53.4555 14.9285 52.7928 12.5565 51.6332 10.5042" fill="#231F20"/>
<path fill-rule="evenodd" clip-rule="evenodd" d="M41.4188 11.055C41.4188 11.055 39.7624 10.1206 39.0247 11.0883C38.3298 12.0013 38.7817 13.5644 38.3737 14.5418C38.362 14.531 38.347 14.5182 38.3352 14.5074C37.4165 13.6835 36.2859 15.0825 36.0717 15.4923C35.8597 15.9043 35.5803 15.9515 35.5803 15.9515C33.5631 16.3635 33.9892 14.737 33.3168 14.2446C32.6455 13.75 31.5127 14.4753 31.5127 14.4753C32.6444 14.2585 32.9067 15.0492 32.8746 15.3604C32.8414 15.6736 33.0706 16.5952 33.3821 17.1037C33.6937 17.6122 34.9571 17.2507 35.9904 17.3355C37.0236 17.4159 37.6135 18.6797 37.6135 18.6797C38.2367 17.1681 36.5643 16.4793 36.5643 16.4793C36.5643 16.4793 37.0525 15.5502 37.6296 15.87C39.4669 16.8881 39.0076 21.0132 39.0076 21.0132C40.5901 18.0328 39.8931 16.283 39.0676 15.2606C39.1714 14.3315 39.6414 11.4005 41.4188 11.055" fill="#231F20"/>
</svg>
