<svg width="62" height="60" viewBox="0 0 62 60" fill="none" xmlns="http://www.w3.org/2000/svg">
<path d="M8.12817 0H53.646C53.646 15.1717 53.646 30.3434 53.6433 45.5151C38.4716 45.5179 23.2999 45.5151 8.12817 45.5179V0ZM14.1908 8.54441C17.7331 13.2876 21.3277 17.9895 24.8865 22.719C21.358 27.4677 17.7413 32.1504 14.2073 36.8963C22.2862 36.9294 30.3624 36.8963 38.4413 36.9129C42.0772 32.2082 45.5809 27.4016 49.2416 22.7135L49.1728 22.7162C45.6057 17.9868 42.0221 13.2684 38.4606 8.5389C30.3706 8.54441 22.2807 8.53064 14.1908 8.54441Z" fill="#790008"/>
<path d="M14.1907 8.54444C22.2806 8.53066 30.3705 8.54444 38.4604 8.53893C42.022 13.2684 45.6056 17.9868 49.1726 22.7163C41.0772 22.7328 32.9818 22.7245 24.8863 22.719C21.3275 17.9896 17.7329 13.2877 14.1907 8.54444Z" fill="white"/>
<path d="M24.8864 22.7191C32.9818 22.7246 41.0773 22.7329 49.1727 22.7164L49.2416 22.7136C45.5809 27.4018 42.0772 32.2083 38.4412 36.913C30.3623 36.8965 22.2862 36.9295 14.2073 36.8965C17.7413 32.1505 21.3579 27.4679 24.8864 22.7191Z" fill="#ED3024"/>
<path d="M0.884179 53.518C1.57936 52.6512 2.64828 52.0945 3.75888 52.0316C4.81084 51.9503 5.88117 52.3198 6.67173 53.0157C6.31495 53.3753 5.95747 53.7328 5.59787 54.0896C4.98958 53.5965 4.14462 53.4022 3.38726 53.6184C2.54231 53.8402 1.86408 54.5622 1.67544 55.4128C1.44513 56.3362 1.77789 57.3854 2.53736 57.9703C3.40493 58.6803 4.75079 58.6443 5.60352 57.9272C5.961 58.2854 6.32625 58.6372 6.67455 59.0053C5.96877 59.6186 5.05104 59.9873 4.11424 59.9987C2.9337 60.0311 1.75104 59.5119 0.980261 58.6168C0.441211 58.0028 0.0978575 57.2186 0.0208504 56.4047C-0.0872423 55.3789 0.228558 54.3157 0.884179 53.518Z" fill="#790008"/>
<path d="M8.09033 52.2436C8.60254 52.2436 9.11403 52.2443 9.62624 52.2429C9.62765 54.7573 9.62624 57.271 9.62694 59.7854C9.11474 59.7854 8.60254 59.7861 8.09033 59.7847C8.09104 57.271 8.09033 54.7573 8.09033 52.2436Z" fill="#790008"/>
<path d="M11.4639 52.226C11.962 52.2246 12.46 52.2288 12.9588 52.2239C13.8469 53.8212 14.7123 55.4327 15.6117 57.0245C16.4835 55.4221 17.368 53.8276 18.2398 52.2253C18.7421 52.2267 19.2444 52.2253 19.7475 52.226C19.7446 54.7411 19.7524 57.2555 19.7432 59.7706C19.2317 59.7628 18.7209 59.772 18.2094 59.7656C18.213 58.2771 18.2094 56.7892 18.2116 55.3013C17.3306 56.8054 16.4913 58.335 15.5947 59.8292C14.7385 58.3152 13.8589 56.8146 12.9991 55.3028C13.0019 56.7913 12.9998 58.2792 13.0005 59.7678C12.4883 59.7678 11.9768 59.767 11.4646 59.7685C11.4625 57.2541 11.4646 54.7404 11.4639 52.226Z" fill="#790008"/>
<path d="M21.4968 52.2429C22.5339 52.2443 23.5704 52.2429 24.6075 52.2436C25.0872 52.2528 25.5796 52.3538 25.9894 52.6145C26.9792 53.2193 27.2067 54.7898 26.3801 55.6221C26.2741 55.7351 26.1483 55.8283 26.0233 55.9188C26.4945 56.1668 26.8562 56.6267 26.9438 57.1565C27.0717 57.8715 26.9085 58.6924 26.3539 59.1969C25.9117 59.6201 25.2829 59.7727 24.6866 59.7804C23.6233 59.7917 22.5594 59.7826 21.4961 59.7854C21.4968 57.271 21.4947 54.7573 21.4968 52.2429ZM23.0327 53.6213C23.032 54.1688 23.0327 54.7163 23.0327 55.2639C23.4849 55.2624 23.9377 55.266 24.3906 55.2632C24.6541 55.2582 24.9388 55.2031 25.1317 55.0088C25.4058 54.7177 25.4129 54.2267 25.1691 53.9145C24.9819 53.6891 24.6725 53.6192 24.392 53.6206C23.9384 53.6213 23.4856 53.6213 23.0327 53.6213ZM23.0327 56.6422C23.0327 57.2244 23.032 57.8072 23.0327 58.3901C23.5322 58.3908 24.0317 58.3894 24.5312 58.3915C24.765 58.3985 25.0109 58.3328 25.1861 58.1711C25.5351 57.8348 25.5415 57.2081 25.1854 56.8747C24.9932 56.6924 24.7177 56.645 24.4627 56.6415C23.9858 56.6408 23.5089 56.6415 23.0327 56.6422Z" fill="#790008"/>
<path d="M30.1322 52.2266C30.3886 52.2294 30.6451 52.2174 30.9015 52.2301C31.0188 52.3212 31.0845 52.4639 31.1785 52.5784C32.5858 54.5007 33.9818 56.4316 35.3969 58.3483C35.3955 56.3072 35.3969 54.2669 35.3962 52.2258C35.6611 52.2258 35.9261 52.2258 36.191 52.2258C36.191 54.7339 36.191 57.2419 36.191 59.7499C35.9232 59.7499 35.6555 59.7492 35.3884 59.7514C33.902 57.7068 32.4162 55.6615 30.9277 53.6183C30.9277 55.6622 30.9277 57.7061 30.9277 59.7492C30.6606 59.7485 30.3936 59.7549 30.1279 59.7436C30.1399 57.2384 30.13 54.7325 30.1322 52.2266Z" fill="#790008"/>
<path d="M38.169 52.2261C38.4339 52.2261 38.6981 52.2261 38.9638 52.2261C38.9638 54.7341 38.9631 57.2414 38.9638 59.7488C38.6988 59.7509 38.4339 59.7495 38.1697 59.7502C38.1676 57.2421 38.1697 54.7341 38.169 52.2261Z" fill="#790008"/>
<path d="M40.1875 59.801C41.1038 57.2922 42.0208 54.7835 42.9435 52.2776C43.3109 52.2811 43.6776 52.2783 44.0449 52.279C44.9189 54.7694 45.7914 57.2612 46.6681 59.7501C46.3558 59.7494 46.0436 59.7508 45.732 59.7494C45.4996 59.0832 45.2636 58.4177 45.0241 57.7536C43.9863 57.7543 42.9492 57.7543 41.912 57.7543C41.6803 58.436 41.4578 59.122 41.2253 59.8038C40.8792 59.801 40.533 59.8052 40.1875 59.801ZM42.23 56.8521C43.0558 56.8556 43.8824 56.8528 44.7083 56.8535C44.2943 55.6468 43.886 54.438 43.479 53.2292C43.0643 54.4373 42.6411 55.6426 42.23 56.8521Z" fill="#790008"/>
<path d="M48.4322 53.5102C49.0596 52.8645 49.8989 52.4003 50.8039 52.317C51.9194 52.2046 53.03 52.6186 53.9322 53.2538C53.7563 53.482 53.5712 53.7024 53.3967 53.9313C53.0964 53.5039 52.5645 53.3442 52.0848 53.2149C51.2504 52.9853 50.3037 53.1096 49.5993 53.6275C48.9628 54.1079 48.5375 54.8377 48.3686 55.6113C48.2733 56.4111 48.3524 57.2843 48.8271 57.9611C48.9903 58.2168 49.2503 58.3814 49.4729 58.58C49.9448 58.965 50.5637 59.1395 51.167 59.1339C51.9095 59.1409 52.6443 58.9509 53.3232 58.6591C53.3225 57.8862 53.3246 57.1133 53.3225 56.3404C52.734 56.3411 52.1455 56.3411 51.557 56.3404C51.557 56.1058 51.557 55.8713 51.5563 55.6367C52.3921 55.6318 53.2278 55.6367 54.0643 55.6339C54.0657 56.8293 54.0643 58.024 54.065 59.2193C53.2674 59.6644 52.3532 59.8509 51.4532 59.9407C50.5001 59.9604 49.5047 59.716 48.7628 59.0936C48.038 58.498 47.6148 57.5916 47.4905 56.6732C47.3951 55.5555 47.6791 54.3651 48.4322 53.5102Z" fill="#790008"/>
<path d="M55.3396 59.7932C56.2602 57.2901 57.1765 54.7856 58.09 52.2797C58.4573 52.2775 58.8247 52.2818 59.1928 52.2761C60.037 54.6535 60.8622 57.0379 61.7036 59.4166C61.7432 59.5233 61.7651 59.6349 61.7743 59.7494C61.4783 59.7508 61.1837 59.7494 60.8891 59.7508C60.6496 59.0867 60.4164 58.4197 60.1805 57.7549C59.1391 57.7535 58.0977 57.7528 57.0571 57.7556C56.8338 58.4388 56.6021 59.1192 56.3774 59.8016C56.0313 59.7995 55.6851 59.8129 55.3396 59.7932ZM58.6276 53.2341C58.2178 54.4429 57.7904 55.6454 57.3842 56.8556C58.2072 56.8513 59.031 56.8542 59.8541 56.8542C59.4535 55.6447 59.0381 54.4401 58.6276 53.2341Z" fill="#790008"/>
</svg>
