<svg width="62" height="60" viewBox="0 0 62 60" fill="none" xmlns="http://www.w3.org/2000/svg">
<path d="M20.0821 20.7733L9.65797 16.7902C10.258 14.2964 11.2881 11.9712 12.6559 9.88652L21.9758 15.6792C20.9532 17.1544 20.2818 18.8925 20.0821 20.7733ZM32.527 25.5271L21.3045 21.2374C21.6272 19.5061 22.3536 17.9066 23.3898 16.5523L32.527 22.2397V25.5271V25.5271ZM32.527 21.8055L23.8396 16.0054C24.9289 14.7619 26.2926 13.7732 27.8364 13.1182L32.527 17.9113V21.8055V21.8055ZM10.2763 29.1712C9.48674 26.9064 9.05322 24.4745 9.05322 21.938C9.05322 20.526 9.1864 19.1487 9.43985 17.8162L20.0284 21.5371L20.0236 21.9326C20.0236 24.5364 20.9307 26.9302 22.4487 28.8124C21.668 27.1266 21.1244 25.2396 21.1244 23.2304C21.1244 22.7962 21.1502 22.3681 21.2019 21.9468L32.527 25.9239V29.1712H10.2763V29.1712ZM11.0829 31.1641C10.8899 30.7496 10.7105 30.3243 10.5433 29.901H17.0814L18.2916 31.1777H28.0749L25.9298 33.4411H13.8851C13.5059 32.2092 12.4092 31.2763 11.0829 31.1641V31.1641ZM35.9727 31.7057C36.752 31.3034 37.4737 30.8149 38.1273 30.2529C38.5561 29.8948 38.9549 29.5062 39.3205 29.0713C40.9649 27.1477 41.959 24.6587 41.959 21.9326C41.959 15.8762 37.0469 10.9649 30.9906 10.9649C29.7213 10.9649 28.4982 11.1789 27.3676 11.5751L19.7131 3.11742C23.0073 1.13738 26.8647 -8.55784e-05 30.9906 -8.55784e-05C43.1046 -8.55784e-05 52.9233 9.81857 52.9233 21.938C52.9233 34.0527 43.1046 43.8679 30.9906 43.8679C24.9635 43.8679 19.5065 41.4415 15.5417 37.5079H42.4462L14.2459 36.1074L44.0464 35.9185L12.8604 34.2946L24.8392 34.1091C24.8392 34.1091 31.1238 34.3 35.9727 31.7057V31.7057ZM22.4351 15.0656L13.2987 8.96513C14.7847 6.93957 16.6071 5.18308 18.6864 3.77381L26.6133 11.8747C24.9737 12.5882 23.5427 13.6924 22.4351 15.0656Z" fill="#D10A10"/>
<path d="M4.16708 59.9998C1.36651 59.9998 0 58.3858 0 55.7556C0 53.0262 2.02285 51.3007 4.48852 51.3007C6.87344 51.3007 8.65534 52.5789 8.65534 55.5195C8.65534 58.2738 6.67235 59.9998 4.16708 59.9998ZM4.32677 53.0632C3.24262 53.0632 2.21126 53.8437 2.21126 55.5948C2.21126 57.2072 2.85466 58.2256 4.28794 58.2256C5.27892 58.2256 6.44408 57.5437 6.44408 55.6445C6.44408 53.9563 5.70777 53.0632 4.32677 53.0632" fill="#D10A10"/>
<path d="M13.735 59.9497C10.3977 59.9497 9.50037 57.8534 9.50037 55.9545C9.50037 53.2362 11.0949 51.4005 14.0826 51.4005C14.7125 51.4005 15.3678 51.4747 15.9325 51.6117L15.6903 53.3607C15.1807 53.224 14.6056 53.1381 14.0427 53.1381C12.5825 53.1381 11.7913 54.118 11.7913 55.6315C11.7913 57.2816 12.5155 58.188 14.1504 58.188C14.6196 58.188 15.3016 58.0762 15.7304 57.8906L15.9727 59.6151C15.3155 59.8268 14.5119 59.9497 13.735 59.9497Z" fill="#D10A10"/>
<path d="M20.2056 59.864C19.6706 59.864 18.6649 59.8368 17.3519 59.8368V51.4747C18.1822 51.438 19.5365 51.4126 20.6484 51.4126C22.6171 51.4126 23.7831 52.1199 23.7831 53.5224C23.7831 54.304 23.2471 55.0119 22.4699 55.3336V55.3713C23.3951 55.595 23.9301 56.3882 23.9301 57.2203C23.9301 58.5604 22.8723 59.864 20.2056 59.864ZM20.313 52.9631C19.992 52.9631 19.6965 52.9758 19.4426 52.988V54.825C19.6165 54.8374 19.8176 54.8374 20.0585 54.8374C21.0767 54.8374 21.5723 54.4531 21.5723 53.8198C21.5723 53.2853 21.1846 52.9631 20.313 52.9631V52.9631ZM20.1393 56.2645C20.0314 56.2645 19.6025 56.2645 19.4426 56.2769V58.2506C19.6165 58.2739 19.9247 58.2879 20.2459 58.2879C21.1712 58.2879 21.6934 57.8906 21.6934 57.2446C21.6934 56.5989 21.1168 56.2645 20.1393 56.2645" fill="#D10A10"/>
<path d="M29.0766 59.9497C25.7411 59.9497 24.8435 57.8534 24.8435 55.9545C24.8435 53.2362 26.4375 51.4005 29.4252 51.4005C30.0549 51.4005 30.7115 51.4747 31.2734 51.6117L31.0334 53.3607C30.5241 53.224 29.9477 53.1381 29.3859 53.1381C27.9241 53.1381 27.1345 54.118 27.1345 55.6315C27.1345 57.2816 27.8573 58.188 29.4915 58.188C29.9617 58.188 30.645 58.0762 31.073 57.8906L31.3148 59.6151C30.6582 59.8268 29.8541 59.9497 29.0766 59.9497Z" fill="#D10A10"/>
<path d="M40.4673 59.8367L38.3368 56.2276C37.9499 55.5826 37.6401 54.9361 37.3994 54.3911C37.4395 55.0114 37.4665 55.8554 37.4665 56.6494V59.8367H35.4565V51.4619H38.1373L40.1195 54.7757C40.5207 55.4711 40.8962 56.1895 41.2184 56.836C41.1519 56.115 41.125 55.0114 41.125 54.2166V51.4619H43.1344V59.8367H40.4673Z" fill="#D10A10"/>
<path d="M44.717 51.4622H46.8064V59.8367H44.717V51.4622Z" fill="#D10A10"/>
<path d="M50.1832 59.9858C49.553 59.9858 48.9093 59.9258 48.3343 59.8L48.4414 58.0132C48.9513 58.1882 49.6881 58.3248 50.3442 58.3248C51.1058 58.3248 51.6574 58.0264 51.6574 57.4314C51.6574 56.0038 48.0537 56.7373 48.0537 53.9323C48.0537 52.3554 49.3798 51.3126 51.6437 51.3126C52.1263 51.3126 52.7286 51.3623 53.2912 51.4622L53.1704 53.138C52.6618 53.0006 52.0999 52.9139 51.5624 52.9139C50.6928 52.9139 50.2911 53.2615 50.2911 53.733C50.2911 55.0359 53.8943 54.54 53.8943 57.1576C53.8943 58.7842 52.4879 59.9858 50.1832 59.9858Z" fill="#D10A10"/>
<path d="M57.7137 57.0715C57.6068 57.0715 57.42 57.0715 57.2326 57.0586V59.8369H55.1425V51.4624C55.9181 51.4254 56.7761 51.4008 57.7137 51.4008C60.0192 51.4008 61.2783 52.3674 61.2783 54.0932C61.2783 55.719 60.0192 57.0715 57.7137 57.0715ZM57.6744 52.9759C57.5279 52.9759 57.3801 52.9759 57.2326 52.9878V55.4454C57.3661 55.4579 57.487 55.4713 57.5929 55.4713C58.464 55.4579 59.1219 54.9985 59.1219 54.1801C59.1219 53.4728 58.7052 52.9759 57.6744 52.9759" fill="#D10A10"/>
</svg>
