<svg width="94" height="28" viewBox="0 0 94 28" fill="none" xmlns="http://www.w3.org/2000/svg">
<path fill-rule="evenodd" clip-rule="evenodd" d="M21.5164 21.2379C21.5561 21.4193 21.8793 21.6517 22.055 21.9579C21.8849 21.8502 21.7205 21.6914 21.5561 21.5497C20.8191 20.9374 15.3596 16.3339 14.9627 16.0902C13.2052 14.996 12.2698 16.0448 11.1473 16.9462C10.6257 17.3601 5.23989 21.9069 5.1095 21.9465C5.16619 21.8955 5.22855 21.7991 5.30792 21.7084C5.99391 20.9431 6.96336 19.7412 7.64934 18.9248L9.34446 16.9179C9.62225 16.5664 9.91706 16.2602 10.1949 15.9144C10.6257 15.3815 11.4931 14.5708 11.4818 13.5106C11.4704 12.3995 10.62 11.7021 10.1778 11.1239C9.91139 10.7724 9.61092 10.4606 9.32745 10.1147L6.78194 7.10433C6.49281 6.76985 6.22635 6.41268 5.93721 6.0952C5.78981 5.93079 5.64808 5.7437 5.51202 5.59063C5.41564 5.48292 5.16619 5.1541 5.07548 5.10874C5.30792 5.1541 8.68682 8.07378 9.12336 8.42528L11.1473 10.1147C11.6972 10.5513 12.4796 11.413 13.5511 11.4357C14.5149 11.4527 15.3142 10.744 15.9945 10.1487L18.0128 8.4593C18.7045 7.90937 19.3451 7.33111 20.0367 6.76985L22.055 5.0974C21.936 5.32418 21.4711 5.80607 21.284 6.04418C21.0289 6.37866 20.7454 6.67914 20.4733 7.00796C19.929 7.64859 19.3961 8.28922 18.8519 8.93552C18.5684 9.27 18.3133 9.55347 18.0412 9.89363C17.7634 10.2338 17.5026 10.5116 17.2248 10.8517C16.6692 11.5434 16.0342 12.1217 15.7848 12.955C15.3596 14.361 16.6012 15.4269 17.4232 16.4473L19.056 18.3635C19.192 18.528 19.3054 18.6754 19.4585 18.8454L21.3747 21.1245C21.4484 21.1982 21.4371 21.1869 21.5164 21.2379ZM27.1007 5.04638C27.078 4.68355 26.8115 4.33772 26.6245 4.10528C26.0632 3.41362 25.0881 3.02811 24.1697 3.32859C23.9712 3.39095 23.8238 3.47032 23.6311 3.51567C24.2037 2.43851 23.9712 1.45205 23.1378 0.624333C22.1854 -0.322439 21.1026 -0.0162971 20.1388 0.465593C19.3281 0.873782 18.1262 1.38402 17.2475 1.60512C15.7791 1.97362 15.1725 2.02465 13.5908 2.02465C10.9886 2.02465 9.36147 1.62213 7.0484 0.465593C5.9032 -0.107006 5.08682 -0.254407 4.04367 0.618664C3.30099 1.24229 3.04588 2.26843 3.39737 3.18685C3.44839 3.31725 3.5221 3.40796 3.55611 3.55536C3.12525 3.32859 2.56399 3.13583 1.90635 3.27756C1.40745 3.37961 0.919891 3.68575 0.619418 4.0089C0.052489 4.62685 -0.162944 5.46591 0.131859 6.28796C0.562725 7.47851 1.04462 7.8867 1.60588 9.85961C2.17847 11.8835 2.18414 14.9733 1.62288 17.1333C1.46414 17.7399 1.06162 18.7717 0.800836 19.3387C0.432332 20.1324 0.00146543 20.722 0.00713473 21.6064C0.012804 22.865 1.32808 24.0442 2.79076 23.7834C3.13658 23.721 3.31233 23.5963 3.5958 23.4999C2.98351 24.3617 3.18761 25.7166 4.02099 26.4196C5.59706 27.7519 6.61753 26.6917 8.40903 25.9774C8.87391 25.7903 9.40115 25.5862 9.90572 25.4615C11.3967 25.0873 11.958 25.0306 13.5511 25.0306C15.5467 25.0306 16.8563 25.2064 18.6875 25.9434L20.1104 26.5784C20.8078 26.9242 21.6185 27.2813 22.4915 26.8732C23.7785 26.2665 24.3114 24.8265 23.6311 23.5396C24.181 23.67 25.0824 24.2369 26.2163 23.3469C26.8342 22.8593 27.3445 21.9522 27.163 21.2265C27.1063 21.0111 27.1744 21.1358 27.0553 21.0451C27.1404 20.824 26.8569 20.3195 26.7605 20.1324C25.9271 18.4656 25.5019 17.3487 25.2241 15.4212C25.1221 14.6955 25.1618 13.7487 25.1618 12.9437C25.1618 10.6987 25.7627 8.92418 26.7208 7.00796C26.8682 6.71882 27.0043 6.4467 27.0893 6.12922C27.1404 5.95347 27.2651 5.14276 27.1007 5.04638Z" fill="#EB1B23"/>
<path fill-rule="evenodd" clip-rule="evenodd" d="M62.4146 12.9041L63.985 13.0629C67.8742 13.6014 70.1135 15.563 70.1135 19.5542C70.1135 20.3876 69.9548 21.306 69.7167 21.8956C68.3957 25.1498 65.1812 24.6225 62.4146 24.6282C61.859 24.6282 61.3261 24.5942 60.9463 24.4014C60.4814 24.169 60.5154 23.7948 60.5154 23.1372C60.5154 22.5759 60.5154 22.009 60.5154 21.4477C60.5154 20.8695 60.5551 20.3989 60.5551 19.7923C60.5551 19.2311 60.5608 18.6641 60.5551 18.1029C60.5551 17.774 60.6005 17.621 60.6005 17.2978C60.5891 15.3646 60.6798 13.3917 60.6798 11.4528L60.7195 8.95262C60.7195 8.67483 60.7592 8.4764 60.7592 8.14758C60.7592 6.99672 60.8046 5.96491 60.7989 4.8027C60.7989 4.47955 60.8442 4.32648 60.8386 3.99766C60.8386 3.71987 60.8386 3.43073 60.8386 3.15294C60.8442 2.50664 61.1277 2.38758 61.7683 2.38758C63.0836 2.38758 64.722 2.28554 65.8786 2.75042C67.5 3.39672 68.2653 4.55892 68.5545 6.32207C68.7586 7.59199 68.6849 8.71451 68.0953 9.8427C67.8231 10.3699 67.3979 10.8518 66.9274 11.2147C65.9579 11.9517 64.7844 12.3769 63.5655 12.564C62.6074 12.7114 62.4203 12.5526 62.4146 12.9041ZM54.3926 1.66191C54.3926 1.81498 54.5627 1.79231 54.7101 1.82065C55.7702 2.0531 56.0027 3.01121 56.0027 4.07703C56.0027 5.99892 56.0027 7.92081 56.0027 9.8427C56.0027 13.4144 55.9403 17.0087 55.963 20.603C55.963 20.8922 55.9176 21.0055 55.9233 21.2833C55.929 22.7177 56.1954 24.6169 54.7271 25.1271C54.506 25.2065 54.3756 25.2235 54.1488 25.2745V25.558H68.3787C69.3198 25.558 70.3346 25.3255 71.032 25.0648C71.9901 24.7133 72.3075 24.4355 73.0219 23.8685C73.4754 23.5114 74.065 22.5476 74.2861 21.992C74.9494 20.3592 74.9721 18.3636 74.1954 16.7592C73.2827 14.8544 71.7803 13.8509 69.9094 13.1025C69.6883 13.0175 68.923 12.7511 68.6622 12.7454V12.6603C68.7983 12.632 68.9286 12.547 69.0874 12.4846C69.8868 12.1558 71.0603 11.2884 71.6726 10.6761C71.803 10.5514 71.8427 10.4833 71.956 10.3586L72.4946 9.64428C72.7838 9.15672 72.9198 8.9016 73.0786 8.33467C73.5378 6.72459 73.1183 4.60995 72.0354 3.44207C71.2814 2.62569 70.3063 2.10979 69.2121 1.83766C68.4127 1.64491 67.534 1.50317 66.5646 1.50317H54.3926V1.66191Z" fill="black"/>
<path fill-rule="evenodd" clip-rule="evenodd" d="M40.4405 24.6679C39.5334 24.6679 37.7873 24.7303 37.3167 24.0443C36.9482 23.5 37.192 21.3344 37.0786 20.5747C36.9766 19.917 37.0956 8.77688 37.0956 7.26318C37.0956 6.62821 37.124 3.72554 37.2033 3.18128C37.3224 2.35924 37.5208 2.42727 38.5073 2.42727C42.8159 2.42727 45.7583 3.39105 47.6858 7.23483C48.3888 8.64648 48.695 10.0298 48.9558 11.5662C49.1599 12.7794 49.1882 13.8452 49.1882 15.0811C49.1882 17.5019 48.4058 20.1495 46.9942 22.0317C46.3592 22.8821 45.5258 23.6701 44.409 24.0386C43.2411 24.4241 41.9712 24.6679 40.4405 24.6679ZM30.9274 1.78097C31.5964 1.83766 32.2427 2.31388 32.4411 3.00554C32.5318 3.30601 32.5829 4.49656 32.5772 4.92743C32.5772 5.19955 32.6225 5.29593 32.6225 5.56806C32.6169 6.49782 32.6622 7.31987 32.6622 8.27231C32.6622 8.74853 32.7019 9.10003 32.7019 9.59892L32.5999 22.2698C32.5488 22.6043 32.5658 23.0692 32.5375 23.415C32.5148 23.7438 32.4921 24.2144 32.3391 24.4298C32.186 24.6509 31.9309 24.8323 31.6758 24.974C31.4887 25.0761 31.0068 25.2518 30.7687 25.2745V25.558H43.706C44.5677 25.558 45.4578 25.3596 46.1211 25.1498C46.4499 25.0421 46.8355 24.9117 47.1473 24.7643C47.4931 24.5942 47.7936 24.4638 48.111 24.2767C48.5703 23.9933 48.9444 23.7722 49.3583 23.432C50.7189 22.3095 51.7621 21.1076 52.5501 19.5259C53.1227 18.375 53.5706 16.986 53.7577 15.6934C53.8087 15.3362 53.8824 14.8373 53.9051 14.4348C53.9164 14.2081 53.8881 13.9416 53.9107 13.7148C53.9504 13.403 53.8654 11.98 53.8314 11.7306C53.5309 9.33814 52.8676 7.5353 51.3879 5.6701C50.3674 4.37751 48.8197 3.25499 47.3343 2.58601C46.6597 2.28554 46.0191 2.04743 45.214 1.849C44.494 1.66758 43.5699 1.50317 42.6969 1.50317H30.9274V1.78097Z" fill="black"/>
<path fill-rule="evenodd" clip-rule="evenodd" d="M75.5958 8.10767C75.5958 9.36626 76.055 10.5625 76.724 11.4526C77.359 12.2973 78.2037 13.0229 79.1561 13.4935C80.3467 14.0888 81.1801 14.3496 82.4443 14.7237C83.7936 15.1206 85.9593 15.5004 86.9628 16.2091C87.2065 16.3792 87.558 16.6966 87.7281 16.9348C88.4084 17.8872 88.4935 18.5505 88.4935 19.7524C88.4935 20.4781 88.2157 21.4078 87.9719 21.8897C87.6601 22.5077 87.3199 23.0009 86.7983 23.4148C86.3675 23.7549 86.4525 23.6812 86.0046 23.9533C85.0012 24.56 83.5328 24.7074 82.2856 24.7074C80.2446 24.7074 78.884 24.1348 77.5347 23.1313C76.605 22.4453 76.4065 21.9521 76.1174 20.7218C75.9417 20.7162 75.9927 20.6935 75.8339 20.6822C75.8339 21.4759 75.8623 22.3092 75.8396 23.0973L75.7943 24.2652C75.7943 24.6393 75.7149 25.3537 75.919 25.3537C76.3839 25.3537 76.0494 24.7924 76.8828 24.7924L78.3114 25.1382C79.2298 25.365 80.3297 25.5521 81.2991 25.6938C83.272 25.9773 85.9423 25.8752 87.7338 25.3196C91.4188 24.1801 93.1706 21.9237 93.1706 18.1026C93.1706 14.5026 90.8519 12.422 87.6317 11.5092C86.1407 11.0897 84.3662 10.8403 82.8639 10.2337C81.815 9.81413 80.8059 9.25287 80.4147 8.12468C79.7911 6.33318 80.4657 4.33192 81.9624 3.27177C84.5363 1.45759 90.1432 2.1209 91.2941 5.51681C91.4131 5.87397 91.3111 5.89098 91.6796 5.89098C91.6796 5.10862 91.6399 4.41696 91.6399 3.67429C91.6399 3.31712 91.6569 2.90326 91.6399 2.5461C91.6286 2.35334 91.5946 2.27397 91.6002 2.02452C91.6002 1.89413 91.6456 1.54263 91.5209 1.54263C91.2828 1.54263 91.2601 1.71271 91.0617 1.80909C90.4947 2.10389 89.7294 1.8431 89.2248 1.74106C88.6295 1.622 87.3823 1.40657 86.7643 1.37822C86.0443 1.34988 85.6475 1.25917 84.7857 1.25917C84.5136 1.25917 84.3492 1.23649 84.1394 1.21948L82.8128 1.29885C82.1892 1.3272 81.0383 1.55964 80.4374 1.74673C78.9577 2.21728 77.9032 2.8409 77.0131 3.9294C76.1287 5.00657 75.5958 6.62799 75.5958 8.10767Z" fill="black"/>
<path fill-rule="evenodd" clip-rule="evenodd" d="M21.5164 21.2379C21.437 21.1869 21.4484 21.1982 21.3747 21.1245L19.4584 18.8454C19.3054 18.6754 19.192 18.528 19.0559 18.3636L17.4232 16.4473C16.6011 15.4269 15.3595 14.361 15.7847 12.9551C16.0342 12.1217 16.6691 11.5434 17.2247 10.8517C17.5025 10.5116 17.7633 10.2338 18.0411 9.89363C18.3132 9.55348 18.5684 9.27001 18.8518 8.93552C19.3961 8.28922 19.929 7.64859 20.4732 7.00796C20.7454 6.67914 21.0288 6.37867 21.2839 6.04418C21.471 5.80607 21.9359 5.32418 22.055 5.09741L20.0367 6.76985C19.345 7.33111 18.7044 7.90938 18.0128 8.4593L15.9945 10.1488C15.3142 10.744 14.5148 11.4527 13.551 11.4357C12.4795 11.413 11.6972 10.5513 11.1473 10.1147L9.12331 8.42529C8.68678 8.07379 5.30788 5.15411 5.07544 5.10875C5.16615 5.15411 5.4156 5.48292 5.51197 5.59064C5.64804 5.74371 5.78977 5.9308 5.93717 6.09521C6.22631 6.41269 6.49276 6.76985 6.7819 7.10434L9.32741 10.1147C9.61087 10.4606 9.91135 10.7724 10.1778 11.1239C10.62 11.7021 11.4704 12.3995 11.4817 13.5106C11.4931 14.5708 10.6257 15.3815 10.1948 15.9144C9.91701 16.2602 9.62221 16.5664 9.34442 16.9179L7.6493 18.9248C6.96331 19.7412 5.99386 20.9431 5.30788 21.7084C5.22851 21.7991 5.16615 21.8955 5.10946 21.9465C5.23985 21.9069 10.6257 17.3601 11.1473 16.9462C12.2698 16.0448 13.2052 14.996 14.9627 16.0902C15.3595 16.3339 20.8191 20.9374 21.5561 21.5497C21.7205 21.6914 21.8849 21.8502 22.055 21.9579C21.8792 21.6517 21.5561 21.4193 21.5164 21.2379Z" fill="#FEFEFE"/>
</svg>
