<svg width="80" height="9" viewBox="0 0 80 9" fill="none" xmlns="http://www.w3.org/2000/svg">
<g clip-path="url(#clip0_809_325)">
<path d="M4.22416 7.08804L2.25015 5.20609C2.25015 5.20609 9.58704 -0.865937 12.0963 1.80698C12.0963 1.80698 7.91987 2.65249 4.22075 7.08804" fill="#003058"/>
<path d="M1.84786 4.82759L0 3.06496C0 3.06496 5.36288 -1.4149 10.2041 0.664793C10.2041 0.664793 5.22992 1.44553 1.85127 4.82759" fill="#003058"/>
<path d="M15.0079 0.112549L16.9819 1.9945C16.9819 1.9945 9.645 8.06993 7.13232 5.39361C7.13232 5.39361 11.3088 4.54809 15.0079 0.112549Z" fill="#C72127"/>
<path d="M17.3808 2.37622L19.2286 4.13885C19.2286 4.13885 13.8658 8.62212 9.02451 6.53902C9.02451 6.53902 13.9987 5.75828 17.3774 2.37622" fill="#C72127"/>
<path d="M26.0643 3.31722C26.886 3.04447 26.9099 1.85461 26.9099 1.85461C26.9099 0.231769 24.9461 0.255635 24.9461 0.255635H20.8378V6.51858C20.9742 6.84928 21.4208 6.94475 21.4208 6.94475H24.7415C27.1485 6.94475 27.1383 5.0662 27.1383 5.0662C27.1383 3.58996 26.0643 3.31722 26.0643 3.31722ZM22.9823 1.90916H24.2847C24.2847 1.90916 24.7415 1.90916 24.7415 2.34215C24.7415 2.34215 24.7858 2.85014 24.2335 2.85014H22.9857V1.90575L22.9823 1.90916ZM24.4654 5.33895H22.9823V4.27524H24.5131C24.5131 4.27524 25.0381 4.37752 25.0381 4.76618C25.0381 4.76618 25.0586 5.33554 24.4654 5.33554" fill="#003058"/>
<path d="M32.9137 6.47099V3.36167C32.9137 1.71497 30.4726 1.94339 30.4726 1.94339C27.7554 1.94339 27.6872 3.61396 27.6872 3.61396H29.2384C29.3646 3.05483 30.3328 3.08552 30.3328 3.08552C31.1545 3.08552 31.042 3.50828 31.042 3.50828C31.042 4.06741 29.4328 4.06741 29.4328 4.06741C27.3088 4.22764 27.469 5.72434 27.469 5.72434C27.469 6.8426 28.3691 7.0608 28.3691 7.0608C30.2306 7.48356 31.1068 6.46758 31.1068 6.46758C31.2568 6.85624 32.0546 6.94147 32.0546 6.94147H33.299C32.9444 6.79828 32.9103 6.46758 32.9103 6.46758M30.1044 5.98686C30.1044 5.98686 29.5692 6.03118 29.5692 5.47205C29.5692 5.47205 29.518 4.86519 30.892 4.66063L30.9499 4.67086C30.9499 4.67086 31.0181 5.98686 30.1044 5.98686Z" fill="#003058"/>
<path d="M33.8036 6.94489V2.05931C33.8036 2.05931 35.5594 1.92294 35.5594 2.76845C35.5594 2.76845 36.0162 1.99113 37.1788 1.99113C37.1788 1.99113 39.1187 1.7627 39.1187 3.61397V6.94489H37.8879C37.8879 6.94489 37.2129 6.92784 37.2129 6.44713V3.94467C37.2129 3.94467 37.247 3.19121 36.5617 3.19121C36.5617 3.19121 35.6991 3.29349 35.6991 4.05377V6.94489H33.8001H33.8036Z" fill="#003058"/>
<path d="M39.8074 6.94473V1.16591C39.8074 1.16591 39.9437 0.160156 40.7654 0.160156H41.7916V3.42971L43.0633 2.03529H45.385L43.5576 4.0127L45.6339 6.94473H43.8304C43.8304 6.94473 43.469 7.01973 43.0803 6.51174L42.2212 5.43098C42.2212 5.43098 41.7882 5.48894 41.7882 5.9117V6.94473H39.804H39.8074Z" fill="#003058"/>
<path d="M52.439 2.88086H50.5229C50.5229 2.88086 50.1104 1.72509 49.108 1.72509C49.108 1.72509 47.7852 1.64668 47.7852 3.60023C47.7852 3.60023 47.7273 5.58787 49.166 5.58787C49.166 5.58787 50.3422 5.49241 50.3422 4.33323H52.3946C52.3946 4.33323 52.6231 7.26867 49.2342 7.26867C49.2342 7.26867 45.6067 7.56528 45.6067 3.59C45.6067 3.59 45.5146 0.0442905 48.9614 0.0442905C48.9614 0.0442905 52.4424 -0.208 52.4424 2.87745" fill="#003058"/>
<path d="M58.0507 6.47099V3.36167C58.0507 1.71497 55.6096 1.94339 55.6096 1.94339C52.8924 1.94339 52.8242 3.61396 52.8242 3.61396H54.3755C54.5016 3.05483 55.4699 3.08552 55.4699 3.08552C56.2915 3.08552 56.179 3.50828 56.179 3.50828C56.179 4.06741 54.5698 4.06741 54.5698 4.06741C52.4458 4.22764 52.606 5.72434 52.606 5.72434C52.606 6.8426 53.5061 7.0608 53.5061 7.0608C55.3676 7.48356 56.2438 6.46758 56.2438 6.46758C56.3938 6.85624 57.1916 6.94147 57.1916 6.94147H58.436C58.0814 6.79828 58.0473 6.46758 58.0473 6.46758M55.2414 5.98686C55.2414 5.98686 54.7062 6.03118 54.7062 5.47205C54.7062 5.47205 54.655 4.86519 56.029 4.66063L56.087 4.67086C56.087 4.67086 56.1551 5.98686 55.2414 5.98686Z" fill="#003058"/>
<path d="M77.0305 6.47099V3.36167C77.0305 1.71497 74.5894 1.94339 74.5894 1.94339C71.8721 1.94339 71.804 3.61396 71.804 3.61396H73.3552C73.4814 3.05483 74.4496 3.08552 74.4496 3.08552C75.2712 3.08552 75.1587 3.50828 75.1587 3.50828C75.1587 4.06741 73.5495 4.06741 73.5495 4.06741C71.4255 4.22764 71.5858 5.72434 71.5858 5.72434C71.5858 6.8426 72.4858 7.0608 72.4858 7.0608C74.3473 7.48356 75.2235 6.46758 75.2235 6.46758C75.3701 6.85624 76.1713 6.94147 76.1713 6.94147H77.4157C77.0612 6.79828 77.0271 6.46758 77.0271 6.46758M74.2212 5.98686C74.2212 5.98686 73.6859 6.03118 73.6859 5.47205C73.6859 5.47205 73.6348 4.86519 75.0087 4.66063L75.0667 4.67086C75.0667 4.67086 75.1349 5.98686 74.2212 5.98686Z" fill="#003058"/>
<path d="M64.5012 4.50364C64.5012 1.72503 62.3328 1.94323 62.3328 1.94323C60.9861 1.94323 60.7577 2.69669 60.7577 2.69669C60.6452 1.8955 58.9746 1.94323 58.9746 1.94323V8.0323C58.9746 8.57097 59.7383 8.66643 59.7383 8.66643H60.935V6.62083C61.2589 7.2277 62.2783 7.17996 62.2783 7.17996C64.6512 7.17996 64.5046 4.50364 64.5046 4.50364M61.7157 5.64576C61.2589 5.64576 60.8873 5.13777 60.8873 4.51387C60.8873 3.88996 61.2589 3.38197 61.7157 3.38197C62.1726 3.38197 62.5442 3.88996 62.5442 4.51387C62.5442 5.13777 62.1726 5.64576 61.7157 5.64576Z" fill="#003058"/>
<path d="M65.2546 0H67.1264V1.32623H65.8035C65.8035 1.32623 65.2546 1.25804 65.2546 0.855743V0Z" fill="#003058"/>
<path d="M65.2546 6.3448V2.0354H67.1264V6.94484H65.9161C65.9161 6.94484 65.2546 6.8937 65.2546 6.3448Z" fill="#003058"/>
<path d="M70.3004 0.473877V2.03535H71.1664V3.13316H70.3004V5.15489C70.3004 5.15489 70.2766 5.72766 71.1664 5.72766V6.94479H69.1447C68.5378 6.79478 68.4764 6.27656 68.473 6.11632V6.07541V3.13316H67.6616V2.03535H68.473V1.18984C68.473 1.18984 68.4833 0.473877 69.3902 0.473877H70.297H70.3004Z" fill="#003058"/>
<path d="M78.9022 0.139884H79.9966V6.246C79.9966 6.246 80.0409 6.94832 79.2772 6.94832H78.0567V0.981989C78.0567 0.981989 78.0499 0.208071 78.9022 0.136475" fill="#003058"/>
</g>
<defs>
<clipPath id="clip0_809_325">
<rect width="80" height="8.66652" fill="white"/>
</clipPath>
</defs>
</svg>
