<svg width="80" height="22" viewBox="0 0 80 22" fill="none" xmlns="http://www.w3.org/2000/svg">
<path d="M32.3141 0H10.7883V21.5258H32.3141V0Z" fill="white"/>
<path d="M43.0769 10.7882L32.314 0V21.5511L43.0769 10.7882Z" fill="#DB0011"/>
<path d="M21.5512 10.7882L32.3141 0H10.7883L21.5512 10.7882Z" fill="#DB0011"/>
<path d="M0 10.7882L10.7882 21.5511V0L0 10.7882Z" fill="#DB0011"/>
<path d="M21.5512 10.7883L10.7883 21.5512H32.3141L21.5512 10.7883Z" fill="#DB0011"/>
<path d="M52.523 11.4213H48.6231V15.2706H46.6731V6.25513H48.6231V9.9525H52.523V6.25513H54.473V15.2706H52.523V11.4213Z" fill="black"/>
<path d="M59.1833 15.448C57.2333 15.448 55.6379 14.6629 55.6125 12.5104H57.5625C57.5879 13.4727 58.145 14.0552 59.2086 14.0552C59.9937 14.0552 60.9054 13.65 60.9054 12.7636C60.9054 12.0545 60.2976 11.8519 59.2846 11.548L58.6262 11.3708C57.208 10.9656 55.7898 10.4084 55.7898 8.78767C55.7898 6.78703 57.6638 6.10327 59.3606 6.10327C61.108 6.10327 62.6274 6.71106 62.6528 8.71169H60.7028C60.6268 7.90131 60.1456 7.42014 59.2339 7.42014C58.4995 7.42014 57.7905 7.80001 57.7905 8.61039C57.7905 9.26883 58.3982 9.47143 59.6645 9.87662L60.4242 10.1045C61.969 10.5857 62.9566 11.1175 62.9566 12.637C62.9313 14.6629 60.956 15.448 59.1833 15.448Z" fill="black"/>
<path d="M64.0457 6.28037H67.1859C67.7684 6.25505 68.3761 6.28037 68.9586 6.38167C70.0476 6.63492 70.8833 7.344 70.8833 8.55958C70.8833 9.7245 70.1489 10.307 69.0852 10.5855C70.3008 10.8135 71.2125 11.4212 71.2125 12.7634C71.2125 14.8147 69.1865 15.2706 67.6164 15.2706H64.071L64.0457 6.28037ZM67.1859 10.0284C68.0469 10.0284 68.9333 9.85112 68.9333 8.81282C68.9333 7.87582 68.1229 7.62257 67.3125 7.62257H65.945V10.0284H67.1859V10.0284ZM67.3632 13.9284C68.2748 13.9284 69.1612 13.7258 69.1612 12.6115C69.1612 11.4972 68.4015 11.2946 67.4645 11.2946H65.9197V13.9284H67.3632Z" fill="black"/>
<path d="M76.2774 15.4479C73.365 15.4479 72.0735 13.5992 72.0735 10.8389C72.0735 8.07851 73.517 6.07788 76.3786 6.07788C78.1767 6.07788 79.9241 6.88826 79.9747 8.91422H77.9488C77.8475 8.00254 77.2397 7.5467 76.3786 7.5467C74.6059 7.5467 74.0741 9.44604 74.0741 10.8895C74.0741 12.333 74.6059 14.0044 76.3027 14.0044C77.189 14.0044 77.8475 13.5233 77.9741 12.6116H80C79.7975 14.6882 78.1514 15.4479 76.2774 15.4479Z" fill="black"/>
</svg>
