<svg width="88" height="19" viewBox="0 0 88 19" fill="none" xmlns="http://www.w3.org/2000/svg">
<mask id="mask0_809_348" style="mask-type:alpha" maskUnits="userSpaceOnUse" x="0" y="0" width="88" height="19">
<rect width="88" height="19" fill="#D9D9D9"/>
</mask>
<g mask="url(#mask0_809_348)">
<path d="M-102 275.757H102.878V-14H-102V275.757Z" fill="black"/>
<path d="M62.2472 7.58209V6.13105H64.443C65.1248 6.13105 65.1651 6.47213 65.1651 6.82732C65.1651 7.22828 65.0876 7.58209 64.443 7.58209H62.2472ZM62.2472 8.46559H64.5803C64.7276 8.46593 65.3947 8.40364 65.3947 9.22483C65.3947 10.0481 64.8584 10.0047 64.6234 10.0047H62.2472V8.46559ZM61.2326 5.20282V10.933H64.8698C65.7357 10.933 66.4592 10.6439 66.4592 9.37386C66.4533 8.59981 66.1876 8.09353 65.2463 7.9655C65.2463 7.9655 66.2482 7.88049 66.2482 6.67519C66.2482 5.32775 65.4236 5.20282 64.9001 5.20282H61.2326Z" fill="black"/>
<path d="M38.1971 8.14263C38.1971 8.14263 39.0634 8.01391 39.0634 6.75801C39.0634 5.5066 37.8402 5.1934 37.2331 5.1934H33.7511V10.9332H34.8252V6.06106H36.9801C37.1522 6.06106 37.9975 6.00462 37.9975 6.88467C37.9975 7.80017 37.0042 7.71413 37.0042 7.71413H35.6585V8.58179H36.9904C37.3725 8.58179 37.9107 8.57491 37.9107 9.4584V10.9332H38.9701V9.34655C38.9701 8.32194 38.1971 8.14263 38.1971 8.14263Z" fill="black"/>
<path d="M44.3353 5.19339V8.96107C44.3353 9.69278 44.1752 10.1443 42.6612 10.1443C41.1485 10.1443 40.951 9.71859 40.951 8.96107V5.19339H39.8696V9.09839C39.8696 9.73511 39.9037 11.0523 42.6288 11.0523C45.3581 11.0523 45.4111 9.81909 45.4111 9.09839V5.19339H44.3353Z" fill="black"/>
<path d="M48.0851 7.5094C47.4793 7.44401 47.2284 7.26607 47.2284 6.87475C47.2284 6.40254 47.4215 5.97955 48.8295 5.97955C50.2809 5.97955 50.4678 6.36571 50.4678 7.10637H51.5044C51.5044 6.48411 51.4755 5.09468 48.8615 5.09468C46.3215 5.09468 46.199 6.31994 46.199 7.00725C46.199 7.69526 46.7235 8.21221 47.6714 8.3189C49.4779 8.52231 50.6323 8.46862 50.6323 9.20205C50.6323 9.72864 50.4757 10.1551 48.9703 10.1551C47.4648 10.1551 47.2683 9.76684 47.2683 9.01964H46.199C46.199 9.65051 46.2282 11.0523 48.9376 11.0523C51.6479 11.0523 51.7054 9.68562 51.7054 9.15283C51.7054 7.59717 49.6886 7.67874 48.0851 7.5094Z" fill="black"/>
<path d="M22.0075 11.0544C24.7317 11.0544 24.7282 9.6519 24.7282 9.0792V5.19347H22.1834V6.04702H23.6534V8.94015C23.6534 9.78992 23.2999 10.1578 21.9927 10.1578C20.3641 10.1578 20.3589 9.55691 20.3589 8.53885H19.3698C19.3698 9.47638 19.1512 11.0544 22.0075 11.0544Z" fill="black"/>
<path d="M29.72 6.06161V10.9355H30.7972V6.06161H33.0261V5.1936H27.4959V6.06161H29.72Z" fill="black"/>
<path d="M54.2343 6.06161V10.9355H55.3108V6.06161H57.538V5.1936H52.0057V6.06161H54.2343Z" fill="black"/>
<path d="M68.6609 8.74591L69.6346 6.09302L70.6062 8.74591H68.6609ZM70.9493 9.66004L71.4243 10.9328H72.6351L70.3587 5.20298H68.9187L66.6323 10.9328H67.8562L68.327 9.66004H70.9493Z" fill="black"/>
<path d="M80.5788 5.20287H79.5187V10.934H80.5788V5.20287ZM84.8114 10.933L82.0202 7.98034L84.6792 5.20287H83.2819L80.7085 7.98034L83.381 10.933H84.8114Z" fill="black"/>
<path d="M76.8294 10.9329H78.4973V5.20312H77.4458V9.94653L74.7634 5.20312H73.0934V10.9329H74.1559V6.22395L76.8294 10.9329Z" fill="black"/>
<path d="M-102 275.757H102.878V-14H-102V275.757Z" fill="black"/>
<path d="M16.6398 7.77452C16.6398 5.5195 14.7376 3.69021 12.3917 3.69021C10.782 3.69021 9.38085 4.54961 8.66015 5.81514C8.78612 5.8055 8.91518 5.79965 9.04424 5.79965C11.3912 5.79965 13.2934 7.6279 13.2934 9.88465C13.2934 10.5978 13.1055 11.2641 12.7741 11.8464C14.9396 11.6613 16.6398 9.90944 16.6398 7.77452Z" fill="#009EE3"/>
<path d="M12.1172 12.4198C12.0708 12.4532 12.0191 12.479 11.9685 12.5062C11.8481 12.5675 11.7245 12.6208 11.593 12.6656C11.4165 12.7261 11.2334 12.7654 11.0541 12.7895C10.2618 12.8862 9.4805 12.628 8.93464 12.119C8.68684 11.8888 8.49065 11.6065 8.36366 11.2837C7.98196 10.3076 8.35161 9.24756 9.19965 8.63941C7.90969 9.09853 7.23408 10.4532 7.66051 11.6964C7.62678 11.6489 7.59649 11.6003 7.56551 11.5525C6.76944 10.2113 7.22994 8.50208 8.59666 7.73457C9.90417 7.0032 11.5652 7.39832 12.4067 8.60602C12.4001 8.59742 12.396 8.58881 12.3908 8.5809C11.4165 6.93678 9.26677 6.36751 7.59443 7.30608C6.61526 7.85228 6.01776 8.79222 5.88147 9.80478C5.80162 9.53529 5.7586 9.25032 5.7586 8.95536C5.7586 7.34979 7.02188 6.0244 8.66015 5.81514C6.49873 6.00857 4.81143 7.75281 4.81143 9.87878C4.81143 12.1324 6.71334 13.961 9.05648 13.961C10.6672 13.961 12.0663 13.0992 12.7866 11.8282C12.6063 12.0598 12.3815 12.2622 12.1172 12.4198Z" fill="#009EE3"/>
<path d="M59.7478 12.1157V13.1572C60.5001 13.3503 61.205 13.6738 61.8751 14.0521L61.5808 14.6354C61.196 14.3835 60.2492 13.8796 59.7478 13.7495V15.8201H59.1296V12.1157H59.7478Z" fill="black"/>
<path d="M66.2384 13.2665C66.0911 14.5809 65.6457 15.5803 63.38 15.7693L63.2117 15.2489C65.1136 15.1646 65.4165 14.4088 65.5552 13.7913H62.7058V13.2665H66.2384ZM65.9871 12.796H63.0124V12.2711H65.9871V12.796Z" fill="black"/>
<path d="M67.0947 15.3201C68.0636 14.959 69.0534 14.1065 69.5291 12.8971H67.3459V12.3595H70.3031C70.2467 12.6321 70.1169 13.2623 69.5077 14.102C70.035 14.4968 70.4975 14.8833 70.947 15.316L70.4587 15.7823C70.0608 15.3325 69.6244 14.9171 69.1615 14.5264C68.6817 15.0637 68.1111 15.5176 67.4361 15.7864L67.0947 15.3201Z" fill="black"/>
<path d="M73.3693 12.1157V13.1572C74.1214 13.3503 74.8262 13.6738 75.4963 14.0521L75.2024 14.6354C74.8176 14.3835 73.8705 13.8796 73.3693 13.7495V15.8201H72.7509V12.1157H73.3693Z" fill="black"/>
<path d="M77.7627 15.6352C77.477 15.6896 76.682 15.8196 76.1241 15.8744L76.0635 15.3832C76.2018 15.3708 76.3578 15.3619 76.7856 15.3116V14.2241H76.0807V13.7618H76.7856V13.4555H76.3922V13.2118C76.3054 13.2872 76.2576 13.3251 76.1626 13.3922L76.0074 12.8673C76.3788 12.6154 76.5863 12.3717 76.7897 11.9855H77.3173C77.5162 12.3301 77.6718 12.5104 77.9871 12.7245L77.6894 13.153C77.6587 13.132 77.646 13.1193 77.6326 13.111V13.4555H77.2437V13.7618H77.8752V14.2241H77.2437V15.2528C77.339 15.2404 77.8232 15.1688 77.8752 15.1606L77.8835 15.4084C77.9224 15.4042 77.9485 15.4042 78.0218 15.3915V12.0864H80.0022V14.031H79.2326C79.2498 14.1528 79.2764 14.2912 79.3579 14.5015C79.613 14.3369 79.7468 14.1945 79.8377 14.0936L80.1492 14.4925C80.0714 14.5641 79.9027 14.7197 79.5696 14.9041C79.7861 15.2194 80.0284 15.396 80.2056 15.5219L79.8721 15.9752C79.6264 15.8031 78.9645 15.3454 78.7659 14.031H78.5322V15.3116C78.852 15.2528 78.9735 15.228 79.1332 15.1898V15.6689C78.5281 15.8196 77.996 15.8954 77.7971 15.9246L77.7627 15.6352ZM76.5171 14.3961C76.5608 14.5472 76.6252 14.8749 76.6472 15.1186L76.2497 15.1943C76.2449 14.8539 76.154 14.5262 76.1371 14.4636L76.5171 14.3961ZM77.5248 13.0146C77.2825 12.7875 77.1528 12.5861 77.0582 12.4306C76.9756 12.5651 76.885 12.7245 76.5997 13.0146H77.5248ZM77.8232 14.4171C77.793 14.6481 77.7585 14.8539 77.6935 15.0766L77.3603 15.0136C77.4209 14.7489 77.4426 14.6143 77.4598 14.371L77.8232 14.4171ZM78.5322 12.8673H79.4921V12.5355H78.5322V12.8673ZM78.5322 13.598H79.4921V13.2538H78.5322V13.598Z" fill="black"/>
<path d="M81.9355 12.1116C81.7758 12.4347 81.3824 12.9765 80.8331 13.3127L80.5564 12.8002C80.7164 12.7121 81.0922 12.5022 81.4512 11.935L81.9355 12.1116ZM82.0656 13.0312C82.0002 13.1699 81.8966 13.4053 81.5982 13.7953V15.9498H81.0533V14.3921C80.8936 14.5349 80.8331 14.5724 80.7422 14.6313L80.565 14.0224C81.0189 13.7157 81.3648 13.2873 81.6199 12.8089L82.0656 13.0312ZM84.694 13.3041V13.8125H84.0625V15.5595C84.0625 15.8452 83.9544 15.946 83.6302 15.946H82.7653L82.6703 15.3915H83.3748C83.475 15.3915 83.5135 15.375 83.5135 15.2697V13.8125H82.0349V13.3041H84.694ZM84.5302 12.6492H82.2125V12.1449H84.5302V12.6492Z" fill="black"/>
<path d="M55.7267 15.9144C57.4765 15.9144 57.4737 15.0093 57.4737 14.6403V12.1299H55.8396V12.6819H56.784V14.5487C56.784 15.0987 56.5565 15.3373 55.7174 15.3373C54.6697 15.3373 54.6656 14.948 54.6656 14.2903H54.0302C54.0302 14.8964 53.8895 15.9144 55.7267 15.9144Z" fill="black"/>
</g>
</svg>
