<svg width="80" height="25" viewBox="0 0 80 25" fill="none" xmlns="http://www.w3.org/2000/svg">
<path fill-rule="evenodd" clip-rule="evenodd" d="M13.2964 17.1355L14.4413 15.9906L15.604 17.1533L14.4591 18.2982L13.2964 17.1355ZM16.3927 17.1355L17.5376 15.9906L18.7016 17.1533L17.5567 18.2982L16.3927 17.1355ZM5.62166 8.8667L6.78438 7.70271L7.96619 8.88451L6.80347 10.0498L5.62166 8.86925V8.8667ZM12.3118 3.11161C10.3425 4.5313 9.42913 5.47013 9.10092 7.23711C8.55009 10.1986 9.78787 12.4528 9.92144 12.8815H7.58328C8.43433 13.4031 9.26884 14.6854 9.81458 14.7134C10.3896 14.7439 10.7051 14.735 10.7051 14.735C11.4556 16.2094 11.3602 18.0553 11.0053 18.9686C10.6122 19.9863 9.66193 21.1249 7.46751 20.4379C5.30491 19.7586 2.85225 18.0362 2.40319 15.5275C2.23018 14.5582 2.40319 13.2174 2.68433 12.6017C3.10159 11.7023 3.92465 10.7634 4.76807 9.58672C3.11431 10.9212 0.835938 13.4031 0.188427 15.8316C-0.558309 18.6582 1.05602 20.6657 2.54821 21.9123C4.04041 23.159 6.64572 23.72 7.92548 23.3117C9.24467 22.8982 9.56652 22.3792 10.3133 21.5129C11.2305 20.4443 11.9263 19.3172 12.1235 18.4878C12.4797 16.9879 12.1718 14.7134 12.1718 14.7134C12.1718 14.7134 15.5048 14.8406 17.0593 14.7439C18.1521 14.6752 20.3198 13.6143 20.4864 11.3868C20.6556 9.13512 18.2793 7.46609 16.4042 6.65321C17.5211 7.85918 17.7488 9.23435 17.3659 10.2508C16.9372 11.3957 15.8661 12.2862 14.6334 12.6373C13.724 12.8851 12.7743 12.9491 11.8398 12.8256C11.0765 11.6565 10.6504 6.36062 12.3118 3.11161ZM13.3129 2.7427C16.2388 3.25155 20.4203 5.52356 21.9303 8.79419C23.5739 12.3561 22.0333 16.0453 19.5718 18.5539C17.8188 20.3425 15.5391 20.99 14.2657 21.2661C13.3905 21.4518 12.8664 21.2203 12.383 21.378C11.2381 21.747 10.4634 23.1412 9.40241 24.0126C12.2876 24.1106 16.7693 24.4235 20.2752 21.9314C24.6475 18.8223 24.2405 12.7912 23.5013 10.2419C22.7622 7.69253 20.592 2.51244 15.4539 0C14.8433 1.17035 14.3433 1.90819 13.3129 2.7427V2.7427Z" fill="#6FBD62"/>
<path fill-rule="evenodd" clip-rule="evenodd" d="M38.1308 9.71514H38.7821V9.17703C38.5417 9.2788 38.118 9.29534 38.118 8.92261V5.7423C38.1288 5.35548 38.0799 4.96932 37.973 4.59739C37.8961 4.3388 37.7578 4.10268 37.5698 3.90917C37.1449 3.49701 36.6335 3.45757 36.0903 3.43086C35.4341 3.39743 34.7783 3.50276 34.1655 3.73998L34.1566 4.35696C34.8347 4.07201 35.9732 3.79723 36.6907 4.10254C36.8894 4.17822 37.0618 4.31001 37.1869 4.48189C37.312 4.65377 37.3845 4.85831 37.3955 5.07062C37.4146 5.35939 37.4158 5.64562 37.4158 5.93439C35.743 5.60237 33.5791 5.77283 33.5994 7.93926C33.6001 8.29692 33.7059 8.64649 33.9036 8.94457C34.1012 9.24265 34.3821 9.47609 34.7113 9.61591C35.6616 9.99755 36.9388 9.8309 37.51 8.9137V9.08544C37.512 9.25171 37.579 9.41059 37.6967 9.52806C37.8144 9.64552 37.9734 9.71222 38.1397 9.71387L38.1308 9.71514ZM37.3611 7.73317C37.342 8.31581 37.1779 9.28643 35.7226 9.28643C35.534 9.29168 35.3462 9.25844 35.1709 9.18873C34.9955 9.11902 34.8362 9.0143 34.7026 8.88097C34.569 8.74764 34.464 8.5885 34.394 8.41325C34.324 8.238 34.2904 8.05032 34.2953 7.86166C34.2953 6.00818 36.2607 6.25751 37.3815 6.46232L37.3611 7.73317Z" fill="#420655"/>
<path fill-rule="evenodd" clip-rule="evenodd" d="M40.8238 3.54153H39.5377V4.07073H40.1903V9.72532H40.834V5.60491C40.8238 4.6928 41.9789 3.90536 42.8796 3.96515C43.2281 3.98804 43.7205 4.18268 43.9507 4.48799C44.181 4.7933 44.2369 5.31105 44.2369 5.70668V9.72532H44.9442V5.64816C44.9442 4.23356 44.2675 3.48556 42.8134 3.43085C41.9726 3.40287 41.147 3.7298 40.8238 4.41421V3.54153Z" fill="#420655"/>
<path fill-rule="evenodd" clip-rule="evenodd" d="M51.6572 9.17194C50.8762 9.21519 51.0568 9.36148 49.3114 6.17227L51.2196 3.55043H50.4335L48.6881 5.99163H47.6322C47.6322 4.34889 47.6322 2.70658 47.6322 1.0647H46.2698V1.81652H46.9058V9.72531H47.6373V6.5221L48.7034 6.54119C50.7388 9.97592 50.3228 9.72149 51.6585 9.67061L51.6572 9.17194Z" fill="#420655"/>
<path fill-rule="evenodd" clip-rule="evenodd" d="M26.4552 1.66382V2.22101H27.1905V9.72654H29.8619C30.5311 9.72654 31.1557 9.61332 31.6989 9.13246C32.1798 8.7063 32.3579 8.10458 32.3579 7.43036C32.3579 6.46609 31.8236 5.72571 30.872 5.46747C31.2026 5.30036 31.4782 5.04169 31.6659 4.7223C31.8535 4.40291 31.9454 4.03628 31.9304 3.66614C31.9304 2.42328 30.9127 1.66509 29.7144 1.66509L26.4552 1.66382ZM27.955 5.27156V2.2261H29.6406C30.8364 2.2808 31.1201 2.92195 31.1201 3.76155C31.129 4.70292 30.6799 5.27411 29.7093 5.27411L27.955 5.27156ZM27.955 9.1261V5.87709H29.7157C30.9585 5.87709 31.5297 6.25873 31.5297 7.42908C31.5297 8.66177 30.8046 9.1261 29.8569 9.1261H27.955Z" fill="#420655"/>
<path fill-rule="evenodd" clip-rule="evenodd" d="M40.53 21.1376C40.1827 21.6464 39.4385 21.8309 38.7795 21.8309C37.2848 21.8309 36.5966 20.9646 36.5966 19.5487V15.5962H37.8318V19.4927C37.8318 20.1351 37.9234 20.9518 39.0289 20.9518C39.6649 20.9518 40.2895 20.8246 40.4931 19.8069V15.5962H41.6953V20.471C41.7118 20.9582 41.8288 21.0625 42.4318 20.8094V21.5103C42.1163 21.78 40.8506 22.028 40.53 21.1376Z" fill="#420655"/>
<path fill-rule="evenodd" clip-rule="evenodd" d="M67.1148 14.0162H66.3936V13.0723H68.3373V20.5498C68.3373 21.009 68.6413 21.0854 69.1095 20.8144V21.5306C68.5548 21.9759 67.1212 21.9122 67.1148 20.836V14.0162Z" fill="#420655"/>
<path fill-rule="evenodd" clip-rule="evenodd" d="M77.1124 16.5084H76.1469V15.6256H77.1124V14.099L78.34 13.6602V15.6281H79.7394V16.511H78.34V19.9966C78.3362 20.1458 78.3477 20.295 78.3744 20.4418C78.5347 21.1708 79.5486 21.0029 80.0091 20.6581V21.499C79.1046 22.032 77.3847 22.0613 77.1544 20.7128C77.1245 20.4595 77.1104 20.2046 77.1124 19.9495V16.5084Z" fill="#420655"/>
<path fill-rule="evenodd" clip-rule="evenodd" d="M48.1882 20.5474C48.1882 21.1147 48.697 20.9634 48.968 20.7662V21.546C48.3166 21.9276 47.4834 21.9022 47.0153 21.2572C46.4555 22.0307 44.0372 22.1655 43.4813 20.7636C42.718 18.8237 44.0817 17.0567 47.014 17.9077C47.0483 15.5988 44.7763 16.3392 43.8248 16.8824L43.8528 15.9487C44.7903 15.2935 46.6514 15.3266 47.5826 16.0759C47.8043 16.261 47.9735 16.5009 48.0737 16.7717C48.2072 17.1063 48.1882 17.4956 48.1882 17.853V20.5461V20.5474ZM47.0153 19.7841V18.7104C44.4405 18.0248 44.2318 19.6658 44.7318 20.5321C45.2559 21.4468 47.0331 20.9824 47.0153 19.7905V19.7841Z" fill="#420655"/>
<path fill-rule="evenodd" clip-rule="evenodd" d="M51.0873 16.3189C51.357 15.8558 52.0834 15.4818 52.7411 15.4818C53.6316 15.4818 54.5742 15.7362 54.8923 16.4817C55.1149 15.7808 56.0792 15.3953 56.8615 15.4538C58.3219 15.5632 58.9223 16.3685 58.9223 17.7106V21.7216H57.6502V17.7665C57.668 15.7833 55.106 16.3023 55.1136 17.6978V21.7216H53.9229V17.7665C53.9229 15.8456 51.4257 16.24 51.4041 17.6062V21.7216H50.1422V16.5059H49.3674V15.5938L50.8558 15.5798L51.0873 16.3189Z" fill="#420655"/>
<path fill-rule="evenodd" clip-rule="evenodd" d="M33.789 16.1039L31.5005 21.677H30.7041L28.2629 16.0886V21.6949H27.1473V13.7695H28.4576L31.129 19.9966L33.6745 13.7695H34.911V21.6949H33.789V16.1039Z" fill="#420655"/>
<path fill-rule="evenodd" clip-rule="evenodd" d="M65.1812 20.5474C65.1812 21.1147 65.69 20.9634 65.9623 20.7662V21.546C65.311 21.9276 64.4764 21.9022 64.0083 21.2572C63.4486 22.0307 61.0303 22.1655 60.4756 20.7636C59.7123 18.8237 61.0761 17.0567 64.0083 17.9077C64.0426 15.5988 61.7694 16.3392 60.8178 16.8824L60.8471 15.9487C61.7846 15.2935 63.6457 15.3266 64.5769 16.0759C64.7979 16.2616 64.967 16.5013 65.068 16.7717C65.1952 17.1063 65.1812 17.4956 65.1812 17.853V20.5461V20.5474ZM64.0083 19.7841V18.7104C61.4348 18.0248 61.2249 19.6658 61.7261 20.5321C62.249 21.4468 64.0274 20.9824 64.0083 19.7905V19.7841Z" fill="#420655"/>
<path fill-rule="evenodd" clip-rule="evenodd" d="M74.9269 20.5474C74.9269 21.1147 75.4357 20.9634 75.708 20.7662V21.546C75.0566 21.9276 74.2221 21.9022 73.754 21.2572C73.1943 22.0307 70.776 22.1655 70.2213 20.7636C69.4581 18.8237 70.8218 17.0567 73.754 17.9077C73.7884 15.5988 71.5151 16.3392 70.5635 16.8824L70.5928 15.9487C71.5303 15.2935 73.3914 15.3266 74.3226 16.0759C74.5436 16.2616 74.7127 16.5013 74.8137 16.7717C74.9409 17.1063 74.9269 17.4956 74.9269 17.853V20.5461V20.5474ZM73.754 19.7841V18.7104C71.1805 18.0248 70.9706 19.6658 71.4718 20.5321C71.9947 21.4468 73.7731 20.9824 73.754 19.7905V19.7841Z" fill="#420655"/>
</svg>
