<svg width="69" height="60" viewBox="0 0 69 60" fill="none" xmlns="http://www.w3.org/2000/svg">
<path d="M67.5664 8.49151C66.4955 7.86685 64.8705 8.66998 63.9452 10.2809C63.02 11.8919 63.1374 13.6954 64.2082 14.3154C65.2791 14.9353 66.8994 14.1369 67.8294 12.5306C68.7593 10.9244 68.6372 9.11147 67.5664 8.49151Z" fill="#F58220"/>
<path d="M64.8141 27.4661V20.5995C64.8141 18.7209 64.598 17.6735 64.0204 16.7107C63.1749 15.2171 61.7143 14.5173 59.6618 14.5173C57.3135 14.5173 55.6415 15.3627 54.3311 17.232V15.0762H47.9061V16.0766H48.0845C49.9632 16.1095 50.198 16.3209 50.198 18.8946V27.4661C50.198 30.162 50.0196 30.3451 48.0235 30.378H47.9061V31.4676H56.6654V30.378H56.4916C54.5284 30.3451 54.3499 30.1948 54.3499 27.4661V21.2805C54.3764 20.1997 54.6546 19.1399 55.1624 18.1854C55.9092 16.8985 56.966 16.2363 58.1918 16.2363C59.9296 16.2363 60.7327 17.4434 60.7327 20.7827V27.4661C60.7327 30.1338 60.5213 30.3451 58.591 30.378H58.4125V31.4676H67.1624V30.378H66.984C64.9879 30.3451 64.8094 30.162 64.8094 27.4661" fill="#F58220"/>
<path d="M10.9104 14.663C9.94467 14.6343 8.98907 14.8663 8.14403 15.3346V16.8704C8.67212 16.2968 9.40789 15.9585 10.1871 15.9311C12.1409 15.9311 13.9867 18.317 13.9867 23.3096C13.9867 28.3021 12.0845 30.6552 10.0368 30.6552C6.71155 30.6552 6.65049 27.4661 6.51898 26.6771C6.51898 26.6771 6.4955 8.2802 6.51898 7.89038H0V8.95183H0.178474C2.16517 8.95183 2.33425 9.4215 2.33425 12.0469V25.4512C2.34834 30.6692 7.78708 31.7589 9.86301 31.7589C14.508 31.7589 18.3875 28.3726 18.3875 22.8352C18.3875 17.7346 15.2125 14.6818 10.9292 14.6818" fill="#F58220"/>
<path d="M40.6497 14.8931C38.9485 14.8299 37.3053 15.5167 36.155 16.7717V15.0856H29.6454V16.3913C31.2798 16.4195 31.8528 16.612 31.9327 18.27V37.8692C31.8622 39.4895 31.4912 39.6023 29.8145 39.6492H29.6454V40.7201H38.461V39.6586H38.292C36.9816 39.6116 36.4133 39.5365 36.1597 38.9259V21.0786C36.6012 17.9459 37.8552 16.2269 39.6822 16.2269C41.6407 16.2269 42.8102 18.5752 42.8102 23.4504C42.8102 28.4852 41.5843 30.7678 39.3158 30.7678C38.8331 30.7621 38.3616 30.6223 37.9538 30.3639V31.6743C38.6219 31.8748 39.3186 31.9637 40.0156 31.9373C42.027 31.9906 43.9568 31.1411 45.2759 29.6218C46.4923 28.1283 47.1922 25.7142 47.1922 22.9948C47.1922 17.8707 44.8438 14.8743 40.6497 14.8743" fill="#F58220"/>
<path d="M25.4325 22.605C25.4348 22.5659 25.4348 22.5267 25.4325 22.4876V16.3819H28.49V15.0856H25.4419V10.2856H23.69V10.4359C23.5444 11.5639 23.1635 12.6488 22.5722 13.6203C21.9053 14.6582 20.7875 15.0856 19.5053 15.1467H18.8571V16.396H21.0646V21.8254V22.0038C21.0646 26.9213 20.9143 28.4289 21.8395 29.6125C22.6145 30.5988 24.1315 31.9373 27.4238 31.9373C28.1221 31.9536 28.8184 31.8569 29.4857 31.6508V30.3357C29.0777 30.5937 28.6063 30.7335 28.1237 30.7397C25.3808 30.7397 25.4278 29.1991 25.4325 22.6191" fill="#F58220"/>
<path fill-rule="evenodd" clip-rule="evenodd" d="M44.9331 3.80889C45.0886 3.55838 45.2837 3.33474 45.5108 3.14666C45.7491 2.95859 46.0197 2.81536 46.3092 2.72395C46.628 2.6144 46.9632 2.56039 47.3002 2.56427C47.6569 2.55919 48.0116 2.61804 48.3476 2.73804C48.6694 2.85336 48.9604 3.04141 49.1977 3.28756C49.4462 3.52191 49.6361 3.81153 49.7519 4.13296C49.895 4.49437 49.9637 4.88096 49.9538 5.26955V9.8629C49.9514 9.95524 49.8771 10.0295 49.7847 10.032H49.517C49.4229 10.032 49.3458 9.95703 49.3433 9.8629V5.28364C49.3533 4.95494 49.2974 4.62756 49.1789 4.32082C49.0847 4.07308 48.9334 3.85103 48.7374 3.67268C48.5547 3.49499 48.3326 3.36302 48.0892 3.28756C47.8355 3.19945 47.5688 3.15499 47.3002 3.15605C46.9453 3.14878 46.594 3.22775 46.2763 3.38619C45.9951 3.53283 45.7498 3.7397 45.5577 3.99206C45.3475 4.2493 45.1881 4.54416 45.0881 4.86094C44.9834 5.20658 44.9311 5.56595 44.9331 5.92709V9.8629C44.9306 9.95524 44.8563 10.0295 44.764 10.032H44.4916C44.3992 10.0295 44.325 9.95524 44.3225 9.8629V2.89773C44.325 2.80539 44.3992 2.73112 44.4916 2.72865H44.764C44.8563 2.73112 44.9306 2.80539 44.9331 2.89773" fill="#7D6B56"/>
<path fill-rule="evenodd" clip-rule="evenodd" d="M30.2513 8.69824V9.86301C30.2488 9.95535 30.1745 10.0296 30.0822 10.0321H29.8098C29.7175 10.0296 29.6432 9.95535 29.6407 9.86301V0.187867C29.6368 0.140196 29.6528 0.0930288 29.6847 0.0574774C29.7167 0.0219261 29.762 0.00113411 29.8098 0H30.0822C30.1763 0.00254512 30.2513 0.0796072 30.2513 0.173777V4.02975C30.4315 3.70522 30.6742 3.41952 30.9652 3.18904C31.5185 2.75989 32.2051 2.5388 32.9049 2.56438C33.3755 2.55462 33.841 2.66451 34.2575 2.88376C34.6421 3.09783 34.973 3.39656 35.2251 3.75734C35.4966 4.12294 35.6988 4.53524 35.8215 4.97378C35.9636 5.44276 36.0348 5.93033 36.0329 6.42035C36.0375 6.92905 35.9663 7.43559 35.8215 7.92329C35.6958 8.35202 35.4937 8.75455 35.2251 9.11155C34.6635 9.8046 33.8156 10.2026 32.9237 10.1918C32.2289 10.2178 31.5472 9.99829 30.9981 9.57182C30.6969 9.331 30.4449 9.0344 30.256 8.69824H30.2513ZM30.4391 7.63679C30.5483 8.00407 30.7216 8.34913 30.9511 8.65597C31.1797 8.94137 31.4663 9.17508 31.7918 9.34168C32.1385 9.51509 32.522 9.6021 32.9096 9.5953C33.2914 9.60383 33.6692 9.51664 34.0086 9.34168C34.3191 9.18013 34.5864 8.94663 34.7883 8.66066C35.0085 8.34891 35.1679 7.99833 35.2579 7.6274C35.3762 7.22802 35.4347 6.81337 35.4317 6.39687C35.4301 6.00481 35.3764 5.61471 35.272 5.23679C35.181 4.86472 35.0218 4.51277 34.8024 4.19883C34.5994 3.89574 34.3294 3.64343 34.0133 3.46145C33.6705 3.26132 33.2782 3.16201 32.8814 3.17495C32.1618 3.15589 31.4712 3.459 30.9981 4.00157C30.4634 4.68054 30.202 5.53497 30.2654 6.39687C30.2629 6.81709 30.3247 7.23523 30.4485 7.63679" fill="#7D6B56"/>
<path fill-rule="evenodd" clip-rule="evenodd" d="M42.0963 8.92361L42.0211 9.02693C41.8438 9.25775 41.6295 9.4577 41.3871 9.61871C41.1244 9.80097 40.8319 9.93606 40.5229 10.0179C40.1832 10.1279 39.8279 10.1819 39.4708 10.1776C38.8342 10.2068 38.2047 10.0342 37.672 9.68447C37.1961 9.31551 36.9326 8.73573 36.9675 8.13457C36.9573 7.7588 37.0345 7.3858 37.1929 7.04494C37.3357 6.77255 37.5459 6.54132 37.8035 6.37331C38.0557 6.2039 38.3404 6.08875 38.6395 6.03515C38.9317 5.96993 39.2285 5.92753 39.5272 5.90834L40.7624 5.84259C41.0334 5.82501 41.3023 5.78256 41.5655 5.71578C41.7234 5.67551 41.8646 5.58682 41.9695 5.46216C42.064 5.3089 42.1084 5.12991 42.0963 4.95022C42.097 4.74246 42.0797 4.53503 42.0446 4.33026C41.9641 3.90365 41.6694 3.54863 41.265 3.39093C40.9371 3.25874 40.5849 3.1979 40.2317 3.21245C39.6554 3.1754 39.086 3.35459 38.6348 3.715C38.2413 4.07804 38.0166 4.58856 38.0149 5.124C38.0014 5.21057 37.9286 5.27553 37.8411 5.27899H37.5734C37.5269 5.2803 37.4819 5.26241 37.4491 5.22953C37.4162 5.19665 37.3983 5.15169 37.3996 5.10521C37.4174 4.77295 37.4904 4.44597 37.6156 4.1377C37.7345 3.81871 37.9203 3.52885 38.1605 3.2876C38.4153 3.0579 38.7118 2.87932 39.034 2.76157C39.4201 2.63342 39.825 2.57149 40.2317 2.5784C40.5367 2.57436 40.8411 2.60748 41.1381 2.67703C41.4284 2.73773 41.7013 2.86293 41.9366 3.04337C42.1691 3.21996 42.3572 3.44831 42.4861 3.7103C42.634 4.03123 42.7094 4.38081 42.7068 4.73417V9.86294C42.7044 9.95528 42.6301 10.0296 42.5378 10.032H42.27C42.1777 10.0296 42.1034 9.95528 42.101 9.86294L42.0963 8.92361ZM42.101 6.1056C42.0297 6.14625 41.956 6.18233 41.8802 6.21363C41.656 6.283 41.4268 6.33482 41.1945 6.36862C40.9237 6.40831 40.6508 6.43183 40.3773 6.43907C40.0955 6.43907 39.8278 6.43907 39.5554 6.47664C39.2934 6.49584 39.033 6.53192 38.7757 6.58466C38.5546 6.62044 38.3443 6.70552 38.1605 6.83359C37.9782 6.94588 37.8328 7.10918 37.7425 7.30325C37.6156 7.56792 37.5574 7.86028 37.5734 8.15335C37.5739 8.33665 37.6024 8.51879 37.6579 8.69347C37.7213 8.87301 37.8277 9.03427 37.9679 9.16314C38.1359 9.30739 38.3283 9.42034 38.5362 9.4966C38.8283 9.58548 39.1328 9.62672 39.438 9.61871C39.8314 9.62279 40.2214 9.54606 40.5839 9.39327C40.8938 9.26355 41.1747 9.07357 41.4106 8.83437C41.6358 8.6029 41.8087 8.32583 41.9178 8.02185C42.0346 7.72239 42.0951 7.40394 42.0963 7.08251L42.101 6.1056Z" fill="#7D6B56"/>
<path d="M57.2994 9.90528L54.1386 5.52329L56.5761 2.97299C56.5761 2.97299 56.6701 2.87906 56.6607 2.83209C56.6514 2.7969 56.6216 2.77088 56.5855 2.76634H56.0595C55.9562 2.76845 55.8588 2.8146 55.7918 2.89315L52.18 6.4955V0.16908C52.1754 0.0777149 52.1023 0.00469452 52.011 0H51.6775C51.5852 0.00246372 51.5109 0.0767395 51.5084 0.16908V9.86301C51.511 9.95455 51.5859 10.0274 51.6775 10.0274H52.011C52.1025 10.0274 52.1775 9.95455 52.18 9.86301V7.39256L53.6172 5.98356L56.393 9.91468C56.4385 9.99386 56.5281 10.0368 56.6184 10.0227H57.2055C57.2446 10.0216 57.281 10.0025 57.3041 9.97104C57.3186 9.94808 57.3186 9.91885 57.3041 9.89589" fill="#7D6B56"/>
<path d="M26.1135 49.0708H2.508V58.7741H26.1135V49.0708Z" fill="#004B35"/>
<path d="M10.1495 55.9186C10.0697 55.881 10.0509 55.8528 10.0509 55.7401C10.0509 55.4489 10.0744 55.1342 10.0791 55.0497C10.0838 54.9652 10.0791 54.9088 10.1354 54.9088C10.1918 54.9088 10.1871 54.9605 10.1871 55.0027C10.191 55.0936 10.2068 55.1836 10.2341 55.2704C10.3071 55.5961 10.6054 55.8208 10.9386 55.8012C11.1065 55.8141 11.2724 55.7576 11.3975 55.6449C11.5227 55.5321 11.5962 55.3731 11.6008 55.2047C11.5956 54.862 11.4193 54.5447 11.1311 54.3593L10.9057 54.1714C10.4748 53.8992 10.2019 53.4356 10.173 52.9268C10.179 52.6386 10.3063 52.3662 10.5236 52.1767C10.7408 51.9871 11.0279 51.898 11.3143 51.9311C11.537 51.9289 11.7587 51.9606 11.9718 52.025C12.0141 52.025 12.0376 52.025 12.0376 52.0861C12.0376 52.1472 12.0376 52.3068 12.0376 52.7154C12.0376 52.8329 12.0376 52.8751 11.9765 52.8751C11.9155 52.8751 11.9296 52.8423 11.9296 52.7765C11.9203 52.6526 11.8764 52.5338 11.8028 52.4336C11.6796 52.2598 11.4753 52.1621 11.2626 52.1753C11.1108 52.1591 10.9592 52.209 10.8468 52.3125C10.7344 52.4159 10.672 52.5627 10.6756 52.7154C10.6756 52.9597 10.7883 53.1428 11.1969 53.4763L11.3378 53.5843C11.939 54.054 12.1456 54.425 12.1456 54.9229C12.1602 55.2958 11.983 55.6502 11.676 55.8622C11.4412 56.0131 11.1658 56.0885 10.8869 56.0783C10.632 56.0836 10.3794 56.0289 10.1495 55.9186Z" fill="white"/>
<path d="M13.4935 52.0721C13.4935 51.9781 13.5405 51.9312 13.5781 51.9312C13.6156 51.9312 13.6485 51.9593 13.7143 52.0955L15.0622 55.0169L16.4102 52.058C16.443 51.9734 16.4712 51.9312 16.5135 51.9312C16.5558 51.9312 16.5886 51.9875 16.6027 52.0955L17.0724 55.3128C17.1147 55.6462 17.1663 55.7824 17.3166 55.8435C17.4148 55.8775 17.518 55.8949 17.6219 55.8951C17.6642 55.8951 17.7018 55.8951 17.7018 55.9327C17.7018 55.9703 17.6407 55.9891 17.5702 55.9891C17.4998 55.9891 16.7671 55.9891 16.5699 55.9609C16.4571 55.9609 16.429 55.9374 16.429 55.9092C16.429 55.8811 16.429 55.867 16.4806 55.8482C16.5323 55.8294 16.5229 55.7683 16.5041 55.6227L16.2082 53.3355L15.1327 55.6838C15.0153 55.928 14.9918 55.975 14.9448 55.975C14.8978 55.975 14.8509 55.8717 14.771 55.712C14.6536 55.4724 14.2638 54.6693 14.2074 54.519C14.1511 54.3687 13.8646 53.791 13.6908 53.3965L13.4325 55.4443C13.4281 55.5272 13.4281 55.6103 13.4325 55.6932C13.4319 55.7771 13.4947 55.848 13.5781 55.8576C13.647 55.8759 13.7181 55.8854 13.7894 55.8857C13.827 55.8857 13.8599 55.8858 13.8599 55.9233C13.8599 55.9609 13.8176 55.9797 13.7472 55.9797C13.5358 55.9797 13.3151 55.9797 13.2258 55.9797C13.1366 55.9797 12.8924 55.9797 12.7327 55.9797C12.6857 55.9797 12.6481 55.9797 12.6481 55.9233C12.6481 55.867 12.6763 55.8857 12.7233 55.8857C12.7748 55.8912 12.8268 55.8912 12.8783 55.8857C13.0145 55.8529 13.052 55.6462 13.0755 55.4677L13.4935 52.0721Z" fill="white"/>
<path d="M18.3499 53.5421C18.3499 52.7483 18.3499 52.6027 18.3499 52.4289C18.3499 52.2552 18.3029 52.1706 18.1386 52.1284C18.0745 52.1224 18.01 52.1224 17.946 52.1284C17.8896 52.1284 17.8615 52.1284 17.8615 52.0814C17.8615 52.0344 17.8943 52.0344 17.9695 52.0344C18.2325 52.0344 18.5425 52.0344 18.6411 52.0344C18.8853 52.0344 19.0779 52.0344 19.247 52.0344C20.1393 52.0344 20.2943 52.5417 20.2943 52.8235C20.2901 53.1987 20.1046 53.5486 19.7965 53.7628C20.2791 53.9179 20.6216 54.3474 20.6654 54.8524C20.6586 55.185 20.5111 55.4992 20.2595 55.7168C20.0078 55.9344 19.6757 56.035 19.3456 55.9937H19.0027H18.627C18.5753 55.9937 18.4673 55.9937 18.3452 55.9937H18.007C17.9413 55.9937 17.9084 55.9937 17.9084 55.9421C17.9084 55.8904 17.9084 55.8998 17.9883 55.8998C18.0461 55.9036 18.1042 55.9036 18.162 55.8998C18.2654 55.8998 18.2888 55.7589 18.3076 55.6086C18.3264 55.4583 18.3076 54.9745 18.3076 54.4908L18.3499 53.5421ZM18.9464 53.636C18.9464 53.6736 18.9464 53.6877 18.9793 53.6923C19.0558 53.7002 19.1329 53.7002 19.2094 53.6923C19.3375 53.7084 19.4666 53.6711 19.5663 53.589C19.7139 53.4423 19.788 53.2373 19.7683 53.0301C19.7683 52.6826 19.5757 52.2176 19.153 52.2176C19.0984 52.2123 19.0433 52.2123 18.9887 52.2176C18.9511 52.2176 18.9464 52.2505 18.9464 52.3068V53.636ZM19.5992 54.054C19.4782 53.973 19.3362 53.929 19.1906 53.9272H18.9746C18.9746 53.9272 18.9464 53.9272 18.9464 53.9648V55.2094C18.9464 55.5569 18.9464 55.6462 19.1155 55.7166C19.2303 55.7623 19.3536 55.7831 19.4771 55.7777C19.65 55.7804 19.8156 55.708 19.931 55.5791C20.0464 55.4502 20.1001 55.2776 20.0783 55.106C20.0977 54.6946 19.9198 54.2986 19.5992 54.0399V54.054Z" fill="white"/>
<path d="M21.8912 55.4817C21.0855 54.6529 21.069 53.3387 21.8536 52.4899C22.2747 52.0946 22.8413 51.8921 23.4176 51.931C23.6567 51.9301 23.8955 51.949 24.1315 51.9874C24.3193 51.9874 24.479 52.0578 24.6011 52.0766C24.6575 52.0766 24.681 52.1048 24.681 52.1376C24.681 52.1705 24.681 52.241 24.6528 52.4288C24.6246 52.6167 24.6528 52.8985 24.6528 52.9924C24.6528 53.0864 24.6528 53.1146 24.5918 53.1146C24.5307 53.1146 24.5448 53.0723 24.5448 53.0018C24.5331 52.8286 24.4655 52.6638 24.3522 52.5322C24.0719 52.2979 23.7115 52.1817 23.3471 52.2081C23.003 52.1838 22.6638 52.3009 22.4078 52.5322C22.0705 52.9041 21.9008 53.3982 21.9381 53.8989C21.895 54.355 22.0353 54.8094 22.3278 55.1619C22.6204 55.5144 23.0412 55.7359 23.4974 55.7776C23.9389 55.7776 24.2066 55.7259 24.3992 55.4817C24.4815 55.3803 24.5393 55.2614 24.5683 55.1341C24.5683 55.0543 24.5683 55.0308 24.634 55.0308C24.6998 55.0308 24.6763 55.0684 24.6763 55.1106C24.6546 55.3443 24.6185 55.5765 24.5683 55.8058C24.5617 55.8785 24.5115 55.9399 24.4415 55.9607C24.1545 56.0509 23.8544 56.0922 23.5538 56.0829C22.943 56.1028 22.3479 55.8876 21.8912 55.4817Z" fill="white"/>
<path d="M4.04382 53.6925V56.6232L5.23678 56.1207V53.1711L4.04382 53.6925Z" fill="#BFD730"/>
<path d="M6.74915 51.2596V54.195L7.9421 53.6878V50.7383L6.74915 51.2596Z" fill="#BFD730"/>
<path d="M5.41528 53.0959V56.0313L6.60824 54.2889V51.3394L5.41528 53.0959Z" fill="#BFD730"/>
<path d="M28.9033 55.6885C28.9033 56.0454 29.0207 56.3742 29.589 56.8439L29.8239 57.0364C30.2935 57.4122 30.4016 57.6047 30.4016 57.9382C30.4007 58.119 30.325 58.2913 30.1923 58.4142C30.0597 58.537 29.8821 58.5993 29.7018 58.5863C29.3689 58.6253 29.0582 58.4128 28.9738 58.0885C28.9675 58.0276 28.9675 57.9662 28.9738 57.9053C28.9738 57.8771 28.9738 57.8114 28.8986 57.8114C28.8235 57.8114 28.8235 57.8912 28.8188 57.9288V57.9899C28.8188 58.0979 28.8188 58.2717 28.8188 58.4595C28.8188 58.6474 28.8188 58.6427 28.9174 58.6944C29.142 58.7938 29.3858 58.8419 29.6313 58.8353C29.9151 58.8443 30.1951 58.7673 30.4344 58.6145C30.7227 58.4076 30.8968 58.0769 30.9041 57.7221C30.9041 57.3182 30.7773 56.9848 30.1339 56.4775L29.9883 56.3601C29.5186 55.9562 29.3683 55.7918 29.3683 55.5241C29.3651 55.367 29.4287 55.2159 29.5433 55.1084C29.658 55.0009 29.8129 54.9471 29.9695 54.9605C30.3969 54.9605 30.5425 55.139 30.58 55.2141C30.6161 55.291 30.6384 55.3737 30.6458 55.4583C30.6458 55.4959 30.6458 55.5617 30.7256 55.5617C30.8055 55.5617 30.8008 55.4583 30.8008 55.402C30.8008 55.1296 30.8008 54.9652 30.8008 54.8947V54.8525C30.8008 54.8055 30.7679 54.782 30.7115 54.782C30.6527 54.7798 30.5943 54.7704 30.5378 54.7538C30.3835 54.72 30.226 54.7027 30.0681 54.7022C29.7893 54.6674 29.509 54.7531 29.2973 54.9378C29.0857 55.1226 28.9629 55.3888 28.9597 55.6697" fill="#004B35"/>
<path d="M35.2251 54.829C35.2251 54.829 33.8536 57.9851 33.8489 57.9992C33.8442 58.0133 32.4399 54.8243 32.4399 54.8243C32.4399 54.8243 32.393 54.7256 32.3366 54.7256C32.2802 54.7256 32.2474 54.8102 32.2427 54.8478L31.8669 58.2388C31.8669 58.4172 31.8341 58.591 31.712 58.6145C31.6652 58.6204 31.6178 58.6204 31.5711 58.6145C31.5241 58.6145 31.4865 58.6427 31.4865 58.6756C31.4865 58.7084 31.4865 58.7601 31.6039 58.7601H31.8998H32.1018H32.454C32.4963 58.7601 32.5761 58.7601 32.5761 58.6756C32.5713 58.6385 32.5383 58.6117 32.501 58.6145C32.4435 58.624 32.3848 58.624 32.3272 58.6145C32.2691 58.6008 32.2294 58.5472 32.2333 58.4877C32.2333 58.4031 32.2333 58.3092 32.2333 58.2294C32.2333 58.2294 32.4118 55.9468 32.4165 55.9468C32.4211 55.9468 33.5765 58.5346 33.5765 58.5346C33.6752 58.7319 33.6939 58.7742 33.7503 58.7742C33.8067 58.7742 33.8302 58.7319 33.9053 58.5534L35.0701 55.8951L35.2908 58.4501C35.2882 58.4751 35.2882 58.5003 35.2908 58.5253C35.2908 58.5675 35.2908 58.6192 35.2908 58.6192C35.2612 58.6296 35.2421 58.6583 35.2438 58.6896C35.2438 58.7554 35.3143 58.7695 35.4082 58.7742C35.5961 58.7742 36.108 58.7742 36.2161 58.7742C36.3241 58.7742 36.3523 58.7084 36.3523 58.6896C36.3523 58.6709 36.3523 58.6286 36.2771 58.6286C36.1753 58.6302 36.0739 58.616 35.9765 58.5863C35.7934 58.5206 35.7605 58.2388 35.7464 58.0697L35.4223 54.89C35.4223 54.8196 35.4223 54.7209 35.3237 54.7209C35.2251 54.7209 35.2345 54.7867 35.2204 54.8243" fill="#004B35"/>
<path d="M37.7143 55.0121C37.7143 55.0121 37.7143 55.0121 37.7425 55.0121C37.8236 55.0032 37.9055 55.0032 37.9867 55.0121C38.4563 55.0121 38.6583 55.4817 38.6583 55.8762C38.6588 56.0602 38.5939 56.2383 38.4751 56.3788C38.3765 56.4915 38.3154 56.5056 38.0055 56.5056C37.9023 56.5148 37.7986 56.5148 37.6955 56.5056V55.0966L37.7143 55.0121ZM37.6485 54.8336H37.3855C37.2728 54.8336 37.038 54.8336 36.8595 54.8336C36.8313 54.8336 36.7374 54.8336 36.7374 54.9134C36.7373 54.9342 36.7459 54.9541 36.761 54.9683C36.7761 54.9825 36.7965 54.9899 36.8172 54.9886C36.8733 54.9812 36.9302 54.9812 36.9863 54.9886C37.1319 55.0168 37.1742 55.0731 37.1836 55.2469C37.1929 55.4207 37.1836 55.5616 37.1836 56.3788V57.3181C37.1836 57.7878 37.1836 58.2575 37.1836 58.4547C37.1836 58.652 37.1366 58.6942 37.0614 58.7083C37.0115 58.7135 36.9611 58.7135 36.9111 58.7083C36.8548 58.7083 36.8313 58.7412 36.8313 58.7741C36.8313 58.807 36.9205 58.8586 36.9534 58.8586C37.0661 58.8586 37.2258 58.8586 37.3432 58.8586H37.4654H37.6673H38.1652C38.5057 58.8953 38.8463 58.7894 39.1061 58.5661C39.3659 58.3428 39.5217 58.022 39.5366 57.6798C39.5193 57.1548 39.167 56.7003 38.663 56.5526C38.9701 56.3405 39.1473 55.9861 39.1327 55.6132C39.1327 55.3033 38.9025 54.7866 38.043 54.7866H37.6673L37.6485 54.8336ZM37.8693 58.5158C37.7331 58.45 37.7331 58.3984 37.7143 58.1635V56.7123C37.8441 56.7046 37.9743 56.7046 38.1041 56.7123C38.2481 56.7157 38.3888 56.7562 38.5127 56.8297C38.8233 57.0726 38.9981 57.4501 38.9824 57.8441C38.9917 58.0333 38.9213 58.2177 38.7883 58.3525C38.6553 58.4873 38.4718 58.5602 38.2826 58.5534C38.1227 58.5581 37.9633 58.5327 37.8129 58.4782" fill="#004B35"/>
<path d="M40.7765 55.3221C40.439 55.7294 40.259 56.2444 40.2693 56.7733C40.2569 57.3527 40.4867 57.911 40.9033 58.3138C41.3514 58.702 41.9378 58.8919 42.5284 58.8399C42.8258 58.838 43.121 58.7872 43.402 58.6896C43.4804 58.6665 43.5365 58.5973 43.5429 58.5158C43.5842 58.292 43.614 58.0663 43.6321 57.8395C43.6321 57.7361 43.5804 57.7268 43.5569 57.7268C43.5335 57.7268 43.4865 57.7972 43.4724 57.8348C43.4517 57.9852 43.3988 58.1293 43.3174 58.2575C43.104 58.4604 42.8116 58.5584 42.519 58.5252C42.0488 58.5387 41.5961 58.3466 41.2791 57.9992C40.9647 57.6449 40.7866 57.1904 40.7765 56.717C40.7199 56.2372 40.8587 55.7548 41.1616 55.3784C41.4447 55.1043 41.8297 54.9612 42.2231 54.9839C42.5569 54.9628 42.8881 55.0556 43.1624 55.2469C43.2902 55.3799 43.3639 55.5557 43.3691 55.7401C43.3691 55.8011 43.3691 55.8857 43.4442 55.881C43.5194 55.8763 43.5194 55.7964 43.5194 55.7354V55.2046C43.5194 55.0919 43.5194 55.0262 43.5194 54.9792V54.9134C43.5194 54.8571 43.4865 54.8242 43.4207 54.8195C43.2632 54.8106 43.1063 54.7918 42.9511 54.7632C42.718 54.7277 42.4822 54.7135 42.2466 54.7209C41.6905 54.7003 41.1528 54.9212 40.7718 55.3268" fill="#004B35"/>
<path d="M50.353 56.5011C50.3248 56.2146 50.2497 56.2146 50.1463 56.224C50.043 56.2334 49.935 56.2709 49.8927 56.2709C49.877 56.2723 49.8614 56.2669 49.8498 56.2562C49.8382 56.2455 49.8316 56.2304 49.8317 56.2146C49.8317 56.1676 49.8317 56.1535 50.1088 56.0831C50.2825 56.0408 50.7146 55.8858 50.7428 55.8858C50.753 55.8799 50.7655 55.8799 50.7757 55.8858V56.1441C50.7757 56.4588 50.7757 56.4823 50.8227 56.4823C50.8696 56.4823 50.8649 56.4823 50.9495 56.3649C51.1501 56.0913 51.4538 55.9114 51.7902 55.867C51.883 55.8586 51.9749 55.8912 52.0417 55.9562C52.1085 56.0212 52.1436 56.1122 52.1377 56.2052C52.1404 56.372 52.0086 56.5101 51.8418 56.5152C51.7489 56.518 51.6615 56.4716 51.6117 56.3931C51.5701 56.3374 51.5071 56.3016 51.4379 56.2944C51.2237 56.3409 51.0412 56.4803 50.9401 56.6749C50.7992 56.9285 50.7616 57.0694 50.7616 57.943C50.7616 58.004 50.7616 58.2952 50.7616 58.3844C50.7616 58.4737 50.7945 58.5629 50.9213 58.5864C51.0481 58.6099 51.0669 58.5864 51.1561 58.6146C51.1875 58.615 51.2142 58.6375 51.2199 58.6684C51.2256 58.6992 51.2087 58.7298 51.1796 58.7414C51.1022 58.7575 51.0222 58.7575 50.9448 58.7414H50.4751C50.3295 58.7414 50.0571 58.7414 50.0054 58.7414C49.9538 58.7414 49.888 58.7414 49.8739 58.6709C49.8598 58.6005 49.9491 58.5911 50.0101 58.5911C50.0712 58.5911 50.2027 58.5911 50.2544 58.516C50.306 58.3552 50.3298 58.1869 50.3248 58.0181C50.3248 57.633 50.3248 56.7688 50.3248 56.4682" fill="#004B35"/>
<path d="M53.7393 55.8905C54.3657 55.8004 54.9822 56.1086 55.2861 56.6636C55.5899 57.2187 55.5173 57.9041 55.1039 58.3832C54.6905 58.8623 54.0231 59.0344 53.4295 58.8151C52.8359 58.5957 52.4409 58.031 52.4384 57.3982C52.4019 57.0237 52.5204 56.6507 52.7662 56.3659C53.0119 56.0811 53.3636 55.9093 53.7393 55.8905ZM53.9742 58.7367C54.5812 58.7367 55.0121 58.1027 55.0121 57.3982C55.0121 56.6937 54.6054 56.0502 53.9742 56.0502C53.3429 56.0502 52.9362 56.5997 52.9362 57.3982C52.9362 58.0933 53.3247 58.7367 53.9742 58.7367Z" fill="#004B35"/>
<path d="M59.4552 59.521C59.4842 59.6611 59.608 59.7612 59.751 59.7605C59.8591 59.7605 59.8966 59.7605 59.8966 59.831C59.8966 59.9014 59.7839 59.9108 59.7041 59.9061C59.4505 59.9061 59.0982 59.9061 58.6755 59.9061C58.5816 59.9061 58.5675 59.8497 58.5722 59.8263C58.5733 59.8066 58.5826 59.7884 58.5977 59.7759C58.6129 59.7634 58.6326 59.7579 58.652 59.7605C58.7207 59.7679 58.79 59.7679 58.8587 59.7605C58.9103 59.7484 58.9525 59.7114 58.9714 59.6619C59.0258 59.2147 59.0415 58.7638 59.0184 58.3139C59.0184 58.3139 59.0184 57.2431 59.0184 56.9049C59.0184 56.3883 59.0184 56.2239 58.8164 56.2239C58.7319 56.2239 58.6332 56.2568 58.591 56.2568C58.5634 56.2546 58.5415 56.2327 58.5393 56.2051C58.5393 56.1628 58.5393 56.1488 58.6755 56.1159C58.8869 56.0736 59.3706 55.8857 59.3894 55.8857C59.4082 55.8857 59.4317 55.9374 59.4317 56.0548C59.4317 56.1722 59.4317 56.2004 59.4786 56.1816C59.5256 56.1628 59.6712 56.0736 59.6853 56.0642C59.8734 55.9529 60.0868 55.8914 60.3053 55.8857C60.9158 55.8857 61.4747 56.4212 61.4747 57.337C61.4747 58.1167 61.0379 58.8916 60.3006 58.8916C60.1047 58.8891 59.9109 58.8525 59.7276 58.7836C59.658 58.7436 59.5839 58.712 59.5068 58.6897C59.4317 58.6897 59.4364 58.6897 59.4317 59.1593C59.4317 59.2345 59.4317 59.4505 59.4317 59.5116L59.4552 59.521ZM59.5585 56.3554C59.4129 56.4963 59.4082 56.5996 59.4082 57.4544C59.4082 58.3092 59.4082 58.3374 59.5538 58.4548C59.716 58.576 59.9151 58.6374 60.1174 58.6286C60.7749 58.6286 60.9628 57.9053 60.9628 57.3887C60.9628 56.6889 60.6669 56.13 60.1268 56.13C59.917 56.1374 59.7163 56.2171 59.5585 56.3554Z" fill="#004B35"/>
<path d="M49.2352 56.7639H48.8454H48.7092H48.2677C48.2395 56.7639 48.155 56.7639 48.155 56.8437C48.1575 56.8834 48.1904 56.9142 48.2301 56.9142C48.2691 56.9093 48.3085 56.9093 48.3475 56.9142C48.5072 56.9611 48.5354 56.9987 48.5354 57.412V58.2903C48.5397 58.354 48.5067 58.4144 48.4509 58.4453C48.2879 58.5153 48.1116 58.549 47.9342 58.5439C47.4672 58.5473 47.0211 58.3507 46.7084 58.0038C46.3941 57.6023 46.2282 57.1046 46.2387 56.5948C46.2102 56.1193 46.3803 55.6533 46.7084 55.3079C46.9849 55.0726 47.3416 54.9532 47.7041 54.9744C48.1082 54.9307 48.5096 55.0784 48.789 55.3737C48.8418 55.4763 48.8752 55.5877 48.8877 55.7024C48.8877 55.7447 48.8877 55.8151 48.9534 55.8151C49.0192 55.8151 49.0379 55.7259 49.0379 55.6696C49.027 55.4536 49.027 55.2373 49.0379 55.0214C49.0398 54.9917 49.0398 54.9619 49.0379 54.9322C49.0379 54.9322 49.0379 54.8617 48.944 54.8523C48.8175 54.8466 48.6917 54.8293 48.5683 54.8007C48.3262 54.7459 48.0791 54.716 47.8309 54.7114C47.3794 54.6881 46.9316 54.8045 46.5487 55.0449C46.0086 55.4532 45.7046 56.1016 45.7362 56.778C45.7247 57.3338 45.9321 57.872 46.3139 58.2762C46.7493 58.6639 47.3189 58.8661 47.9014 58.8398C48.2586 58.8453 48.6118 58.7631 48.9299 58.6003C49.0098 58.5533 49.0098 58.5204 49.0098 58.2903V57.722C49.0098 57.506 49.0098 57.351 49.0098 57.1866C49.0098 57.0222 49.0567 56.947 49.1554 56.9236H49.2681C49.3104 56.9236 49.3432 56.8954 49.3432 56.8578C49.3432 56.8202 49.2775 56.778 49.2305 56.778" fill="#004B35"/>
<path d="M58.2951 58.6333C58.2149 58.6299 58.1364 58.609 58.065 58.5722C57.9523 58.5112 57.9335 58.3703 57.9335 57.9945C57.9335 57.8208 57.9335 57.2807 57.9335 57.1257C57.9335 56.9707 57.9335 55.9797 57.9335 55.9374C57.9277 55.9099 57.905 55.8891 57.8771 55.8857C57.8771 55.8857 57.5719 55.975 57.4732 55.9938C57.0928 56.0877 57.0364 56.083 57.0364 56.1582C57.0364 56.2333 57.0364 56.2098 57.1069 56.2051H57.3088C57.5296 56.2051 57.5296 56.3883 57.5296 56.9754C57.5421 57.395 57.5154 57.8148 57.4497 58.2294C57.2838 58.4765 57.0138 58.634 56.7171 58.6568C56.4907 58.6634 56.2852 58.5257 56.2051 58.3139C56.144 58.1005 56.1233 57.8775 56.1441 57.6564C56.1441 57.4873 56.1441 55.9609 56.1441 55.9562C56.1418 55.9286 56.12 55.9067 56.0924 55.9045C56.0924 55.9045 55.7401 56.0126 55.5523 56.0595C55.3644 56.1065 55.3221 56.1206 55.3221 56.1675C55.3221 56.2145 55.3221 56.2239 55.3973 56.2145H55.557C55.6177 56.2067 55.6765 56.2389 55.7026 56.2944C55.7272 56.5786 55.7366 56.8639 55.7308 57.1491C55.7308 57.2807 55.7308 57.8865 55.7308 58.0086C55.773 58.8634 56.3977 58.9198 56.5668 58.9198C56.8291 58.9043 57.0809 58.8111 57.2901 58.6521C57.3182 58.6521 57.4356 58.5159 57.4685 58.5159C57.5014 58.5159 57.5155 58.5488 57.5202 58.6568C57.516 58.6769 57.516 58.6977 57.5202 58.7178C57.521 58.7443 57.5335 58.7691 57.5544 58.7854C57.5753 58.8018 57.6023 58.808 57.6282 58.8024C57.7221 58.8024 57.8255 58.8024 57.91 58.8024H58.281C58.3656 58.8024 58.3938 58.7601 58.3985 58.7272C58.4032 58.6944 58.3985 58.6615 58.2904 58.6521" fill="#004B35"/>
<path d="M46.638 49.1131C46.638 49.1131 45.2713 52.2693 45.2619 52.2834L43.8529 49.1085C43.8529 49.0615 43.8059 49.0098 43.7448 49.0098C43.6838 49.0098 43.6603 49.0944 43.6556 49.1366L43.308 52.5276C43.308 52.7061 43.2752 52.8752 43.1484 52.9034C43.1032 52.9094 43.0574 52.9094 43.0122 52.9034C42.9652 52.9034 42.9276 52.9315 42.9276 52.9644C42.9276 52.9973 42.9276 53.049 43.045 53.049H43.3409H43.5429H43.8951C43.9374 53.049 44.0172 53.049 44.0172 52.9644C44.0172 52.8799 43.9844 52.9034 43.9374 52.9034C43.8813 52.9104 43.8245 52.9104 43.7683 52.9034C43.7102 52.8897 43.6705 52.8361 43.6744 52.7766C43.6744 52.692 43.6744 52.5981 43.6744 52.5182L43.8529 50.2357L45.0176 52.8235C45.1116 53.0208 45.135 53.0631 45.1914 53.0631C45.2478 53.0631 45.2713 53.0208 45.3464 52.8423L46.4971 50.1793L46.7178 52.7249C46.7153 52.753 46.7153 52.7813 46.7178 52.8094C46.7178 52.847 46.7178 52.8987 46.7178 52.8987C46.6892 52.9103 46.6705 52.9382 46.6709 52.9691C46.6709 53.0349 46.7413 53.049 46.8352 53.0584C47.0231 53.0584 47.535 53.0584 47.6431 53.0584C47.7511 53.0584 47.7793 52.9973 47.7793 52.9738C47.7793 52.9503 47.7793 52.9128 47.7041 52.9128C47.6023 52.9144 47.5009 52.9002 47.4035 52.8705C47.2204 52.8047 47.1875 52.5229 47.1734 52.3539L46.8493 49.1789C46.8493 49.1038 46.8493 49.0051 46.7507 49.0051C46.6521 49.0051 46.6615 49.0709 46.6474 49.1085" fill="#004B35"/>
<path d="M49.1554 49.315C49.1554 49.315 49.1554 49.315 49.1836 49.2915C49.2663 49.2825 49.3498 49.2825 49.4325 49.2915C49.9022 49.2915 50.0994 49.7612 50.0994 50.151C50.1008 50.3351 50.0357 50.5135 49.9162 50.6536C49.8176 50.7663 49.7566 50.7757 49.4466 50.7757C49.345 50.7835 49.2429 50.7835 49.1413 50.7757V49.3667L49.1554 49.315ZM49.0943 49.1037H48.8454H48.3194C48.2912 49.1037 48.1973 49.1037 48.1973 49.1788C48.1972 49.1996 48.2058 49.2194 48.2209 49.2337C48.236 49.2479 48.2564 49.2553 48.2771 49.254H48.4462C48.5918 49.2868 48.6294 49.3432 48.6434 49.517C48.6575 49.6907 48.6434 49.8316 48.6434 50.6442V51.5835C48.6434 52.0532 48.6434 52.4947 48.6153 52.7107C48.5871 52.9268 48.5683 52.9502 48.4979 52.9643C48.4479 52.9694 48.3975 52.9694 48.3476 52.9643C48.2912 52.9643 48.2677 52.9972 48.2677 53.0301C48.2677 53.063 48.357 53.1146 48.3851 53.1146H48.7796H48.8971H49.1037C49.2775 53.1146 49.517 53.1146 49.5734 53.1146C49.914 53.1513 50.2546 53.0454 50.5143 52.8221C50.7741 52.5988 50.9299 52.278 50.9448 51.9358C50.9255 51.4126 50.5736 50.9605 50.0712 50.8133C50.379 50.6018 50.5564 50.247 50.5409 49.8739C50.5409 49.5686 50.3108 49.052 49.4513 49.052L49.0943 49.1037ZM49.301 52.8234C49.1601 52.7577 49.1601 52.7107 49.146 52.4712V52.4477C49.146 52.3726 49.146 51.715 49.146 51.3205V51.0246C49.362 51.0246 49.4935 51.0246 49.5405 51.0246C49.6903 51.0349 49.8347 51.0852 49.9585 51.1702C50.2679 51.4141 50.4424 51.791 50.4282 52.1847C50.4376 52.3734 50.3671 52.5574 50.2339 52.6915C50.1007 52.8256 49.9172 52.8973 49.7284 52.8892C49.5851 52.8761 49.4452 52.8379 49.3151 52.7765L49.301 52.8234Z" fill="#004B35"/>
<path d="M38.5127 49.1131C38.5127 49.1131 37.146 52.2692 37.1413 52.2833C37.1366 52.2974 35.7323 49.1084 35.7323 49.1084C35.7323 49.1084 35.6853 49.0098 35.6243 49.0098C35.5632 49.0098 35.5397 49.0943 35.5351 49.1366L35.1875 52.5276C35.1875 52.706 35.1546 52.8751 35.0278 52.9033C34.9826 52.9094 34.9368 52.9094 34.8916 52.9033C34.8446 52.9033 34.8071 52.9315 34.8071 52.9644C34.8071 52.9972 34.8071 53.0489 34.9245 53.0489H35.2204H35.4223H35.7746C35.8169 53.0489 35.8967 53.0489 35.8967 52.9644C35.8918 52.9273 35.8588 52.9005 35.8215 52.9033C35.7639 52.9107 35.7055 52.9107 35.6478 52.9033C35.5889 52.8899 35.5476 52.8369 35.5491 52.7765C35.5444 52.6905 35.5444 52.6042 35.5491 52.5182L35.7276 50.2356L36.8924 52.8235C36.991 53.0207 37.0098 53.063 37.0662 53.063C37.1225 53.063 37.146 53.0207 37.2212 52.8422L38.3812 50.1886L38.602 52.7342C38.602 52.7671 38.602 52.7906 38.602 52.8188C38.602 52.8469 38.602 52.908 38.602 52.908C38.5733 52.9196 38.5547 52.9475 38.555 52.9784C38.555 53.0442 38.6302 53.0583 38.7241 53.0677C38.9073 53.0677 39.4239 53.0677 39.5272 53.0677C39.6305 53.0677 39.6634 53.0066 39.6634 52.9831C39.6634 52.9597 39.6634 52.9221 39.5883 52.9221C39.4865 52.9235 39.3851 52.9093 39.2877 52.8798C39.1045 52.8141 39.0716 52.5323 39.0576 52.3632L38.7335 49.1882C38.7335 49.1131 38.7335 49.0145 38.6349 49.0145C38.5362 49.0145 38.5456 49.0802 38.5315 49.1178" fill="#004B35"/>
<path d="M32.6888 52.9457C32.6234 52.9444 32.5584 52.9333 32.4963 52.9128C32.3788 52.8799 32.2426 52.7907 32.0689 52.3586C31.8481 51.7997 31.3737 50.5644 31.0919 49.8271C30.9698 49.5218 30.89 49.3057 30.8665 49.2494C30.8055 49.0897 30.7773 49.0427 30.7256 49.0427C30.6739 49.0427 30.6458 49.0897 30.58 49.2635L29.4105 52.4713C29.3119 52.7437 29.2133 52.9034 29.0019 52.941H28.8563C28.8094 52.941 28.7765 52.941 28.7765 53.002C28.7765 53.0631 28.8704 53.0772 28.908 53.0772C29.0724 53.0772 29.2509 53.0772 29.3777 53.0772H29.6266H29.899C29.9882 53.0772 30.007 53.0349 30.007 53.002C30.007 52.9691 30.007 52.941 29.9225 52.941H29.8708C29.8098 52.941 29.7064 52.9081 29.7064 52.8189C29.7127 52.7047 29.7365 52.5923 29.7769 52.4854L30.0587 51.6165H31.2328L31.7025 52.847C31.7118 52.8728 31.7118 52.9011 31.7025 52.9269C31.6855 52.9268 31.6692 52.9339 31.6576 52.9464C31.646 52.9589 31.6401 52.9756 31.6415 52.9926C31.6415 53.049 31.7025 53.0537 31.8011 53.0584H31.8293C32.0595 53.0584 32.346 53.0584 32.6372 53.0584C32.7499 53.0584 32.7734 53.0161 32.7734 52.9832C32.7734 52.9504 32.7499 52.9457 32.6888 52.9457ZM30.1573 51.3488L30.627 49.9398C30.6265 49.932 30.6265 49.9241 30.627 49.9163C30.6295 49.9239 30.6295 49.9322 30.627 49.9398L31.1389 51.3488H30.1573Z" fill="#004B35"/>
<path d="M53.9225 52.3161C53.8615 52.3161 53.8521 52.3819 53.8474 52.4195C53.8098 52.6214 53.7534 52.72 53.636 52.7717C53.483 52.8127 53.3246 52.8301 53.1663 52.8234C52.6638 52.8234 52.6168 52.7576 52.6027 52.4335C52.6027 52.3537 52.6027 52.0202 52.6027 51.776V51.0903C52.692 51.0903 53.2039 51.0903 53.3401 51.1185C53.4763 51.1467 53.5609 51.203 53.5844 51.2735C53.5928 51.3279 53.5928 51.3834 53.5844 51.4379C53.5844 51.4848 53.5844 51.5177 53.6501 51.5177C53.7159 51.5177 53.7206 51.4285 53.7206 51.3862C53.7206 51.3439 53.7206 51.1607 53.7206 51.0574C53.7269 50.9817 53.7379 50.9064 53.7534 50.832C53.7534 50.7991 53.7534 50.7803 53.7534 50.7662C53.7534 50.7521 53.7065 50.6911 53.6924 50.6911C53.6783 50.6911 53.636 50.7193 53.5984 50.7568C53.5609 50.7991 53.4998 50.8085 53.373 50.8179H52.5605V49.3525H53.2603C53.5468 49.3525 53.575 49.4418 53.6031 49.5075C53.6225 49.5634 53.632 49.6222 53.6313 49.6813C53.6313 49.7658 53.6783 49.7799 53.7065 49.7799C53.7346 49.7799 53.7628 49.7517 53.7722 49.6954C53.7765 49.6156 53.7765 49.5356 53.7722 49.4559C53.774 49.4214 53.774 49.3869 53.7722 49.3525C53.7722 49.2727 53.7722 49.2163 53.8051 49.1741C53.8068 49.1522 53.8068 49.1302 53.8051 49.1083C53.8051 49.0379 53.7675 49.0285 53.7534 49.0285C53.7366 49.0231 53.7186 49.0231 53.7018 49.0285H53.6736C53.6033 49.0349 53.5325 49.0349 53.4622 49.0285C53.3401 49.0285 52.4572 49.0285 52.1847 49.0285H51.7151C51.6822 49.0285 51.6024 49.0285 51.6024 49.1036C51.6036 49.1211 51.6117 49.1373 51.6249 49.1488C51.6381 49.1602 51.6554 49.166 51.6728 49.1647C51.7291 49.1596 51.7856 49.1596 51.8419 49.1647C51.9828 49.1975 52.0298 49.2539 52.0345 49.4324C52.0391 49.6108 52.0345 49.7377 52.0345 50.5455V51.4519C52.0345 51.9216 52.0345 52.3537 52.011 52.5651C51.9875 52.7764 51.9593 52.8093 51.8842 52.8234C51.8342 52.8288 51.7838 52.8288 51.7339 52.8234C51.6822 52.8234 51.6634 52.8515 51.6634 52.8844C51.6634 52.9173 51.748 52.9549 51.7761 52.9549H52.2834H52.6873H52.7953H53.5562C53.7581 52.9549 53.8239 52.9549 53.8662 52.7999C53.8994 52.6323 53.9229 52.4629 53.9366 52.2926C54.0118 52.3866 54.0118 52.3161 53.9225 52.3161Z" fill="#004B35"/>
<path d="M42.3358 52.3021C42.2795 52.3021 42.2701 52.3631 42.2607 52.4054C42.2231 52.6073 42.1667 52.7013 42.0493 52.7576C41.8963 52.7988 41.7379 52.8163 41.5797 52.8093C41.0724 52.8093 41.0254 52.7435 41.0114 52.4148C41.0114 52.3396 41.0114 52.0062 41.0114 51.7619V51.0762C41.0959 51.0762 41.6078 51.0762 41.7487 51.0762C41.8896 51.0762 41.9648 51.1655 41.9883 51.2359C41.9967 51.2904 41.9967 51.3458 41.9883 51.4003C41.9853 51.4201 41.9916 51.4402 42.0053 51.4549C42.0191 51.4695 42.0387 51.4771 42.0587 51.4754C42.1245 51.4754 42.1245 51.3909 42.1245 51.3439C42.1245 51.297 42.1245 51.1279 42.1245 51.0199C42.1313 50.9442 42.1422 50.8689 42.1573 50.7944C42.1573 50.7615 42.1573 50.7428 42.1573 50.7287C42.1573 50.7146 42.1104 50.6535 42.101 50.6535C42.0916 50.6535 42.0399 50.6817 42.007 50.7193C41.9695 50.7615 41.9084 50.7709 41.7863 50.7803C41.6642 50.7897 41.3166 50.7803 40.9691 50.7803V49.3619C41.0395 49.3619 41.5843 49.3619 41.6736 49.3619C41.9554 49.3619 41.9836 49.4512 42.0117 49.5169C42.0315 49.5727 42.041 49.6316 42.0399 49.6907C42.0399 49.7752 42.0869 49.7893 42.1151 49.7893C42.1433 49.7893 42.1714 49.7612 42.1808 49.7048C42.1851 49.6266 42.1851 49.5482 42.1808 49.47C42.1772 49.434 42.1772 49.3979 42.1808 49.3619C42.1863 49.3035 42.1958 49.2454 42.209 49.1882C42.2122 49.1648 42.2122 49.1411 42.209 49.1177C42.209 49.0473 42.1714 49.0379 42.1526 49.0379C42.1357 49.0333 42.1179 49.0333 42.101 49.0379H42.0728C42.0009 49.0443 41.9286 49.0443 41.8568 49.0379H40.6544H40.1847C40.1566 49.0379 40.072 49.0379 40.072 49.113C40.0732 49.1305 40.0813 49.1467 40.0946 49.1582C40.1078 49.1696 40.125 49.1754 40.1425 49.1741C40.1987 49.169 40.2553 49.169 40.3116 49.1741C40.4571 49.207 40.4994 49.2633 40.5088 49.4371C40.5182 49.6109 40.5088 49.7471 40.5088 50.5502V51.4567C40.5088 51.9263 40.5088 52.3631 40.5088 52.5745C40.5088 52.7858 40.4618 52.814 40.382 52.8328C40.3336 52.8382 40.2848 52.8382 40.2364 52.8328C40.2182 52.8301 40.1997 52.8352 40.1854 52.8468C40.1711 52.8584 40.1624 52.8755 40.1613 52.8938C40.1613 52.969 40.2458 52.969 40.2787 52.969H40.7812H41.1851H41.2932H42.054C42.256 52.969 42.3217 52.969 42.364 52.814C42.4063 52.659 42.4344 52.3443 42.4344 52.3067C42.4344 52.2692 42.4016 52.3021 42.3358 52.3021Z" fill="#004B35"/>
<path d="M65.4341 52.6028C65.4341 52.7625 65.3871 52.847 65.3119 52.8611H65.1664C65.1481 52.8585 65.1297 52.8635 65.1154 52.8751C65.1011 52.8867 65.0923 52.9038 65.0912 52.9222C65.0912 52.9973 65.1757 52.9973 65.2039 52.9973H65.6219H65.7534C65.8662 52.9973 66.1104 52.9973 66.3264 52.9973C66.4251 52.9973 66.4439 52.9504 66.4439 52.9222C66.4427 52.9038 66.434 52.8867 66.4197 52.8751C66.4054 52.8635 66.3869 52.8585 66.3687 52.8611H66.1386C66.0165 52.8611 65.9836 52.7578 65.9648 52.6028C65.946 52.4478 65.9413 51.9734 65.9413 51.4897C65.9413 51.4897 65.9413 51.0764 65.9413 51.02C66.1339 51.02 66.6035 51.02 66.7163 51.02C66.8211 51.0241 66.9143 51.0881 66.9558 51.1844C66.9708 51.2367 66.9818 51.2901 66.9887 51.3441C66.9887 51.3911 66.9887 51.4239 67.0544 51.4239C67.1202 51.4239 67.1249 51.3394 67.1249 51.2924C67.1249 51.2455 67.1249 51.0482 67.1249 50.9496C67.1313 50.8738 67.1422 50.7985 67.1577 50.7241C67.1577 50.6913 67.1577 50.6725 67.1577 50.6584C67.1577 50.6443 67.1202 50.5832 67.0967 50.5832C67.0732 50.5832 67.045 50.6114 67.0262 50.6349C66.9887 50.6913 66.9323 50.7006 66.8102 50.7147H65.9178V49.2729C65.9178 49.2447 65.9178 49.2447 65.9178 49.2447H66.7116C66.838 49.2369 66.9599 49.2934 67.0356 49.395C67.0601 49.4531 67.0744 49.5151 67.0779 49.5781C67.0779 49.6627 67.1296 49.6721 67.1437 49.6721C67.1578 49.6721 67.2047 49.6721 67.2188 49.5875C67.2329 49.503 67.2188 49.4372 67.2188 49.3527C67.2206 49.3167 67.2206 49.2807 67.2188 49.2447C67.2263 49.1846 67.2373 49.125 67.2517 49.0662C67.2533 49.0443 67.2533 49.0223 67.2517 49.0004C67.2517 48.9488 67.2235 48.9206 67.1906 48.9206C67.1736 48.9168 67.156 48.9168 67.139 48.9206H67.1061C67.0531 48.9271 66.9994 48.9271 66.9464 48.9206H66.89C66.7961 48.9206 66.1151 48.9206 65.7863 48.9206H65.0395C65.0067 48.9206 64.9268 48.9206 64.9268 48.9911C64.9268 49.0093 64.9343 49.0268 64.9477 49.0393C64.9611 49.0518 64.979 49.0581 64.9973 49.0568C65.0535 49.052 65.1101 49.052 65.1664 49.0568C65.3119 49.0897 65.3495 49.1413 65.3636 49.3245C65.3777 49.5077 65.3636 49.6298 65.3636 50.4329V51.3441C65.4622 51.9922 65.4622 52.4102 65.4341 52.6028Z" fill="#004B35"/>
<path d="M58.126 52.894C58.0604 52.9006 57.9943 52.9006 57.9287 52.894C57.6997 52.8544 57.4955 52.7262 57.3604 52.5371C57.1303 52.2552 56.5056 51.2408 56.5056 51.2408C56.9079 50.9788 57.1405 50.5226 57.1162 50.0431C57.1093 49.7565 56.975 49.4879 56.7499 49.3104C56.4595 49.1337 56.1214 49.0517 55.7824 49.0756H55.3456H55.1013C54.9933 49.0756 54.7632 49.0756 54.5847 49.0756C54.5565 49.0756 54.4673 49.0756 54.4673 49.1554C54.4684 49.1751 54.4777 49.1933 54.4928 49.2058C54.508 49.2183 54.5277 49.2238 54.5471 49.2212C54.6018 49.2164 54.6568 49.2164 54.7115 49.2212C54.8524 49.2494 54.8947 49.3057 54.9088 49.4795C54.9229 49.6533 54.9088 49.7942 54.9088 50.5973V51.5085C54.9088 51.9781 54.9088 52.4102 54.8853 52.6263C54.8618 52.8423 54.8383 52.8611 54.7585 52.8752C54.7109 52.8881 54.6621 52.896 54.6129 52.8987C54.5565 52.8987 54.5377 52.9316 54.5377 52.9644C54.5377 52.9973 54.6223 53.0443 54.6552 53.0443C54.7867 53.0443 55.0356 53.0443 55.1248 53.0443H55.2047C55.3221 53.0443 55.5616 53.0443 55.7824 53.0443C55.8904 53.0443 55.8998 52.9879 55.8998 52.9644C55.9 52.9453 55.8918 52.9269 55.8773 52.9143C55.8629 52.9016 55.8436 52.896 55.8246 52.8987C55.7474 52.8965 55.6705 52.8886 55.5945 52.8752C55.4677 52.8752 55.4395 52.7766 55.4254 52.6263C55.4113 52.476 55.3972 51.9922 55.3972 51.5085V51.377H56.036C56.036 51.377 56.0595 51.377 56.0735 51.377C56.0876 51.377 56.5855 52.2271 56.5855 52.2271C56.7215 52.4951 56.9157 52.7293 57.1538 52.9128C57.3078 52.9997 57.4853 53.0359 57.661 53.0161H58.0274C58.0931 53.0161 58.1871 53.0161 58.1964 52.9363C58.2058 52.8564 58.1636 52.8705 58.1213 52.8705L58.126 52.894ZM55.3972 49.3292C55.3922 49.3205 55.3922 49.3098 55.3972 49.301C55.5064 49.2753 55.6186 49.2643 55.7307 49.2682C56.2708 49.2682 56.5902 49.6439 56.5902 50.2686C56.6174 50.557 56.5058 50.8412 56.2896 51.0341C56.18 51.1022 56.0521 51.135 55.9233 51.128C55.7444 51.1351 55.5659 51.108 55.3972 51.0482C55.3922 51.0378 55.3922 51.0257 55.3972 51.0153V49.3292Z" fill="#004B35"/>
<path d="M62.3249 48.9582C61.7746 48.9466 61.2432 49.1592 60.8526 49.5471C60.4621 49.935 60.2459 50.4649 60.2537 51.0153C60.2255 51.5674 60.4309 52.1059 60.8196 52.499C61.2082 52.8921 61.7443 53.1037 62.2967 53.0818C62.8663 53.0941 63.4154 52.8697 63.8133 52.462C64.2112 52.0543 64.4223 51.4999 64.3961 50.9308C64.4134 50.3864 64.1982 49.8604 63.8043 49.4842C63.3941 49.1303 62.8664 48.9427 62.3249 48.9582ZM62.292 49.2071C63.0294 49.2071 63.8278 49.7895 63.8278 51.0858C63.8278 52.739 62.6677 52.8235 62.4188 52.8235C61.4795 52.8235 60.8032 52.0204 60.8032 50.8791C60.8173 49.8411 61.3809 49.2071 62.292 49.2071Z" fill="#004B35"/>
</svg>
