<svg width="80" height="47" viewBox="0 0 80 47" fill="none" xmlns="http://www.w3.org/2000/svg">
<path d="M23.1225 0H35.9466C33.8119 4.80294 31.6725 9.60411 29.5342 14.4059C27.5292 18.9118 25.5225 23.4172 23.5169 27.9225C19.2399 27.9243 14.9628 27.9237 10.6864 27.9231C14.832 18.6154 18.974 9.30594 23.1225 0Z" fill="#FFCA08"/>
<path d="M35.9466 0H35.9501C37.2936 3.02568 38.6454 6.04783 39.9883 9.0741L39.9977 9.09523C39.0815 11.0938 38.2063 13.1111 37.3071 15.1172C36.2724 17.4315 35.2458 19.75 34.2122 22.0648C33.9939 22.5297 33.8184 23.0145 33.5683 23.4635C32.2225 20.4449 30.8796 17.4245 29.5343 14.4059C31.6725 9.6041 33.8119 4.80293 35.9466 0Z" fill="#FA9D1C"/>
<path d="M44.0317 0H44.0352C46.1723 4.80411 48.3117 9.60704 50.4511 14.41C49.0947 17.4304 47.7582 20.4602 46.4053 23.4823C44.2618 18.6899 42.1336 13.8911 39.9977 9.09523L39.9883 9.0741C41.3435 6.05253 42.687 3.02568 44.0317 0Z" fill="#9E9FA3"/>
<path d="M44.0352 0H56.8592C61.0101 9.30535 65.1504 18.6154 69.2971 27.9225C65.0212 27.9266 60.7448 27.9231 56.4689 27.9243C54.461 23.4201 52.456 18.9147 50.451 14.41C48.3116 9.60704 46.1722 4.80411 44.0352 0Z" fill="#636466"/>
<path d="M62.9547 35.7788C63.7811 35.3262 64.7578 35.2405 65.681 35.338C66.5368 35.4284 67.3849 35.7524 68.0212 36.3428C68.7584 37.0149 69.1769 37.9769 69.3171 38.9529C68.4103 38.9535 67.5035 38.9541 66.5967 38.9524C66.4799 38.5098 66.251 38.0432 65.8043 37.8571C65.2479 37.6341 64.5283 37.6394 64.0705 38.069C63.7588 38.359 63.6778 38.7992 63.6291 39.2024C63.5381 40.0628 63.551 40.9298 63.5639 41.7931C63.5898 42.3701 63.5921 42.9629 63.7758 43.517C63.9149 43.949 64.3305 44.2442 64.7736 44.2953C65.2966 44.3575 65.897 44.2565 66.2586 43.8398C66.5808 43.4624 66.6419 42.9406 66.6442 42.4623C66.1025 42.4458 65.5601 42.4605 65.0184 42.4552C65.0178 41.7004 65.0172 40.9456 65.019 40.1908C66.4564 40.1908 67.8938 40.1902 69.3318 40.1914C69.3095 41.4909 69.4345 42.8262 69.0495 44.0875C68.7725 45.0284 68.064 45.8008 67.2094 46.2592C66.6589 46.5544 66.035 46.6765 65.4175 46.7205H64.7026C64.1045 46.6782 63.5064 46.5403 62.9758 46.2545C62.17 45.8207 61.4762 45.1229 61.1769 44.2448C60.7678 43.0821 60.8605 41.8289 60.8458 40.6181C60.847 39.6649 60.8523 38.6847 61.178 37.7761C61.4774 36.9074 62.1629 36.2184 62.9547 35.7788V35.7788Z" fill="#636466"/>
<path d="M0 35.5205C1.03654 35.5528 2.07542 35.5252 3.11313 35.5346C3.79574 35.5475 4.49068 35.4812 5.16038 35.649C5.87175 35.8146 6.54615 36.2207 6.94292 36.8446C7.34439 37.468 7.46178 38.2486 7.3438 38.9729C7.20059 39.8234 6.5931 40.5817 5.78078 40.8816C6.34717 41.1 6.85899 41.4844 7.17007 42.0121C7.62084 42.7593 7.64607 43.6972 7.42128 44.5224C7.21819 45.2708 6.66412 45.9064 5.95334 46.2146C5.43155 46.4511 4.85282 46.5409 4.28291 46.5397C2.85547 46.5386 1.42744 46.5397 0 46.5392V35.5205ZM1.18034 36.5905C1.17682 37.8606 1.17975 39.1302 1.17916 40.4003C2.15583 40.4021 3.13309 40.4009 4.11034 40.4009C4.71255 40.3933 5.35583 40.2213 5.7708 39.7594C6.17168 39.3163 6.26735 38.6753 6.17814 38.1013C6.11592 37.6904 5.90814 37.296 5.57594 37.0407C5.16273 36.7167 4.62568 36.5987 4.11034 36.5911C3.13368 36.5899 2.15701 36.5917 1.18034 36.5905V36.5905ZM1.17975 41.4574C1.17799 42.7992 1.17858 44.1409 1.17916 45.4827C2.07718 45.4832 2.97461 45.4827 3.87263 45.4833C4.24769 45.4891 4.6292 45.4868 4.99134 45.3741C5.53015 45.2232 6.01086 44.837 6.21981 44.3105C6.51563 43.5598 6.41761 42.6002 5.81365 42.0262C5.34644 41.5789 4.67263 41.4386 4.04519 41.4568C3.08965 41.458 2.1347 41.4574 1.17975 41.4574V41.4574Z" fill="#636466"/>
<path d="M12.3428 35.5347C12.6744 35.5352 13.006 35.5317 13.3382 35.5364C14.6812 39.2024 16.0217 42.8696 17.3705 46.5333C16.9497 46.5445 16.5283 46.5409 16.1074 46.5357C15.8175 45.7063 15.5281 44.877 15.2264 44.0523C13.6282 44.0582 12.0299 44.0529 10.4317 44.0547C10.1371 44.8823 9.84476 45.7104 9.55247 46.5386C9.13281 46.541 8.71314 46.538 8.29407 46.5398C9.6411 42.8708 10.9928 39.203 12.3428 35.5347V35.5347ZM12.8382 37.2802C12.1544 39.1954 11.4712 41.1106 10.7903 43.0269C12.1567 43.0275 13.5225 43.0287 14.8883 43.0264C14.2175 41.1118 13.5454 39.1977 12.8722 37.2837C12.864 37.2831 12.847 37.2814 12.8382 37.2802Z" fill="#636466"/>
<path d="M18.5227 35.5353C18.8948 35.5329 19.2669 35.5347 19.6397 35.5347C21.5842 38.46 23.5264 41.387 25.4715 44.3124C25.4762 41.3859 25.4703 38.46 25.475 35.5335C25.8665 35.5335 26.2586 35.537 26.6506 35.5317C26.6653 39.2007 26.653 42.8702 26.6565 46.5392C26.2832 46.5392 25.9105 46.5392 25.5372 46.5392C23.5903 43.6045 21.6505 40.6651 19.703 37.7304C19.6995 40.6669 19.7019 43.6027 19.7019 46.5386C19.3092 46.5404 18.916 46.5386 18.5233 46.5392C18.5221 42.8714 18.5233 39.2036 18.5227 35.5353V35.5353Z" fill="#636466"/>
<path d="M29.212 35.5403C29.6053 35.5263 29.9991 35.538 30.3935 35.5345C30.3947 37.6369 30.3912 39.7393 30.3953 41.8423C32.1086 39.7422 33.8084 37.631 35.5234 35.5327C36.0035 35.5362 36.4831 35.5327 36.9632 35.5345C35.8104 36.9537 34.6524 38.3676 33.5014 39.788C34.8191 42.0389 36.1391 44.2881 37.4556 46.539C36.9884 46.5378 36.5218 46.5414 36.0552 46.5373C34.9423 44.5869 33.823 42.64 32.709 40.6902C31.9665 41.5712 31.2346 42.4615 30.4933 43.3437C30.4499 43.4042 30.3765 43.4611 30.3935 43.5462C30.3935 44.544 30.393 45.5412 30.3935 46.539C30.0009 46.5396 29.6082 46.539 29.215 46.539C29.2126 42.873 29.2191 39.2064 29.212 35.5403V35.5403Z" fill="#636466"/>
<path d="M39.2856 46.5386C39.2915 42.8708 39.2751 39.2019 39.2939 35.5347C40.1796 35.5476 41.0658 35.5329 41.9521 35.5423C42.7686 37.157 43.5944 38.7675 44.4132 40.3816C45.2425 38.7705 46.0578 37.1523 46.883 35.5394C47.7711 35.54 48.6591 35.5388 49.5477 35.54C49.5471 39.2066 49.5477 42.8726 49.5471 46.5392C48.6444 46.5398 47.7411 46.5392 46.8384 46.5392C46.8349 44.7109 46.8419 42.8826 46.8349 41.0537C46.3248 41.9452 45.816 42.8374 45.3036 43.7278C45.1263 44.0324 44.7853 44.2361 44.4308 44.2325C44.0722 44.2455 43.7182 44.0494 43.5363 43.7413C43.018 42.8509 42.5168 41.9505 41.9961 41.0619C41.995 42.8879 41.9961 44.7138 41.995 46.5392C41.0917 46.5386 40.189 46.5404 39.2856 46.5386V46.5386Z" fill="#636466"/>
<path d="M51.8075 35.5397C54.302 35.5386 56.7965 35.5392 59.2904 35.5397C59.2933 36.3403 59.2857 37.1415 59.2945 37.9421C57.7027 37.962 56.1098 37.9433 54.5174 37.9515C54.5168 38.5625 54.5162 39.1729 54.5174 39.7839C55.8774 39.7857 57.2367 39.7839 58.5966 39.7851C58.5961 40.5904 58.5961 41.3951 58.5966 42.2003C57.2367 42.2027 55.8768 42.1986 54.5174 42.2021C54.5168 42.8436 54.5162 43.4857 54.5174 44.1273C56.1086 44.129 57.6992 44.1273 59.2904 44.1279C59.291 44.932 59.291 45.7355 59.2904 46.539C56.7959 46.539 54.302 46.5396 51.8081 46.539C51.8069 42.8724 51.8069 39.2064 51.8075 35.5397V35.5397Z" fill="#636466"/>
<path d="M73.8911 35.5397C74.5896 35.5415 75.2886 35.5333 75.9877 35.5438C76.9233 38.1399 77.8729 40.7306 78.8138 43.3243C79.2141 44.3943 79.5768 45.4796 80 46.5408C79.065 46.5366 78.13 46.5413 77.1956 46.5384C77.0154 45.9926 76.8376 45.4467 76.655 44.9014C75.5076 44.9026 74.3595 44.8956 73.212 44.905C73.0389 45.4514 72.8552 45.9943 72.6761 46.539C71.7476 46.5396 70.8191 46.539 69.8911 46.539C71.2223 42.8718 72.557 39.2058 73.8911 35.5397V35.5397ZM74.9318 39.5356C74.6001 40.5892 74.2632 41.641 73.931 42.6939C74.6007 42.6957 75.271 42.6945 75.9419 42.6945C75.6044 41.6416 75.2822 40.5839 74.9318 39.5356V39.5356Z" fill="#636466"/>
<path d="M39.9977 9.09521C42.1336 13.8911 44.2618 18.6899 46.4053 23.4823C45.8313 24.7436 44.8675 25.8213 43.686 26.545C41.9358 27.632 39.7001 27.8785 37.7497 27.2217C35.9161 26.6183 34.3619 25.2238 33.5684 23.4635C33.8184 23.0145 33.9939 22.5297 34.2122 22.0648C35.2458 19.7499 36.2724 17.4315 37.3072 15.1172C38.2064 13.1111 39.0815 11.0937 39.9977 9.09521Z" fill="#F37022"/>
</svg>
