<svg width="80" height="41" viewBox="0 0 80 41" fill="none" xmlns="http://www.w3.org/2000/svg">
<g clip-path="url(#clip0_809_65)">
<path fill-rule="evenodd" clip-rule="evenodd" d="M26.5979 35.8039C25.9361 35.8039 25.5949 35.6776 25.1207 35.3228C24.1245 34.5791 24.2235 33.4926 24.2235 32.2439C24.2235 31.809 24.2866 31.5019 24.3958 31.1642C24.5015 30.8384 24.6329 30.6098 24.8273 30.3454L25.0525 30.122C25.0576 30.1186 25.0644 30.1117 25.0695 30.1066L25.1361 30.0452C26.1049 29.2077 27.6776 29.3868 28.3753 30.4017C28.9467 31.2341 29.003 31.8056 29.003 32.8529C29.003 34.2857 28.2081 35.8039 26.5979 35.8039ZM24.0631 29.1326L23.9659 27.9778C23.6555 27.9778 23.3467 27.9778 23.0363 27.9778C22.8606 27.9778 22.2277 27.8994 22.151 28.0256C22.1425 28.0392 22.2022 29.6017 22.2022 29.8064V40.551C22.2004 40.7079 22.151 40.9365 22.2977 40.9365H24.2235V36.4776L24.3565 36.568C24.4913 36.6926 24.5527 36.7693 24.7181 36.8802C25.8661 37.641 27.3877 37.6921 28.6192 37.0883C29.1088 36.8478 29.5284 36.5186 29.8798 36.1024C30.5484 35.3126 30.7122 34.8196 30.9425 33.8303C31.1386 32.9911 31.0926 31.7117 30.8606 30.8998C30.6678 30.2226 30.441 29.7672 30.0111 29.2145C29.8593 29.0166 29.4704 28.6329 29.2418 28.4776C29.1326 28.4026 29.0371 28.3548 28.9211 28.2849C27.6947 27.5395 25.7126 27.6742 24.5851 28.6277L24.0631 29.1326Z" fill="#092139"/>
<path fill-rule="evenodd" clip-rule="evenodd" d="M35.8056 29.3884C36.4163 29.3884 36.7216 29.4226 37.2077 29.7825C37.3305 29.8712 37.3647 29.9223 37.4602 30.0435C37.9548 30.6797 37.8679 31.0618 37.9873 31.5701H33.7195C33.7962 30.6609 34.6372 29.3884 35.8056 29.3884ZM36.2542 37.5044C37.467 37.5044 38.7003 37.2503 39.4951 36.8307L39.2052 35.6759C39.183 35.5855 39.1421 35.3569 39.1096 35.2904L38.2619 35.5974C38.1322 35.6332 38.064 35.6622 37.9361 35.6895L36.5118 35.8362C35.925 35.8362 35.1267 35.6418 34.6713 35.2682C34.4734 35.1061 34.516 35.2153 34.3199 34.9475C34.0282 34.5501 33.8559 34.3027 33.7485 33.7552C33.7177 33.6034 33.6546 33.3066 33.6546 33.1411H39.8789C39.8789 32.5458 40.0888 32.672 39.8892 31.304C39.7766 30.5279 39.502 29.7842 39.0414 29.1684C38.8418 28.9023 38.5621 28.626 38.2892 28.4452C37.2487 27.7594 35.9881 27.6537 34.7838 27.9829C34.5519 28.046 34.1783 28.2166 33.977 28.3309C33.8644 28.3974 33.7553 28.4622 33.6461 28.5458C33.5301 28.6328 33.4261 28.6993 33.3169 28.7948L33.1668 28.933C32.9826 29.1019 32.6107 29.5795 32.4845 29.791L32.2303 30.2737C32.1945 30.359 32.1723 30.388 32.1382 30.4699C31.9114 31.0021 31.7288 31.7833 31.7305 32.3735C31.7322 32.5748 31.6777 32.6976 31.7032 32.9125C31.7954 33.7023 31.7135 33.5846 31.9233 34.3931C32.2047 35.478 32.9485 36.4247 33.919 36.9518C34.5723 37.3083 35.4866 37.5044 36.2542 37.5044Z" fill="#092139"/>
<path fill-rule="evenodd" clip-rule="evenodd" d="M11.1335 32.7574H11.4218V34.2005C11.4218 34.7071 11.1164 35.0772 10.7889 35.3962C10.6661 35.5156 10.3693 35.6657 10.2022 35.7408C9.84054 35.9045 9.2674 35.9523 8.8819 35.809L8.54757 35.6299C7.97273 35.1608 7.96591 34.2295 8.35482 33.6683C8.83585 32.974 10.2499 32.7574 11.1335 32.7574ZM6.64224 28.6824C6.6883 28.8819 7.11133 30.0163 7.12327 30.1595C7.28361 30.1459 7.36719 30.0077 7.59917 29.8986C8.46229 29.4892 8.73691 29.4209 9.81836 29.4209C10.893 29.4209 11.3894 30.1612 11.3894 31.2171L10.2107 31.2905C9.70749 31.3536 9.34928 31.4116 8.8802 31.531C7.74587 31.8226 6.61495 32.5203 6.23627 33.6666C5.98553 34.4273 5.99235 35.1983 6.32156 35.9318C6.89981 37.2248 8.45035 37.7365 9.78595 37.4073C11.1454 37.073 11.4064 36.5015 11.6145 36.4452L11.71 37.3118C11.9284 37.3118 13.4516 37.3391 13.525 37.2964C13.6 37.2521 13.5574 37.2128 13.5199 36.945C13.5011 36.8018 13.4789 36.638 13.4755 36.5101L13.4346 35.6197C13.3322 34.8777 13.4772 31.5873 13.3987 31.0687C13.3578 30.8077 13.3305 30.5126 13.2691 30.2687L13.0218 29.5847C12.8376 29.1753 12.5851 28.829 12.2337 28.5442C12.0512 28.3958 11.8892 28.29 11.6674 28.1809C10.9015 27.7988 10.2738 27.8175 9.46527 27.8175C8.80003 27.8175 7.86698 28.087 7.24096 28.3531L6.64224 28.6824Z" fill="#092139"/>
<path fill-rule="evenodd" clip-rule="evenodd" d="M43.055 29.0678C43.0532 28.928 43.0311 28.9553 43.0242 28.812C43.0089 28.5425 43.0396 28.3224 42.9594 27.9779H41.1309C41.1309 28.3258 41.2298 29.2435 41.2281 29.6768L41.2264 37.3118H43.1522C43.304 37.3118 43.2477 37.0627 43.2477 36.7983C43.2477 35.8226 43.2102 31.7066 43.2784 31.3126C43.3825 30.7275 43.7748 30.1664 44.2558 29.8508C45.0677 29.3203 46.4733 29.4329 46.9117 30.5058C47.1965 31.2035 47.1624 31.664 47.1624 32.6278L47.159 37.09C47.159 37.2094 47.1351 37.3118 47.2579 37.3118H49.1837V31.4098C49.1837 30.8947 49.1104 30.7173 49.02 30.3216C48.8051 29.3698 48.2353 28.6568 47.3859 28.1706C47.1539 28.0393 46.7479 27.9062 46.4801 27.8636C45.3799 27.6879 44.394 27.9403 43.5496 28.6005C43.362 28.7472 43.2477 28.9399 43.055 29.0678Z" fill="#092139"/>
<path fill-rule="evenodd" clip-rule="evenodd" d="M14.9185 30.3504C14.9185 30.7649 14.9134 31.1914 15.1181 31.5632C15.4865 32.237 15.971 32.66 16.6618 33.0029C16.887 33.1155 17.1121 33.2195 17.3526 33.3048C17.6921 33.4259 18.2243 33.6442 18.5057 33.8865C18.5177 33.8967 18.5654 33.9376 18.574 33.9462L18.6354 34.0127C19.3381 34.7752 18.7445 35.8686 17.6136 35.8686C17.0456 35.8686 16.6499 35.8225 16.1245 35.6263C15.9471 35.5598 15.7731 35.4967 15.623 35.4199C15.5019 35.3585 15.2665 35.1948 15.1437 35.1624L14.6302 36.7658C14.8145 36.8152 15.6963 37.5044 17.3885 37.5044C18.6627 37.5044 20.0187 36.9978 20.5339 35.9965C20.9126 35.2613 21.0302 34.3897 20.713 33.6033C20.6686 33.4941 20.6106 33.3833 20.556 33.2792C20.5066 33.1905 20.5066 33.2042 20.452 33.1274C20.2882 32.892 20.075 32.6481 19.8413 32.486C19.3416 32.1432 19.1249 32.034 18.5398 31.7986C18.3045 31.7048 18.0656 31.6059 17.8388 31.5052C17.7859 31.4813 17.7501 31.4609 17.6921 31.4285C17.3271 31.2238 16.875 30.9918 16.875 30.4477C16.875 29.8046 17.414 29.4208 17.9667 29.4208C18.5484 29.4208 18.7735 29.4413 19.304 29.6238C19.4302 29.6681 19.5616 29.7483 19.6929 29.8114C19.8106 29.866 19.9539 29.9956 20.0836 30.0297L20.4656 28.8715C20.5219 28.7163 20.556 28.6344 20.597 28.4587C19.5241 27.8907 19.275 27.8174 17.9019 27.8174C17.3612 27.8174 16.6294 28.0562 16.1995 28.3274C16.1569 28.353 16.1398 28.37 16.087 28.4076C15.9863 28.4758 15.9744 28.486 15.8891 28.5611C15.5087 28.8937 15.2034 29.2639 15.043 29.7688C15.0226 29.8336 14.9185 30.2805 14.9185 30.3504Z" fill="#092139"/>
<path fill-rule="evenodd" clip-rule="evenodd" d="M1.37996 26.3744V27.9778H0V29.6136H1.37996V34.5535C1.37996 36.1791 2.09979 37.5045 3.97783 37.5045C4.28998 37.5045 4.55437 37.4772 4.82559 37.4209C5.32537 37.3202 5.35267 37.2691 5.58294 37.2162C5.58294 36.6431 5.51812 36.1637 5.51812 35.5787C5.32708 35.5838 4.03582 36.0767 3.5855 35.362C3.4661 35.171 3.36887 34.7616 3.36887 34.4563V29.6136H5.67846V27.9778H3.36887V25.7961L2.37441 26.0844C2.20213 26.1322 2.06738 26.1799 1.88145 26.2345L1.37996 26.3744Z" fill="#092139"/>
<path d="M59.3603 13.0815H62.1493V22.6729H59.3603V13.0815ZM52.4964 22.6729V16.0597C52.4964 15.519 52.4861 14.9987 52.4674 14.499C52.4486 14.0026 52.423 13.5318 52.3855 13.0815H54.9424L55.0431 14.7992C55.2853 14.209 55.6742 13.7638 56.2064 13.4619C56.7335 13.1582 57.397 13.0098 58.1868 13.0098H58.2687L58.2601 15.5275C58.0913 15.5156 57.9667 15.5054 57.8832 15.4985C57.7979 15.4934 57.7211 15.49 57.6546 15.49C56.9262 15.49 56.3548 15.6674 55.9454 16.0222C55.5309 16.3753 55.3228 16.8683 55.3228 17.496V22.6729H52.4964ZM48.2797 13.0815H51.0687V22.6729H48.2797V13.0815ZM43.7595 22.6729L43.6674 21.3032C43.3228 21.8201 42.91 22.2073 42.4256 22.47C41.9412 22.7309 41.3936 22.8606 40.7829 22.8606C39.6213 22.8606 38.678 22.4051 37.9514 21.4943C37.2299 20.5834 36.8665 19.3774 36.8665 17.8815C36.8665 16.3753 37.2196 15.1676 37.9292 14.2636C38.6405 13.3595 39.5787 12.9075 40.7471 12.9075C41.3817 12.9075 41.9343 13.032 42.4068 13.2759C42.881 13.5216 43.2887 13.8985 43.6299 14.4V8.91431H46.4V20.7437C46.4 21.2282 46.4051 21.6222 46.4222 21.9224C46.4375 22.2243 46.4631 22.4751 46.4921 22.6729H43.7595ZM39.693 17.8968C39.693 18.8862 39.8652 19.6538 40.2064 20.1996C40.5475 20.7437 41.0269 21.0149 41.6426 21.0149C42.2687 21.0149 42.7702 20.7369 43.1352 20.1791C43.5019 19.623 43.6861 18.8623 43.6861 17.8968C43.6861 16.928 43.5019 16.1621 43.1352 15.6043C42.7702 15.0448 42.2687 14.7633 41.6426 14.7633C41.0269 14.7633 40.5475 15.038 40.2064 15.5889C39.8652 16.1399 39.693 16.9092 39.693 17.8968ZM26.5126 22.6729V14.922C26.5126 14.6491 26.5058 14.3625 26.4904 14.0623C26.4733 13.7638 26.4478 13.4363 26.4205 13.0815H29.0746L29.1326 14.5211C29.4925 13.9429 29.9224 13.5181 30.4154 13.2503C30.91 12.9842 31.5139 12.8495 32.2303 12.8495C33.2878 12.8495 34.0708 13.1497 34.5842 13.7518C35.0959 14.3488 35.3535 15.2665 35.3535 16.4981V22.6729H32.6124V16.8819C32.6124 16.1638 32.4878 15.652 32.2439 15.3399C31.9983 15.0312 31.6009 14.8759 31.0465 14.8759C30.5109 14.8759 30.0776 15.0465 29.7535 15.3945C29.426 15.7373 29.2623 16.1962 29.2623 16.7693V22.6729H26.5126ZM0.0733475 22.6729V14.922C0.0733475 14.5791 0.0665245 14.2567 0.0545842 13.9548C0.0409382 13.6529 0.0221748 13.3629 0 13.0815H2.63881L2.71215 14.5211C3.07207 13.9429 3.50021 13.5181 3.99659 13.2503C4.48955 12.9842 5.0951 12.8495 5.8081 12.8495C6.53134 12.8495 7.13859 13.0098 7.63838 13.3305C8.13475 13.6529 8.49808 14.1169 8.72836 14.7258C9.03881 14.0793 9.44648 13.6051 9.94968 13.3015C10.4529 12.9996 11.0908 12.8495 11.8635 12.8495C12.9211 12.8495 13.7075 13.1497 14.2226 13.7518C14.7394 14.3488 14.997 15.2665 14.997 16.4981V22.6729H12.2269V16.8819C12.2269 16.1638 12.1023 15.652 11.8567 15.3399C11.6128 15.0312 11.2136 14.8759 10.661 14.8759C10.1254 14.8759 9.69552 15.0465 9.37655 15.3945C9.05586 15.7373 8.89723 16.1962 8.89723 16.7693V22.6729H6.12708V16.8819C6.12708 16.1706 6.00597 15.6606 5.76375 15.3467C5.52154 15.0312 5.12921 14.8759 4.58849 14.8759C4.05288 14.8759 3.62985 15.0465 3.31429 15.3877C3.00043 15.7322 2.8435 16.1894 2.8435 16.7693V22.6729H0.0733475ZM22.4921 21.6717C21.9326 22.1595 20.8392 22.6832 20.0887 22.852C19.8004 22.9186 19.4866 22.951 19.1454 22.951C18.3403 22.951 17.6665 22.6678 17.1224 22.1015C16.5783 21.5335 16.3087 20.8103 16.3087 19.9301C16.3087 19.2256 16.4469 18.6508 16.7232 18.2056C17.0013 17.757 17.3919 17.4056 17.9002 17.148C18.4017 16.8938 19.0277 16.7079 19.7714 16.6004C20.5168 16.4913 21.2878 16.4094 22.0861 16.3599V16.3071C22.0861 14.0145 18.8162 14.2994 17.4175 15.2802L16.933 13.4721C18.0264 12.9604 19.1011 12.6994 20.4384 12.6994C22.7838 12.6994 24.7642 13.8235 24.7642 16.51V22.6934H22.4921V21.6717ZM22.2721 19.8004V17.9514C21.849 17.9923 21.3885 18.0452 20.8938 18.1135C20.4009 18.1851 20.0256 18.2653 19.7697 18.3574C19.4576 18.4683 19.2171 18.6354 19.0533 18.8486C18.8861 19.0653 18.8026 19.345 18.8026 19.6981C18.8026 22.1271 21.6392 21.339 22.2721 19.8004Z" fill="#053364"/>
<path fill-rule="evenodd" clip-rule="evenodd" d="M30.9595 6.97315C31.8141 7.93008 33.4072 10.5228 35.2921 10.3625C39.7083 9.98722 42.2226 5.2111 47.6759 5.55226C49.9155 5.69213 50.9697 9.4482 53.1923 9.7723C56.6925 10.2823 60.046 4.89895 65.7518 5.20769C68.0972 5.33562 69.0678 9.27592 71.4047 9.50449C73.5846 9.71601 76.9996 6.62518 80 5.02347C79.2358 3.73733 77.8166 1.72795 76.3053 1.6256C73.3288 1.42603 70.9492 5.22816 68.3326 4.56292C66.8094 4.17741 65.0746 -0.00680678 62.5654 0.001722C57.9207 0.0170738 54.7156 4.61579 50.6098 4.97912C48.2797 5.18552 47.159 0.001722 44.0392 0.479334C39.768 1.13093 35.4047 4.64991 30.9595 6.97315Z" fill="url(#paint0_linear_809_65)"/>
</g>
<defs>
<linearGradient id="paint0_linear_809_65" x1="34.0554" y1="14.1254" x2="76.904" y2="-3.60766" gradientUnits="userSpaceOnUse">
<stop stop-color="#F6AD02"/>
<stop offset="0.2" stop-color="#FFF000"/>
<stop offset="0.411765" stop-color="#F6AD02"/>
<stop offset="0.658824" stop-color="#FFF000"/>
<stop offset="0.788235" stop-color="#F6AD02"/>
<stop offset="1" stop-color="#FFF000"/>
</linearGradient>
<clipPath id="clip0_809_65">
<rect width="80" height="40.9382" fill="white"/>
</clipPath>
</defs>
</svg>
