<svg width="205" height="75" viewBox="0 0 205 75" fill="none" xmlns="http://www.w3.org/2000/svg">
<g clip-path="url(#clip0_157_2015)">
<path d="M124.961 1.16535C124.171 1.95783 123.799 2.79693 123.799 3.96233C123.799 6.29315 124.449 7.27209 126.262 7.87811C128.353 8.57735 130.026 7.92472 131.002 6.10669C132.025 4.10218 131.885 2.61046 130.491 1.21197C128.864 -0.4196 126.494 -0.4196 124.961 1.16535ZM129.747 1.67813C131.142 2.65708 131.095 4.84804 129.608 6.29315C128.307 7.64502 127.052 7.78487 125.751 6.61946C124.124 5.26759 123.985 3.49617 125.379 2.1443C126.727 0.745808 128.26 0.605959 129.747 1.67813Z" fill="white" fill-opacity="0.22"/>
<path d="M149.545 3.96235C149.127 5.03453 149.685 6.06009 150.707 6.06009C151.869 6.06009 152.287 5.40746 151.915 4.19544C151.59 3.12326 149.917 2.9368 149.545 3.96235Z" fill="white" fill-opacity="0.22"/>
<path d="M170.969 7.45857C164.742 8.90368 158.143 11.1413 155.215 12.7728C151.683 14.7773 146.199 19.2059 136.672 27.6901C130.444 33.2374 129.329 34.4028 129.469 35.3818C129.654 36.9667 131.002 37.1998 132.443 35.8479C133.047 35.2885 133.651 34.9156 133.791 35.0554C133.93 35.1953 134.162 42.1877 134.302 50.6253C134.581 68.9455 134.627 69.6914 136.114 70.6703C137.601 71.6492 146.199 72.5816 159.816 73.2342C174.78 73.9334 186.027 73.6538 188.862 72.4883C191.697 71.3229 197.041 67.7801 199.225 65.5891L201.038 63.7711L200.712 49.2268L200.387 34.7291L203.454 33.1908C205.174 32.3983 206.708 31.3261 206.847 30.9066C207.079 30.3472 206.475 29.5547 204.849 28.1096C196.762 20.9307 177.243 6.52625 175.71 6.57286C175.152 6.57286 173.014 6.99241 170.969 7.45857ZM183.889 12.9127C194.299 20.4645 200.759 25.5457 201.642 26.851C202.014 27.457 202.618 27.9698 202.943 27.9698C203.268 27.9698 204.151 28.5758 204.849 29.3216L206.15 30.6735L204.663 31.466C203.454 32.1186 203.083 32.1186 202.432 31.6058C201.735 31.093 201.735 31.093 202.2 31.7457C202.711 32.3983 202.246 32.7712 198.621 34.6359C196.344 35.8479 194.206 36.8269 193.927 36.8269C193.648 36.8269 188.676 33.0975 182.913 28.5292C170.179 18.46 162.511 12.5864 161.628 12.2601C161.256 12.1202 160.978 11.8405 160.978 11.6074C160.978 10.9548 172.735 7.59842 175.524 7.50519C175.989 7.45857 179.753 9.92923 183.889 12.9127ZM161.814 13.4721C164.231 15.1036 181.24 28.2495 189.466 34.8224C191.185 36.2208 192.58 37.5261 192.58 37.7592C192.58 39.0178 190.442 37.6193 182.913 31.5592C171.248 22.0495 159.583 13.0525 158.933 13.0525C157.399 13.0525 144.387 23.448 135.51 31.7923C131.142 35.8945 130.584 36.2675 130.073 35.475C129.794 34.9622 144.944 21.3036 150.056 17.4345C152.891 15.2901 158.514 11.654 158.979 11.654C159.072 11.654 160.373 12.4931 161.814 13.4721ZM162.046 16.1758C164.463 17.9939 184.865 34.1697 185.609 34.8224C185.887 35.1021 186.956 71.9289 186.677 72.2553C186.538 72.3951 183.378 72.5816 179.613 72.6282L172.735 72.8147L172.41 66.8012C172.038 59.529 171.016 51.8839 170.04 48.6208C167.252 39.2975 158.607 36.7336 152.845 43.493C150.475 46.2434 149.452 50.1125 148.894 58.2237C148.662 61.9531 148.337 66.4748 148.244 68.2463C148.104 69.9711 147.919 71.5094 147.826 71.6026C147.733 71.6959 145.27 71.5094 142.388 71.1365C134.999 70.2041 135.464 71.0432 135.324 57.8508C135.092 36.5472 135.138 33.3306 135.603 32.8645C142.481 26.3382 157.771 13.9849 158.979 13.9849C159.072 13.9849 160.466 14.9638 162.046 16.1758ZM199.597 40.6494C199.644 43.5396 199.736 48.8073 199.829 52.3501C199.969 57.338 199.876 58.6899 199.411 58.4568C198.993 58.1771 198.993 58.2237 199.411 58.7831C199.69 59.1561 199.922 60.4613 199.922 61.6734C199.922 63.4914 199.783 63.8643 199.272 63.6779C198.853 63.4914 198.714 63.5846 198.9 63.9109C199.039 64.1906 198.714 64.8433 198.203 65.356C197.366 66.1019 197.041 66.1951 196.39 65.6824C195.74 65.1696 195.693 65.1696 196.204 65.729C196.669 66.2884 196.53 66.5681 195.507 67.5004C193.648 69.0854 188.397 71.9756 188.025 71.556C187.839 71.3696 187.56 65.9621 187.375 59.529C187.189 53.0493 186.956 45.2178 186.863 42.0479C186.77 38.9246 186.817 36.3607 187.003 36.3607C187.189 36.3607 188.258 37.1066 189.373 37.9923L191.418 39.5772L195.136 37.5261C197.18 36.4073 198.993 35.475 199.225 35.475C199.411 35.4284 199.597 37.8058 199.597 40.6494ZM159.816 41.302C155.865 42.7471 153.077 46.896 152.194 52.723C151.822 55.1005 150.753 68.759 150.753 71.1831C150.753 71.5094 150.335 71.7891 149.777 71.7891C148.848 71.7891 148.802 71.6026 149.08 68.153C149.22 66.1951 149.452 62.2328 149.638 59.4358C149.963 53.329 150.8 48.7606 152.055 46.3366C153.774 42.9336 157.167 40.5562 160.048 40.6028H161.675L159.816 41.302ZM166.369 43.5862C168.367 45.7306 169.575 49.1336 170.458 55.1471C170.876 57.8042 171.202 60.0884 171.202 60.1816C171.202 60.2749 169.575 60.3681 167.623 60.4147C164.463 60.4147 163.301 60.6944 158.514 62.6057C155.494 63.8177 152.798 64.7966 152.519 64.7966C151.822 64.7966 152.426 55.3802 153.356 51.1847C154.657 45.4043 158.096 41.9547 162.558 41.9547C164.556 41.9547 165.021 42.1411 166.369 43.5862ZM170.691 61.4869C171.202 61.8132 171.434 63.3515 171.574 67.3605L171.806 72.8613L162.093 72.4883C156.748 72.3019 152.194 72.0222 152.008 71.7891C151.822 71.6026 151.683 70.2508 151.776 68.759L151.915 66.1019L158.422 63.6312C164.974 61.114 169.017 60.4147 170.691 61.4869Z" fill="white" fill-opacity="0.22"/>
<path d="M203.269 28.6224C203.269 28.7156 203.64 29.0886 204.105 29.4149C204.802 30.0209 204.849 29.9743 204.244 29.2284C203.64 28.4825 203.269 28.2495 203.269 28.6224Z" fill="white" fill-opacity="0.22"/>
<path d="M156.748 28.9487C156.051 29.648 155.865 30.254 156.098 31.1397C156.423 32.5848 158.422 35.2419 159.909 36.2209C160.792 36.8269 160.978 36.7336 162.325 35.0088C165.393 31.1397 165.671 27.9698 162.929 27.9698C162.186 27.9698 161.303 28.2961 160.978 28.669C160.466 29.275 160.28 29.275 159.444 28.669C158.143 27.7367 157.91 27.7833 156.748 28.9487ZM163.766 29.1352C164.51 30.0209 163.859 31.6525 161.907 34.0299L160.559 35.6615L159.165 34.3096C158.422 33.6103 157.539 32.3517 157.213 31.6058C156.748 30.4404 156.795 30.1141 157.399 29.5081C158.05 28.8555 158.236 28.8555 158.933 29.4149C159.351 29.7412 159.862 30.4404 160.048 30.9998C160.373 31.8389 160.466 31.8389 160.978 30.5337C161.768 28.4359 162.79 27.9698 163.766 29.1352Z" fill="white" fill-opacity="0.22"/>
<path d="M149.592 43.0734C148.197 44.4719 146.757 47.3155 146.385 49.4132C146.199 50.532 146.385 50.2523 147.036 48.4343C147.593 46.9892 148.755 44.9381 149.638 43.8659C151.404 41.8148 151.404 41.2554 149.592 43.0734Z" fill="white" fill-opacity="0.22"/>
<path d="M145.734 52.6764C145.734 53.5621 145.827 53.9351 145.967 53.4689C146.06 53.0493 146.06 52.3035 145.967 51.8373C145.827 51.4178 145.734 51.7907 145.734 52.6764Z" fill="white" fill-opacity="0.22"/>
<path d="M145.316 57.1049C145.316 58.6433 145.409 59.2027 145.502 58.3636C145.595 57.5245 145.595 56.2658 145.502 55.5666C145.409 54.8673 145.316 55.5666 145.316 57.1049Z" fill="white" fill-opacity="0.22"/>
<path d="M133.651 10.3488C133.326 10.6751 133.094 11.4676 133.094 12.1668C133.094 14.4044 136.068 14.4977 136.625 12.3067C137.137 10.3488 135.045 8.95031 133.651 10.3488ZM135.789 11.7939C135.975 12.7262 134.627 13.3789 133.977 12.7262C133.326 12.0736 134.023 10.6285 134.906 10.815C135.324 10.9082 135.696 11.3277 135.789 11.7939Z" fill="white" fill-opacity="0.22"/>
<path d="M119.942 16.6886C118.176 18.6465 119.57 22.0029 122.172 22.0029C125.193 22.0029 126.541 17.854 124.078 16.2224C123.102 15.5698 120.685 15.8495 119.942 16.6886ZM124.264 17.7608C124.868 18.7863 124.171 20.7442 123.055 21.1638C122.637 21.3036 121.754 21.1172 121.15 20.7442C119.709 19.7653 119.849 17.7608 121.429 16.9683C122.73 16.3157 123.659 16.5488 124.264 17.7608Z" fill="white" fill-opacity="0.22"/>
<path d="M46.0022 21.5367C45.1192 22.7953 45.0727 23.8675 45.8163 24.6134C46.6993 25.4991 47.9541 25.266 48.7906 24.0074C50.4172 21.5367 47.6287 19.1593 46.0022 21.5367ZM48.3258 22.1427C48.6047 22.8886 47.7682 24.2405 47.0246 24.2405C46.3275 24.2405 46.0486 22.842 46.6528 22.1427C47.3964 21.257 48.0005 21.257 48.3258 22.1427Z" fill="white" fill-opacity="0.22"/>
<path d="M38.8452 22.0028C37.451 23.4013 38.6593 26.3848 40.4253 26.0118C41.8195 25.7321 42.3307 24.3803 41.5407 22.9352C40.7042 21.5367 39.6817 21.1637 38.8452 22.0028ZM41.0759 24.054C41.0759 25.0329 40.1 25.3126 39.3099 24.5667C38.7058 23.9607 38.7058 23.681 39.217 23.075C39.6817 22.5156 39.9606 22.469 40.4253 22.8885C40.7971 23.1682 41.0759 23.681 41.0759 24.054Z" fill="white" fill-opacity="0.22"/>
<path d="M98.3314 26.7577L98.5638 30.2073L95.8218 30.3938C92.104 30.6735 91.7322 31.1863 93.87 33.284L95.6359 35.0088L94.2882 36.081C92.6616 37.3862 93.0334 38.0855 95.7289 38.7381L97.8202 39.2975L97.4949 41.302C97.216 43.1667 97.2625 43.3531 98.0526 43.0734C98.5638 42.887 99.5862 42.2809 100.376 41.6749L101.863 40.6028L103.072 42.4208C103.722 43.4464 104.466 44.2854 104.698 44.2854C104.931 44.2854 105.488 43.3065 105.953 42.0479C106.371 40.8358 106.883 39.6704 107.068 39.484C107.254 39.2509 108.37 39.5772 109.532 40.1366C110.74 40.7426 111.809 41.1155 111.902 40.9757C111.995 40.8825 111.948 39.8569 111.716 38.7381C111.344 36.7802 111.483 36.4539 113.203 33.89C114.225 32.3983 114.969 31.093 114.876 30.9532C114.737 30.8599 113.621 30.6269 112.366 30.487C109.485 30.1141 109.067 29.7412 108.695 27.457C108.509 26.478 108.184 25.5457 107.951 25.3592C107.719 25.2194 106.604 25.7788 105.442 26.6179L103.304 28.1562L101.213 25.7321C100.051 24.3803 98.8891 23.3081 98.6103 23.3081C98.2849 23.3081 98.192 24.5201 98.3314 26.7577ZM101.166 27.0374C102.049 28.063 103.025 28.9021 103.351 28.9021C103.676 28.9021 104.698 28.3427 105.581 27.69C107.301 26.3382 107.998 26.6645 107.998 28.7156C107.998 30.1141 108.881 30.7201 111.437 31.0464C112.599 31.2329 113.575 31.466 113.575 31.6524C113.575 31.7923 112.924 32.7712 112.181 33.7502C111.112 35.1486 110.786 36.081 110.786 37.6193C110.786 38.7381 110.693 39.6238 110.554 39.6238C110.368 39.6238 109.624 39.2975 108.881 38.878C107.022 37.9456 106.371 38.2253 105.674 40.4163C104.791 43.0734 104.466 43.1667 103.397 41.0689L102.421 39.1576L100.469 40.5561C99.4003 41.3486 98.5173 41.908 98.4244 41.8148C98.3314 41.7682 98.4708 40.9291 98.6567 39.9501C99.075 38.3186 99.0285 38.2253 97.8202 38.2253C96.1936 38.2253 94.5206 37.7125 94.5206 37.2464C94.5206 37.0599 95.1712 36.5005 95.9148 36.0344C96.7048 35.6148 97.309 35.102 97.309 34.9622C97.2625 34.8223 96.426 34.1231 95.3571 33.4238C93.0799 31.7923 93.4517 31.2329 96.8907 31.0464C99.6791 30.9066 99.7256 30.7667 98.982 26.8976C98.4708 24.6134 99.1215 24.66 101.166 27.0374Z" fill="white" fill-opacity="0.22"/>
<path d="M101.352 30.6269C100.841 31.093 100.98 34.496 101.491 34.496C101.77 34.496 101.956 33.8434 101.956 33.0975C101.956 31.3727 102.56 31.3261 103.35 32.9577C103.862 34.0299 104.001 34.1231 104.187 33.4239C104.559 31.7923 102.374 29.6013 101.352 30.6269Z" fill="white" fill-opacity="0.22"/>
<path d="M107.626 33.7502C108.369 34.3096 108.369 34.4028 107.486 35.2885C106.929 35.8013 106.696 36.3607 106.929 36.5005C107.208 36.687 107.998 36.1742 108.741 35.3817C109.857 34.2163 109.95 33.9366 109.392 33.5637C109.02 33.3306 108.277 33.0975 107.765 33.0975C106.929 33.1442 106.882 33.1908 107.626 33.7502Z" fill="white" fill-opacity="0.22"/>
<path d="M98.7031 35.8479C98.7031 36.3607 99.1214 36.8268 99.772 37.0133C101.259 37.3862 101.956 37.3396 101.956 36.8268C101.956 36.5471 101.445 36.3607 100.794 36.3607C100.051 36.3607 99.6326 36.081 99.6326 35.6614C99.6326 35.2885 99.4467 34.9622 99.1679 34.9622C98.9355 34.9622 98.7031 35.3351 98.7031 35.8479Z" fill="white" fill-opacity="0.22"/>
<path d="M130.537 27.3172C127.47 30.4405 126.541 31.6991 127.284 31.6991C127.424 31.6991 129.283 29.9277 131.467 27.7367C133.605 25.5457 135.092 23.7743 134.72 23.7743C134.348 23.7743 132.443 25.3593 130.537 27.3172Z" fill="white" fill-opacity="0.22"/>
<path d="M52.8337 26.1983C51.486 27.8765 52.0437 29.8344 53.8097 29.8344C54.9715 29.8344 56.4122 28.5292 56.4122 27.457C56.4122 25.8254 53.8097 24.9863 52.8337 26.1983ZM55.3898 27.3171C55.1574 28.4825 53.7632 29.2284 53.1126 28.5758C52.6943 28.1562 52.6943 27.8299 53.159 27.2705C53.9491 26.2916 55.5756 26.3382 55.3898 27.3171Z" fill="white" fill-opacity="0.22"/>
<path d="M40.8901 28.4826C39.2171 29.7878 38.6594 31.3262 39.2635 33.0043C39.7283 34.4028 41.3084 35.4284 43.0279 35.4284C43.5391 35.4284 45.0263 36.2675 46.281 37.293C50.2778 40.463 53.0197 39.4374 52.6014 35.0088C52.3226 32.1186 50.5566 29.3217 48.3723 28.2961C46.0022 27.1773 42.4237 27.2705 40.8901 28.4826ZM47.5823 28.9953C48.7441 29.6014 49.9989 30.7201 50.4637 31.466C51.3931 33.1442 51.9508 35.9878 51.5325 37.2464C51.1143 38.5983 48.7906 38.0855 46.281 36.1276C44.9798 35.1487 43.6785 34.4961 42.842 34.4961C41.5872 34.4961 39.6818 33.0976 39.6818 32.1653C39.6818 30.9998 40.8901 29.3683 42.1914 28.7156C44.1433 27.7367 45.1657 27.7833 47.5823 28.9953Z" fill="white" fill-opacity="0.22"/>
<path d="M41.5406 30.0675C40.6576 31.0931 41.1688 31.2329 42.1448 30.2073C42.563 29.7412 42.7489 29.3683 42.5166 29.3683C42.2842 29.3683 41.8659 29.6946 41.5406 30.0675Z" fill="white" fill-opacity="0.22"/>
<path d="M71.4232 30.7667C70.5867 31.2795 69.7967 32.2119 69.6108 32.8645C69.1925 34.5893 69.7037 34.8224 70.4473 33.284C70.7726 32.5382 71.6091 31.6525 72.3062 31.2795C73.9328 30.3472 75.7917 31.1863 76.5353 33.0976C77.093 34.5893 77.7901 34.9622 77.7901 33.7968C77.7901 32.7246 79.9279 31.5592 81.2756 31.8855C82.391 32.1652 82.8092 32.8179 83.5528 35.1487C83.8317 36.0344 83.8781 36.0344 84.4823 35.1487C85.04 34.4028 85.2259 34.4028 85.923 34.9622C86.5271 35.475 86.6665 36.1276 86.4806 37.6193C86.2948 39.5772 86.713 40.3231 87.2707 38.878C87.9678 37.1066 87.5495 35.0088 86.3877 34.2164C85.7835 33.8434 85.04 33.6103 84.7611 33.7968C84.5288 33.9367 84.064 33.5637 83.7852 32.9111C83.5063 32.3051 82.6234 31.5126 81.8798 31.1863C80.7179 30.7201 80.2532 30.7667 78.859 31.4194C77.4183 32.1186 77.1395 32.1186 76.6747 31.5126C76.21 30.86 74.0258 29.8344 73.2357 29.8344C73.0498 29.8344 72.2133 30.254 71.4232 30.7667Z" fill="white" fill-opacity="0.22"/>
<path d="M24.9032 31.7923C24.1132 32.5848 24.2061 34.7291 25.0426 35.4284C26.6227 36.7336 28.8999 34.0765 27.7381 32.2118C27.134 31.2795 25.6468 31.0464 24.9032 31.7923ZM26.9016 33.5637C26.9016 34.8224 25.8792 35.3818 25.4609 34.3096C25.0891 33.284 25.6003 32.0254 26.3439 32.3051C26.6227 32.3983 26.9016 32.9577 26.9016 33.5637Z" fill="white" fill-opacity="0.22"/>
<path d="M16.3521 32.8645C15.9338 33.7502 15.9803 34.2163 16.6309 35.1953C17.8857 37.1065 20.1629 36.4539 20.1629 34.2163C20.1629 31.8389 17.2815 30.8133 16.3521 32.8645ZM19.1405 33.7502C19.2334 34.2163 19.094 34.8223 18.8152 35.102C18.118 35.8013 16.6774 34.3562 17.0956 33.3306C17.4674 32.3517 18.9546 32.6314 19.1405 33.7502Z" fill="white" fill-opacity="0.22"/>
<path d="M55.0181 34.263C54.2745 35.1487 54.8322 36.687 55.994 37.0599C56.5052 37.2464 57.3882 37.0599 58.0388 36.6404C59.2471 35.8479 59.3866 35.5216 58.9218 34.3096C58.55 33.3772 55.8081 33.3306 55.0181 34.263ZM58.2712 35.1953C58.2712 36.081 56.4587 36.5938 55.7616 35.8945C55.3898 35.5216 55.4828 35.1953 56.0869 34.7291C57.0629 34.0299 58.2712 34.263 58.2712 35.1953Z" fill="white" fill-opacity="0.22"/>
<path d="M120.127 41.1155C119.802 43.7261 119.291 45.7772 118.826 46.2433C118.408 46.7095 117.99 48.108 117.85 49.4133C117.664 51.6042 117.571 51.7441 116.317 51.7441C115.48 51.7441 114.829 52.0704 114.504 52.723C114.225 53.2358 113.482 59.1561 112.831 65.8688C111.53 79.8537 111.483 80.18 110.554 80.18C110.182 80.18 109.857 80.3665 109.857 80.6462C109.857 80.8793 110.461 81.1124 111.158 81.1124C112.877 81.1124 112.97 81.2988 112.738 82.977C112.599 83.956 112.273 84.3755 111.669 84.3755C111.158 84.3755 110.786 84.6552 110.786 84.9815C110.786 85.8206 119.941 87.0326 120.639 86.3334C121.243 85.7274 120.685 84.8417 119.756 84.8417C119.244 84.8417 119.105 84.562 119.337 83.7695C119.477 83.2101 119.616 82.5575 119.616 82.3244C119.616 82.1379 120.453 82.0447 121.475 82.1379C123.427 82.3244 123.985 81.8582 122.358 81.3454C121.568 81.0657 121.429 80.786 121.661 79.3409C122.079 76.5906 123.799 57.338 123.799 55.2403C123.799 53.1426 123.195 52.2102 121.8 52.2102C120.964 52.2102 120.917 51.9772 121.243 49.5997C121.429 47.8749 121.382 46.8027 121.01 46.3366C120.453 45.6839 120.499 44.705 121.289 38.7847C121.475 37.6193 121.382 36.8268 121.103 36.8268C120.871 36.8268 120.406 38.7847 120.127 41.1155ZM120.36 49.5997C120.127 50.9982 119.802 51.7441 119.337 51.7441C118.501 51.7441 118.408 48.0148 119.244 47.1757C120.174 46.2433 120.685 47.3155 120.36 49.5997ZM121.15 52.9561L122.869 53.2824V55.6598C122.869 59.6688 120.824 80.553 120.406 80.9259C120.22 81.0657 112.645 80.3199 112.459 80.1334C112.18 79.8537 114.829 53.7486 115.155 53.1892C115.526 52.6298 118.408 52.5365 121.15 52.9561ZM118.687 82.4642C118.687 84.3289 118.315 84.6086 115.898 84.4687C113.668 84.2823 113.575 84.2356 113.575 82.9304C113.575 81.6251 113.621 81.5785 116.131 81.5785C118.361 81.5785 118.687 81.7184 118.687 82.4642Z" fill="white" fill-opacity="0.22"/>
<path d="M117.2 61.8598C117.525 61.9997 117.943 61.9531 118.083 61.8132C118.268 61.6734 117.99 61.5335 117.478 61.5801C116.967 61.5801 116.828 61.72 117.2 61.8598Z" fill="white" fill-opacity="0.22"/>
<path d="M116.735 69.7846C117.06 69.9244 117.479 69.8778 117.618 69.738C117.804 69.5981 117.525 69.4583 117.014 69.5049C116.503 69.5049 116.363 69.6447 116.735 69.7846Z" fill="white" fill-opacity="0.22"/>
<path d="M116.27 73.9801C116.595 74.1199 117.014 74.0733 117.153 73.9335C117.339 73.7936 117.06 73.6538 116.549 73.7004C116.038 73.7004 115.898 73.8402 116.27 73.9801Z" fill="white" fill-opacity="0.22"/>
<path d="M9.65985 37.9457C9.19512 39.2043 9.70633 40.3231 11.0541 40.9291C12.1694 41.4885 12.4483 41.4885 13.0989 40.8359C14.3072 39.6239 13.3313 37.5727 11.4258 37.3863C10.4034 37.293 9.84575 37.4795 9.65985 37.9457ZM12.7271 39.6239C12.7271 40.1366 12.4483 40.5562 12.0765 40.5562C11.147 40.5562 10.264 39.2975 10.5893 38.4584C10.9611 37.4329 12.7271 38.4118 12.7271 39.6239Z" fill="white" fill-opacity="0.22"/>
<path d="M19.2336 38.3186C15.4692 40.2765 13.7032 44.4719 15.3298 47.502C17.0028 50.6719 20.4419 50.6719 22.022 47.5486C22.5332 46.523 23.788 45.1712 24.7639 44.5185C29.5507 41.4885 29.0395 37.8058 23.7415 37.4329C21.8826 37.293 20.8602 37.4795 19.2336 38.3186ZM26.1117 38.9712C27.6918 40.09 27.227 41.4419 24.6245 43.3998C23.4162 44.3321 21.929 45.917 21.3714 46.896C18.9083 51.3245 14.168 47.8749 16.0269 43.0268C17.5141 39.1111 23.0909 36.8735 26.1117 38.9712Z" fill="white" fill-opacity="0.22"/>
<path d="M16.5381 44.7516C16.5381 45.4042 16.631 45.6373 16.7705 45.311C16.8634 45.0313 16.8634 44.4719 16.7705 44.1456C16.631 43.8659 16.5381 44.099 16.5381 44.7516Z" fill="white" fill-opacity="0.22"/>
<path d="M72.678 40.6028C69.8431 41.0689 68.4953 41.6283 66.6829 43.1667C64.731 44.7983 63.4297 47.6418 63.3833 50.2057V52.2102H56.5517C52.7408 52.2102 49.2088 52.3501 48.6512 52.4899C47.6287 52.7696 47.5823 53.0027 47.5823 58.0839C47.5823 62.3726 47.7217 63.4448 48.3259 63.7711C48.93 64.0974 49.1159 66.0553 49.5342 75.7981C49.7665 82.1845 50.1383 87.592 50.3242 87.7785C51.0678 88.5244 92.3363 88.198 96.2865 87.359L97.3089 87.1725V75.5184C97.3089 64.2839 97.3554 63.8643 98.2384 63.8643C98.889 63.8643 99.2608 63.3515 99.5861 62.0929C100.237 59.8553 100.237 53.0027 99.6326 52.3967C99.3073 52.0704 96.4724 51.9772 91.7786 52.117L84.4358 52.3501L84.1104 50.1125C83.4133 45.7306 81.8332 42.6539 79.556 41.4419C78.1154 40.6494 74.8157 40.2765 72.678 40.6028ZM77.0929 41.5351C80.439 42.4674 82.5768 45.4043 83.181 49.8328L83.5063 52.2102H75.7452C68.3095 52.2102 68.0306 52.1636 68.0306 51.2779C68.0306 50.7651 68.3095 49.6464 68.6812 48.7606C70.8655 43.493 78.1154 44.2389 78.9984 49.8328C79.1843 50.8584 79.4631 51.7441 79.6955 51.7441C80.3461 51.7441 80.2067 50.0659 79.3701 48.0148C76.9535 42.0013 67.5659 43.7261 67.5659 50.1591C67.5659 52.1636 67.5659 52.2102 65.9858 52.2102C65.1028 52.2102 64.2663 52.0238 64.1268 51.7907C63.9409 51.5576 64.0804 50.2524 64.3592 48.9471C65.1493 45.1712 67.8912 42.5141 72.0738 41.5351C74.5369 40.9757 74.9552 40.9757 77.0929 41.5351ZM99.0749 55.9396C99.1679 57.6177 99.0749 59.8553 98.9355 60.9275L98.6567 62.932H73.561H48.5117V58.0373V53.1426L71.6555 53.0027C84.3428 52.9561 95.6823 52.9095 96.8442 52.9095H98.9355L99.0749 55.9396ZM96.4724 71.3229C96.5653 75.4252 96.4724 78.7815 96.2865 78.7815C96.1006 78.7815 96.1471 79.4342 96.3794 80.2267C96.7512 81.4853 96.7048 81.6251 96.0077 81.3454C95.357 81.1124 95.3106 81.159 95.8218 81.6251C96.1006 81.9515 96.3794 82.8372 96.3794 83.583C96.3794 84.5154 96.1936 84.7951 95.8218 84.562C95.357 84.2823 95.357 84.3755 95.8218 84.8883C97.0301 86.1935 96.4724 86.7063 93.9628 86.6597C92.6151 86.6131 91.2209 86.38 90.8956 86.1003C90.4773 85.774 90.3844 85.8206 90.5703 86.3334C90.8026 86.9394 89.9661 87.0326 84.947 87.1259C81.6938 87.1725 78.8589 87.3123 78.6266 87.4522C78.3942 87.6386 72.0738 87.592 64.5451 87.4056L50.9284 87.0326L50.6495 81.8582C50.5101 79.0146 50.2777 73.7936 50.0918 70.2508L49.813 63.8643H73.0962H96.333L96.4724 71.3229Z" fill="white" fill-opacity="0.22"/>
<path d="M51.6719 54.8674C52.2296 54.9606 53.1591 54.9606 53.7632 54.8674C54.3209 54.7741 53.8562 54.6809 52.6943 54.6809C51.5325 54.6809 51.0678 54.7741 51.6719 54.8674Z" fill="white" fill-opacity="0.22"/>
<path d="M71.7487 69.3184C71.7487 72.8147 71.4698 73.141 68.542 73.2808L65.9395 73.4207L65.8001 75.3319L65.6606 77.2432L68.3096 77.5229C69.7503 77.6628 71.1445 78.0823 71.3304 78.4086C71.5628 78.7349 71.7487 79.9003 71.7487 80.9725V82.977H73.84H75.9313V80.4131V77.8958L78.7662 77.5695L81.5546 77.2432L81.4152 75.3319L81.2757 73.4207L78.6267 73.2808L75.9778 73.141L75.8383 70.4838L75.6989 67.8267L73.747 67.6869L71.7487 67.547V69.3184ZM75.0948 71.1831L75.2342 73.8868L77.9296 74.0267C80.5786 74.1665 80.6251 74.2132 80.4857 75.4252C80.3463 76.5906 80.2068 76.6838 77.6973 76.8237L75.0483 76.9635L74.9089 79.6206C74.7694 82.0913 74.6765 82.2778 73.6076 82.2778C72.5387 82.2778 72.4458 82.0913 72.3064 79.6206L72.1669 76.9635L69.5179 76.8237C67.0084 76.6838 66.869 76.6372 66.7295 75.3786C66.5901 74.1199 66.5901 74.1199 69.3785 74.1199H72.2134V71.6493C72.2134 68.8523 72.3993 68.526 73.8865 68.526C74.8624 68.526 74.9553 68.759 75.0948 71.1831Z" fill="white" fill-opacity="0.22"/>
<path d="M8.82344 45.3577C7.70807 46.1968 8.21928 47.9216 9.70643 48.2945C11.0542 48.6208 12.7272 47.7817 12.7272 46.7095C12.7272 44.8915 10.4965 44.1456 8.82344 45.3577ZM11.5654 46.6163C11.5654 47.4554 10.0317 47.8283 9.38112 47.1757C9.10228 46.896 9.0558 46.4765 9.2417 46.1501C9.70643 45.4043 11.5654 45.7772 11.5654 46.6163Z" fill="white" fill-opacity="0.22"/>
<path d="M35.6851 48.8539C34.7092 49.4599 34.105 51.2779 34.3839 52.4433C34.7092 53.8418 35.8246 54.541 37.7764 54.541C40.2395 54.541 41.6337 50.9516 39.7748 49.2734C38.8918 48.4809 36.6146 48.2478 35.6851 48.8539ZM39.5889 51.4178C39.7748 53.0027 37.8694 54.4012 36.5217 53.6553C34.7092 52.6764 34.7557 50.1591 36.5681 49.4133C37.9159 48.9005 39.403 49.8794 39.5889 51.4178Z" fill="white" fill-opacity="0.22"/>
<path d="M9.28811 61.1606C8.86985 61.7666 8.54453 63.1651 8.54453 64.4703C8.54453 65.7756 8.17274 67.4538 7.61506 68.5259C6.4997 70.7169 6.40675 72.3951 7.42917 73.2342C8.40511 74.0733 15.0508 73.8868 18.304 72.9545C19.6982 72.5349 21.1853 72.2086 21.5571 72.2552C21.9289 72.2552 22.7654 72.3019 23.4161 72.3019C24.0667 72.3019 25.0891 72.8146 25.7397 73.4207C27.2269 74.7725 31.5489 77.4763 33.5008 78.2688C35.3597 79.0146 37.1722 78.6417 37.8693 77.3364C38.2411 76.5439 38.1946 75.8913 37.5905 74.3064C36.8469 72.3485 36.8469 72.2086 37.7764 70.6703C38.9382 68.8523 39.0311 66.5681 38.0552 65.729C37.1257 64.9365 29.5506 65.4026 26.8551 66.335C25.4144 66.8944 24.7638 66.8944 24.392 66.5214C23.9737 66.1019 23.6019 66.1485 22.9048 66.5681C22.0683 67.1275 21.7895 67.0808 20.9065 66.2884C20.3953 65.7756 18.304 64.1906 16.2591 62.7455C12.2159 59.8553 10.4499 59.4358 9.28811 61.1606ZM16.9098 64.3771C19.3264 66.1951 21.3712 67.7335 21.4642 67.8267C21.5571 67.9199 21.4642 68.7124 21.3247 69.6447C20.9994 71.1831 20.7671 71.3695 18.7222 71.9755C15.4691 72.9545 10.4035 73.374 8.91632 72.768C7.33622 72.162 7.1968 70.7635 8.54453 68.759C9.19516 67.7801 9.474 66.5681 9.474 64.75C9.474 59.9952 10.9612 59.9019 16.9098 64.3771ZM37.8693 66.941C38.3805 67.547 38.2876 68.0132 37.2187 69.9244C35.9639 72.162 35.9639 72.2086 36.661 74.353C37.4975 76.777 37.0793 77.8492 35.3133 77.8492C34.105 77.8492 30.1082 75.6582 27.1339 73.374C25.0891 71.8357 24.9032 71.556 25.3215 70.4838C25.5538 69.8312 25.6933 69.0387 25.5538 68.6658C24.8103 66.7545 36.3357 65.123 37.8693 66.941ZM24.8103 69.2718C24.8103 70.2507 23.1372 71.9755 22.5331 71.556C21.836 71.1365 22.1613 68.759 23.0443 67.7335C23.509 67.1275 23.6949 67.1741 24.2061 67.8733C24.5314 68.3395 24.8103 68.9455 24.8103 69.2718Z" fill="white" fill-opacity="0.22"/>
<path d="M16.9099 66.8478C16.9099 66.941 17.2817 67.3139 17.7464 67.6402C18.4435 68.2463 18.49 68.1996 17.8859 67.4538C17.2817 66.7079 16.9099 66.4748 16.9099 66.8478Z" fill="white" fill-opacity="0.22"/>
<path d="M28.7605 72.0222C29.2717 72.4417 30.1083 73.0011 30.6195 73.2342L31.5489 73.7004L30.6195 72.9545C30.1083 72.535 29.2717 71.9756 28.7605 71.7425L27.8311 71.2763L28.7605 72.0222Z" fill="white" fill-opacity="0.22"/>
<path d="M129.794 63.0252C129.608 66.941 130.491 70.9966 131.932 72.9079C133.14 74.5395 133.093 73.4673 131.792 70.8568C130.77 68.7591 130.537 67.6403 130.537 64.9365C130.537 61.6268 129.887 60.0418 129.794 63.0252Z" fill="white" fill-opacity="0.22"/>
<path d="M102.049 71.4162C102.328 72.7681 102.421 74.7726 102.282 75.8447C102.189 76.9635 102.235 77.8492 102.467 77.8492C102.932 77.8492 103.025 70.8568 102.607 69.738C101.956 68.1064 101.631 69.132 102.049 71.4162Z" fill="white" fill-opacity="0.22"/>
<path d="M-36.5347 75.0523C-36.5347 75.2853 -35.6517 75.5184 -34.5363 75.5184C-30.3537 75.5184 -24.1727 78.1289 -20.2689 81.5319C-18.5494 83.0703 -18.3171 83.3966 -18.9677 83.6763C-19.5254 83.9094 -20.5943 83.3034 -22.4532 81.765C-26.2176 78.6883 -29.5636 77.2432 -33.3745 77.0102C-35.6517 76.8703 -36.5347 76.9635 -36.5347 77.3831C-36.5347 77.756 -36.1629 77.8492 -35.5123 77.7094C-32.7238 76.9635 -26.5893 79.341 -22.7785 82.6973L-20.5943 84.6552L-23.3362 85.8673C-28.4483 88.1981 -32.0732 88.4778 -35.2334 86.8462C-36.0699 86.4267 -36.5347 86.38 -36.5347 86.7063C-36.5347 87.5921 -33.1421 88.6642 -30.4466 88.6176C-27.6582 88.571 -22.825 87.0327 -19.9436 85.2612C-17.9917 84.0492 -17.9453 84.7018 -19.9436 86.2868C-23.615 89.2702 -25.1951 89.7364 -31.0973 89.7364C-36.9065 89.7364 -38.1612 90.156 -33.9322 90.7154C-27.7977 91.4612 -22.7785 90.0627 -18.8283 86.4733C-17.1087 84.9349 -15.2963 84.2357 -7.95347 82.2778C-4.09617 81.2522 5.05911 80.8327 7.42926 81.5786C11.333 82.8372 13.6567 85.5876 13.6567 88.9905C13.6567 91.7875 12.4949 94.7244 9.24173 100.458C4.17611 109.269 3.43254 115.096 6.8251 118.825C9.56704 121.808 16.3986 122.648 20.8601 120.55C25.2286 118.545 27.134 115.469 29.4577 106.891C31.2237 100.318 34.198 96.4958 38.1482 95.7499C41.8196 95.0507 46.0952 97.8477 47.1176 101.624C47.3965 102.603 47.8147 103.488 48.0936 103.581C48.4189 103.675 48.3724 104.374 48.0006 105.679C47.4894 107.311 47.0247 107.777 45.2122 108.663C44.0039 109.222 42.0055 110.667 40.7972 111.926C38.8453 113.93 38.5665 114.443 38.3806 116.681C38.2412 118.545 38.4271 119.757 39.2171 121.575C40.4719 124.512 41.4014 124.885 48.7442 125.258C58.7825 125.724 65.2888 123.16 69.9361 116.867C71.1444 115.189 71.1909 115.002 70.5867 113.324C68.4025 106.984 66.4506 105.679 59.2007 105.633C56.7841 105.586 53.9492 105.726 52.9268 105.912C51.1608 106.239 50.9749 106.145 50.2313 104.933C49.7666 104.094 49.6272 103.488 49.906 103.209C50.5567 102.556 49.3484 98.6867 47.8612 96.7755C44.9334 92.9063 38.7989 91.6477 34.198 93.9785C30.2013 95.983 28.3888 98.8266 25.5075 107.497C23.5556 113.511 22.719 115.049 20.3489 116.82C18.9547 117.893 18.0717 118.172 15.5156 118.312C12.4949 118.499 12.309 118.452 10.6359 116.96C7.15042 113.697 7.52221 110.341 12.216 101.577C16.2592 94.1183 17.0493 91.6943 16.8169 87.8251C16.5845 84.0492 14.9115 81.4387 11.6119 79.7605C7.28984 77.5229 -2.88786 77.9891 -13.7627 80.8793L-17.9917 82.0447L-20.4084 80.2267C-23.3827 77.9891 -26.6823 76.3109 -29.9819 75.332C-32.8168 74.4929 -36.5347 74.353 -36.5347 75.0523ZM9.65999 79.8071C12.4019 80.6462 15.2833 83.7229 15.8874 86.38C16.6775 90.2958 15.6551 93.2793 9.61351 104.654C8.17284 107.357 7.84752 108.476 7.7081 111.18C7.56868 114.024 7.66162 114.676 8.63757 116.075C10.2641 118.499 12.3554 119.431 15.7945 119.245C17.9323 119.105 19.1406 118.732 20.5813 117.799C23.0908 116.121 24.3456 113.977 26.1116 108.523C29.7365 97.195 33.315 93.3725 39.9142 93.792C43.8645 94.0251 46.374 95.7033 48.14 99.2461C49.3484 101.624 49.4413 102.556 48.4654 102.556C48.233 102.556 48.0471 102.183 48.0471 101.717C48.0471 101.251 47.4429 99.9454 46.6994 98.78C45.0728 96.1695 42.6562 94.9108 39.403 94.9108C34.2909 94.8642 30.666 98.9198 28.4818 106.938C26.2975 115.189 24.485 118.033 20.2095 119.944C17.0957 121.342 12.1696 121.249 9.47409 119.757C6.59274 118.126 5.66327 116.168 5.84916 112.066C5.98858 108.523 6.128 108.243 12.0766 97.0552C14.2144 92.9996 14.3538 92.4868 14.3538 89.3169C14.3538 86.38 14.2144 85.7274 13.099 84.2823C9.47409 79.5274 0.411762 78.9214 -12.322 82.5575C-17.0158 83.9094 -17.8523 84.0026 -17.2946 83.0703C-17.0158 82.5575 -8.92941 80.5064 -4.46796 79.7605C-0.657131 79.1545 7.47573 79.1545 9.65999 79.8071ZM49.906 106.285C49.906 106.518 49.5342 106.751 49.116 106.751C48.4189 106.751 48.3724 106.658 48.9766 106.285C49.8596 105.726 49.906 105.726 49.906 106.285ZM65.5211 107.59C67.1942 108.43 68.4025 109.828 67.8913 110.294C67.7983 110.387 67.0083 110.108 66.1253 109.688C64.917 109.036 63.4298 108.849 59.4331 108.849C53.2521 108.896 49.0695 110.015 45.2587 112.672C42.8885 114.35 40.379 117.66 40.8902 118.499C41.4479 119.338 40.1466 118.778 39.496 117.893C38.5665 116.541 39.2636 114.769 41.5873 112.439C45.7234 108.336 52.0438 106.192 59.2007 106.425C62.5933 106.518 64.034 106.798 65.5211 107.59ZM65.6141 110.481C66.683 110.947 67.566 111.553 67.566 111.833C67.566 112.066 66.4506 113.278 65.0564 114.583C60.9202 118.359 53.8098 120.503 46.5135 120.223C41.7732 119.99 41.2155 119.617 42.145 117.38C43.3533 114.49 47.9077 111.506 53.0662 110.294C57.1094 109.269 63.1975 109.362 65.6141 110.481ZM69.7502 113.884C69.9826 115.375 69.7967 115.748 67.7519 117.939C66.2182 119.617 65.4282 120.13 65.1958 119.711C64.9634 119.384 65.1493 118.778 65.6141 118.219C66.3577 117.38 66.3577 117.38 65.3817 117.66C63.2904 118.312 63.3833 117.38 65.6605 115.329C66.9618 114.163 68.1236 112.811 68.2631 112.299C68.6813 110.993 69.3784 111.739 69.7502 113.884ZM62.8257 119.058C61.6638 119.944 61.8032 120.317 63.151 119.99C64.4522 119.664 64.6846 120.317 63.6157 121.389C62.6862 122.275 59.526 123.16 58.5501 122.787C57.7136 122.461 57.1559 120.969 57.6206 120.223C58.0854 119.431 60.6414 118.452 62.2215 118.452C63.4763 118.452 63.5228 118.499 62.8257 119.058ZM41.1225 120.13C42.8885 121.063 49.5807 121.296 53.9957 120.596C56.1335 120.223 56.4123 120.27 56.4123 121.016C56.4123 121.436 56.7376 122.228 57.2024 122.694C57.6206 123.16 57.8065 123.673 57.6671 123.86C57.0165 124.466 47.4429 124.605 44.2827 123.999C40.9831 123.44 40.7043 123.207 39.6819 120.55C39.1707 119.105 39.1242 119.105 41.1225 120.13Z" fill="white" fill-opacity="0.22"/>
</g>
<defs>
<clipPath id="clip0_157_2015">
<rect width="205" height="75" fill="white"/>
</clipPath>
</defs>
</svg>
