<svg width="320" height="188" viewBox="0 0 320 188" fill="none" xmlns="http://www.w3.org/2000/svg">
<path d="M139.043 80.8806C199.765 61.6511 199.227 106.224 248.789 120.93L215.039 179.768L24.2539 182.318C32.6721 146.882 16.3273 123.437 30.3078 129.804C47.7834 137.762 78.321 100.11 139.043 80.8806Z" stroke="white" stroke-opacity="0.44" stroke-width="0.5" stroke-linecap="round"/>
<path d="M139.963 64.1741C215.691 40.2295 215.147 96.1315 277.044 114.718L235.09 188.416L-3.00718 191.07C7.39802 146.65 -13.0676 117.199 4.39852 125.224C26.2312 135.254 64.2357 88.1188 139.963 64.1741Z" stroke="white" stroke-opacity="0.44" stroke-width="0.5" stroke-linecap="round"/>
<path d="M140.119 46.3527C227.085 18.8301 226.376 82.8196 297.401 104.001L249.13 188.424L-24.1917 191.821C-12.1804 140.959 -35.629 107.279 -15.5913 116.438C9.45595 127.887 53.1533 73.8753 140.119 46.3527Z" stroke="white" stroke-opacity="0.44" stroke-width="0.5" stroke-linecap="round"/>
</svg>
