<svg width="6" height="199" viewBox="0 0 6 199" fill="none" xmlns="http://www.w3.org/2000/svg">
<mask id="mask0_224_1368" style="mask-type:alpha" maskUnits="userSpaceOnUse" x="0" y="0" width="6" height="199">
<path d="M0 0H6V199H0V0Z" fill="#D9D9D9"/>
</mask>
<g mask="url(#mask0_224_1368)">
<rect width="6.05982" height="28.0907" transform="matrix(0.344363 0.902973 -0.86393 0.585886 14.9502 -21.4946)" fill="#004D95"/>
<rect width="6.05982" height="28.0907" transform="matrix(0.344363 0.902973 -0.86393 0.585886 15.2124 -12.7523)" fill="#0184CF"/>
<rect width="6.05982" height="28.0907" transform="matrix(0.344363 0.902973 -0.86393 0.585886 15.4746 -4.00995)" fill="#004D95"/>
<rect width="6.05982" height="28.0907" transform="matrix(0.344363 0.902973 -0.86393 0.585886 15.7368 4.73236)" fill="#0184CF"/>
<rect width="6.05982" height="28.0907" transform="matrix(0.344363 0.902973 -0.86393 0.585886 15.999 13.4747)" fill="#004D95"/>
<rect width="6.05982" height="28.0907" transform="matrix(0.344363 0.902973 -0.86393 0.585886 16.2612 22.217)" fill="#0184CF"/>
<rect width="6.05982" height="28.0907" transform="matrix(0.344363 0.902973 -0.86393 0.585886 16.5239 30.9594)" fill="#004D95"/>
<rect width="6.05982" height="28.0907" transform="matrix(0.344363 0.902973 -0.86393 0.585886 16.7861 39.7017)" fill="#0184CF"/>
<rect width="6.05982" height="28.0907" transform="matrix(0.344363 0.902973 -0.86393 0.585886 17.0483 48.444)" fill="#004D95"/>
<rect width="6.05982" height="28.0907" transform="matrix(0.344363 0.902973 -0.86393 0.585886 17.3105 57.1863)" fill="#0184CF"/>
<rect width="6.05982" height="28.0907" transform="matrix(0.344363 0.902973 -0.86393 0.585886 17.5728 65.9287)" fill="#004D95"/>
<rect width="6.05982" height="28.0907" transform="matrix(0.344363 0.902973 -0.86393 0.585886 17.835 74.671)" fill="#0184CF"/>
<rect width="6.05982" height="28.0907" transform="matrix(0.344363 0.902973 -0.86393 0.585886 18.0972 83.4133)" fill="#004D95"/>
<rect width="6.05982" height="28.0907" transform="matrix(0.344363 0.902973 -0.86393 0.585886 18.3594 92.1557)" fill="#0184CF"/>
<rect width="6.05982" height="28.0907" transform="matrix(0.344363 0.902973 -0.86393 0.585886 18.6216 100.898)" fill="#004D95"/>
<rect width="6.05982" height="28.0907" transform="matrix(0.344363 0.902973 -0.86393 0.585886 18.8838 109.64)" fill="#0184CF"/>
<rect width="6.37146" height="28.6532" transform="matrix(0.286253 0.924658 -0.873628 0.577289 19.9092 118.276)" fill="#004D95"/>
<rect width="6.37146" height="28.6532" transform="matrix(0.286253 0.924658 -0.873628 0.577289 20.1821 127.375)" fill="#0184CF"/>
<rect width="6.37146" height="28.6532" transform="matrix(0.286253 0.924658 -0.873628 0.577289 20.4551 136.475)" fill="#004D95"/>
<rect width="6.37146" height="28.6532" transform="matrix(0.286253 0.924658 -0.873628 0.577289 20.728 145.574)" fill="#0184CF"/>
<rect width="6.37146" height="28.6532" transform="matrix(0.286253 0.924658 -0.873628 0.577289 21.001 154.674)" fill="#004D95"/>
<rect width="6.37146" height="28.6532" transform="matrix(0.286253 0.924658 -0.873628 0.577289 21.2739 163.773)" fill="#0184CF"/>
<rect width="6.37146" height="28.6532" transform="matrix(0.286253 0.924658 -0.873628 0.577289 21.5469 172.873)" fill="#004D95"/>
<rect width="6.37146" height="28.6532" transform="matrix(0.286253 0.924658 -0.873628 0.577289 21.8198 181.972)" fill="#0184CF"/>
<rect width="6.37146" height="28.6532" transform="matrix(0.286253 0.924658 -0.873628 0.577289 22.0928 191.072)" fill="#004D95"/>
</g>
</svg>
