<svg width="7786" height="5053" viewBox="0 0 7786 5053" fill="none" xmlns="http://www.w3.org/2000/svg">
<path d="M7695.87 2.4005C7692.13 5.33383 7689.6 10.5338 7679.47 36.0005C7674.93 47.3338 7670.4 57.7338 7669.33 59.2005C7667.6 61.6005 7666.4 61.0672 7648 48.8005C7617.33 28.5338 7613.33 27.0672 7607.2 33.3338C7602.4 38.0005 7602.13 43.8672 7606.4 48.5338C7608 50.4005 7615.33 55.7338 7622.67 60.5338C7652.8 80.0005 7658 84.0005 7658 87.3338C7658 90.6672 7656.4 94.8005 7647.73 113.334C7640.13 129.6 7638.67 135.334 7639.2 145.734C7639.33 148.8 7646.8 153.2 7650.4 152.267C7657.73 150.534 7662.8 142.4 7670.67 119.867C7675.87 104.8 7678.4 100 7681.2 100C7682.27 100 7692.67 106.4 7704.53 114.134C7729.33 130.4 7733.2 131.734 7739.33 125.6C7741.47 123.334 7743.33 120.267 7743.33 118.8C7743.33 112.267 7739.87 109.067 7715.73 93.3338C7702.27 84.5338 7690.93 76.4005 7690.4 75.2005C7690 74.1338 7694.93 60.4005 7701.33 44.6672C7714.27 12.8005 7715.2 8.0005 7709.33 3.06716C7705.2 -0.532836 7699.73 -0.799503 7695.87 2.4005Z" fill="#070707" fill-opacity="0.05"/>
<path d="M4442.13 24.9332C4439.73 26.1332 4430.4 33.7332 4421.47 41.8665C4399.87 61.7332 4352.8 103.467 4312 139.333C4277.07 170 4253.73 191.867 4247.07 200.4C4244.8 203.2 4242.8 207.6 4242.4 210.533C4241.73 215.333 4241.87 215.733 4246.8 217.6C4250 218.933 4258.93 220 4269.33 220.667C4278.93 221.067 4289.07 221.733 4292 222C4294.93 222.267 4305.47 222.8 4315.33 223.333C4325.2 223.733 4336.4 224.4 4340 224.667C4343.73 224.933 4355.73 225.6 4366.67 226C4377.73 226.4 4389.33 227.067 4392.67 227.333C4396 227.733 4407.07 228.267 4417.33 228.8C4427.6 229.2 4437.87 229.733 4440 230C4445.6 230.533 4491.87 232.533 4500.27 232.533C4504 232.533 4508.13 231.733 4509.2 230.8C4514.27 226.533 4513.47 222.133 4496.67 164.533C4461.87 44.3999 4457.73 31.5999 4451.87 25.7332C4448.27 22.1332 4448 22.1332 4442.13 24.9332ZM4452.8 98.3999C4457.2 112.933 4466 142.4 4472.13 164C4478.4 185.6 4483.73 204.533 4484.13 205.867C4484.93 208.267 4484 208.4 4456.67 207.333C4441.07 206.8 4427.07 206.267 4425.47 206C4423.87 205.733 4413.07 205.2 4401.33 204.667C4389.6 204.267 4377.33 203.6 4374 203.333C4370.67 203.067 4361.47 202.4 4353.33 202C4338.8 201.2 4313.33 199.333 4296.67 197.867C4291.87 197.467 4287.6 196.667 4287.07 196.133C4286.67 195.733 4320.53 164.533 4362.4 126.933L4438.67 58.3999L4441.73 65.3332C4443.33 69.0665 4448.4 83.9999 4452.8 98.3999Z" fill="#070707" fill-opacity="0.05"/>
<path d="M2516 74.5342C2497.73 79.4675 2481.87 93.7342 2470.93 115.467C2463.73 129.867 2461.47 138.801 2461.47 154.001C2461.33 165.201 2461.87 168.401 2464.4 174.001C2470.4 187.067 2478.13 192.401 2491.33 192.534C2521.6 192.934 2553.87 152.534 2554.13 114.001C2554.13 96.2675 2548.13 82.5342 2538.13 77.4675C2532.27 74.4008 2521.73 73.0675 2516 74.5342Z" fill="#070707" fill-opacity="0.05"/>
<path d="M5187.87 78.6667C5181.87 81.0667 5177.73 91.8667 5177.73 105.867C5177.6 118.533 5180.93 129.067 5187.6 136.533C5194.4 144.4 5201.73 147.2 5213.73 146.4C5225.33 145.867 5234.27 141.467 5256 125.867C5284.53 105.467 5290.27 103.2 5296.93 110.267C5298.8 112.4 5304 119.6 5308.53 126.267C5317.87 140.133 5322.93 145.067 5333.07 150.267C5338.93 153.333 5341.6 154 5350.8 154C5360.27 154 5362.4 153.467 5370.13 149.6C5374.8 147.2 5385.6 139.467 5394 132.533C5412.4 117.2 5417.87 114 5422.4 116.133C5424.13 116.933 5431.07 124.133 5438 132.133C5458.4 156 5467.33 161.867 5482.67 162C5494.67 162 5501.07 158.533 5520.53 141.867C5537.33 127.467 5539.07 125.6 5540.53 120.4C5541.87 115.733 5539.47 108.8 5536 107.467C5528.4 104.533 5522.8 107.467 5506.4 122.667C5493.2 135.067 5484.93 139.733 5478.8 138.133C5473.87 136.933 5468.4 131.733 5454.13 114.8C5438.8 96.6667 5431.6 91.7333 5420.27 91.7333C5410.4 91.8667 5397.47 98.8 5380 113.333C5372 120.133 5363.07 126.8 5360.13 128.267C5348.13 134.4 5340.13 130.4 5327.33 111.867C5314.53 93.4667 5308.13 87.0667 5300.67 84.8C5286.27 80.5333 5272.53 85.7333 5240.27 107.6C5211.33 127.2 5205.33 128.933 5201.07 118.933C5199.47 114.933 5199.2 111.067 5199.87 98.5333L5200.8 82.9333L5197.2 80.1333C5193.33 77.0667 5192.13 76.9333 5187.87 78.6667Z" fill="#070707" fill-opacity="0.05"/>
<path d="M6118.13 100C6086.27 111.067 6061.6 141.067 6051.73 181.067C6050.13 187.467 6049.47 195.733 6049.47 210C6049.6 227.333 6050 231.333 6052.8 240.667C6066 283.733 6101.87 307.333 6153.33 306.933C6190 306.667 6224.4 289.6 6244.13 261.867C6274.13 219.867 6262.93 169.733 6218.67 147.867C6204 140.667 6190.67 138.8 6175.87 141.867C6143.73 148.4 6122.13 173.2 6122 203.6C6122 228.267 6140 246.8 6164.27 246.933C6182.13 247.067 6195.33 234.133 6195.33 216.533C6195.33 209.067 6192.13 203.333 6186.53 200.667C6180.93 198 6177.6 198.133 6174 201.067C6171.73 202.933 6171.2 204.8 6171.2 211.067C6171.2 223.467 6164.8 227.333 6155.2 220.933C6150.13 217.6 6144.67 208 6144.67 202.4C6144.67 196.133 6149.87 184.533 6155.47 178.267C6181.6 148.533 6234.4 169.333 6237.2 210.4C6238.4 227.2 6231.73 242.533 6216.67 257.6C6189.07 284.8 6145.47 291.733 6110.13 274.4C6099.07 269.067 6083.73 254.133 6078.93 244C6072.93 231.467 6070.93 220.933 6071.73 206.667C6074.27 166.667 6100.53 127.333 6131.07 117.733C6143.87 113.6 6148.67 104.667 6141.2 98.8001C6136.4 95.0668 6131.47 95.3335 6118.13 100Z" fill="#070707" fill-opacity="0.05"/>
<path d="M2397.33 98.9341C2377.6 103.201 2362.53 132.801 2364 164.667C2365.47 195.734 2381.73 218.801 2401.87 218.667C2424.67 218.534 2442.93 188.134 2441.33 153.334C2439.6 117.067 2420.8 94.0007 2397.33 98.9341Z" fill="#070707" fill-opacity="0.05"/>
<path d="M3486.67 137.067C3479.73 140.4 3476.27 144.267 3472.13 153.333C3455.07 190.933 3483.2 252 3517.6 252C3536.67 252 3548.8 235.067 3548.8 208.4C3548.8 184.133 3539.6 161.2 3523.73 146.533C3514.93 138.267 3509.73 135.733 3500 135.067C3494 134.667 3490.67 135.2 3486.67 137.067Z" fill="#070707" fill-opacity="0.05"/>
<path d="M6940.53 142.934C6934 146.267 6928.13 151.201 6915.07 164.267C6887.6 192.001 6882.93 192.401 6861.73 169.067C6841.6 146.801 6838.93 144.934 6825.6 145.067C6812.67 145.067 6798.4 153.467 6773.33 175.867C6760.13 187.601 6750.53 194.401 6745.6 195.201C6738.27 196.401 6734 188.001 6734 172.001C6733.87 161.734 6732.13 153.334 6729.73 151.867C6726.53 149.734 6719.87 150.534 6717.33 153.334C6713.73 157.334 6711.73 167.334 6712.27 177.734C6713.87 204.667 6731.33 220.934 6753.73 216.267C6763.87 214.134 6772.93 208.401 6790.4 192.801C6810.13 175.201 6820.13 168.001 6824.53 168.001C6829.07 168.134 6831.87 170.401 6842.67 183.334C6853.33 196.001 6858 200.001 6867.6 204.934C6873.6 208.134 6876.27 208.667 6885.33 208.667C6900.93 208.667 6908.13 204.801 6926 186.801C6945.2 167.467 6950.93 162.667 6954.8 162.667C6956.93 162.667 6961.87 166.134 6970.13 173.601C6996.93 198.134 7003.33 201.867 7018 202.001C7026.67 202.001 7028.93 201.467 7034.67 198.134C7041.73 193.867 7065.47 170.134 7071.73 161.067C7076.27 154.267 7076.4 148.934 7072 144.667C7064.93 137.601 7057.47 141.067 7042.67 158.534C7030.53 172.801 7024.8 177.334 7018.27 178.267C7012 179.067 7007.47 176.134 6989.07 158.934C6966.4 137.601 6957.2 134.667 6940.53 142.934Z" fill="#070707" fill-opacity="0.05"/>
<path d="M2598.67 142.667C2563.33 150 2529.73 188.267 2532.27 218.667C2533.73 235.867 2543.47 245.2 2561.47 246.4C2590.67 248.267 2627.33 221.067 2638.13 189.6C2641.6 179.467 2641.73 166 2638.4 158.534C2632.4 145.2 2616.93 138.934 2598.67 142.667Z" fill="#070707" fill-opacity="0.05"/>
<path d="M3366.67 144.268C3339.87 153.601 3341.6 194.001 3370 224.401C3386.53 242.001 3403.6 250.801 3421.73 250.934C3440.67 251.068 3451.2 241.334 3452.4 222.268C3453.6 203.201 3445.2 184.401 3427.33 166.668C3415.47 154.668 3405.73 148.668 3392.8 144.801C3384.67 142.401 3372.67 142.134 3366.67 144.268Z" fill="#070707" fill-opacity="0.05"/>
<path d="M1522.67 149.734C1496.8 160 1475.2 187.467 1467.2 220.667C1463.07 237.6 1462.93 263.867 1467.07 280.267C1480 332.267 1520.93 360 1575.2 353.467C1616.27 348.4 1650.27 325.334 1666.67 291.334C1686.67 249.867 1675.2 208.267 1638.53 189.067C1608.93 173.467 1576.53 177.467 1554.53 199.467C1545.73 208.267 1539.47 219.467 1536.67 231.867C1534.4 241.6 1535.87 257.334 1540 266.267C1554.4 298 1602.8 299.334 1610.67 268.267C1613.6 256.934 1611.33 247.334 1604.53 242.267C1599.87 238.934 1591.87 238.934 1588.4 242.4C1585.33 245.334 1584.8 252.667 1587.33 257.2C1588.53 259.6 1588.4 260.8 1586.8 263.467C1582.4 270 1573.6 269.2 1565.87 261.6C1557.2 252.934 1556.4 241.6 1563.47 227.067C1568 217.6 1574.13 211.734 1584.67 206.8C1590.8 203.867 1593.73 203.334 1602.67 203.467C1609.07 203.6 1615.73 204.534 1619.33 205.867C1633.6 211.2 1645.87 223.334 1650.67 237.2C1653.47 245.467 1653.2 260.534 1650 271.2C1646.67 281.867 1636.27 297.734 1627.07 306C1617.73 314.4 1604.13 322.267 1591.73 326.4C1582.67 329.467 1579.07 329.867 1563.33 330C1549.2 330 1543.73 329.467 1538 327.467C1514.53 319.467 1498.8 304.4 1491.2 282.667C1488.53 275.2 1488.13 271.334 1488 254C1488 237.067 1488.4 232.4 1491.07 223.467C1498.4 197.867 1512 179.467 1531.73 167.734C1540.67 162.534 1542.13 152.934 1534.67 149.6C1530.53 147.734 1527.87 147.734 1522.67 149.734Z" fill="#070707" fill-opacity="0.05"/>
<path d="M172.533 164.4C167.067 167.2 154 174.4 64.1332 224.267C14.1332 252 2.79986 259.6 0.26653 266.933C-1.0668 270.667 4.9332 276.4 23.7332 289.6C42.3999 302.667 107.6 349.333 152 381.6C211.067 424.267 228.267 433.6 232.667 425.2C235.733 419.6 235.733 419.733 214 292.667C192.933 169.733 192.8 168.533 189.733 164.667C186.4 160.4 180.4 160.267 172.533 164.4ZM173.333 194.933C174.933 202.8 184 254.533 190.667 294.667C194.667 319.2 198.533 342.667 199.2 346.667C202.133 363.867 204.933 386.8 204.133 387.6C203.733 388 202.267 387.467 201.067 386.4C199.733 385.2 173.733 366.8 143.333 345.333C94.7999 311.067 38.3999 271.067 36.7999 269.733C36.3999 269.467 37.3332 268.4 38.7999 267.333C42.2665 264.533 75.7332 244.533 91.3332 235.867C127.6 215.733 170.8 192.133 171.6 192C172.133 192 172.933 193.333 173.333 194.933Z" fill="#070707" fill-opacity="0.05"/>
<path d="M2454.67 224.934C2452.53 225.2 2441.33 227.867 2430 230.667C2418.67 233.6 2402.13 236.934 2393.33 238C2357.87 242.8 2336 253.867 2327.87 271.334C2319.87 288.267 2328.27 308.134 2346.8 316.134C2350 317.467 2362.53 320.667 2374.67 323.2C2412 331.067 2419.07 336.534 2437.2 371.867C2443.87 384.8 2450.8 396.534 2453.6 399.334C2463.2 409.2 2479.47 413.467 2490.4 408.934C2512.8 399.467 2520.93 368.4 2513.2 322.667C2512.93 320.8 2512.4 307.6 2512 293.334C2511.6 279.067 2510.53 264 2509.73 260C2504.8 234.267 2483.73 220.934 2454.67 224.934Z" fill="#070707" fill-opacity="0.05"/>
<path d="M3306.67 231.2C3297.2 233.467 3289.33 238.267 3285.07 244.4C3281.73 249.2 3281.33 250.934 3281.33 260.534C3281.33 269.2 3282 272.667 3284.53 277.734C3297.07 303.334 3329.6 322.667 3360 322.667C3374.13 322.667 3382.8 320 3390.4 313.334C3397.33 307.2 3399.47 301.867 3399.47 291.334C3399.47 269.467 3374.4 243.467 3343.73 233.734C3332 230 3316.4 228.934 3306.67 231.2Z" fill="#070707" fill-opacity="0.05"/>
<path d="M2584 263.201C2551.47 270.667 2528.27 293.067 2530.27 314.934C2531.2 324.401 2536.8 331.601 2547.73 337.201C2555.73 341.334 2558 341.867 2570.53 342.401C2588 343.201 2600.67 340.534 2615.73 332.934C2628.53 326.534 2640.67 315.334 2644.8 305.867C2647.73 299.201 2648.4 288.267 2646.13 282.401C2643.73 276.134 2636.8 269.734 2628.4 266.001C2621.2 262.801 2618 262.134 2606 261.734C2597.33 261.601 2588.93 262.134 2584 263.201Z" fill="#070707" fill-opacity="0.05"/>
<path d="M3540.67 267.334C3527.2 269.6 3514 270.534 3493.33 270.8C3465.07 271.2 3453.73 274.8 3442.4 287.067C3439.47 290.267 3435.73 296.4 3434 300.8C3429.87 311.867 3430.8 325.2 3437.87 352.267C3440.93 363.867 3444.27 379.6 3445.33 387.334C3448 406 3449.33 411.734 3454 423.867C3464 449.467 3482.4 462.267 3501.47 456.667C3516.4 452.4 3525.2 439.6 3529.33 416.667C3537.33 371.334 3542.93 363.2 3579.33 344.667C3604.53 331.867 3612.53 324.8 3616 312.667C3622 292.4 3610.27 274.934 3586.53 268.667C3576.13 265.867 3553.2 265.2 3540.67 267.334Z" fill="#070707" fill-opacity="0.05"/>
<path d="M877.333 292.801C851.733 298.934 815.067 307.601 796 312.134C744.667 324.267 730 329.601 730 335.867C730 339.467 736.533 348.801 752.933 368.801C761.333 378.934 781.333 403.867 797.333 424.001C813.333 444.134 838.133 475.334 852.533 493.334C880.533 528.667 899.067 548.667 904.933 550.001C914 552.267 915.733 547.867 919.333 513.867C922.533 484.534 922.667 482.934 924.533 466.667C925.333 460.401 926.8 446.001 928 434.667C929.2 423.334 930.4 411.867 930.667 409.334C930.933 406.801 931.867 398.001 932.667 390.001C933.333 381.867 934.667 370.267 935.333 364.001C938.533 337.201 942 302.401 942.133 294.667C942.4 284.134 939.733 281.201 930.133 281.467C926.8 281.601 903.067 286.667 877.333 292.801ZM916.667 313.601C916.667 316.801 916 325.067 915.333 332.001C914.533 338.934 913.733 347.601 913.333 351.334C906.533 420.267 897.867 493.201 895.6 501.867L894.533 505.734L888.4 498.534C884 493.201 776.133 359.867 766.933 348.267C765.2 346.001 766 345.467 774.933 342.401C786.933 338.401 907.6 309.067 915.733 308.134C916.267 308.001 916.667 310.534 916.667 313.601Z" fill="#070707" fill-opacity="0.05"/>
<path d="M3346.67 344.001C3331.6 347.067 3316.8 355.734 3310.4 365.467C3305.33 373.067 3304.67 383.867 3308.67 392.401C3320.53 417.467 3368.8 428.134 3401.47 412.801C3418.4 404.801 3426.4 395.067 3426.4 382.001C3426.4 359.601 3399.6 342.401 3365.33 342.801C3358 342.934 3349.6 343.467 3346.67 344.001Z" fill="#070707" fill-opacity="0.05"/>
<path d="M7570.27 514.667C7560.4 516.8 7548.53 524.134 7538 534.667C7511.07 561.467 7503.07 602.8 7521.2 620.8C7546.8 646.534 7600.8 608.4 7608.67 559.067C7610.93 545.067 7607.73 529.734 7600.93 522.267C7594.93 515.6 7581.6 512.267 7570.27 514.667Z" fill="#070707" fill-opacity="0.05"/>
<path d="M7444.93 528.267C7432.27 534.4 7419.87 554.134 7415.87 574.534C7410.53 601.867 7418.27 630 7434 640.667C7439.2 644.134 7441.2 644.667 7448.67 644.667C7458.93 644.667 7466.93 640.667 7474.67 631.734C7496.67 606.134 7498.8 556.134 7478.8 534.934C7469.73 525.2 7456.53 522.667 7444.93 528.267Z" fill="#070707" fill-opacity="0.05"/>
<path d="M7638 592.8C7619.73 597.6 7599.07 611.867 7588 627.334C7568.4 654.667 7572.53 681.467 7597.33 688.667C7611.47 692.8 7631.47 689.067 7648.67 679.067C7666.27 668.667 7684.8 646.134 7688 630.8C7690.93 617.067 7687.47 604.934 7678.53 597.6C7670.13 590.667 7653.6 588.667 7638 592.8Z" fill="#070707" fill-opacity="0.05"/>
<path d="M5027.33 611.467C5014.93 616.8 5008.8 628.667 5008.53 647.6C5008.27 665.867 5012.93 680.8 5024.13 697.467C5041.07 723.067 5067.87 734.934 5085.2 724.8C5096.4 718.267 5100.93 708.267 5101.07 690C5101.2 670.667 5095.33 653.867 5082.13 636C5067.07 615.467 5042.93 604.667 5027.33 611.467Z" fill="#070707" fill-opacity="0.05"/>
<path d="M5149.73 635.067C5138.93 639.201 5129.33 651.334 5124.27 667.201C5120.4 679.601 5120.13 704.534 5123.87 716.667C5129.07 734.134 5138 746.267 5149.33 751.467C5160.4 756.667 5170.13 755.067 5180.13 746.267C5186.67 740.534 5194 726.667 5196.67 714.801C5198.8 705.734 5198.8 686.934 5196.67 676.667C5193.2 659.334 5182.4 642.401 5171.33 636.667C5165.47 633.601 5155.6 632.934 5149.73 635.067Z" fill="#070707" fill-opacity="0.05"/>
<path d="M7492.67 657.467C7487.87 658 7476.8 659.2 7468 660.4C7459.2 661.467 7443.6 662.8 7433.33 663.333C7410.27 664.267 7398.8 666.667 7386.4 672.667C7361.47 684.933 7354.53 708.667 7370.67 727.733C7376.27 734.4 7383.73 738.133 7407.6 745.867C7431.47 753.6 7436.93 756.4 7446.27 765.867C7453.33 773.2 7458.67 783.333 7465.33 802.667C7471.6 820.533 7475.47 828.133 7481.47 834.133C7488.27 840.8 7495.73 844 7505.2 844C7518.93 844 7529.73 836.4 7537.33 821.467C7543.73 808.667 7544.8 801.6 7546 764.533C7546.53 745.333 7547.33 729.067 7547.87 728.267C7549.6 725.467 7549.87 699.067 7548.13 691.733C7542.4 666.933 7522.4 654.667 7492.67 657.467Z" fill="#070707" fill-opacity="0.05"/>
<path d="M4939.73 679.467C4936.67 680.534 4931.87 684.134 4928.93 687.201C4918.8 698.134 4918.67 714.534 4928.27 734.667C4935.33 749.467 4953.2 766.934 4968.67 774.401C5003.2 790.934 5030.13 780.934 5030.27 751.467C5030.4 724.401 5003.6 691.467 4972.8 680.934C4962.93 677.467 4947.07 676.801 4939.73 679.467Z" fill="#070707" fill-opacity="0.05"/>
<path d="M7621.33 708.8C7619.87 709.067 7615.33 710 7611.33 710.8C7607.33 711.6 7599.07 714.533 7592.93 717.467C7569.2 728.933 7558.13 748 7565.87 764.667C7579.73 794.667 7643.07 795.333 7671.47 765.733C7678.8 758.133 7681.73 752.8 7682.8 744.8C7685.07 728.8 7671.33 714.667 7648.8 709.867C7640.53 708.133 7627.33 707.6 7621.33 708.8Z" fill="#070707" fill-opacity="0.05"/>
<path d="M4229.33 715.467C4220.13 720.134 4212.53 730.267 4207.87 744.001C4204.27 754.401 4204.27 783.867 4207.87 795.334C4217.2 825.734 4236.13 842.801 4256 838.667C4279.07 833.867 4292.53 799.067 4285.2 762.934C4281.07 742.134 4267.87 721.734 4254.67 715.867C4248 712.801 4234.8 712.534 4229.33 715.467Z" fill="#070707" fill-opacity="0.05"/>
<path d="M4125.33 746.8C4118.4 749.467 4112.8 754.533 4109.07 761.733C4104.4 770.8 4103.2 790.8 4106.53 804.133C4112.53 828.267 4130.67 852.133 4149.47 860.8C4176.13 873.2 4197.2 857.467 4197.07 825.333C4196.93 803.067 4187.73 781.6 4170.8 764.667C4163.47 757.333 4157.47 752.533 4152.4 750.133C4143.73 746.133 4131.33 744.667 4125.33 746.8Z" fill="#070707" fill-opacity="0.05"/>
<path d="M5083.33 761.201C5068.53 765.734 5057.47 777.734 5052.8 794.001C5052 796.934 5050.93 810.401 5050.53 824.001C5050.27 837.601 5048.93 857.867 5047.73 868.934C5044.27 900.401 5047.6 919.467 5058.8 934.267C5066.67 944.534 5081.33 948.934 5094.13 944.667C5106 940.667 5113.07 932.267 5125.47 907.334C5133.87 890.534 5137.47 884.534 5143.33 878.534C5154.8 866.801 5162 863.734 5191.73 857.867C5201.2 856.001 5212.13 853.067 5216 851.334C5234.4 843.201 5242.67 824.001 5234.8 807.201C5226.53 789.467 5205.6 778.401 5171.87 774.001C5155.33 771.867 5152.67 771.334 5125.2 764.534C5106.4 760.001 5091.33 758.801 5083.33 761.201Z" fill="#070707" fill-opacity="0.05"/>
<path d="M4336.4 779.734C4317.87 786.534 4302.13 807.201 4296 832.934C4292.8 846.001 4293.73 865.867 4297.87 875.334C4307.87 898.134 4331.87 901.067 4351.87 882.001C4366.67 867.734 4375.2 847.734 4376.27 824.401C4376.93 813.067 4376.53 809.467 4374.13 801.334C4370.4 789.334 4363.07 781.334 4353.73 778.934C4345.73 776.934 4344 776.934 4336.4 779.734Z" fill="#070707" fill-opacity="0.05"/>
<path d="M5716.53 793.601C5715.07 796.267 5715.6 825.734 5717.2 834.001C5717.47 835.467 5718.13 843.867 5718.67 852.667C5719.2 861.467 5719.87 869.601 5720 870.667C5720.27 871.734 5720.8 879.867 5721.2 888.667C5721.73 897.467 5722.4 906.134 5722.67 908C5722.93 909.867 5723.6 918.534 5724 927.334C5724.4 936.134 5725.07 946 5725.33 949.334C5725.73 952.667 5726.27 961.067 5726.67 968C5730.8 1041.73 5734.53 1066.53 5742.4 1071.2C5746.4 1073.6 5752.67 1068.67 5768.27 1050.67C5809.73 1003.07 5914.67 880.134 5916.8 876.667C5918.27 874.401 5919.33 871.601 5919.33 870.267C5919.33 866.267 5912.67 860.801 5903.33 856.934C5889.2 851.201 5775.73 806.801 5762 801.734C5730.4 790.001 5719.47 788.001 5716.53 793.601ZM5751.87 824.134C5771.33 830.134 5884 873.867 5885.33 876C5886.53 877.867 5780.67 1001.33 5762.93 1018.53L5755.6 1025.6L5754.8 1019.2C5754.4 1015.6 5753.73 1006.93 5753.33 1000C5752.93 993.067 5752.27 984 5752 980C5751.07 968.134 5750.27 959.067 5748 929.334C5746.67 912.8 5746 903.734 5744.67 886C5743.87 875.734 5743.07 864.667 5742.8 861.334C5742.4 858.001 5741.73 849.067 5741.33 841.334C5740.93 833.601 5740.27 826.001 5739.87 824.267C5739.07 820.534 5740.53 820.534 5751.87 824.134Z" fill="#070707" fill-opacity="0.05"/>
<path d="M4950.53 797.467C4934.67 799.467 4922.27 806.667 4917.07 816.533C4911.07 828.133 4916.4 845.467 4929.73 857.333C4961.33 885.6 5018.67 885.467 5030.53 857.067C5033.2 850.8 5033.2 846.267 5030.53 837.333C5027.47 827.067 5013.33 812.933 4999.33 806.267C4983.73 798.8 4965.73 795.6 4950.53 797.467Z" fill="#070707" fill-opacity="0.05"/>
<path d="M4077.73 859.067C4057.33 864.801 4051.33 885.067 4062.93 908.801C4070.8 924.934 4092.27 943.067 4111.07 949.601C4123.6 953.867 4141.6 954.001 4149.6 949.734C4171.2 938.134 4168.4 907.334 4143.33 882.667C4128.4 868.001 4111.47 859.867 4092.67 858.134C4087.2 857.734 4081.6 858.001 4077.73 859.067Z" fill="#070707" fill-opacity="0.05"/>
<path d="M6489.33 861.2C6465.6 872.267 6463.47 913.467 6484.93 947.6C6492.4 959.467 6506.67 972.4 6516.27 976C6525.07 979.333 6535.6 979.733 6542.27 976.933C6556.8 970.8 6564.4 950.267 6560.8 926.8C6554.13 883.867 6516 848.933 6489.33 861.2Z" fill="#070707" fill-opacity="0.05"/>
<path d="M2017.6 873.867C1992.53 884.267 1971.6 906.533 1961.2 934.4C1954.67 951.467 1952.67 964.133 1953.2 984.667C1953.73 1006 1955.6 1014 1963.47 1030.13C1980 1063.87 2015.47 1082 2060.53 1079.6C2077.87 1078.67 2092.53 1074.93 2107.07 1067.73C2129.6 1056.67 2145.6 1040.8 2156 1019.33C2162.8 1005.07 2164.67 997.2 2164.67 981.6C2164.53 957.733 2153.2 938 2131.47 923.733C2098 901.867 2055.87 909.733 2035.07 941.867C2028.4 952.267 2026 960.933 2025.73 975.067C2025.6 985.467 2026 987.467 2029.87 995.2C2036.67 1009.07 2049.6 1018 2064.67 1019.07C2078.93 1020.13 2090 1014.27 2095.87 1002.4C2103.6 986.933 2097.87 970.667 2084.67 970.667C2076.4 970.667 2073.33 975.333 2074.67 985.333C2075.47 991.333 2075.33 992 2072.13 994C2062.8 1000.13 2048.67 988.533 2048.67 974.533C2048.67 960.4 2058.27 946 2072.4 939.067C2078.93 935.867 2081.6 935.333 2091.33 935.333C2100.8 935.467 2104 936 2110.53 939.067C2126.27 946.267 2136 957.467 2140 972.667C2144.93 991.6 2137.6 1012.67 2119.73 1030.13C2109.2 1040.53 2098.53 1046.93 2082.67 1052.27C2072.13 1055.87 2068.8 1056.4 2055.33 1056.53C2044.8 1056.53 2037.33 1055.87 2031.47 1054.27C1996.93 1044.93 1975.33 1018.13 1975.33 984.933C1975.33 961.067 1984 935.867 1998.8 916.133C2006.67 905.6 2015.87 898.267 2028 892.533C2038.67 887.6 2042.4 884.267 2042.4 879.333C2042.4 870.4 2031.73 868.133 2017.6 873.867Z" fill="#070707" fill-opacity="0.05"/>
<path d="M4226.93 873.467C4208.4 877.734 4198.8 889.467 4186 923.334C4183.07 931.334 4175.73 947.601 4170 959.334C4157.6 984.401 4154.8 993.601 4154.8 1010C4154.8 1019.73 4155.33 1023.33 4157.73 1028.67C4163.87 1042.13 4172.13 1047.33 4187.33 1047.33C4200.8 1047.2 4206.93 1043.87 4226.13 1026C4252.27 1001.6 4259.07 998.134 4280.67 998.267C4288.4 998.401 4301.2 999.601 4309.33 1001.07C4332.4 1005.33 4345.33 1003.33 4356.13 994.267C4366.8 985.201 4368.93 968.001 4361.47 952.934C4354.4 939.067 4336.93 924.267 4314.27 912.801C4308.8 910.134 4295.07 901.467 4283.6 893.734C4272.13 886.001 4259.47 878.267 4255.33 876.534C4246.8 873.067 4234.53 871.734 4226.93 873.467Z" fill="#070707" fill-opacity="0.05"/>
<path d="M6607.6 891.334C6577.6 906.534 6571.33 968.934 6596.8 998.001C6609.73 1012.67 6630.8 1011.87 6643.07 996.401C6652.8 983.867 6658 967.467 6658.13 948.801C6658.13 935.467 6657.33 930.001 6653.73 919.201C6645.2 894.001 6625.73 882.267 6607.6 891.334Z" fill="#070707" fill-opacity="0.05"/>
<path d="M6402 923.867C6386.53 928.533 6379.33 940.8 6381.07 959.2C6385.07 1001.33 6439.47 1041.33 6472.27 1026.13C6495.47 1015.33 6492.67 978.933 6466.4 950.667C6447.33 930.133 6419.6 918.533 6402 923.867Z" fill="#070707" fill-opacity="0.05"/>
<path d="M2825.33 979.733C2817.47 981.333 2654.8 1036.8 2646.8 1040.53C2635.33 1045.87 2632 1049.2 2633.2 1054.13C2634.13 1057.73 2639.33 1063.33 2711.87 1138.93C2779.33 1209.2 2814.93 1244.4 2822.4 1247.87C2828.27 1250.67 2828.93 1250.8 2832 1248.8C2833.87 1247.47 2835.47 1244.93 2835.87 1242.4C2836.93 1235.6 2837.87 1193.2 2838.8 1110C2839.2 1068.13 2839.73 1024.13 2839.87 1012C2840.27 988.267 2839.33 981.867 2835.33 980.667C2831.33 979.333 2828.13 979.067 2825.33 979.733ZM2816.13 1075.6C2814.93 1171.6 2813.73 1205.33 2811.33 1205.33C2809.47 1205.33 2668.53 1059.6 2669.6 1058.53C2673.07 1055.47 2809.33 1008 2815.07 1008C2816.67 1008 2816.93 1017.6 2816.13 1075.6Z" fill="#070707" fill-opacity="0.05"/>
<path d="M6539.47 1012.93C6530.53 1015.2 6524.93 1018.53 6518.8 1025.33C6508 1037.33 6506.53 1043.33 6504 1086.93C6503.47 1094 6502.93 1101.2 6502.67 1102.93C6494 1151.47 6496.93 1174.4 6513.73 1189.6C6520.53 1195.73 6527.07 1197.87 6536.67 1196.93C6552 1195.6 6561.73 1186.93 6573.87 1163.73C6593.2 1126.93 6604.93 1118.4 6642 1114C6665.6 1111.2 6678.27 1106 6685.47 1096C6696.4 1080.93 6693.87 1062.93 6678.67 1049.6C6666.93 1039.33 6650.13 1032.67 6624.53 1028.13C6616 1026.53 6601.6 1023.2 6592.53 1020.53C6560.8 1011.2 6551.47 1009.73 6539.47 1012.93Z" fill="#070707" fill-opacity="0.05"/>
<path d="M303.6 1044.13C282.8 1054.4 278.4 1092.53 294.133 1124.8C307.2 1151.73 329.867 1164.8 348.133 1155.87C354.8 1152.67 360 1146.4 363.733 1136.8C368 1126.13 367.6 1102.93 362.933 1088.67C356.267 1068.27 343.733 1052.13 329.333 1045.2C319.6 1040.53 311.6 1040.13 303.6 1044.13Z" fill="#070707" fill-opacity="0.05"/>
<path d="M6391.6 1045.2C6364.27 1054.67 6361.2 1081.47 6384.93 1103.33C6400.67 1117.87 6423.87 1126 6446.8 1125.07C6457.47 1124.67 6460.13 1124 6468.13 1120C6480.93 1113.47 6485.33 1107.2 6485.33 1094.93C6485.33 1087.6 6484.67 1084.8 6481.33 1078.93C6473.2 1064 6453.87 1050.53 6432.93 1045.2C6419.73 1041.87 6401.33 1041.87 6391.6 1045.2Z" fill="#070707" fill-opacity="0.05"/>
<path d="M185.6 1052.53C172 1056.27 163.467 1070.27 165.067 1086.53C166.533 1103.47 174.8 1119.2 190 1134.8C205.6 1150.53 222.4 1158.8 239.333 1158.93C269.2 1159.2 279.733 1132.53 263.2 1098.67C258.667 1089.33 255.467 1085.2 245.467 1075.33C231.867 1061.87 219.333 1054.67 205.467 1052.13C195.733 1050.4 193.733 1050.4 185.6 1052.53Z" fill="#070707" fill-opacity="0.05"/>
<path d="M7143.73 1119.2C7138.27 1124 7139.07 1130.8 7147.47 1150.13C7156.27 1170.13 7157.2 1177.47 7151.87 1183.87C7148.13 1188.27 7140.4 1192.27 7124 1198.27C7102.67 1206 7092.93 1213.2 7090.13 1223.6C7087.2 1234.27 7089.07 1244.8 7098.4 1270.13C7101.73 1278.93 7104.8 1288.93 7105.33 1292.27C7107.07 1303.33 7100.4 1311.07 7085.2 1315.6C7080.13 1317.2 7070.8 1320 7064.4 1321.87C7051.6 1325.73 7045.87 1329.73 7042 1337.47C7036 1348.93 7037.2 1365.47 7046.13 1397.6C7049.07 1408.13 7051.73 1420.13 7052.27 1424.27C7053.87 1439.73 7046.53 1442.53 7026 1433.87C7011.07 1427.47 7008.27 1427.07 7004.8 1430.53C7000 1435.33 7001.07 1440.93 7007.87 1447.47C7018.8 1457.87 7040.67 1462.8 7054.93 1458.13C7067.6 1454 7075.47 1441.33 7075.6 1425.47C7075.73 1414.67 7075.33 1412.8 7068 1387.33C7059.07 1356.27 7058.8 1349.73 7065.87 1346.13C7067.87 1345.07 7075.73 1342.53 7083.33 1340.67C7105.07 1335.2 7116.8 1327.87 7124.4 1314.8C7127.73 1309.2 7128 1307.6 7127.87 1294.67C7127.87 1281.2 7127.6 1280 7121.47 1264C7112.4 1240.27 7110.8 1233.6 7113.2 1229.87C7114.53 1228 7121.87 1224.4 7134.27 1219.33C7177.47 1202.13 7186.27 1188.4 7174.8 1156C7161.73 1118.4 7154.53 1110 7143.73 1119.2Z" fill="#070707" fill-opacity="0.05"/>
<path d="M3361.33 1138.67C3336.4 1144.27 3331.2 1176.27 3350.13 1208.27C3371.73 1245.07 3415.47 1261.33 3433.6 1239.47C3438.67 1233.2 3440.67 1226.67 3440.67 1215.87C3440.53 1186.13 3416 1152.4 3386.27 1141.33C3378.4 1138.4 3367.73 1137.2 3361.33 1138.67Z" fill="#070707" fill-opacity="0.05"/>
<path d="M3483.07 1138.67C3466.8 1143.73 3458 1160.4 3457.87 1186C3457.87 1202 3460.13 1211.47 3467.33 1226.27C3488 1268.27 3528.53 1266.53 3536.53 1223.47C3542.27 1192.4 3527.6 1154.53 3505.07 1142.4C3497.87 1138.53 3488.53 1136.93 3483.07 1138.67Z" fill="#070707" fill-opacity="0.05"/>
<path d="M128.667 1140C87.9999 1146.53 89.9999 1190.93 132 1217.33C156.267 1232.67 187.067 1236.27 204.933 1225.73C207.333 1224.4 211.2 1220.67 213.6 1217.6C231.733 1193.87 202.4 1153.2 159.2 1142C149.867 1139.6 136.933 1138.8 128.667 1140Z" fill="#070707" fill-opacity="0.05"/>
<path d="M1425.47 1172.27C1424.4 1174.67 1423.2 1179.6 1422.8 1183.33C1422.27 1186.93 1421.6 1191.47 1421.33 1193.33C1421.07 1195.2 1419.33 1208.4 1417.47 1222.67C1415.6 1236.93 1412.27 1261.2 1410 1276.67C1391.2 1406.67 1388.53 1429.47 1390.8 1439.2C1392.53 1446.27 1395.87 1448.27 1402 1446.13C1407.07 1444.4 1411.87 1440.8 1487.33 1383.47C1589.87 1305.6 1607.07 1292 1608.4 1288.27C1610 1283.73 1608.67 1280.27 1603.87 1275.87C1600.13 1272.53 1479.2 1192.27 1461.33 1181.33C1446.93 1172.53 1436.93 1168 1432 1168C1427.87 1168 1426.93 1168.53 1425.47 1172.27ZM1459.07 1208.93C1483.47 1223.2 1575.33 1283.73 1575.33 1285.47C1575.33 1287.47 1447.47 1384.8 1427.07 1398.4C1422 1401.73 1417.6 1404.13 1417.33 1403.73C1416.93 1403.33 1417.47 1396.8 1418.53 1389.2C1420.8 1373.87 1423.33 1354.4 1435.33 1265.33C1443.6 1203.33 1444 1201.33 1445.47 1201.33C1445.87 1201.33 1452 1204.8 1459.07 1208.93Z" fill="#070707" fill-opacity="0.05"/>
<path d="M356 1174.13C350.933 1175.07 337.333 1176.27 326 1176.67C284.8 1178.4 276 1180.67 264 1192.67C249.867 1206.8 247.6 1221.07 255.2 1249.33C260.933 1270.8 265.333 1290.4 267.867 1305.73C273.067 1337.2 287.467 1359.07 306.533 1364.13C322.267 1368.4 339.333 1358.27 345.733 1340.93C347.333 1336.8 349.867 1325.73 351.333 1316.4C357.867 1276.8 365.2 1267.33 404.133 1247.47C421.733 1238.53 428.667 1232.93 433.2 1223.73C437.467 1215.2 437.867 1203.47 434.133 1195.33C429.467 1184.93 417.467 1176.8 402.267 1173.47C392.933 1171.47 367.733 1171.87 356 1174.13Z" fill="#070707" fill-opacity="0.05"/>
<path d="M3286.27 1223.87C3255.33 1234.53 3261.07 1274.8 3296.93 1300C3327.33 1321.33 3364.93 1322.67 3378.67 1302.93C3382.27 1297.73 3382.67 1296.13 3382.67 1286.8C3382.67 1272.8 3377.33 1261.73 3364.13 1248.53C3341.87 1226.27 3309.2 1216 3286.27 1223.87Z" fill="#070707" fill-opacity="0.05"/>
<path d="M167.333 1252.8C157.333 1254.93 144.933 1260.67 137.733 1266.67C131.733 1271.6 126 1282.8 126 1289.6C126 1306.4 143.466 1321.47 168.666 1326.67C199.733 1333.07 233.733 1322.13 244.266 1302.27C247.333 1296.53 247.333 1283.47 244.266 1277.6C233.466 1257.47 199.066 1246.4 167.333 1252.8Z" fill="#070707" fill-opacity="0.05"/>
<path d="M3523.33 1273.6C3518.53 1274.13 3500.8 1274.13 3483.73 1273.73C3454 1272.93 3452.53 1273.07 3443.33 1276C3425.6 1281.73 3414.53 1296 3413.07 1315.2C3412.53 1322.27 3413.2 1329.33 3415.73 1342.67C3420.8 1369.2 3421.73 1375.47 3422.67 1388C3423.73 1403.6 3424.4 1408.4 3427.47 1420C3436 1452.13 3459.33 1468.13 3481.47 1456.93C3494.13 1450.53 3499.2 1441.6 3506.53 1412.93C3515.87 1376.53 3524 1367.2 3559.47 1352.67C3579.47 1344.4 3583.47 1342.13 3590.27 1335.07C3596.8 1328.4 3599.6 1321.2 3599.73 1311.33C3599.87 1293.6 3586.53 1280.67 3562.67 1275.33C3552.93 1273.2 3534.93 1272.4 3523.33 1273.6Z" fill="#070707" fill-opacity="0.05"/>
<path d="M3322.53 1337.87C3312.67 1339.73 3301.87 1344.53 3294.53 1350.13C3288.93 1354.27 3283.33 1365.73 3283.33 1372.67C3283.33 1380 3288.93 1390.8 3295.73 1396.8C3307.87 1407.07 3330.27 1414.67 3349.07 1414.67C3359.6 1414.67 3376 1410.53 3384.93 1405.73C3416.8 1388.4 3407.07 1353.33 3366.93 1340.67C3353.6 1336.4 3335.87 1335.33 3322.53 1337.87Z" fill="#070707" fill-opacity="0.05"/>
<path d="M7767.87 1415.87C7765.6 1417.2 7756.53 1427.87 7747.73 1439.6C7729.2 1464 7728 1465.33 7725.47 1462.53C7724.53 1461.47 7716.53 1452.53 7707.73 1442.67C7689.33 1422 7688.93 1421.6 7683.6 1420.13C7678.53 1418.67 7671.73 1422.4 7670.53 1427.2C7668.93 1434 7671.2 1437.47 7695.07 1464C7703.33 1473.2 7710.67 1481.6 7711.33 1482.8C7712.93 1485.6 7708.27 1492.93 7695.47 1508C7678.93 1527.33 7674.8 1537.2 7680.53 1544.13C7684 1548.53 7691.07 1548.27 7697.2 1543.6C7699.87 1541.47 7707.2 1532.53 7713.47 1523.6C7725.6 1506.27 7728 1503.87 7730.53 1504.8C7731.47 1505.2 7739.33 1513.6 7748 1523.47C7756.67 1533.33 7765.33 1542.67 7767.07 1544.13C7776.67 1551.6 7789.87 1541.47 7784.53 1530.67C7783.47 1528.53 7774.53 1517.73 7764.67 1506.67C7754.8 1495.47 7746.13 1485.6 7745.6 1484.53C7744.93 1483.33 7750.4 1475.07 7763.07 1458.4C7783.47 1431.6 7784.67 1429.73 7784.67 1424.8C7784.67 1419.73 7783.33 1417.47 7779.2 1415.33C7774.4 1412.8 7772.8 1412.8 7767.87 1415.87Z" fill="#070707" fill-opacity="0.05"/>
<path d="M5042 1434C5005.47 1441.6 4973.87 1492.13 4984.13 1526.53C4992.27 1554 5026.27 1554.53 5053.33 1527.47C5069.33 1511.47 5078.93 1491.73 5080.27 1472C5082.27 1444.13 5066.67 1428.8 5042 1434Z" fill="#070707" fill-opacity="0.05"/>
<path d="M4918.27 1444.67C4905.87 1450.27 4896 1462.8 4889.47 1481.33C4885.87 1491.47 4885.47 1494.4 4885.47 1509.33C4885.33 1528.13 4888.13 1539.07 4895.47 1549.2C4911.6 1571.6 4940.13 1564.4 4954.53 1534.4C4961.6 1519.73 4963.73 1508.8 4962.93 1491.33C4962 1469.47 4955.87 1454.93 4944.27 1447.2C4937.47 1442.67 4925.33 1441.47 4918.27 1444.67Z" fill="#070707" fill-opacity="0.05"/>
<path d="M5103.73 1513.87C5065.2 1526.53 5036.8 1566.27 5047.73 1592.27C5056.8 1613.73 5092.8 1615.47 5122.53 1596C5160.27 1571.2 5171.6 1528.67 5144.13 1514.4C5135.6 1509.87 5116.4 1509.6 5103.73 1513.87Z" fill="#070707" fill-opacity="0.05"/>
<path d="M4322 1555.73C4318 1556.27 4213.33 1577.87 4178 1585.33C4134.8 1594.67 4124.53 1598.27 4123.6 1605.07C4123.07 1608.8 4126.27 1614 4141.07 1633.2C4147.73 1641.73 4178 1681.6 4208.27 1721.73C4278.93 1815.47 4286.13 1824 4295.6 1824C4302.53 1824 4303.33 1820.67 4310.67 1766C4312.53 1752 4314.67 1735.87 4315.47 1730C4316.13 1724.13 4317.33 1715.47 4318 1710.67C4318.67 1705.87 4319.6 1699.6 4320 1696.67C4320.27 1693.73 4322.93 1673.33 4325.87 1651.33C4337.07 1567.33 4337.47 1562.8 4335.07 1559.6C4333.07 1556.93 4326.8 1555.07 4322 1555.73ZM4310.8 1586.27C4310 1590.93 4308.93 1598.4 4308 1608C4307.6 1612 4306.4 1621.6 4305.33 1629.33C4304.27 1637.07 4302.53 1650.53 4301.47 1659.33C4293.87 1718.67 4285.47 1773.6 4283.47 1777.07C4282.8 1778.27 4275.73 1770.13 4260.67 1750.4C4182.4 1648.13 4159.47 1617.87 4159.33 1616.67C4158.93 1614 4190.4 1606.4 4263.33 1591.33C4285.73 1586.67 4305.73 1582.8 4307.73 1582.8C4311.2 1582.67 4311.47 1583.07 4310.8 1586.27Z" fill="#070707" fill-opacity="0.05"/>
<path d="M4954.67 1576C4931.6 1578.93 4919.47 1580 4901.33 1580.53C4872.8 1581.33 4855.2 1586.53 4842.53 1597.6C4828.8 1609.73 4827.87 1631.2 4840.53 1644.67C4847.07 1651.6 4854 1655.2 4874.27 1661.87C4895.87 1668.93 4903.2 1672.53 4911.33 1679.73C4919.87 1687.33 4925.2 1696.93 4933.2 1719.47C4940.8 1741.07 4944.4 1747.87 4951.87 1754.27C4956.67 1758.67 4967.47 1762.67 4974 1762.67C4983.47 1762.67 4994.53 1755.87 5001.33 1746.13C5010.93 1732.13 5013.07 1721.47 5014.67 1676.67C5015.07 1665.6 5016.27 1650.27 5017.2 1642.4C5020.13 1617.6 5018.53 1605.6 5010.4 1593.73C4999.73 1577.87 4982.8 1572.53 4954.67 1576Z" fill="#070707" fill-opacity="0.05"/>
<path d="M5820.13 1625.47C5786.53 1630.27 5752.67 1650.27 5735.33 1675.33C5729.07 1684.53 5722.13 1699.87 5720.13 1709.47C5717.47 1721.2 5718.4 1740.8 5722 1752.67C5723.6 1757.73 5727.47 1766.93 5730.67 1772.93C5747.87 1805.47 5777.2 1828.53 5810.13 1835.47C5822.93 1838.13 5846.13 1838 5856.8 1835.33C5892.4 1826.27 5914 1799.47 5914 1764.67C5913.87 1735.2 5899.47 1710.8 5875.07 1699.33C5849.6 1687.33 5821.07 1691.6 5802.53 1710.13C5787.2 1725.6 5786.93 1754 5801.87 1769.07C5808.93 1776 5813.6 1777.87 5824 1777.87C5838.53 1777.87 5848.8 1771.2 5850.8 1760.53C5853.33 1747.07 5840.8 1740.27 5831.33 1750C5826 1755.47 5823.47 1755.73 5818.4 1751.47C5815.2 1748.67 5814.67 1747.33 5814.67 1741.07C5814.67 1726.53 5825.6 1717.33 5844 1716.27C5855.73 1715.6 5865.73 1719.07 5874.53 1726.8C5882.53 1733.87 5886.67 1741.2 5889.33 1752.67C5895.87 1780.4 5878.53 1806.27 5848.8 1813.33C5838.4 1815.73 5819.73 1814.4 5806.53 1810.13C5763.6 1796.4 5734.53 1748.93 5744.8 1709.47C5747.87 1697.33 5752.27 1689.6 5761.73 1679.6C5779.07 1661.47 5805.73 1650 5834 1648.4C5850.93 1647.47 5860.53 1649.6 5875.73 1657.33C5887.2 1663.2 5890.53 1663.73 5895.07 1660.53C5899.47 1657.47 5899.07 1650.53 5894 1644.93C5888.67 1638.8 5873.87 1631.2 5861.2 1628C5849.33 1624.93 5831.6 1623.87 5820.13 1625.47Z" fill="#070707" fill-opacity="0.05"/>
<path d="M5083.33 1629.47C5042.27 1637.33 5019.33 1669.47 5039.33 1691.2C5048.8 1701.47 5063.33 1706.67 5082.67 1706.67C5098 1706.67 5110.27 1704 5122.53 1698.13C5156.4 1681.73 5161.6 1649.47 5132.8 1634.67C5120.8 1628.67 5099.47 1626.4 5083.33 1629.47Z" fill="#070707" fill-opacity="0.05"/>
<path d="M908.933 1637.2C888.8 1642.27 868.133 1655.6 853.2 1673.2C843.466 1684.67 831.466 1707.33 827.2 1722C823.466 1735.2 822.4 1759.07 825.2 1772C834.666 1816.8 880.666 1848.67 934.533 1847.87C953.2 1847.6 966.933 1844.4 982.666 1836.67C1036.93 1810.27 1050.27 1750.93 1010.8 1711.47C995.866 1696.4 982 1690.67 961.2 1690.67C930.533 1690.67 904.666 1710.67 898.8 1739.07C893.466 1764.53 910.8 1788.67 935.6 1790.4C959.2 1792.13 977.733 1763.47 961.866 1750.13C953.866 1743.33 946 1747.2 944 1758.67C942.4 1768 935.066 1769.33 927.333 1761.6C914.4 1748.67 922.533 1727.87 944.666 1717.47C950.533 1714.67 954 1714 962.133 1714C970.8 1714 973.466 1714.67 981.066 1718.4C991.333 1723.47 1000.8 1733.2 1005.87 1744C1008.8 1750.27 1009.33 1753.2 1009.33 1763.33C1009.33 1774 1008.93 1776.27 1005.2 1784C999.733 1795.2 993.333 1802.4 982.266 1809.87C960.4 1824.27 934.133 1828.67 908 1822C877.866 1814.4 852.933 1790.53 847.2 1763.87C842.133 1740.53 852.266 1710.53 873.066 1687.33C890.533 1667.73 910 1657.33 931.866 1655.6C941.866 1654.8 946.666 1651.47 946.666 1645.33C946.666 1642.13 945.733 1640.27 942.933 1638.13C937.733 1634.27 922.133 1633.87 908.933 1637.2Z" fill="#070707" fill-opacity="0.05"/>
<path d="M2561.33 1820.8C2559.47 1822.8 2554 1832.27 2549.2 1841.87C2536.53 1866.67 2532.67 1873.73 2530.53 1875.47C2528 1877.47 2522 1876.13 2501.47 1869.07C2492.53 1866.13 2481.73 1863.33 2477.2 1862.93C2469.6 1862.4 2468.67 1862.67 2465.47 1865.73C2461.2 1870 2460.93 1876.27 2464.8 1880.13C2468.93 1884.27 2476.8 1887.33 2494.93 1891.87C2514.8 1896.93 2518 1898.13 2518 1900.4C2518 1901.47 2512.67 1912.8 2506 1925.73C2498.67 1940.27 2494 1950.8 2494 1953.33C2494 1962.13 2505.73 1967.33 2512.53 1961.6C2514 1960.4 2521.2 1947.6 2528.53 1933.33C2535.87 1919.07 2542.67 1907.2 2543.73 1906.93C2544.8 1906.67 2558.53 1910.27 2574.13 1914.8C2607.47 1924.4 2611.6 1924.8 2616.13 1919.6C2617.87 1917.47 2619.33 1914.13 2619.33 1912.13C2619.33 1904.13 2614.53 1901.73 2579.73 1892C2568.53 1888.93 2558.4 1885.6 2557.07 1884.53C2554.8 1882.93 2555.47 1881.2 2567.07 1858.4C2581.47 1830 2582.67 1825.73 2577.33 1820.8C2572.27 1816.13 2565.6 1816.13 2561.33 1820.8Z" fill="#070707" fill-opacity="0.05"/>
<path d="M7181.87 1874.53C7172.27 1876.53 7161.47 1883.07 7152 1892.67C7134.93 1909.73 7126.8 1928.4 7126.67 1950C7126.67 1960.53 7127.07 1962.8 7130.27 1968.93C7148.4 2003.2 7204.27 1973.6 7216.67 1923.33C7221.6 1903.2 7215.87 1883.2 7203.2 1876.67C7198.8 1874.27 7188 1873.2 7181.87 1874.53Z" fill="#070707" fill-opacity="0.05"/>
<path d="M6382.53 1913.87C6364.8 1919.47 6350.13 1938.27 6349.87 1955.6C6349.73 1965.6 6352.93 1972.27 6361.47 1979.73C6369.2 1986.67 6377.87 1989.87 6401.33 1994.8C6445.33 2004 6446.53 2005.07 6441.2 2026.67C6436.67 2044.67 6435.73 2058.93 6438.4 2068.13C6442.53 2082.13 6453.2 2092.4 6468 2096.67C6471.73 2097.73 6481.73 2099.6 6490.4 2100.67C6518.8 2104.4 6524.4 2106.4 6525.07 2113.33C6525.2 2115.2 6524.53 2123.87 6523.47 2132.67C6519.73 2166 6523.47 2182.53 6536.4 2190.8C6544 2195.6 6548.27 2196.8 6566 2199.47C6595.73 2203.73 6606 2202.27 6608 2193.33C6610 2184.27 6601.47 2178.67 6584 2177.73C6568.93 2176.93 6556.8 2174.8 6552.4 2172.27C6547.87 2169.6 6544.67 2163.2 6544.67 2156.53C6544.67 2153.73 6545.6 2143.6 6546.8 2134C6548 2124.53 6548.67 2113.6 6548.4 2110C6546.8 2090.8 6533.73 2082.67 6497.33 2078C6479.2 2075.6 6472.27 2074 6467.73 2071.07C6459.87 2065.87 6458.8 2054.4 6464 2032C6469.2 2010.13 6468.13 2001.73 6458.93 1992.27C6450.67 1983.47 6437.87 1978.53 6405.73 1971.33C6361.6 1961.47 6360.67 1958.13 6393.2 1929.87C6398.53 1925.2 6399.47 1920.53 6395.73 1916.27C6392.4 1912.53 6388.93 1911.87 6382.53 1913.87Z" fill="#070707" fill-opacity="0.05"/>
<path d="M7287.87 1913.47C7270.4 1915.6 7247.2 1927.87 7234.4 1941.6C7204.53 1974.27 7214.27 2009.33 7253.33 2009.33C7263.33 2009.33 7279.33 2005.47 7288.93 2000.53C7319.07 1985.33 7338.53 1956.27 7332.67 1934.93C7329.87 1924.27 7319.33 1915.6 7307.07 1913.87C7297.2 1912.53 7296.27 1912.4 7287.87 1913.47Z" fill="#070707" fill-opacity="0.05"/>
<path d="M7061.33 1981.87C7044.4 1987.2 7036.27 1997.73 7036.27 2014.27C7036.27 2026 7042.4 2036.4 7057.07 2049.6C7063.87 2055.73 7072.53 2064 7076.4 2068C7088.93 2080.93 7095.07 2098.27 7093.47 2116C7093.07 2120.8 7092.27 2132.27 7091.87 2141.47C7090.8 2161.73 7092.67 2169.2 7101.07 2178.27C7107.87 2185.73 7113.87 2188.27 7124.13 2188.4C7145.2 2188.67 7164.13 2170 7180 2133.33C7183.33 2125.87 7191.07 2110.93 7197.47 2099.87C7212.67 2073.6 7214.53 2068.67 7214.4 2055.33C7214.4 2042.53 7211.47 2034.93 7203.07 2025.87C7195.6 2017.87 7186.53 2013.47 7161.87 2005.87C7150.53 2002.4 7137.2 1997.87 7132 1995.73C7110.53 1986.67 7103.47 1984.13 7093.73 1982.13C7081.6 1979.6 7068.8 1979.47 7061.33 1981.87Z" fill="#070707" fill-opacity="0.05"/>
<path d="M3632 1984C3605.47 1994.4 3584.13 2030.67 3585.2 2063.6C3585.6 2074.27 3586.13 2077.2 3589.87 2084.53C3594.67 2094.27 3601.07 2099.47 3610.13 2101.07C3623.6 2103.47 3636 2098.27 3650.13 2084.13C3667.73 2066.4 3676.8 2044.13 3676.13 2020C3675.87 2006 3672.93 1997.2 3666.27 1990.13C3658.13 1981.47 3644.8 1979.07 3632 1984Z" fill="#070707" fill-opacity="0.05"/>
<path d="M3514.27 2014C3498.4 2022.13 3488.67 2043.2 3488.53 2070C3488.27 2097.6 3498.8 2120.13 3515.6 2128.53C3526.93 2134.27 3536.8 2132.53 3547.2 2123.2C3571.33 2101.47 3572 2045.87 3548.4 2021.47C3541.87 2014.53 3536.67 2012 3528.13 2011.07C3522.53 2010.53 3520 2011.07 3514.27 2014Z" fill="#070707" fill-opacity="0.05"/>
<path d="M7299.6 2014.53C7271.6 2021.47 7250.8 2039.73 7248.93 2058.93C7245.73 2092.53 7301.47 2107.73 7344.93 2085.07C7363.87 2075.33 7374.4 2061.47 7374.13 2046.67C7374 2033.87 7367.87 2025.07 7354.4 2018.13C7342.13 2011.87 7317.07 2010.27 7299.6 2014.53Z" fill="#070707" fill-opacity="0.05"/>
<path d="M3722 2046.67C3688.53 2054.67 3656.53 2093.87 3658.93 2124C3660.53 2143.6 3672.4 2152.93 3693.87 2151.73C3728.53 2149.73 3766 2110.53 3766 2076.4C3766 2068.13 3761.87 2057.2 3757.2 2053.07C3749.6 2046.27 3734.8 2043.6 3722 2046.67Z" fill="#070707" fill-opacity="0.05"/>
<path d="M138.533 2066.53C117.467 2071.87 101.733 2103.33 103.733 2136.27C105.333 2161.33 114.4 2180.13 129.867 2189.73C137.2 2194.27 149.867 2193.87 158.267 2188.93C182.267 2174.93 192.533 2130.53 179.867 2096.27C171.867 2074.67 154.8 2062.4 138.533 2066.53Z" fill="#070707" fill-opacity="0.05"/>
<path d="M246.4 2090C224.933 2096.4 205.2 2121.73 199.467 2150.27C194.667 2173.87 198.667 2193.33 210.533 2203.6C219.467 2211.6 232.4 2212.67 245.333 2206.67C255.867 2201.73 269.6 2186.8 276.267 2173.33C283.867 2157.73 286.4 2147.47 286.4 2131.33C286.4 2116.27 283.6 2106.93 276.8 2098.53C269.6 2089.87 257.733 2086.67 246.4 2090Z" fill="#070707" fill-opacity="0.05"/>
<path d="M1815.6 2102.93C1805.87 2104.53 1797.73 2109.47 1787.33 2120C1755.87 2151.47 1751.6 2205.87 1779.47 2220.13C1798.93 2230 1828 2212.53 1842.67 2182C1863.47 2138.93 1849.07 2096.93 1815.6 2102.93Z" fill="#070707" fill-opacity="0.05"/>
<path d="M7232.67 2108.13C7221.6 2110 7208.93 2116.93 7204.13 2123.6C7198.27 2132 7197.73 2142.67 7202.53 2152.53C7209.73 2167.33 7228 2179.87 7250.13 2185.6C7264.53 2189.2 7284 2188.53 7295.87 2184C7308.67 2179.07 7318 2167.47 7318 2156.4C7318 2138.13 7295.07 2116.8 7268.4 2110.13C7258.13 2107.47 7241.6 2106.53 7232.67 2108.13Z" fill="#070707" fill-opacity="0.05"/>
<path d="M1692.67 2134C1675.73 2141.73 1664.67 2163.47 1664.53 2189.47C1664.4 2223.07 1678.8 2248.93 1699.73 2252.67C1716.93 2255.87 1734.53 2238.27 1740 2212.67C1746.53 2181.47 1735.07 2145.6 1715.2 2135.33C1709.07 2132.13 1698.27 2131.47 1692.67 2134Z" fill="#070707" fill-opacity="0.05"/>
<path d="M3585.6 2134.8C3582.13 2135.33 3570.13 2138.53 3558.93 2141.73C3535.6 2148.67 3535.07 2148.8 3519.6 2151.47C3488.27 2156.8 3467.6 2167.73 3458.93 2183.87C3449.47 2201.2 3455.87 2220.27 3474.4 2229.33C3480.53 2232.27 3487.2 2234 3500.67 2236C3510.53 2237.6 3521.33 2239.47 3524.67 2240.27C3543.33 2244.8 3557.07 2256.67 3567.87 2277.33C3582.13 2304.67 3589.73 2313.87 3601.73 2317.87C3612.8 2321.73 3624 2319.87 3633.07 2312.93C3638.27 2309.07 3644.93 2296.93 3647.33 2287.33C3649.47 2278.4 3649.07 2255.47 3646.53 2240C3645.47 2233.07 3644.27 2225.87 3643.87 2224C3643.6 2222.13 3643.07 2213.73 3642.67 2205.33C3640.8 2168 3637.47 2156.67 3625.2 2145.33C3614.8 2136 3601.87 2132.53 3585.6 2134.8Z" fill="#070707" fill-opacity="0.05"/>
<path d="M40.9332 2141.33C27.1999 2144.4 19.3332 2156.53 18.2665 2176.4C17.3332 2195.87 23.5999 2215.07 37.0665 2232.67C53.1999 2254 77.9999 2261.33 92.1332 2249.07C105.067 2237.6 108 2214.27 99.3332 2189.47C88.6665 2158.4 62.1332 2136.67 40.9332 2141.33Z" fill="#070707" fill-opacity="0.05"/>
<path d="M3728 2165.07C3699.6 2167.73 3670.93 2185.87 3663.47 2206.13C3659.87 2215.6 3660 2220.4 3663.87 2228.8C3669.2 2240.27 3680.8 2246.4 3699.07 2247.6C3750.67 2250.93 3797.87 2203.47 3769.73 2176.4C3761.07 2168 3744.4 2163.47 3728 2165.07Z" fill="#070707" fill-opacity="0.05"/>
<path d="M1899.87 2167.33C1872.67 2173.07 1844.13 2200.27 1836.67 2227.87C1833.2 2241.07 1835.6 2256.4 1842.4 2263.87C1847.07 2268.93 1857.73 2273.33 1865.33 2273.33C1901.6 2273.33 1942 2233.2 1942 2197.33C1942 2174.8 1924.4 2162.27 1899.87 2167.33Z" fill="#070707" fill-opacity="0.05"/>
<path d="M296.667 2198.53C275.6 2205.33 255.867 2222.13 245.867 2241.6C241.733 2249.73 238.933 2262.53 239.733 2269.47C242.8 2295.2 269.467 2302.93 299.867 2286.93C311.333 2280.93 328.933 2264.13 335.067 2253.2C347.867 2230.53 344.933 2206.93 328.267 2199.2C319.733 2195.33 307.467 2195.07 296.667 2198.53Z" fill="#070707" fill-opacity="0.05"/>
<path d="M5218.53 2220.4C5215.6 2222.93 5215.07 2224.53 5215.2 2229.47C5215.33 2235.73 5215.87 2238.13 5224.53 2267.2C5227.6 2277.33 5230 2286.53 5230 2287.47C5230 2289.73 5226.4 2290.4 5199.33 2292.67C5167.47 2295.47 5164.67 2296.53 5164.67 2306.93C5164.67 2317.73 5170.4 2318.8 5207.87 2315.33C5222 2314 5234.53 2313.33 5235.87 2313.73C5238.8 2314.93 5240.13 2318.53 5245.47 2340.4C5250.27 2359.87 5254.93 2370.93 5259.2 2373.33C5263.6 2375.6 5268.67 2374.8 5272.27 2371.2C5275.33 2368.13 5275.6 2367.07 5274.93 2360.13C5274.67 2356 5271.47 2343.73 5267.87 2332.93C5263.73 2320.13 5262 2312.8 5262.8 2312C5264.27 2310.53 5278.93 2308.53 5298 2307.33C5320.13 2305.87 5326 2303.2 5326 2294.67C5326 2284.67 5321.07 2282.13 5303.47 2283.33C5296.4 2283.87 5290.4 2284.53 5290 2284.67C5289.6 2284.93 5283.07 2285.47 5275.33 2286C5267.6 2286.53 5260.27 2287.2 5259.07 2287.33C5257.87 2287.6 5256.13 2287.07 5255.33 2286C5254.53 2285.07 5250.13 2271.2 5245.47 2255.07C5235.07 2219.73 5235.87 2221.73 5231.2 2219.33C5226 2216.53 5222.67 2216.8 5218.53 2220.4Z" fill="#070707" fill-opacity="0.05"/>
<path d="M152.533 2227.07C142.933 2230.27 136.8 2234.53 115.733 2252.27C107.867 2258.8 95.5999 2268 88.6666 2272.53C57.3333 2293.2 43.3333 2311.6 43.3333 2332.27C43.3333 2343.07 47.0666 2350.93 54.9333 2356.53C68.1333 2365.87 77.3333 2366.13 106.8 2358.53C143.733 2349.07 155.067 2351.07 182.133 2372.27C206.8 2391.47 213.067 2394.67 226.667 2394.67C235.2 2394.67 246 2389.6 250.8 2383.2C257.867 2374 259.867 2358.4 256 2343.33C253.067 2332.27 246.533 2318.67 235.6 2301.73C230.533 2293.87 221.467 2277.6 215.333 2265.73C205.867 2247.07 203.333 2242.93 196.533 2236.8C183.867 2225.07 168.667 2221.73 152.533 2227.07Z" fill="#070707" fill-opacity="0.05"/>
<path d="M1758.67 2256.67C1754.27 2257.6 1742.53 2260.8 1732.67 2263.73C1722.8 2266.8 1706.8 2270.67 1697.33 2272.53C1670 2277.87 1654.4 2284.27 1643.47 2294.8C1624.27 2313.33 1628.27 2340.8 1652 2351.47C1658.67 2354.53 1662.93 2355.33 1688.67 2359.47C1705.73 2362.13 1714.53 2365.2 1723.47 2372C1732.27 2378.53 1737.87 2386.27 1749.2 2407.07C1755.87 2419.2 1760.4 2425.87 1765.33 2430.53C1785.87 2450 1813.87 2441.33 1822.8 2412.93C1826.4 2401.6 1826.27 2379.73 1822.67 2358C1820.93 2347.73 1819.07 2331.2 1818.67 2321.33C1816.93 2289.07 1812.67 2275.2 1801.2 2265.87C1789.47 2256.27 1775.2 2253.07 1758.67 2256.67Z" fill="#070707" fill-opacity="0.05"/>
<path d="M1897.73 2286.67C1865.87 2292.13 1837.6 2316.13 1837.73 2337.87C1837.73 2346 1839.2 2350 1844 2355.87C1851.87 2365.07 1869.33 2370.27 1887.33 2368.67C1925.73 2365.2 1958.53 2336.67 1953.73 2310.8C1950.27 2292.4 1926 2282 1897.73 2286.67Z" fill="#070707" fill-opacity="0.05"/>
<path d="M4460 2387.2C4437.6 2392.4 4417.6 2407.2 4408.4 2425.6C4391.6 2458.67 4403.6 2498.67 4434.93 2514.27C4458.13 2525.73 4482.67 2518.8 4493.6 2497.47C4503.73 2478 4495.47 2457.73 4475.07 2452C4462.27 2448.27 4450.4 2464.13 4460.13 2471.87C4462.13 2473.47 4464.67 2474.67 4465.87 2474.67C4469.87 2474.67 4474 2478.67 4474 2482.4C4474 2493.47 4457.2 2499.73 4444.8 2493.33C4437.6 2489.73 4429.2 2479.73 4426.53 2471.6C4418.93 2449.33 4430.27 2425.33 4453.6 2414.27C4461.6 2410.53 4464 2410 4474 2410C4483.47 2410 4486.53 2410.53 4492.67 2413.47C4507.73 2420.67 4519.2 2433.47 4525.87 2450.67C4538.67 2483.47 4531.47 2520.8 4507.47 2547.07C4485.33 2571.07 4456.53 2578 4428 2566.27C4405.2 2556.93 4380.67 2533.47 4370.53 2511.33C4365.2 2499.73 4363.33 2491.2 4363.33 2477.87C4363.33 2467.6 4362.93 2465.2 4360.53 2462.13C4357.73 2458.53 4353.07 2457.6 4348.8 2460C4341.87 2463.6 4339.73 2487.87 4344.53 2506.93C4359.2 2564.13 4425.6 2605.87 4479.87 2592C4508.27 2584.8 4532.67 2561.73 4546 2529.73C4566.53 2480.27 4552 2422.93 4512.27 2397.2C4497.07 2387.33 4476.4 2383.47 4460 2387.2Z" fill="#070707" fill-opacity="0.05"/>
<path d="M7675.07 2402.67C7669.6 2408.27 7670 2410 7685.33 2441.33C7692.27 2455.6 7698 2468.27 7698 2469.47C7698 2472.4 7692.8 2476.8 7676.67 2488C7656.13 2502.13 7651.33 2507.33 7651.33 2515.33C7651.33 2519.47 7656.8 2525.33 7660.67 2525.33C7665.87 2525.33 7676 2519.33 7688 2509.33C7694.67 2503.87 7702 2497.87 7704.53 2496.13L7709.07 2492.93L7711.73 2496.13C7713.2 2497.87 7718.53 2508 7723.6 2518.67C7735.6 2543.6 7737.87 2546.67 7744.8 2546.67C7751.47 2546.67 7756.67 2542 7756.67 2536.13C7756.67 2533.87 7751.2 2521.2 7743.33 2505.33C7732.4 2483.33 7730.27 2478 7731.47 2476.4C7732.4 2475.33 7744.13 2466 7757.6 2455.73C7771.07 2445.47 7782.67 2435.87 7783.33 2434.53C7786.93 2428 7783.33 2419.73 7776.13 2417.87C7771.2 2416.67 7764.93 2420.27 7744.27 2436.27C7733.87 2444.27 7723.87 2451.73 7721.87 2452.8L7718.13 2454.67L7706.4 2431.07C7700 2418 7692.93 2405.47 7690.93 2403.07C7685.87 2397.33 7680.67 2397.2 7675.07 2402.67Z" fill="#070707" fill-opacity="0.05"/>
<path d="M3052.27 2528.13C3050 2531.6 3049.07 2538.13 3048 2557.33C3046.13 2589.33 3045.2 2603.73 3042.67 2639.33C3039.87 2678.4 3039.33 2685.2 3038.67 2692C3038.4 2695.33 3037.73 2704.27 3037.2 2712C3036.8 2719.73 3036.13 2727.47 3035.87 2729.33C3035.6 2731.2 3034.93 2747.07 3034.53 2764.67C3033.73 2792.13 3034 2797.33 3035.73 2801.6C3037.6 2806.13 3038.4 2806.67 3042.53 2806.67C3048.27 2806.67 3049.07 2806 3106 2756.13C3195.6 2677.47 3239.33 2638.53 3240.67 2636C3245.2 2627.47 3240.67 2623.2 3208.67 2605.33C3181.2 2590 3176.13 2587.2 3144.67 2569.33C3102.4 2545.33 3094.53 2541.07 3080 2533.87C3072 2529.87 3062.8 2526.27 3059.73 2525.87C3054.93 2525.2 3054 2525.47 3052.27 2528.13ZM3088.4 2565.87C3114.8 2579.07 3208.67 2631.73 3208.67 2633.33C3208.67 2633.73 3189.33 2651.2 3165.73 2672.27C3099.33 2731.07 3062.13 2762.67 3059.2 2762.67C3058.27 2762.67 3058 2760.67 3058.53 2757.6C3058.93 2754.93 3059.6 2746 3060 2738C3060.4 2729.87 3061.07 2719.73 3061.33 2715.33C3061.73 2710.93 3062.67 2696.53 3063.33 2683.33C3064.13 2670.13 3064.93 2656.93 3065.33 2654C3065.6 2651.07 3066.13 2641.47 3066.67 2632.67C3067.07 2623.87 3067.6 2614.27 3068 2611.33C3068.27 2608.4 3068.93 2598.8 3069.47 2590C3070 2581.2 3070.53 2572.53 3070.67 2570.67C3070.93 2568.8 3071.07 2565.33 3071.2 2562.93C3071.33 2560.67 3072 2558.67 3072.67 2558.67C3073.47 2558.67 3080.53 2561.87 3088.4 2565.87Z" fill="#070707" fill-opacity="0.05"/>
<path d="M956.933 2552.13C936 2562.53 920.667 2592.27 920.4 2622.67C920.133 2642 925.2 2656.67 935.067 2665.6C951.867 2680.67 976.133 2672.4 991.867 2646.13C1017.07 2604.13 1005.33 2548.13 971.2 2548C967.067 2548 962.533 2549.33 956.933 2552.13Z" fill="#070707" fill-opacity="0.05"/>
<path d="M1063.87 2595.2C1038.4 2601.47 1014.4 2627.33 1006.8 2656.67C1004.13 2666.53 1004.13 2682 1006.53 2689.07C1014.67 2712 1039.87 2715.47 1065.6 2697.33C1089.87 2680.4 1106.53 2646 1102.4 2621.73C1098.8 2600.93 1083.33 2590.4 1063.87 2595.2Z" fill="#070707" fill-opacity="0.05"/>
<path d="M847.2 2602.67C820 2616.93 819.733 2675.07 846.667 2704.93C855.333 2714.67 864.933 2719.2 875.333 2718.4C886 2717.6 892.933 2712.8 898.8 2702C919.733 2664.27 894.667 2599.73 859.2 2600C854.8 2600.13 850.133 2601.07 847.2 2602.67Z" fill="#070707" fill-opacity="0.05"/>
<path d="M6014 2664.27C6009.47 2665.87 6003.2 2672.13 5993.87 2684.13C5980.4 2701.47 5971.47 2705.33 5960.8 2698.27C5958.13 2696.4 5949.6 2689.47 5941.87 2682.67C5920 2663.2 5910.93 2660.4 5895.33 2668.27C5889.2 2671.33 5883.87 2675.6 5876.13 2683.87C5852.93 2708.27 5849.2 2711.73 5843.87 2713.2C5835.47 2715.47 5827.6 2710.8 5812.13 2694C5797.73 2678.53 5791.47 2674.67 5781.2 2674.67C5767.2 2674.8 5756.53 2681.33 5729.6 2705.73C5718.4 2715.73 5707.33 2724.93 5704.8 2726.13C5699.07 2728.93 5694 2727.47 5691.6 2722.4C5689.33 2717.47 5687.33 2706.27 5687.33 2697.47C5687.33 2688.27 5684.8 2684 5679.33 2684C5673.73 2684 5671.47 2685.2 5669.33 2689.33C5664.53 2698.53 5665.87 2718.4 5672 2730.53C5678.8 2744.13 5689.33 2750.13 5703.87 2749.07C5716.93 2748 5725.73 2742.4 5747.07 2722.27C5766 2704.27 5772.27 2699.47 5778.4 2697.87C5781.87 2697.07 5783.33 2698.27 5797.73 2713.07C5816.8 2732.8 5823.6 2736.67 5839.33 2736.67C5855.6 2736.67 5861.07 2733.33 5885.2 2708.67C5900.93 2692.4 5906.13 2688 5908.8 2688C5911.2 2688 5916.27 2691.6 5926.13 2700.13C5949.47 2720.53 5958.4 2725.6 5971.87 2725.87C5984.53 2726.13 5991.87 2721.6 6008 2703.87C6022.53 2687.87 6028.67 2679.07 6028.67 2673.87C6028.67 2669.73 6025.07 2664.13 6022.4 2663.87C6021.73 2663.87 6020.4 2663.6 6019.33 2663.47C6018.27 2663.2 6015.87 2663.6 6014 2664.27Z" fill="#070707" fill-opacity="0.05"/>
<path d="M942 2708.8C938 2709.87 924.133 2716.13 911.333 2722.53C898.533 2729.07 883.466 2736 878 2737.87C839.866 2751.47 819.066 2771.2 819.066 2793.47C819.066 2808.27 828.666 2819.87 844.933 2824.67C851.2 2826.4 856.666 2826.67 876.266 2826.13C890.533 2825.6 902.4 2825.87 906 2826.8C922.133 2830.53 932.933 2838.67 951.466 2861.47C967.466 2881.33 975.2 2886.53 989.6 2887.73C996.8 2888.27 998.933 2887.87 1005.33 2884.67C1018.67 2878.13 1024.8 2865.73 1024.8 2845.2C1024.67 2831.47 1022.27 2820.27 1015.2 2801.6C1012.27 2793.87 1007.2 2777.07 1003.87 2764.13C1000.53 2751.2 996.533 2737.6 994.8 2734C985.333 2713.33 964 2703.07 942 2708.8Z" fill="#070707" fill-opacity="0.05"/>
<path d="M1088 2712C1071.07 2715.6 1049.6 2727.87 1039.2 2739.87C1024.13 2757.33 1020.93 2777.87 1031.47 2789.87C1053.07 2814.53 1113.87 2795.2 1132.27 2757.6C1135.33 2751.33 1136 2748.27 1136 2739.87C1136 2726.8 1132.4 2720.67 1121.2 2715.2C1112.93 2711.2 1098.27 2709.73 1088 2712Z" fill="#070707" fill-opacity="0.05"/>
<path d="M7137.87 2813.2C7133.07 2818 7132.93 2823.33 7136.53 2844.4C7140.27 2866.53 7138.53 2874.27 7128.93 2878.27C7126.27 2879.47 7114.27 2881.73 7102.53 2883.47C7073.6 2887.6 7067.73 2890.27 7061.73 2902C7058.13 2908.93 7057.07 2926.67 7059.2 2943.87C7061.73 2964.67 7061.87 2967.07 7060.4 2973.07C7058.8 2979.6 7053.47 2984.67 7046.27 2986.53C7043.6 2987.2 7033.2 2988.13 7023.33 2988.53C7002.8 2989.47 6998.27 2990.4 6991.87 2995.33C6980.93 3003.73 6978.13 3016.27 6978.13 3056.67C6978.13 3074.8 6977.6 3088.8 6976.8 3090.93C6976.13 3092.93 6974 3095.47 6972.13 3096.67C6968.93 3098.8 6968.4 3098.8 6961.73 3095.6C6957.87 3093.87 6951.6 3090 6948 3087.07C6944.27 3084.13 6939.87 3081.07 6938.13 3080.13C6931.33 3076.4 6923.87 3082.53 6925.47 3090.53C6926.8 3097.2 6938.13 3108.53 6948.4 3113.6C6955.33 3117.07 6959.33 3118.13 6966.93 3118.4C6979.33 3119.07 6986.93 3115.73 6993.33 3106.8C7001.2 3096.13 7002.27 3089.33 7001.73 3054.27C7001.2 3012.13 7001.2 3012 7024.4 3012C7048.53 3012 7062.4 3007.87 7072.93 2997.73C7083.47 2987.47 7086.4 2971.87 7082.93 2944C7080.53 2924.67 7080.67 2914.13 7083.33 2911.33C7084.67 2910 7092.27 2908.4 7104.67 2906.67C7135.33 2902.4 7148 2897.6 7155.33 2887.6C7162.67 2877.6 7163.47 2865.33 7158.67 2833.07C7156.4 2818 7154.4 2813.2 7149.33 2810.93C7144.13 2808.53 7142.13 2808.93 7137.87 2813.2Z" fill="#070707" fill-opacity="0.05"/>
<path d="M2473.6 2828.93C2466.13 2831.07 2459.07 2838.8 2455.73 2848.53C2452.13 2859.07 2452.8 2877.87 2457.07 2891.07C2469.2 2928.4 2501.47 2951.33 2523.73 2938.27C2540.93 2928.13 2544.13 2895.33 2530.67 2867.07C2516.93 2838 2494.27 2822.93 2473.6 2828.93Z" fill="#070707" fill-opacity="0.05"/>
<path d="M2354.67 2851.07C2346.67 2853.73 2342.27 2857.07 2338.53 2863.47C2320.4 2894.27 2361.87 2947.87 2407.47 2952.67C2436.4 2955.73 2451.73 2934.27 2441.47 2905.2C2431.33 2876.53 2399.47 2851.73 2370.4 2850C2363.73 2849.6 2358.13 2850 2354.67 2851.07Z" fill="#070707" fill-opacity="0.05"/>
<path d="M6413.07 2884.8C6410.13 2887.73 6409.73 2888.93 6410.4 2894.4C6410.8 2897.87 6415.07 2911.2 6419.73 2924C6431.73 2956 6431.33 2953.6 6424.4 2958.27C6421.2 2960.53 6412.27 2965.73 6404.4 2969.87C6396.53 2974.13 6387.33 2980 6383.87 2983.07C6378.53 2988 6377.73 2989.33 6377.73 2994C6377.73 2997.73 6378.53 2999.87 6380.67 3001.6C6387.2 3006.8 6396 3003.87 6419.87 2988.13C6428 2982.93 6435.47 2978.67 6436.67 2978.67C6439.47 2978.67 6440.67 2981.33 6448.8 3004.13C6456.93 3027.47 6459.2 3032.13 6463.47 3034.53C6470.4 3038.4 6479.33 3032.93 6479.33 3024.67C6479.33 3022.13 6475.07 3008.27 6470 2993.87C6464.8 2979.33 6460.67 2966.67 6460.93 2965.47C6461.2 2964.4 6474 2956 6489.33 2946.8C6514.53 2931.6 6517.47 2929.6 6518.8 2925.33C6520.53 2919.87 6519.07 2914 6515.33 2912C6509.07 2908.67 6504.27 2910.4 6479.33 2925.33C6465.87 2933.33 6453.87 2940 6452.67 2940C6450.53 2940 6449.33 2936.8 6436.53 2900.93C6431.33 2886.27 6427.47 2881.33 6421.2 2881.33C6418 2881.33 6415.47 2882.4 6413.07 2884.8Z" fill="#070707" fill-opacity="0.05"/>
<path d="M2305.6 2945.33C2294.93 2948 2287.2 2952.93 2282.4 2960.27C2277.33 2967.73 2277.2 2981.6 2281.87 2990.67C2296 3017.73 2334.53 3035.87 2367.2 3030.8C2388.4 3027.47 2400.67 3016.13 2400.67 2999.87C2400.67 2976 2374.4 2952.4 2340 2945.2C2326 2942.27 2317.47 2942.27 2305.6 2945.33Z" fill="#070707" fill-opacity="0.05"/>
<path d="M2552.53 2950.53C2549.2 2951.2 2541.73 2953.07 2535.87 2954.67C2523.33 2958.13 2510.53 2960.53 2490.67 2963.2C2465.07 2966.8 2454.53 2971.07 2444.93 2982.13C2439.47 2988.13 2436.27 2995.87 2434.67 3006.13C2433.47 3014.13 2436.8 3028 2445.33 3049.33C2449.47 3059.87 2454.27 3073.87 2456.13 3080.53C2464.67 3111.2 2471.33 3125.6 2482.53 3136.67C2490.67 3144.8 2497.6 3148.27 2507.07 3149.07C2520.27 3150.13 2533.73 3142 2539.07 3129.6C2542.53 3121.6 2544.27 3111.2 2545.2 3092C2547.07 3057.73 2553.87 3046.67 2586.8 3025.07C2611.6 3008.67 2618.4 2999.73 2618.27 2983.73C2618.13 2969.73 2611.47 2960.4 2596.8 2953.6C2590.67 2950.8 2587.2 2950.27 2574.13 2949.87C2565.6 2949.6 2555.87 2950 2552.53 2950.53Z" fill="#070707" fill-opacity="0.05"/>
<path d="M4994.93 2962.8C4987.07 2968 4979.2 2976.93 4975.2 2985.07C4972.8 2989.87 4972.13 2993.6 4972 3001.6C4972 3010.8 4972.4 3012.27 4976 3017.6C4980.93 3024.53 4990.53 3031.2 4999.73 3034C5003.6 3035.2 5016 3037.33 5027.33 3038.8C5054.67 3042.4 5063.2 3044.53 5067.07 3048.8C5070.53 3052.8 5070.67 3054.93 5067.87 3070.93C5064.93 3088 5065.73 3103.87 5070.13 3112.53C5078.67 3130 5092.13 3136.13 5126 3138C5145.07 3138.93 5154.4 3140.67 5156.8 3143.47C5158 3144.93 5158.53 3153.33 5158.67 3173.07C5158.8 3195.47 5159.2 3201.73 5161.07 3206.4C5166 3219.07 5174 3225.73 5187.87 3228.67C5198.53 3230.93 5236.53 3231.33 5241.07 3229.2C5245.47 3227.2 5248.13 3220.93 5246.53 3216.27C5244.13 3209.6 5239.2 3208.13 5216.67 3207.6C5193.73 3207.07 5188 3205.6 5183.73 3199.2C5181.6 3195.87 5181.33 3192.27 5181.33 3166.67C5181.33 3144.93 5180.93 3137.2 5179.47 3134.67C5172.13 3121.2 5156.27 3115.07 5127.07 3114.53C5092.13 3113.87 5085.73 3106.8 5090.67 3075.07C5094 3054.53 5093.73 3046.93 5089.87 3039.87C5082 3025.73 5070.4 3021.33 5019.87 3013.6C4996.4 3009.87 4990.8 3006.4 4993.2 2996.8C4993.6 2995.07 4999.07 2988.53 5005.33 2982.4C5011.6 2976.4 5017.07 2970.27 5017.47 2969.07C5017.87 2967.87 5017.2 2964.93 5016 2962.67C5014.13 2959.07 5013.33 2958.67 5007.47 2958.67C5002.67 2958.67 4999.73 2959.6 4994.93 2962.8Z" fill="#070707" fill-opacity="0.05"/>
<path d="M3908 3049.47C3896.27 3051.2 3887.6 3054 3875.47 3060.13C3847.2 3074.27 3824.93 3100.13 3814.27 3131.07C3806.67 3153.07 3806.67 3178.4 3814.4 3196.67C3826.27 3225.33 3855.07 3248.67 3890.8 3258.93C3906 3263.2 3935.33 3263.33 3950.4 3258.93C3960.53 3256 3974.67 3249.6 3982.67 3244.13C3997.87 3233.87 4011.87 3213.33 4015.33 3196.4C4019.07 3178.93 4014 3156.4 4002.53 3139.73C3989.07 3120 3968.93 3109.33 3945.2 3109.33C3931.47 3109.33 3919.73 3112.8 3908.8 3120.13C3899.47 3126.4 3894.53 3131.87 3888.4 3143.2C3884.4 3150.67 3884 3152.27 3884 3163.33C3884 3176.93 3886.4 3183.73 3894 3192.4C3903.73 3203.6 3919.47 3208.13 3931.87 3203.47C3940.4 3200.13 3949.6 3190 3950.67 3182.4C3952 3173.2 3947.73 3166.13 3939.87 3164.53C3934.67 3163.6 3930.53 3166.93 3928.13 3174C3924 3186.13 3910.4 3182 3907.47 3167.6C3904.53 3153.87 3916.27 3139.33 3934.67 3134C3943.73 3131.33 3954 3132 3962.93 3136C3971.87 3139.87 3983.73 3152 3988.13 3161.73C3991.6 3168.93 3992 3171.47 3992 3182.67C3992 3194 3991.6 3196.13 3988.13 3202.93C3977.07 3224.93 3950.53 3239.07 3920.67 3239.07C3866.27 3239.07 3823.07 3194.13 3832.8 3147.73C3838.4 3121.47 3862.53 3092.93 3891.07 3078.67C3902.93 3072.8 3913.6 3070.53 3928.53 3070.8C3942 3070.93 3946.27 3069.87 3948.4 3065.6C3950.27 3061.87 3947.73 3054.93 3943.6 3052.8C3937.2 3049.47 3919.6 3047.87 3908 3049.47Z" fill="#070707" fill-opacity="0.05"/>
<path d="M2361.73 3051.33C2343.07 3056 2326.67 3067.33 2321.2 3079.33C2309.2 3104.8 2333.2 3127.07 2372.67 3126.93C2394.27 3126.93 2413.47 3120.27 2426.13 3108.4C2434.4 3100.67 2437.87 3093.6 2438 3084.53C2438 3071.2 2428.13 3059.87 2410.93 3053.47C2400.27 3049.47 2373.6 3048.27 2361.73 3051.33Z" fill="#070707" fill-opacity="0.05"/>
<path d="M226.267 3108.13C167.067 3115.33 120.667 3186.13 134.667 3247.6C141.733 3278.27 165.2 3302.4 199.467 3313.87C254.4 3332.27 312.8 3311.73 335.467 3266C347.333 3241.87 345.733 3217.6 330.4 3194.4C308.133 3160.4 265.2 3151.33 232.267 3173.6C217.067 3183.87 207.067 3202.13 206.8 3220C206.667 3228.8 207.2 3231.2 211.067 3238.93C216 3249.07 222.133 3254.93 232.4 3259.73C242.667 3264.4 255.467 3263.6 263.6 3257.87C279.2 3246.93 281.867 3225.07 268.267 3219.33C265.333 3218.13 263.067 3218 260.4 3218.93C256 3220.53 254.267 3223.2 253.6 3229.73C252.933 3236 250.533 3238.67 245.467 3238.67C240 3238.67 235.867 3235.73 232.667 3229.33C227.6 3219.33 230.4 3207.6 240.533 3197.47C254.267 3183.73 272.533 3181.07 290.933 3190C302 3195.47 309.867 3203.47 315.2 3214.67C318.133 3220.93 318.667 3223.73 318.667 3234.67C318.667 3244.93 318.133 3248.53 315.6 3253.87C297.467 3293.33 241.333 3309.33 197.333 3287.47C169.733 3273.73 152.533 3246 154.933 3219.33C158 3185.33 183.867 3147.87 213.6 3134.4C218.133 3132.4 227.2 3129.73 233.6 3128.67C243.067 3127.07 245.867 3126 248.4 3123.2C254.933 3115.73 250.667 3109.6 237.333 3107.6C235.867 3107.33 230.8 3107.6 226.267 3108.13Z" fill="#070707" fill-opacity="0.05"/>
<path d="M1805.73 3204.4C1803.33 3206.8 1798.4 3214.4 1794.67 3221.33C1791.07 3228.27 1785.2 3236.8 1781.87 3240.27C1772.67 3250 1768 3249.2 1743.73 3234.27C1720.8 3220 1711.07 3217.33 1700 3221.87C1693.33 3224.67 1683.07 3234.8 1676.53 3245.07C1660.8 3269.87 1656.27 3276 1652.13 3278.53C1643.2 3284.13 1635.33 3281.73 1617.33 3268.13C1600.67 3255.33 1594.93 3252.67 1586 3252.8C1570.93 3253.07 1559.6 3262.27 1536.13 3293.07C1528.4 3303.33 1519.87 3313.6 1517.33 3315.87C1507.33 3324.67 1500.4 3319.47 1495.33 3299.33C1491.6 3284.53 1490.13 3281.47 1486.53 3280.53C1478.53 3278.53 1474.53 3282.8 1473.47 3294.53C1472.13 3310.8 1483.87 3332.67 1497.33 3338.8C1510.13 3344.67 1527.47 3339.87 1539.47 3327.2C1542.93 3323.6 1551.73 3312.53 1559.07 3302.53C1573.6 3282.93 1580.4 3276 1585.07 3276C1588.67 3276 1593.33 3278.93 1605.2 3288.4C1626.13 3305.2 1644.13 3309.07 1661.07 3300.4C1670.53 3295.6 1677.33 3288 1689.6 3268.53C1695.73 3258.8 1702.8 3249.07 1705.33 3246.8C1709.87 3242.8 1710.27 3242.8 1714.53 3244.53C1717.07 3245.6 1722.53 3248.67 1726.93 3251.47C1740.13 3259.87 1756.67 3267.87 1764.4 3269.47C1778.67 3272.4 1790.8 3268.13 1799.73 3256.93C1804.53 3251.07 1817.07 3230.93 1821.6 3222C1827.87 3209.73 1824.8 3200 1814.67 3200C1811.2 3200 1808.93 3201.07 1805.73 3204.4Z" fill="#070707" fill-opacity="0.05"/>
<path d="M7597.73 3213.2C7583.6 3217.73 7575.33 3232.13 7575.33 3252.13C7575.33 3278 7593.87 3310.4 7615.33 3322C7621.6 3325.47 7624.13 3326 7632.8 3326C7641.33 3326 7643.6 3325.47 7647.6 3322.67C7658.27 3315.47 7662.8 3302.8 7661.73 3283.2C7659.87 3249.2 7634.27 3215.6 7607.87 3212.8C7604.27 3212.4 7599.73 3212.67 7597.73 3213.2Z" fill="#070707" fill-opacity="0.05"/>
<path d="M7482.13 3237.6C7458.13 3241.73 7450.13 3264.8 7463.33 3291.33C7473.6 3312 7497.07 3331.33 7519.33 3337.33C7528.13 3339.73 7544.27 3339.33 7551.07 3336.67C7563.73 3331.6 7570.4 3317.47 7567.6 3301.47C7565.07 3287.6 7558.93 3276.8 7546.13 3263.87C7526 3243.73 7502.53 3234 7482.13 3237.6Z" fill="#070707" fill-opacity="0.05"/>
<path d="M7436 3332.13C7422.27 3334.27 7409.87 3341.73 7405.47 3350.53C7395.6 3370.13 7411.33 3396.13 7441.6 3410.13C7470.27 3423.6 7503.87 3421.6 7518.13 3405.73C7530.67 3391.87 7527.87 3373.73 7510.53 3356.53C7492.13 3338.27 7461.6 3328.13 7436 3332.13Z" fill="#070707" fill-opacity="0.05"/>
<path d="M7683.73 3333.6C7679.07 3334.13 7669.47 3336.13 7662.4 3338.13C7643.2 3343.33 7636.27 3344.8 7620 3347.33C7584.67 3352.67 7571.73 3359.47 7563.6 3377.07C7556.4 3392.93 7558 3404.13 7572.67 3439.33C7576.93 3449.6 7582.27 3464.53 7584.53 3472.67C7594.53 3507.6 7610.67 3529.07 7630.27 3533.6C7637.73 3535.2 7648.4 3532.8 7655.2 3528C7666.4 3519.87 7670.53 3506.8 7671.73 3476C7673.2 3440.4 7679.47 3430.27 7714.27 3406.8C7734.93 3392.8 7741.33 3384.53 7742.8 3369.6C7743.47 3363.33 7743.07 3360.53 7740.67 3355.07C7737.2 3346.8 7732.93 3342.67 7723.33 3337.87C7715.2 3333.73 7698.4 3332 7683.73 3333.6Z" fill="#070707" fill-opacity="0.05"/>
<path d="M7492 3437.87C7472.93 3442.27 7457.87 3451.2 7450 3462.8C7445.73 3469.07 7445.33 3470.53 7445.33 3479.47C7445.33 3488 7445.73 3489.73 7449.33 3494.93C7453.87 3501.33 7464.67 3508.4 7474.67 3511.47C7485.2 3514.8 7507.33 3514.93 7519.87 3511.87C7555.33 3503.2 7574 3476.93 7559.87 3455.87C7555.47 3449.33 7545.07 3442.4 7534.67 3439.2C7525.47 3436.27 7502.13 3435.6 7492 3437.87Z" fill="#070707" fill-opacity="0.05"/>
<path d="M4662.13 3538.13C4634.13 3548 4610 3583.87 4610 3615.6C4610 3632.93 4616 3645.47 4626.8 3650.8C4648 3661.07 4678.13 3643.73 4694.67 3612C4714.27 3574 4704.27 3536 4674.67 3536.13C4671.07 3536.13 4665.33 3537.07 4662.13 3538.13Z" fill="#070707" fill-opacity="0.05"/>
<path d="M4548.93 3556.27C4527.07 3560.13 4511.2 3590.53 4513.07 3624.53C4514.67 3654.13 4528.13 3674.4 4547.2 3675.73C4565.2 3677.07 4581.07 3660.8 4588 3634C4590.53 3624.13 4590.67 3600.53 4588.13 3591.33C4581.6 3566.53 4566.53 3553.07 4548.93 3556.27Z" fill="#070707" fill-opacity="0.05"/>
<path d="M3170.4 3561.47C3162.67 3563.73 3151.73 3575.2 3146.13 3587.2C3139.2 3601.73 3137.47 3609.87 3137.47 3628C3137.33 3640.13 3138 3645.33 3140.27 3652.67C3144.4 3665.6 3150.8 3675.6 3158.53 3681.2C3167.2 3687.47 3178.67 3688.53 3187.87 3684.13C3201.33 3677.6 3213.2 3658.8 3217.47 3637.33C3223.73 3605.6 3211.87 3570.4 3191.87 3562C3186.53 3559.87 3177.07 3559.6 3170.4 3561.47Z" fill="#070707" fill-opacity="0.05"/>
<path d="M5762 3571.73C5756.67 3576 5757.07 3582.8 5763.87 3602.93C5767.2 3612.93 5770 3623.33 5770 3626C5770 3637.2 5763.87 3641.6 5737.33 3649.33C5720.67 3654.13 5708.27 3660.13 5704.8 3665.2C5697.47 3675.6 5697.87 3689.87 5706 3718C5716.27 3753.87 5713.47 3758.93 5678.53 3766C5656 3770.67 5649.47 3774.13 5644 3784.67C5640.27 3792 5640 3793.33 5640.13 3806.53C5640.27 3816.4 5641.6 3826.93 5644.53 3841.33C5649.73 3867.33 5650.27 3872.93 5648 3878.27C5644.67 3886.13 5637.73 3885.47 5619.6 3875.87C5608.67 3870.13 5603.6 3869.33 5600 3873.33C5590.53 3883.73 5612.4 3902.67 5636.27 3904.53C5645.47 3905.2 5656.27 3902.13 5661.47 3897.2C5673.33 3886.13 5675.2 3869.07 5668 3836.67C5665.47 3825.6 5663.07 3812.8 5662.67 3808C5661.87 3800.4 5662.13 3798.93 5664.53 3795.87C5667.47 3792.13 5669.6 3791.47 5691.33 3787.33C5718.67 3782.13 5732.8 3768.8 5734.8 3746.27C5735.47 3739.6 5734.8 3734.93 5731.47 3722.67C5729.2 3714.27 5726 3702.13 5724.53 3695.73C5720.53 3679.47 5720.8 3679.07 5743.6 3671.87C5780.67 3660.4 5791.87 3651.47 5793.6 3632.13C5794.8 3619.87 5783.07 3579.47 5776.53 3572.93C5772.27 3568.67 5766.4 3568.13 5762 3571.73Z" fill="#070707" fill-opacity="0.05"/>
<path d="M3063.2 3572C3038.93 3576.27 3028.4 3614.67 3041.6 3651.07C3050.67 3676.27 3067.73 3693.47 3086.13 3695.6C3099.47 3697.2 3112 3688.13 3118 3672.53C3122.13 3662.13 3122.53 3637.33 3118.93 3624C3109.87 3590.93 3085.47 3568.13 3063.2 3572Z" fill="#070707" fill-opacity="0.05"/>
<path d="M4744.4 3608.93C4739.87 3609.87 4730.93 3613.07 4724.67 3616.13C4709.33 3623.73 4692.53 3640.27 4685.47 3654.67C4675.73 3674.53 4676.13 3689.73 4686.4 3700.93C4700.93 3716.8 4732.4 3712.67 4758.67 3691.6C4783.73 3671.47 4795.33 3642.53 4785.87 3623.07C4779.6 3610.13 4764.13 3604.93 4744.4 3608.93Z" fill="#070707" fill-opacity="0.05"/>
<path d="M3258.27 3646.53C3226.13 3657.6 3201.47 3703.47 3210.8 3734.8C3214.53 3747.07 3225.87 3756 3238.13 3756C3244.4 3756 3255.07 3752 3263.33 3746.4C3291.73 3727.47 3307.6 3682.8 3294.53 3658.67C3287.2 3645.2 3274.4 3640.93 3258.27 3646.53Z" fill="#070707" fill-opacity="0.05"/>
<path d="M2989.33 3673.6C2956.67 3685.07 2968.4 3738.67 3009.2 3765.47C3034.8 3782.27 3061.87 3778.13 3068.13 3756.27C3074.8 3733.47 3057.87 3699.87 3030.8 3682.4C3017.07 3673.6 2999.87 3669.87 2989.33 3673.6Z" fill="#070707" fill-opacity="0.05"/>
<path d="M4588 3686.67C4569.2 3690.8 4547.6 3694.4 4536 3695.33C4513.87 3696.93 4493.6 3703.87 4481.2 3714C4469.07 3724 4465.33 3740.67 4472.13 3754.4C4478.53 3767.2 4486.27 3771.6 4515.33 3778.8C4554.93 3788.8 4563.2 3796 4580 3836C4590.4 3860.93 4601.47 3870.67 4619.07 3870.67C4628.67 3870.67 4635.87 3867.33 4642.53 3860C4652 3849.47 4656.93 3833.6 4656.8 3814.27C4656.27 3767.2 4655.33 3726.4 4654.67 3721.6C4652.53 3707.47 4642.13 3693.33 4629.6 3687.87C4619.87 3683.6 4603.87 3683.2 4588 3686.67Z" fill="#070707" fill-opacity="0.05"/>
<path d="M3134.13 3716.27C3118.67 3718.93 3108.93 3727.47 3093.33 3752C3087.6 3761.2 3079.47 3773.07 3075.47 3778.4C3071.33 3783.73 3065.2 3791.87 3061.73 3796.4C3043.07 3820.93 3037.07 3845.2 3045.33 3862.13C3049.47 3870.53 3055.87 3875.6 3065.73 3878C3077.07 3880.93 3088 3878.4 3103.33 3868.93C3108.13 3866 3116.53 3860.8 3122.13 3857.33C3145.33 3843.07 3158.13 3842.67 3192.27 3855.2C3215.6 3863.73 3225.07 3865.2 3235.47 3862.13C3250.4 3857.87 3258.8 3846 3258.53 3830C3258.13 3810.67 3246.27 3794 3213.47 3766.67C3207.07 3761.2 3197.2 3751.73 3191.47 3745.6C3169.33 3721.07 3153.2 3712.8 3134.13 3716.27Z" fill="#070707" fill-opacity="0.05"/>
<path d="M4723.6 3728.67C4696.4 3734.8 4672.67 3756.27 4672.67 3774.67C4672.8 3805.6 4722 3817.6 4762.13 3796.53C4797.73 3777.73 4801.2 3742.93 4768.67 3730.4C4759.2 3726.8 4735.87 3725.87 4723.6 3728.67Z" fill="#070707" fill-opacity="0.05"/>
<path d="M1120.4 3755.2C1093.73 3764.8 1071.2 3798.13 1071.07 3828.67C1070.8 3859.07 1092.27 3872.27 1119.47 3858.67C1143.33 3846.53 1162.67 3812.93 1161.33 3785.6C1160.4 3765.33 1149.87 3753.33 1133.47 3753.33C1128.93 3753.47 1123.2 3754.27 1120.4 3755.2Z" fill="#070707" fill-opacity="0.05"/>
<path d="M6652 3762.8C6647.6 3763.33 6626.67 3765.87 6605.33 3768.53C6584.13 3771.2 6554.4 3774.8 6539.33 3776.67C6466.13 3785.6 6455.07 3788.53 6457.33 3798.53C6458.27 3802.8 6459.87 3805.33 6492 3855.33C6502.8 3872.13 6524.93 3906.93 6541.07 3932.67C6587.87 4007.07 6599.33 4023.33 6607.2 4026.67C6615.87 4030.27 6618.13 4026.4 6624.8 3996.53C6636.8 3942.93 6669.87 3789.33 6672.13 3777.07C6674.27 3764.67 6668.8 3760.67 6652 3762.8ZM6645.6 3790.27C6644.93 3792.8 6644.27 3795.6 6638.67 3822.67C6623.6 3895.07 6606.8 3968.93 6603.33 3978L6601.87 3982L6591.07 3965.33C6585.07 3956.13 6563.6 3922.8 6543.33 3891.33C6523.07 3859.73 6503.07 3828.8 6498.93 3822.4C6494.67 3816 6491.33 3810.13 6491.33 3809.47C6491.33 3808.8 6494.13 3807.6 6497.73 3806.93C6506.53 3804.93 6547.2 3799.07 6577.33 3795.33C6586.93 3794.27 6603.33 3792.13 6614 3790.8C6624.67 3789.33 6636.27 3788.27 6639.73 3788.13C6645.2 3788 6646.13 3788.4 6645.6 3790.27Z" fill="#070707" fill-opacity="0.05"/>
<path d="M1223.07 3791.33C1197.33 3798.8 1174.27 3818.4 1165.87 3840C1161.87 3850 1161.73 3862.8 1165.6 3870C1169.07 3876.67 1171.87 3879.2 1179.6 3882.67C1210.8 3896.4 1262.93 3868.93 1275.2 3832.27C1286 3800.13 1260.8 3780.27 1223.07 3791.33Z" fill="#070707" fill-opacity="0.05"/>
<path d="M1014.27 3864.27C1005.87 3865.47 996 3870.27 991.067 3875.6C979.867 3887.33 980.933 3907.73 993.467 3922.53C995.6 3925.07 1004 3932.67 1012.13 3939.47C1028.8 3953.33 1033.87 3959.07 1038.67 3969.73C1043.33 3979.87 1045.07 3990.8 1044.13 4003.73C1041.6 4034.93 1043.87 4049.47 1052.27 4058.8C1059.2 4066.53 1066.4 4069.87 1076 4069.87C1096.13 4070.13 1114.53 4052.53 1128 4020.67C1138 3996.8 1140.67 3991.07 1149.33 3975.33C1164.93 3946.67 1167.07 3931.87 1157.87 3914.67C1149.87 3899.47 1141.07 3894.53 1105.73 3885.2C1094.93 3882.4 1079.33 3877.47 1071.07 3874.27C1046.27 3864.53 1030.53 3861.87 1014.27 3864.27Z" fill="#070707" fill-opacity="0.05"/>
<path d="M2232 3882.67C2226.53 3883.6 2223.87 3889.6 2222 3904.67C2218.27 3936.53 2216.13 3950.13 2215.07 3951.6C2213.47 3953.6 2205.2 3954.4 2182 3955.07C2167.33 3955.47 2162.67 3956.13 2157.6 3958.4C2154.13 3960 2150.93 3962.13 2150.53 3963.2C2148.93 3967.2 2149.07 3970.13 2150.8 3973.6C2154 3979.73 2165.73 3981.47 2186.27 3978.67C2204.53 3976.27 2207.73 3976.13 2210.27 3977.47C2213.2 3979.07 2213.2 3977.2 2209.33 4007.33C2206.27 4031.07 2206.13 4033.73 2208.13 4037.47C2210.27 4041.73 2216.4 4044.13 2221.6 4042.8C2227.6 4041.33 2229.47 4035.33 2233.2 4004.67C2235.07 3989.33 2237.07 3976.4 2237.73 3975.87C2238.8 3974.8 2247.6 3974 2288 3971.33C2294.67 3970.8 2301.2 3970.13 2302.67 3969.73C2311.33 3967.47 2314.4 3956.67 2308 3950.67C2304.8 3947.6 2304.53 3947.6 2283.07 3948.67C2271.07 3949.2 2256.8 3949.73 2251.33 3949.87L2241.33 3950L2241.2 3944.27C2241.2 3941.07 2241.87 3932.93 2242.93 3926.27C2246.13 3904.13 2246.67 3889.87 2244.27 3886.27C2242 3882.67 2238 3881.47 2232 3882.67Z" fill="#070707" fill-opacity="0.05"/>
<path d="M1258.67 3887.33C1238.67 3890.4 1223.2 3897.6 1211.07 3909.6C1201.6 3918.8 1197.87 3926.53 1197.87 3937.33C1197.6 3975.87 1269.2 3983.6 1307.73 3949.2C1322 3936.53 1326.4 3919.2 1318.8 3906.13C1309.73 3890.67 1285.73 3883.2 1258.67 3887.33Z" fill="#070707" fill-opacity="0.05"/>
<path d="M196 3942.67C181.733 3945.73 169.467 3960.67 164 3981.33C160.667 3993.6 160.933 4014.93 164.533 4028.4C176.4 4073.73 215.867 4083.87 234.8 4046.53C248.533 4019.33 245.067 3978.4 227.2 3955.87C219.733 3946.4 206 3940.67 196 3942.67Z" fill="#070707" fill-opacity="0.05"/>
<path d="M303.333 3959.87C286.8 3964.93 269.866 3984.27 262 4007.47C255.866 4025.2 255.733 4048.27 261.866 4062C264.933 4068.93 271.866 4076.8 277.2 4079.6C283.866 4083.07 296.266 4082.53 304.933 4078.27C346.8 4057.73 359.466 3976 323.066 3960.8C317.866 3958.53 308.933 3958.13 303.333 3959.87Z" fill="#070707" fill-opacity="0.05"/>
<path d="M1183.73 3985.33C1169.87 3988.27 1158.27 3995.73 1153.73 4004.4C1145.87 4019.87 1153.47 4038 1173.07 4050.4C1188.27 4059.87 1202.67 4064.13 1220.67 4064.13C1243.33 4064.13 1259.87 4056.8 1267.07 4043.33C1270.27 4037.47 1269.87 4024.67 1266.4 4017.87C1259.87 4005.47 1243.6 3993.6 1225.33 3988C1214.8 3984.8 1192.8 3983.33 1183.73 3985.33Z" fill="#070707" fill-opacity="0.05"/>
<path d="M7586.8 4004.67C7583.33 4008.4 7582.4 4012 7581.33 4026C7579.73 4047.07 7579.07 4051.33 7576.67 4056C7575.33 4058.53 7572.8 4061.47 7571.07 4062.4C7566.53 4064.93 7556.27 4065.2 7541.87 4063.33C7510.27 4059.2 7498.93 4062.4 7491.33 4077.73C7487.07 4086.4 7484.8 4096.67 7481.6 4121.6C7479.47 4138 7476.53 4144.67 7470 4148.27C7463.87 4151.47 7457.47 4151.33 7438.27 4147.33C7418.27 4143.2 7413.73 4143.2 7405.07 4147.2C7392.4 4153.2 7385.6 4167.2 7378 4203.33C7372.93 4227.07 7370.67 4234.27 7366.93 4238.27C7361.2 4244.53 7354.13 4240.93 7341.33 4225.33C7332.4 4214.53 7328.53 4212.67 7322.53 4216.67C7312.67 4223.07 7326.93 4248.93 7345.87 4258.53C7357.6 4264.67 7371.87 4263.47 7381.33 4255.73C7391.33 4247.47 7395.73 4236.8 7401.33 4207.47C7405.73 4184.53 7409.2 4173.2 7412.67 4170C7416.13 4166.8 7420.8 4166.93 7436 4170.67C7449.33 4173.87 7465.2 4174.53 7473.33 4172.27C7486.8 4168.4 7497.07 4157.73 7501.47 4143.33C7502.53 4139.6 7504.67 4127.47 7506.13 4116.13C7508.93 4094.53 7510.93 4087.73 7514.93 4085.6C7517.47 4084.4 7526.53 4084.67 7540 4086.67C7544.4 4087.33 7554.13 4087.6 7561.47 4087.47C7573.2 4087.2 7576 4086.67 7582.53 4083.47C7598 4075.87 7601.73 4066.27 7605.47 4023.2C7606.4 4012.53 7604.53 4004.8 7600.67 4002.67C7596.13 4000.27 7590.13 4001.07 7586.8 4004.67Z" fill="#070707" fill-opacity="0.05"/>
<path d="M95.8666 4025.2C84.9333 4030.27 79.3333 4041.87 79.3333 4059.6C79.3333 4074 80.9333 4080.53 88.2666 4095.73C100.933 4122.27 126.933 4139.87 146 4134.67C170.133 4128.13 174.533 4089.87 155.067 4056.67C139.733 4030.8 113.6 4016.8 95.8666 4025.2Z" fill="#070707" fill-opacity="0.05"/>
<path d="M359.866 4065.33C338 4072.27 316.666 4093.73 308.533 4116.8C306.4 4122.93 305.866 4127.07 306.266 4136.13C306.666 4146.8 307.066 4148.27 310.8 4152.93C312.933 4155.73 317.466 4159.33 320.8 4161.07C325.866 4163.73 328.133 4164.13 337.466 4163.73C346.8 4163.2 349.866 4162.4 359.6 4157.73C386.133 4144.93 406 4116.93 406 4092.4C405.866 4067.87 386.933 4056.8 359.866 4065.33Z" fill="#070707" fill-opacity="0.05"/>
<path d="M222.266 4100.8C209.733 4104 202.933 4108.93 180 4130.67C172.4 4137.87 160.8 4147.73 154.266 4152.53C137.866 4164.53 123.333 4180.13 118 4191.33C110 4208 111.2 4223.33 121.2 4233.6C128.533 4241.2 134.4 4243.33 147.333 4243.33C157.333 4243.33 160.933 4242.53 178.666 4236.67C197.333 4230.4 199.6 4230 212 4230C224 4230 226.266 4230.4 233.866 4234C238.666 4236.13 247.866 4241.73 254.533 4246.53C278.533 4263.47 289.6 4267.87 302.8 4265.47C319.333 4262.4 328.933 4249.87 328.8 4231.87C328.666 4214.27 321.466 4197.2 305.466 4175.47C296.266 4163.2 293.066 4158.13 277.066 4130.4C273.466 4124.4 267.6 4116.4 263.733 4112.53C252.8 4101.47 237.066 4096.93 222.266 4100.8Z" fill="#070707" fill-opacity="0.05"/>
<path d="M3838.4 4127.73C3836.67 4128 3834.27 4129.6 3832.8 4131.47C3830 4135.07 3829.07 4141.47 3828 4166.67C3827.07 4186.8 3826.27 4194.8 3824.8 4196.27C3824.4 4196.8 3813.33 4194.67 3800.4 4191.47C3774.13 4184.8 3768.27 4183.87 3763.2 4185.6C3759.6 4186.8 3756.67 4191.47 3756.67 4196.13C3756.67 4203.87 3761.6 4206.13 3796.67 4214.67C3809.47 4217.73 3821.07 4220.93 3822.4 4221.6C3825.2 4223.07 3825.33 4230.8 3823.2 4254C3821.33 4272.67 3822.27 4281.33 3826.53 4286.27C3830.13 4290.4 3836.8 4290.8 3840.8 4287.2C3844.8 4283.6 3846.13 4276.67 3846.93 4254C3847.33 4242.27 3848.13 4231.73 3848.8 4230.53C3850.13 4227.87 3853.2 4228.4 3879.73 4235.33C3902.67 4241.33 3908.13 4241.6 3912.27 4236.8C3916.13 4232.27 3916.13 4226.4 3912.4 4222C3909.87 4219.2 3904.93 4217.47 3881.2 4211.47C3865.6 4207.6 3852.27 4203.87 3851.33 4203.33C3849.73 4202.27 3849.87 4189.47 3852.13 4148.67C3852.53 4140.4 3852.27 4135.73 3851.07 4133.47C3849.07 4129.73 3842.8 4126.93 3838.4 4127.73Z" fill="#070707" fill-opacity="0.05"/>
<path d="M4698.27 4263.6C4694 4265.33 4692.67 4272.27 4690.53 4301.6C4689.33 4318 4687.73 4332 4687.07 4332.93C4685.33 4335.07 4674.93 4336.93 4660 4338C4635.33 4339.6 4624.53 4343.2 4622.67 4350.27C4621.33 4355.73 4624.27 4360.93 4629.73 4362.8C4635.33 4364.67 4651.73 4363.73 4666.27 4360.67C4672 4359.47 4678.53 4358.67 4680.93 4358.93L4685.33 4359.33L4685.2 4369.33C4685.2 4374.8 4684.67 4388 4684 4398.67C4683.07 4417.33 4683.2 4418.13 4685.87 4420.93C4688.8 4424 4690.4 4424.53 4696.67 4424.27C4700.4 4424.13 4706 4418.4 4706 4414.8C4706 4412.67 4706.8 4402.4 4709.47 4367.33C4709.87 4361.47 4710.53 4356.27 4710.8 4355.87C4711.07 4355.33 4714.8 4354.53 4718.93 4354.13C4745.33 4350.93 4775.87 4346.4 4777.87 4345.33C4784.13 4342 4785.73 4332.53 4780.93 4327.73C4777.2 4323.87 4770.13 4323.87 4743.33 4327.47C4730.53 4329.2 4718.27 4330.53 4716.13 4330.67H4712.27L4713.47 4311.6C4714.13 4301.2 4714.67 4287.07 4714.67 4280.27C4714.67 4268.8 4714.4 4267.6 4711.47 4265.2C4708.53 4262.8 4702.13 4262 4698.27 4263.6Z" fill="#070707" fill-opacity="0.05"/>
<path d="M6111.73 4582.8C6084.27 4596.4 6072 4649.47 6088.67 4683.47C6111.73 4730.8 6162.93 4700.27 6163.07 4638.93C6163.07 4612.4 6152.67 4589.47 6137.33 4582.53C6130 4579.2 6118.8 4579.33 6111.73 4582.8Z" fill="#070707" fill-opacity="0.05"/>
<path d="M6002.67 4592.4C5987.6 4599.33 5979.07 4618 5980 4642C5980.93 4664.27 5989.87 4686.53 6003.73 4700.4C6014 4710.8 6022.53 4715.07 6032.93 4714.93C6045.47 4714.8 6053.47 4709.33 6059.73 4696.67C6075.73 4664.4 6059.07 4610.13 6028.4 4594.53C6021.33 4590.93 6008.27 4589.87 6002.67 4592.4Z" fill="#070707" fill-opacity="0.05"/>
<path d="M1834.53 4633.2C1832.13 4633.73 1828.13 4635.6 1825.47 4637.2C1810.93 4646.27 1808.4 4671.47 1819.73 4695.87C1828.8 4715.73 1848.93 4735.2 1866.8 4741.47C1874.8 4744.27 1890.27 4744.8 1896.27 4742.53C1910.53 4737.2 1917.47 4716.8 1912 4696C1905.87 4672.13 1886.93 4648.8 1866 4638.8C1854 4633.2 1842.67 4631.07 1834.53 4633.2Z" fill="#070707" fill-opacity="0.05"/>
<path d="M1951.6 4637.47C1938.67 4644 1931.07 4661.2 1931.07 4684.13C1931.07 4719.6 1953.73 4753.33 1977.73 4753.6C2014.53 4753.87 2023.07 4685.73 1990.8 4648.4C1980 4636 1963.47 4631.33 1951.6 4637.47Z" fill="#070707" fill-opacity="0.05"/>
<path d="M2817.33 4648.67C2772.67 4657.2 2733.6 4692.27 2722.4 4733.87C2719.47 4744.8 2719.6 4766 2722.53 4777.2C2727.2 4794.53 2738.27 4812.13 2753.47 4826.8C2771.07 4843.6 2791.6 4854.4 2814 4858.67C2824.4 4860.67 2848.8 4860.4 2858.8 4858C2884.27 4852.13 2904.53 4837.33 2914.8 4817.07C2925.6 4795.73 2923.6 4765.33 2910.13 4744.4C2899.87 4728.53 2887.2 4719.33 2869.2 4714.53C2845.73 4708.4 2822.27 4715.2 2806.27 4732.67C2797.07 4742.67 2793.6 4752.27 2794.27 4764.67C2795.33 4780.93 2802.8 4792.93 2816.13 4799.47C2822.4 4802.53 2824.53 4802.93 2831.33 4802.27C2849.87 4800.67 2862.27 4786 2856 4772.93C2851.73 4763.87 2841.73 4763.73 2836.53 4772.67C2827.07 4788.67 2812 4768.93 2820.67 4751.87C2823.73 4745.87 2832.8 4739.47 2841.33 4737.2C2850.27 4734.67 2864.53 4736.4 2872.53 4740.67C2895.2 4753.07 2904.8 4782.8 2893.47 4805.87C2878.27 4836.93 2833.73 4846.4 2794 4827.07C2783.33 4821.73 2779.47 4818.93 2769.33 4808.8C2755.6 4794.93 2748.53 4782.93 2745.33 4767.33C2742.8 4755.47 2742.93 4749.47 2745.33 4738.8C2748.8 4724.4 2755.6 4713.33 2768.53 4700.93C2794.93 4676 2831.07 4664.27 2858 4672C2872.8 4676.27 2877.47 4676.67 2881.33 4674.13C2883.73 4672.53 2884.67 4670.8 2884.67 4667.47C2884.67 4653.07 2847.73 4642.8 2817.33 4648.67Z" fill="#070707" fill-opacity="0.05"/>
<path d="M5247.2 4659.47C5245.87 4662.8 5246.4 4703.2 5248 4721.07C5248.13 4723.47 5248.67 4738.8 5249.2 4755.07C5249.73 4771.33 5250.27 4790.4 5250.67 4797.33C5250.93 4804.27 5251.6 4822.53 5252 4838C5253.33 4888.13 5254.67 4910 5257.33 4923.2C5260.53 4938.4 5265.87 4941.07 5275.6 4932.27C5282.53 4926 5415.2 4782.67 5441.07 4753.47C5450.53 4742.8 5448.93 4735.33 5435.6 4729.73C5432.93 4728.67 5399.07 4714 5360.53 4697.33C5280.27 4662.53 5266.93 4657.33 5256.4 4656.27C5248.93 4655.6 5248.67 4655.73 5247.2 4659.47ZM5297.2 4696.13C5339.33 4713.07 5414 4745.73 5414 4747.2C5414 4748.93 5324.13 4846.8 5295.73 4875.87C5286.8 4885.07 5279.2 4892.4 5278.93 4892C5278.53 4891.6 5277.87 4880.27 5277.47 4866.67C5276.93 4853.07 5276.27 4837.2 5276 4831.33C5275.47 4821.2 5274.93 4809.87 5273.33 4769.33C5272.93 4759.47 5272.4 4745.33 5272 4738C5271.6 4730.67 5270.93 4716 5270.53 4705.47L5269.73 4686.27L5273.47 4687.2C5275.6 4687.73 5286.27 4691.73 5297.2 4696.13Z" fill="#070707" fill-opacity="0.05"/>
<path d="M6202.4 4666.53C6183.73 4672.93 6166.93 4690.8 6157.73 4713.87C6154 4723.6 6153.47 4726.13 6153.47 4739.33C6153.33 4753.2 6153.6 4754.4 6157.33 4761.33C6162.8 4771.2 6170 4775.33 6182 4775.33C6189.2 4775.33 6192.27 4774.53 6199.73 4770.93C6240.8 4750.67 6258.4 4683.07 6226.8 4667.33C6218.93 4663.33 6212 4663.2 6202.4 4666.53Z" fill="#070707" fill-opacity="0.05"/>
<path d="M5936 4691.87C5906.27 4699.2 5907.2 4741.07 5937.87 4772C5978.8 4813.2 6026.27 4795.73 6009.87 4745.6C5999.33 4713.47 5961.2 4685.73 5936 4691.87Z" fill="#070707" fill-opacity="0.05"/>
<path d="M1760.67 4715.87C1734.4 4723.87 1730.8 4752.27 1752.8 4778.67C1774.93 4805.33 1815.87 4818.53 1839.47 4806.53C1864.13 4794.13 1857.87 4757.2 1826.93 4733.87C1817.07 4726.4 1800.13 4718.13 1790.27 4716.13C1782.4 4714.53 1765.73 4714.4 1760.67 4715.87Z" fill="#070707" fill-opacity="0.05"/>
<path d="M7573.33 4732.4C7570.93 4736.13 7571.07 4735.6 7559.33 4806.67C7554.27 4837.87 7547.33 4878.93 7544 4898C7528.4 4988.53 7527.07 5005.2 7535.87 5007.47C7542.13 5008.93 7538.4 5011.47 7651.33 4930.27C7742 4864.93 7750.27 4858.8 7752.13 4854.8C7754.67 4849.87 7751.87 4844.4 7744.13 4838.53C7733.6 4830.53 7629.87 4758.13 7612 4746.27C7585.47 4728.67 7577.6 4725.87 7573.33 4732.4ZM7622.27 4782.4C7666.27 4811.73 7718.67 4848.93 7718.67 4850.93C7718.67 4852.4 7688.67 4874.67 7630 4916.53C7585.33 4948.53 7559.47 4966 7558.4 4964.93C7558 4964.4 7559.2 4954.53 7561.07 4943.07C7564.27 4924.13 7570 4889.07 7578 4839.33C7586 4789.87 7590.27 4764.67 7590.8 4763.87C7591.6 4762.53 7599.73 4767.33 7622.27 4782.4Z" fill="#070707" fill-opacity="0.05"/>
<path d="M6074.53 4736.4C6060.13 4740.13 6051.6 4748.53 6033.33 4776.67C6026.13 4787.6 6016.53 4801.2 6012 4806.67C6007.47 4812.13 6001.33 4820.4 5998.27 4824.93C5977.87 4856.67 5981.2 4888.4 6006 4896.67C6019.87 4901.33 6032.67 4897.73 6054.8 4883.33C6084.93 4863.73 6098.4 4861.47 6125.73 4871.47C6162.27 4884.8 6166.4 4885.6 6178.8 4882C6188.53 4879.2 6198.27 4870.13 6200.53 4862C6206.4 4840.53 6194.53 4817.87 6163.73 4792.13C6155.73 4785.6 6141.47 4772.13 6131.87 4762.27C6118 4748 6112.8 4743.6 6105.87 4740.13C6095.73 4735.2 6084.53 4733.87 6074.53 4736.4Z" fill="#070707" fill-opacity="0.05"/>
<path d="M983.6 4740.8C952.933 4751.2 932.4 4778.13 932.533 4807.87C932.533 4820.93 934.267 4828.67 939.867 4839.73C950.667 4860.93 974.4 4875.2 994.667 4872.67C1029.87 4868.27 1045.6 4825.2 1018.27 4807.87C1007.6 4801.07 999.333 4801.07 992.533 4808C985.2 4815.33 988.533 4824.53 999.333 4826.4C1003.73 4827.2 1005.73 4828.27 1007.2 4830.93C1009.07 4834.13 1009.07 4834.93 1007.07 4839.2C1004.27 4844.8 996.267 4849.33 989.067 4849.33C973.333 4849.2 957.467 4831.47 955.733 4812C953.467 4787.87 975.867 4763.07 1001.73 4760.8C1028.8 4758.53 1056.13 4782.8 1063.87 4816C1066.53 4827.2 1066.53 4850.13 1063.87 4861.33C1056.8 4891.73 1032.4 4917.6 1005.47 4923.33C988.933 4926.8 971.067 4923.6 952.933 4914C938 4906 925.867 4896.13 916.4 4884.27C904 4868.67 898.8 4856.27 897.2 4839.2C896.533 4832.4 895.467 4828.13 893.733 4826C888.8 4819.73 879.333 4822.93 877.2 4831.47C875.467 4838.27 877.6 4859.2 881.067 4869.2C893.333 4904.27 926.933 4933.6 967.2 4944.27C980.8 4947.87 1004.53 4948.13 1016.67 4944.93C1050.27 4936 1075.87 4907.6 1086.27 4867.73C1090.13 4853.07 1090.53 4823.6 1086.93 4810.8C1080.93 4789.07 1073.2 4775.33 1058.67 4760.67C1047.47 4749.33 1034.53 4741.6 1022 4738.8C1010.8 4736.27 994.267 4737.07 983.6 4740.8Z" fill="#070707" fill-opacity="0.05"/>
<path d="M6866.93 4754C6848.67 4758.67 6830.4 4772.4 6822.27 4787.73C6808.53 4813.47 6812.13 4844.13 6831.2 4863.6C6840.4 4872.93 6849.47 4876.67 6862.67 4876.53C6879.07 4876.4 6891.87 4869.33 6898.27 4856.8C6904 4845.87 6900.93 4828.4 6892.13 4820.13C6883.2 4811.73 6867.33 4815.6 6867.33 4826.27C6867.33 4829.73 6868.53 4832 6872.67 4836C6877.6 4840.8 6877.87 4841.47 6876.53 4845.33C6873.6 4853.6 6861.73 4855.87 6851.87 4850C6833.33 4839.07 6832.53 4806.93 6850.53 4789.47C6860.53 4779.73 6878.13 4773.6 6890.8 4775.33C6918.67 4779.07 6936.93 4802.27 6936.8 4834C6936.8 4868.53 6917.2 4900.13 6886 4916.53C6852.13 4934.27 6818 4926.8 6794.4 4896.8C6770.8 4866.53 6763.6 4826.53 6776.67 4797.73C6782.4 4785.07 6782.13 4778.4 6775.87 4775.87C6767.47 4772.8 6757.6 4783.73 6751.6 4802.67C6747.6 4815.47 6747.07 4819.07 6747.07 4833.87C6747.2 4884.53 6784.13 4935.07 6830.13 4947.47C6835.87 4949.07 6843.33 4949.73 6852.8 4949.73C6864.8 4949.6 6868.67 4949.07 6879.47 4945.33C6928.8 4928.93 6964 4877.6 6960.27 4827.87C6957.47 4792.8 6939.87 4766.67 6911.6 4756C6901.6 4752.13 6878.27 4751.07 6866.93 4754Z" fill="#070707" fill-opacity="0.05"/>
<path d="M1916.53 4771.07C1902.8 4775.07 1893.6 4782.93 1887.6 4796C1882.93 4806 1883.07 4821.73 1887.87 4847.87C1889.87 4858.4 1891.73 4873.6 1892.13 4881.87C1893.73 4911.6 1900 4932.27 1911.6 4944.8C1922.4 4956.67 1937.33 4959.73 1950.8 4952.93C1963.2 4946.67 1968.4 4937.73 1975.47 4911.33C1981.07 4890.13 1985.6 4880.27 1994.27 4871.2C2002.93 4862 2007.47 4859.33 2029.33 4850.67C2038.93 4846.93 2048.8 4842.53 2051.33 4841.07C2079.2 4824.53 2077.33 4791.33 2047.87 4777.73C2036.27 4772.53 2023.33 4770.4 2004 4770.67C1994.53 4770.8 1983.73 4770.93 1980 4771.07C1976.4 4771.07 1962 4770.67 1948 4770.27C1928.93 4769.6 1921.2 4769.73 1916.53 4771.07Z" fill="#070707" fill-opacity="0.05"/>
<path d="M4598.53 4824.13C4593.87 4826.4 4591.47 4832.53 4587.87 4850.13C4584.4 4867.73 4581.73 4874.8 4576.67 4879.33C4572.53 4883.07 4563.47 4882.53 4542.27 4877.33C4523.33 4872.67 4510 4871.87 4503.73 4875.2C4493.2 4880.53 4486 4894.13 4479.47 4920.8C4470.8 4955.6 4464.53 4959.33 4432.27 4948C4405.73 4938.8 4397.2 4939.47 4385.6 4951.87C4378.13 4959.87 4373.33 4969.07 4365.47 4991.33C4362 5000.8 4357.73 5012.4 4355.87 5017.07C4351.87 5026.53 4346.27 5032.13 4341.87 5031.07C4337.73 5029.87 4331.07 5022.8 4325.33 5013.07C4318.27 5001.33 4316.93 5000 4312 5000C4293.47 5000 4305.87 5036 4328.53 5047.6C4343.07 5055.2 4355.47 5053.2 4367.47 5041.73C4374.4 5035.07 4378.13 5027.47 4386.4 5003.33C4395.07 4978 4396.8 4973.87 4400.67 4968.93C4404.53 4964 4407.47 4964.27 4428.53 4971.47C4445.33 4977.33 4447.07 4977.6 4457.2 4977.07C4470.13 4976.4 4478.93 4972.4 4486.53 4964C4493.33 4956.53 4495.6 4950.93 4502 4926.67C4507.6 4905.73 4508.8 4902.4 4512.4 4898.27C4515.07 4895.2 4517.2 4895.33 4536.67 4900C4560.27 4905.6 4573.87 4906.4 4583.6 4902.8C4591.87 4899.6 4599.6 4892.27 4602.93 4884.27C4606.8 4874.93 4612.8 4849.73 4613.6 4839.2C4614.4 4828.67 4614.27 4828.4 4610.67 4825.6C4606.67 4822.4 4603.07 4822 4598.53 4824.13Z" fill="#070707" fill-opacity="0.05"/>
<path d="M1796.93 4830.93C1770.93 4833.87 1754 4847.6 1754 4865.47C1754 4888.93 1783.07 4908 1819.07 4908C1843.87 4908 1862.67 4899.73 1870.4 4885.47C1886.27 4856.4 1844.53 4825.33 1796.93 4830.93Z" fill="#070707" fill-opacity="0.05"/>
<path d="M3612.93 4836.8C3609.07 4839.47 3605.2 4847.2 3597.33 4867.87C3589.73 4888.13 3586.13 4896 3584.53 4896C3583.07 4896 3582.53 4895.73 3558.67 4880.27C3532.53 4863.47 3525.73 4862 3521.47 4872.27C3517.73 4881.07 3521.33 4885.2 3546.67 4900.67C3575.73 4918.67 3575.73 4918.53 3574.93 4924C3574.67 4926.53 3571.47 4934.93 3568 4942.67C3555.73 4969.87 3554 4978.8 3560 4984.67C3564.13 4988.93 3568.8 4988.93 3573.73 4984.67C3578.4 4980.8 3582.13 4973.2 3588 4956C3593.07 4940.93 3596.13 4934.67 3598.4 4934.67C3599.33 4934.67 3605.73 4938.4 3612.67 4942.93C3634.67 4957.2 3646.4 4964 3648.8 4964C3658 4964 3663.87 4953.2 3658.67 4945.73C3657.6 4944.13 3645.6 4935.87 3632 4927.2C3615.2 4916.53 3607.33 4910.8 3607.33 4909.2C3607.33 4907.87 3612.4 4893.87 3618.67 4878.13C3624.93 4862.27 3630 4847.87 3630 4845.87C3630 4841.6 3623.33 4834.67 3619.07 4834.67C3617.33 4834.67 3614.53 4835.6 3612.93 4836.8Z" fill="#070707" fill-opacity="0.05"/>
<path d="M126.533 4852.67C115.6 4857.2 116.666 4863.2 133.866 4891.87C150.933 4920.53 150.933 4920.4 148.266 4924.4C147.2 4926.13 138.8 4933.47 129.866 4940.8C113.6 4953.87 106 4962.8 106 4968.8C106 4973.47 110.933 4978.67 115.466 4978.67C122.133 4978.67 129.333 4973.87 145.466 4958.67C153.866 4950.53 161.333 4944 161.866 4944C164 4944 168.666 4950.67 179.866 4969.73C186.266 4980.67 192.666 4990.67 194.133 4992.13C197.866 4995.87 205.333 4995.47 209.333 4991.33C215.333 4985.47 214.133 4981.73 197.466 4953.33C189.066 4939.07 182.533 4926.8 183.066 4925.87C183.6 4925.07 193.066 4916.53 204 4906.8C231.333 4882.67 232.666 4881.2 232.666 4874.93C232.666 4865.33 223.466 4861.07 214.666 4866.4C212.533 4867.73 203.6 4875.2 195.066 4883.07C179.2 4897.33 171.066 4904 169.6 4904C168.533 4904 161.466 4892.93 150.8 4874.4C139.066 4853.87 134.133 4849.47 126.533 4852.67Z" fill="#070707" fill-opacity="0.05"/>
</svg>
