<svg width="430" height="122" viewBox="0 0 430 122" fill="none" xmlns="http://www.w3.org/2000/svg">
<path d="M277.389 76.2261C277.381 73.6289 277.975 72.1443 278.953 69.7154C279.312 68.8216 279.72 67.8084 280.166 66.5695C281.886 61.7904 278.916 58.3804 278.886 58.3465C278.803 58.253 278.668 58.2257 278.555 58.2777C278.441 58.33 278.375 58.4509 278.393 58.5748C278.396 58.5993 278.707 61.06 276.85 64.7401C275.237 67.9369 276.219 73.609 276.655 75.6644C276.034 75.2158 275.389 74.8001 274.761 74.395C274.118 73.9811 273.454 73.553 272.83 73.0981C271.727 72.2956 270.72 71.3702 269.815 70.3528C269.96 68.4412 272.12 64.901 275.779 60.5958C279.162 56.6149 276.457 48.8778 276.34 48.5506C276.293 48.4184 276.156 48.3408 276.019 48.3667C275.882 48.3931 275.784 48.5156 275.788 48.6558C275.869 51.0381 273.909 55.6634 270.269 61.6792C268.409 64.7535 268.543 67.5906 268.863 69.1991C267.288 67.1384 266.101 64.7714 265.369 62.2739C265.639 60.3951 267.774 56.7449 271.402 51.9706C274.426 47.9897 271.853 41.9606 271.742 41.7059C271.688 41.5805 271.551 41.5117 271.418 41.5421C271.285 41.5725 271.192 41.6936 271.197 41.8301C271.2 41.8816 271.354 47.0266 268.049 51.0137C265.755 53.7809 265.067 57.7421 264.866 60.1697C264.514 58.2661 264.424 56.3184 264.626 54.3998C265.061 53.0466 266.433 48.2419 266.001 42.6631C265.495 36.1373 264.272 30.735 264.26 30.681C264.231 30.555 264.121 30.4644 263.992 30.4601C263.862 30.4541 263.747 30.5397 263.71 30.6636C263.687 30.7418 261.406 38.5415 262.017 44.1948C262.625 49.8145 263.943 54.7085 263.957 54.7571C263.968 54.7972 263.989 54.8313 264.015 54.8623C263.843 57.0618 264.038 59.2895 264.561 61.4427C263.548 60.4158 261.61 58.1544 260.061 54.5701C257.813 49.3674 250.536 43.8625 250.228 43.6308C250.125 43.5537 249.983 43.5551 249.882 43.6342C249.781 43.7132 249.745 43.8505 249.795 43.9688C249.822 44.0319 252.502 50.3339 256.297 56.1629C259.777 61.5072 263.94 62.4289 264.865 62.571C265.59 64.9846 266.728 67.2771 268.224 69.2958C265.954 67.9625 261.408 65.72 257.118 66.1709C251.358 66.7739 247.982 66.3819 247.949 66.3776C247.822 66.3631 247.703 66.4319 247.653 66.5479C247.604 66.6644 247.636 66.7992 247.734 66.8794C248.015 67.1102 254.576 72.4565 259.647 72.4565C259.718 72.4565 259.789 72.4553 259.86 72.4534C264.351 72.3169 268.549 71.0615 269.437 70.7809C270.357 71.8089 271.378 72.7445 272.495 73.5581C273.133 74.022 273.804 74.4547 274.453 74.8729C274.663 75.0085 274.876 75.1455 275.088 75.2846C273.018 74.722 269.633 74.3606 265.686 76.0982C259.54 78.8034 254.588 76.1368 254.538 76.1096C254.415 76.0419 254.26 76.0737 254.175 76.186C254.089 76.2978 254.099 76.4555 254.197 76.5564C254.242 76.6031 258.094 80.4873 263.729 80.487C264.768 80.4867 265.869 80.3545 267.016 80.0418C270.497 79.0934 272.052 78.1439 273.187 77.4508C274.388 76.7176 275.002 76.3455 276.985 76.6292C278.57 77.8943 279.572 79.2614 279.957 80.6934C279.992 80.8202 280.106 80.9037 280.232 80.9037C280.256 80.9037 280.281 80.9009 280.306 80.8941C280.458 80.8534 280.547 80.6974 280.506 80.5458C280.093 79.0098 279.041 77.5577 277.389 76.2261Z" fill="#F0F8FF" fill-opacity="0.18"/>
<path d="M346.749 48.7004L347.042 48.4073C347.895 47.5579 348.707 46.6698 349.493 45.8109C349.582 45.7134 349.675 45.6128 349.765 45.5144C356.48 41.9182 360.865 28.6125 361.048 28.0465C361.096 27.8981 361.016 27.7386 360.868 27.6891C360.72 27.6402 360.56 27.7187 360.509 27.8663C360.186 28.8064 359.515 29.6575 358.799 30.5192C358.094 31.3658 357.294 32.1539 356.519 32.916C355.371 34.0463 354.183 35.215 353.264 36.6146C351.617 39.1206 350.259 42.0695 349.332 45.1449C349.247 45.2387 349.158 45.3342 349.073 45.4272C348.292 46.2814 347.484 47.1647 346.641 48.0048L346.347 48.2979C345.644 48.9986 344.93 49.7119 344.218 50.4331C344.957 48.6214 345.929 45.4704 345.291 42.5402C344.382 38.3612 345.475 34.3187 345.486 34.2783C345.521 34.1518 345.465 34.0182 345.35 33.9542C345.236 33.8906 345.093 33.9124 345.004 34.0088C344.887 34.1345 342.15 37.147 342.584 42.6232C342.67 43.705 342.749 44.6354 342.817 45.449C343.089 48.6549 343.204 50.0161 342.997 51.6834C342.586 52.1096 342.178 52.538 341.776 52.9695C340.647 54.1829 339.371 55.6214 338.114 57.2546C338.447 55.6253 338.866 52.7145 338.507 49.5052C337.976 44.7685 339.445 41.3408 339.46 41.307C339.515 41.1822 339.473 41.0361 339.361 40.9587C339.249 40.8817 339.097 40.8948 339 40.99C338.887 41.1017 336.223 43.7749 336.223 48.4832C336.223 51.3198 336.59 53.6751 336.885 55.5676C337.062 56.7031 337.214 57.687 337.228 58.4449C335.717 60.5446 334.293 62.9247 333.25 65.5333C333.265 63.8256 333.116 61.0873 332.26 58.2132C330.901 53.6444 331.741 50.0115 331.749 49.9752C331.781 49.843 331.714 49.7065 331.59 49.6502C331.466 49.5945 331.319 49.6337 331.24 49.7449C331.149 49.8745 328.999 52.9769 329.832 57.6111C330.334 60.403 331.111 62.6566 331.736 64.4672C332.126 65.5961 332.463 66.5709 332.601 67.3271C332.602 67.3297 332.603 67.3317 332.604 67.3345C332.604 67.3353 332.604 67.3362 332.605 67.3371C332.44 67.8599 332.29 68.3895 332.16 68.9276C332.124 69.0806 332.218 69.2341 332.371 69.2705C332.393 69.2759 332.415 69.2784 332.437 69.2784C332.566 69.2784 332.682 69.1909 332.714 69.0604C332.829 68.5777 332.967 68.0958 333.116 67.6134C333.68 67.7206 334.978 67.9284 336.571 67.9284C338.027 67.9284 339.725 67.7541 341.323 67.1696C345.218 65.7442 347.058 62.0198 347.135 61.8617C347.196 61.7355 347.156 61.5831 347.04 61.5035C346.925 61.4245 346.768 61.4407 346.672 61.5433C346.656 61.5592 345.099 63.1757 341.177 63.6891C338.047 64.0988 334.855 65.7792 333.456 66.5936C334.361 64.0641 335.732 61.5243 337.623 58.8847C338.381 59.1789 340.958 60.0909 343.818 60.0909C344.484 60.0909 345.166 60.0417 345.843 59.9235C349.928 59.2093 352.398 55.8687 352.501 55.7268C352.584 55.6131 352.571 55.4565 352.471 55.3575C352.371 55.2586 352.215 55.2481 352.101 55.3314C352.084 55.3447 350.265 56.6579 346.315 56.4717C343.252 56.3267 339.921 57.3495 338.337 57.9161C339.459 56.4355 340.736 54.922 342.193 53.357C342.567 52.9545 342.947 52.5539 343.331 52.1553C343.768 52.3475 344.902 52.7609 346.587 52.7609C347.98 52.7609 349.747 52.4777 351.803 51.5521C356.924 49.2454 358.822 46.6902 358.9 46.5825C358.979 46.4742 358.971 46.3255 358.882 46.2257C358.793 46.1256 358.646 46.1023 358.529 46.1686C358.511 46.1791 356.674 47.2136 352.717 48.0886C349.903 48.7112 346.397 50.1332 344.507 50.9488C345.256 50.1889 346.009 49.4384 346.749 48.7004Z" fill="#F0F8FF" fill-opacity="0.18"/>
<path d="M300.711 40.778C299.479 33.8562 299.454 26.9017 296.22 20.4908C293.755 15.6033 290.211 10.217 291.158 4.48405C291.247 3.94305 292.068 4.1739 291.98 4.71091C290.988 10.7227 295.266 16.322 297.653 21.4909C300.429 27.503 300.394 34.1459 301.533 40.5514C301.629 41.089 300.807 41.3173 300.711 40.778ZM316.439 30.051C315.562 28.0891 313.608 26.7758 311.548 26.1603C309.489 25.5451 307.305 25.532 305.156 25.5238C306.335 24.0947 308.235 23.5423 309.959 22.8614C311.682 22.1806 313.499 21.0952 313.932 19.2939C314.207 18.15 313.856 16.9591 313.508 15.8353C312.993 14.1751 312.331 12.3377 310.766 11.5821C309.168 10.8106 307.28 11.4795 305.637 12.1512C306.933 10.4279 308.15 8.646 309.285 6.81321C309.628 6.2597 309.976 5.64081 309.878 4.99747C309.737 4.07696 308.778 3.5516 307.93 3.16611C306.344 2.44459 304.527 1.71512 302.92 2.38887C301.514 2.97877 300.726 4.47638 300.234 5.91998C299.741 7.36386 299.403 8.91521 298.444 10.1015C297.731 7.43579 296.736 4.84509 295.483 2.38688C295.028 1.49422 294.472 0.556938 293.544 0.177982C292.345 -0.312408 291.004 0.303066 289.856 0.905468C288.617 1.55563 287.306 2.27629 286.655 3.5155C285.869 5.01311 286.272 6.86239 286.972 8.40236C287.671 9.94262 288.653 11.3751 289.046 13.0206C286.967 12.3136 284.888 11.6063 282.809 10.899C282.177 10.6843 281.507 10.4671 280.856 10.6115C279.736 10.8606 279.126 12.0429 278.668 13.0954C277.946 14.7527 277.221 16.6643 277.983 18.3038C278.764 19.9842 280.804 20.6616 282.651 20.8097C284.498 20.9576 286.424 20.7677 288.145 21.4568C285.709 21.9796 283.171 22.5504 281.248 24.1339C279.325 25.7174 278.263 28.6469 279.565 30.7705C280.475 32.2542 282.301 32.9749 284.041 33.0101C285.781 33.0457 287.475 32.5033 289.13 31.9671C286.765 33.5605 285.257 36.3548 285.221 39.2064C285.186 42.0581 286.626 44.8882 288.951 46.5396C295.184 50.9656 303.684 44.9069 309.233 41.9555C311.496 40.7521 313.733 39.3454 315.261 37.2878C316.788 35.2301 317.485 32.3907 316.439 30.051Z" fill="#F0F8FF" fill-opacity="0.18"/>
<path d="M408.15 50.0823C406.414 50.9574 405.183 52.6221 403.894 54.0313C402.378 55.6887 400.876 57.2958 399.555 59.1203C398.255 60.9156 397.015 62.7535 395.727 64.557C394.574 66.1723 392.94 67.8357 392.346 69.7603C392.184 70.284 391.361 70.0594 391.523 69.5334C392.149 67.5082 393.778 65.8258 394.991 64.1269C396.381 62.179 397.716 60.1915 399.131 58.2609C400.447 56.4645 401.962 54.8754 403.466 53.2379C404.761 51.8273 405.977 50.2242 407.72 49.346C408.209 49.0993 408.641 49.8353 408.15 50.0823ZM413.012 56.9154C412.732 55.9281 411.456 55.0946 410.522 54.8353C409.701 54.607 408.398 54.3563 408.674 53.1762C408.81 52.5988 409.297 52.1707 409.804 51.8634C410.355 51.5302 411.032 51.1984 411.142 50.5648C411.223 50.1039 410.959 49.6602 410.707 49.2664C410.056 48.251 409.366 47.1977 408.322 46.593C407.423 46.0725 406.322 46.0361 405.428 46.5671C404.632 47.0405 404.049 48.3303 403.036 48.3075C402.075 48.2859 401.662 47.1039 400.957 46.452C399.568 45.1682 396.839 46.0622 395.381 46.8096C394.829 47.0919 391.888 48.8676 393.622 49.3645C395.229 49.825 396.801 49.9524 398.361 50.6645C398.575 50.7623 398.803 50.8795 398.907 51.0907C399.105 51.4893 398.718 51.9745 398.281 52.059C397.844 52.1431 397.405 51.9643 396.987 51.8108C394.937 51.0566 392.629 50.8496 390.569 51.5774C389.249 52.0445 387.464 53.1427 386.909 54.5075C386.546 55.3999 386.832 56.0665 387.8 56.0526C389.246 56.0321 390.643 56.1197 392.047 56.5043C392.545 56.6411 393.73 57.349 393.055 57.9843C392.7 58.3187 391.392 58.3212 390.93 58.3215C389.24 58.3221 387.311 57.4521 385.726 58.3758C385.178 58.6948 384.769 59.2014 384.39 59.7097C383.235 61.2627 382.252 62.9443 381.467 64.7131C381.102 65.5335 380.738 66.4853 381.081 67.3552C381.563 68.5822 382.883 69.3492 383.899 70.0906C385.04 70.923 386.215 71.7085 387.423 72.4386C387.671 72.5875 387.919 72.7345 388.168 72.8789C390.394 74.1667 392.732 75.2661 395.165 76.1041C396.928 76.7111 398.85 77.1955 400.637 76.6659C401.967 76.2719 403.054 75.3644 404.047 74.4328C405.08 73.464 405.616 72.2606 406.371 71.0603C405.239 70.7388 404.107 70.4173 402.975 70.0958C402.485 69.9562 401.898 69.7043 401.865 69.1954C401.834 68.7246 402.319 68.3898 402.769 68.2476C403.995 67.8598 405.418 68.1774 406.364 69.0496C406.65 69.3134 406.928 69.6406 407.313 69.6912C407.893 69.7671 408.328 69.1954 408.627 68.6937C409.327 67.5224 410.053 66.1689 409.663 64.8618C409.284 63.5936 408.006 62.8652 406.966 62.0473C406.685 61.8276 406.39 61.5288 406.438 61.1763C406.504 60.6944 407.126 60.5389 407.611 60.5688C408.508 60.6242 409.389 60.927 410.13 61.4344C410.518 61.6997 410.93 62.0368 411.394 61.9686C411.893 61.8952 412.196 61.3895 412.387 60.9233C412.833 59.833 413.348 58.0975 413.012 56.9154Z" fill="#F0F8FF" fill-opacity="0.18"/>
<path d="M332.506 51.4472C332.353 49.2039 331.428 46.9646 331.909 44.7679C332.67 41.2965 336.698 39.0813 336.95 35.536C337.135 32.9305 335.185 30.6892 334.53 28.1608C333.777 25.2545 334.779 22.1575 334.329 19.1893C333.717 15.1413 330.17 12.1686 326.684 10.3972C323.049 8.55075 318.782 7.90343 314.785 8.77107C308.483 10.1391 303.131 15.207 301.422 21.4243C300.818 23.6205 300.555 26.0883 298.932 27.6869C297.073 29.5182 293.773 29.8088 292.673 32.1757C291.404 34.9052 294.132 38.1139 293.311 41.0096C292.328 44.4731 288.084 45.0866 285.716 47.2733C283.476 49.3426 282.822 52.9368 284.189 55.6629C285.123 57.5244 286.853 58.9006 288.762 59.7333C290.671 60.5654 292.759 60.8991 294.833 61.0839C298.405 61.4015 302.013 61.2977 305.56 60.7757C308.347 60.3652 311.19 59.6983 313.945 60.2831C317.407 61.0182 319.907 63.1515 323.573 62.3126C328.489 61.1877 332.866 56.7247 332.506 51.4472Z" fill="#232F5F"/>
<path d="M323.573 62.3126C324.125 62.1864 324.669 62.0158 325.202 61.8089C326.894 59.258 327.972 56.2741 328.26 53.1521C328.545 50.0588 328.027 46.8486 327.067 43.9062C326.532 42.2631 325.806 40.5775 324.668 39.2542C323.464 37.8538 321.989 37.5382 320.21 37.6852C317.142 37.9391 314.56 38.1716 311.876 36.402C310.364 35.4047 309.079 33.8317 307.265 33.4192C305.23 32.957 303.052 33.9062 301.624 35.3441C300.269 36.7095 299.84 38.5133 299.768 40.3859C299.726 41.4674 299.751 42.5357 299.213 43.5162C298.268 45.239 296.248 45.7342 294.432 45.8863C292.162 46.0768 289.614 45.4923 287.386 46.077C286.779 46.4347 286.207 46.8199 285.716 47.2733C283.476 49.3426 282.822 52.9369 284.189 55.6629C285.123 57.5244 286.853 58.9009 288.762 59.7333C290.671 60.5654 292.759 60.8991 294.833 61.0839C298.405 61.4015 302.013 61.2977 305.56 60.7758C308.347 60.3652 311.19 59.6983 313.945 60.2831C317.407 61.0185 319.907 63.1515 323.573 62.3126Z" fill="#1C2547"/>
<path d="M290.517 56.7506C292.402 56.2496 294.296 55.7854 296.199 55.359C299.817 54.5482 303.468 53.8659 307.138 53.336C308.604 53.1242 310.322 53.6109 311.769 53.9043C313.585 54.2724 315.375 54.7617 317.156 55.274C319.92 56.0691 322.689 56.8529 325.408 57.7939C326.767 58.2647 328.113 58.7741 329.435 59.3413C330.744 59.9033 331.626 60.5154 332.356 61.7799C333.066 63.0094 333.52 64.3634 333.898 65.726C334.264 67.0425 334.784 68.2877 335.126 69.6168C337.714 79.6711 339.418 89.9011 339.762 100.288C321.576 100.793 303.149 100.065 285.054 98.1844C284.46 97.4739 283.835 96.7914 283.214 96.1053C282.701 95.538 281.893 94.8914 281.585 94.1811C281.333 93.5977 281.407 92.7596 281.361 92.1376C281.289 91.1813 281.244 90.2229 281.225 89.264C281.148 85.4284 281.488 81.5849 282.237 77.8227C283.226 72.8525 283.663 67.7501 284.557 62.7521C284.773 61.5456 284.936 59.2611 285.988 58.4838C287.247 57.5537 289.032 57.1457 290.517 56.7506Z" fill="#6058B1"/>
<path d="M293.94 94.9517C292.033 90.4191 294.165 86.3507 295.615 82.1014C297.519 76.5232 299.221 69.316 296.915 63.5893C296.522 62.6122 295.918 61.719 295.052 61.1024C292.633 59.3808 287.762 61.0464 284.878 60.8181C284.732 61.5248 284.649 62.2367 284.557 62.7521C283.663 67.7501 283.226 72.8525 282.237 77.8227C281.488 81.5849 281.148 85.4284 281.225 89.264C281.244 90.2229 281.289 91.1812 281.361 92.1376C281.407 92.7596 281.333 93.5977 281.585 94.1811C281.893 94.8914 282.701 95.538 283.214 96.1053C283.835 96.7914 284.46 97.4739 285.054 98.1844C289.038 98.5986 293.039 98.9519 297.05 99.2527C295.744 98.0428 294.646 96.6299 293.94 94.9517Z" fill="#5146A5"/>
<path d="M324.551 61.1132C327.636 65.1953 330.345 69.5969 332.355 74.3097C334.398 79.102 335.747 84.1446 337.22 89.1301C338.048 91.9303 338.981 94.7405 339.639 97.599C339.114 88.1346 337.491 78.8023 335.127 69.6168C334.785 68.2877 334.264 67.0426 333.899 65.726C333.52 64.3634 333.066 63.0094 332.356 61.7799C331.626 60.5154 330.744 59.903 329.435 59.3413C328.113 58.7741 326.767 58.2647 325.408 57.7939C323.929 57.2819 322.433 56.8176 320.933 56.3713C322.263 57.892 323.418 59.615 324.551 61.1132Z" fill="#766DBD"/>
<path d="M335.758 96.1693C333.646 94.3863 332.106 91.8792 330.818 89.4662C329.354 86.7228 328.34 83.7881 327.022 80.9777C326.359 79.5631 325.642 78.1678 324.836 76.828C324.236 75.8304 323.64 74.7717 322.772 73.9905C323.446 76.1983 323.815 78.4896 324.278 80.7488C324.779 83.2002 325.337 85.6357 325.94 88.0641C326.547 90.5103 326.988 92.9879 327.447 95.4657C327.683 96.741 327.88 97.9991 328.184 99.2603C328.281 99.6621 328.32 100.053 328.329 100.441C332.147 100.442 335.96 100.394 339.762 100.288C339.744 99.7447 339.72 99.2018 339.695 98.6591C338.305 97.9535 336.956 97.1794 335.758 96.1693Z" fill="#5146A5"/>
<path d="M332.332 26.2833C332.35 26.133 332.366 25.9823 332.379 25.8313C331.233 25.2295 330.219 24.3243 329.425 23.3544C328.275 21.95 326.845 20.0655 326.22 18.1334C326.045 18.3296 325.867 18.5249 325.686 18.7211C324.255 20.2753 322.733 21.7265 321.073 23.0357C318.777 24.8471 315.765 26.6137 312.76 27.3307C312.342 28.8482 311.762 30.2887 310.554 31.6032C309.404 32.854 308.014 34.0051 306.465 34.7835C306.38 35.2199 306.305 35.658 306.254 36.0989C306.117 37.2727 306.097 38.4644 306.212 39.6408C306.337 40.9121 306.936 42.1289 306.882 43.409C306.821 44.843 306.765 46.2772 306.749 47.712C306.741 48.4582 306.744 49.2042 306.762 49.9499C306.777 50.5423 306.652 51.0813 306.645 51.6718C306.629 53.1626 306.71 54.6619 307.02 56.1231C307.389 57.8612 308.094 59.5519 309.24 60.9096C310.386 62.268 311.996 63.2721 313.758 63.502C314.463 63.5944 315.229 63.549 315.809 63.1373C316.428 62.6975 316.716 61.9351 316.957 61.215C317.489 59.6306 317.964 58.0287 318.419 56.4211C318.795 55.0963 319.257 53.7988 319.704 52.4971C319.775 52.2907 319.845 52.084 319.908 51.8756C319.956 51.7192 320.004 51.489 320.104 51.3596C320.191 51.2479 320.34 51.2092 320.477 51.1757C321.711 50.8752 323.007 50.4721 324.105 49.831C324.455 49.6263 324.817 49.4467 325.159 49.2263C327.28 47.8621 329.036 45.9787 330.459 43.9111C331.441 42.4856 332.395 40.7936 332.314 39.0066C332.245 37.4814 331.727 36.073 331.378 34.6067C331.04 33.1929 331.412 31.7686 331.676 30.3771C331.933 29.0202 332.164 27.6542 332.332 26.2833Z" fill="#FFB48C"/>
<path d="M331.377 34.6067C331.126 33.5537 331.269 32.495 331.466 31.4483C331.185 31.9512 330.877 32.4396 330.571 32.9399C329.931 33.9827 329.513 35.0021 329.52 36.2396C329.528 37.5055 329.963 38.7115 329.844 39.9871C329.461 44.0808 325.924 47.1997 323.249 50.2691C323.544 50.1363 323.83 49.9914 324.104 49.831C324.455 49.6263 324.817 49.4467 325.159 49.2263C327.28 47.8621 329.035 45.9787 330.459 43.9111C331.441 42.4856 332.395 40.7936 332.314 39.0066C332.245 37.4814 331.727 36.073 331.377 34.6067Z" fill="#FFA87A"/>
<path d="M314.25 47.7108C312.166 45.6287 310.241 41.9529 312.995 39.6317C313.866 38.8968 314.865 38.3999 315.388 37.3307C316.034 36.0102 315.453 34.8549 315.383 33.5204C315.317 32.2588 316.183 31.4463 317.222 30.8865C318.622 30.1314 320.115 29.7536 321.378 28.7384C323.189 27.2823 324.466 25.3645 324.854 23.0561C324.899 22.7903 325.267 22.6601 325.481 22.8011C326.52 23.4874 327.267 24.4634 328.232 25.2335C329.405 26.1702 330.945 26.4008 332.359 26.0221C332.365 25.9584 332.373 25.895 332.379 25.8313C331.233 25.2295 330.219 24.3243 329.425 23.3544C328.275 21.95 326.845 20.0655 326.22 18.1334C326.045 18.3296 325.867 18.5249 325.686 18.7211C324.255 20.2753 322.733 21.7265 321.073 23.0357C318.777 24.8471 315.765 26.6137 312.76 27.3307C312.342 28.8482 311.762 30.2887 310.554 31.6032C309.404 32.854 308.014 34.0051 306.465 34.7835C306.38 35.2199 306.305 35.658 306.254 36.0989C306.117 37.2727 306.097 38.4644 306.212 39.6408C306.337 40.9121 306.936 42.1289 306.882 43.409C306.821 44.843 306.765 46.2772 306.749 47.712C306.741 48.4582 306.744 49.2042 306.762 49.9499C306.777 50.5423 306.652 51.0813 306.645 51.6718C306.629 53.1626 306.71 54.6619 307.02 56.1231C307.389 57.8612 308.094 59.5519 309.24 60.9096C310.386 62.268 311.996 63.2721 313.758 63.502C314.463 63.5944 315.229 63.549 315.809 63.1373C316.428 62.6975 316.716 61.9351 316.957 61.215C317.489 59.6306 317.964 58.0287 318.419 56.4211C318.795 55.0963 319.257 53.7988 319.704 52.4971C319.775 52.2907 319.845 52.084 319.908 51.8756C319.956 51.7192 320.004 51.489 320.104 51.3596C320.191 51.2479 320.34 51.2092 320.477 51.1757C320.562 51.1552 320.647 51.1328 320.732 51.1114C318.305 50.6279 316.018 49.4762 314.25 47.7108Z" fill="#FFA87A"/>
<path d="M319.617 28.3248C320.07 28.3049 320.669 28.2771 320.846 27.7509C320.971 27.3802 320.68 26.964 320.381 26.7593C319.681 26.2788 318.404 26.7888 317.719 27.1348C316.9 27.5493 316.196 28.2017 315.752 29.0085C315.64 29.2124 315.547 29.4779 315.687 29.6635C315.861 29.8938 316.221 29.8017 316.486 29.6877C316.994 29.4688 317.287 29.1203 317.758 28.8559C318.324 28.5378 318.968 28.3533 319.617 28.3248Z" fill="#203661"/>
<path d="M320.826 32.7472C320.826 33.2788 320.395 33.7101 319.863 33.7101C319.331 33.7101 318.9 33.2788 318.9 32.7472C318.9 32.2156 319.331 31.7846 319.863 31.7846C320.395 31.7846 320.826 32.2156 320.826 32.7472Z" fill="#203661"/>
<path d="M329.479 32.7472C329.479 33.2788 329.048 33.7101 328.516 33.7101C327.985 33.7101 327.554 33.2788 327.554 32.7472C327.554 32.2156 327.985 31.7846 328.516 31.7846C329.048 31.7846 329.479 32.2156 329.479 32.7472Z" fill="#203661"/>
<path d="M321.569 36.4454C321.547 37.0043 320.544 37.4194 319.328 37.3728C318.113 37.3261 317.145 36.8352 317.166 36.2763C317.187 35.7177 318.19 35.3023 319.406 35.3489C320.622 35.3958 321.59 35.8865 321.569 36.4454Z" fill="#F27F52"/>
<path d="M331.836 36.9065C331.816 37.4288 330.879 37.8165 329.743 37.773C328.608 37.7293 327.703 37.2707 327.723 36.7488C327.743 36.2265 328.68 35.8385 329.816 35.8823C330.952 35.926 331.856 36.3846 331.836 36.9065Z" fill="#F27F52"/>
<path d="M318.904 40.4672C319.987 40.9539 322.033 41.761 324.357 42.1044C324.818 42.1727 325.086 42.6747 324.862 43.0844C324.385 43.9588 323.276 45.2933 320.826 44.6027C318.394 43.9173 317.957 42.1155 317.956 41.0693C317.955 40.5863 318.464 40.2688 318.904 40.4672Z" fill="white"/>
<path d="M328.062 27.4845C328.017 27.5274 327.976 27.5746 327.94 27.6263C327.737 27.9203 327.786 28.3086 328.103 28.4903C328.391 28.6555 328.757 28.5977 329.074 28.6444C329.948 28.7734 330.757 29.2425 331.476 29.7349C331.578 29.8054 331.682 29.8793 331.801 29.9154C331.92 29.9518 332.061 29.9441 332.155 29.8631C332.326 29.7161 332.26 29.4398 332.165 29.2351C331.875 28.6074 331.446 28.0337 330.876 27.6423C330.133 27.132 329.34 26.846 328.467 27.2286C328.32 27.2929 328.178 27.3753 328.062 27.4845Z" fill="#203661"/>
<path d="M325.33 30.7503C325.275 31.7152 325.241 32.6798 325.263 33.6392C325.274 34.1237 325.301 34.5871 325.451 35.0291C325.59 35.4701 325.813 35.8868 326.122 36.222C326.275 36.3906 326.457 36.5228 326.653 36.6862C326.837 36.8477 327.059 37.0453 327.121 37.3625C327.15 37.5152 327.125 37.6804 327.065 37.8137C327.006 37.9493 326.923 38.059 326.838 38.1566C326.67 38.347 326.479 38.5227 326.268 38.6666C325.438 39.2695 324.259 39.342 323.389 38.8431C323.352 38.8221 323.339 38.7749 323.36 38.7382C323.38 38.7041 323.422 38.691 323.457 38.7052C323.892 38.8832 324.362 38.9548 324.819 38.8966C325.274 38.84 325.711 38.6666 326.081 38.4013C326.268 38.2694 326.432 38.1122 326.581 37.9374C326.727 37.7648 326.824 37.5903 326.789 37.4211C326.764 37.2511 326.611 37.0865 326.438 36.9372C326.265 36.7894 326.055 36.6336 325.884 36.4409C325.54 36.0608 325.3 35.6014 325.155 35.1201C325.084 34.8782 325.038 34.6303 325.014 34.3801C324.992 34.1265 324.994 33.888 324.992 33.6429C324.986 32.6681 325.08 31.7007 325.177 30.7384C325.181 30.6963 325.219 30.6653 325.261 30.6696C325.302 30.6739 325.332 30.7097 325.33 30.7503Z" fill="#DB784C"/>
<path d="M307.731 52.9894C307.468 52.7606 307.051 52.6039 306.699 52.6443C306.334 52.6867 305.962 52.8334 305.725 53.1296C305.481 53.4363 305.38 53.7675 305.38 54.1615V54.2363C305.38 54.5854 305.609 54.9868 305.866 55.21C306.129 55.4386 306.545 55.5958 306.897 55.5551C307.263 55.513 307.635 55.3658 307.871 55.0696C308.115 54.7631 308.216 54.4316 308.216 54.0379V53.9631C308.216 53.614 307.987 53.2126 307.731 52.9894Z" fill="white"/>
<path d="M306.849 55.9383C305.019 55.9383 305.225 58.7744 307.047 58.7744C308.878 58.7744 308.671 55.9383 306.849 55.9383Z" fill="white"/>
<path d="M308.047 59.3074C306.217 59.3074 306.423 62.1432 308.245 62.1432C310.075 62.1432 309.869 59.3074 308.047 59.3074Z" fill="white"/>
<path d="M310.742 61.7028C308.912 61.7028 309.118 64.5388 310.94 64.5388C312.771 64.5388 312.564 61.7028 310.742 61.7028Z" fill="white"/>
<path d="M314.186 62.6014C312.356 62.6014 312.562 65.4372 314.384 65.4372C316.215 65.4372 316.008 62.6014 314.186 62.6014Z" fill="white"/>
<path d="M317.105 60.9546C315.275 60.9546 315.481 63.7903 317.304 63.7903C319.134 63.7903 318.928 60.9546 317.105 60.9546Z" fill="white"/>
<path d="M318.303 57.6606C316.473 57.6606 316.679 60.4963 318.501 60.4963C320.332 60.4963 320.125 57.6606 318.303 57.6606Z" fill="white"/>
<path d="M319.202 54.1417C317.371 54.1417 317.577 56.9774 319.4 56.9774C321.23 56.9774 321.024 54.1417 319.202 54.1417Z" fill="white"/>
<path d="M319.704 8.76994C314.959 9.54917 310.757 12.6775 308.028 16.5648C305.097 20.7381 303.919 25.955 303.934 31.0545C304.885 30.5437 305.858 30.1863 306.916 29.9717C307.4 26.5765 308.008 23.0542 309.613 20.0234C312.264 15.0174 317.76 10.7173 323.601 10.6917C326.189 10.6803 329.251 11.3899 331.085 13.3353C331.383 13.6514 331.65 13.9971 331.88 14.3661C331.839 14.2996 331.842 14.1103 331.811 14.0207C331.767 13.8942 331.722 13.7668 331.677 13.6403C331.595 13.4095 331.501 13.1829 331.394 12.9626C331.189 12.5401 330.938 12.1402 330.647 11.7717C330.078 11.0516 329.359 10.4623 328.565 10.0055C326.907 9.05054 324.964 8.64941 323.068 8.56896C321.945 8.5212 320.814 8.58743 319.704 8.76994Z" fill="white"/>
<path d="M309.312 16.8425C308.529 17.2883 307.717 17.781 306.929 18.3265C304.801 22.1584 303.921 26.6495 303.934 31.0545C304.885 30.5437 305.858 30.1863 306.916 29.9717C307.4 26.5765 308.008 23.0542 309.613 20.0234C310.529 18.2941 311.784 16.6495 313.276 15.2357C311.895 15.584 310.588 16.1162 309.312 16.8425Z" fill="#F0EEF8"/>
<path d="M307.501 23.0104C306.479 23.5605 305.491 24.1538 304.557 24.8204C304.125 26.8653 303.928 28.969 303.934 31.0545C304.885 30.5437 305.858 30.1863 306.916 29.9717C307.276 27.4481 307.705 24.8548 308.56 22.4447C308.202 22.6329 307.849 22.823 307.501 23.0104Z" fill="#E4DDF1"/>
<path d="M317.456 47.5206C317.424 47.5206 317.393 47.5178 317.361 47.5127C315.487 47.1991 313.549 46.8753 311.7 46.2305C309.578 45.4908 307.888 44.4242 306.677 43.0605C305.225 41.4258 304.501 39.2982 304.738 37.3685C304.777 37.0569 305.062 36.834 305.372 36.8736C305.684 36.9119 305.905 37.1957 305.867 37.5072C305.669 39.1177 306.289 40.9113 307.527 42.3051C308.608 43.5224 310.138 44.4816 312.074 45.1568C313.832 45.7694 315.722 46.0856 317.549 46.3912C317.858 46.4429 318.067 46.7357 318.016 47.0456C317.969 47.3236 317.728 47.5206 317.456 47.5206Z" fill="#6A62B2"/>
<path d="M307.318 42.0584C306.22 40.7035 305.68 39.0242 305.867 37.5073C305.905 37.1957 305.684 36.912 305.372 36.8736C305.062 36.8341 304.777 37.057 304.738 37.3685C304.549 38.9023 304.97 40.5605 305.879 41.9973C306.357 42.0757 306.849 42.0931 307.318 42.0584Z" fill="#5752A2"/>
<path d="M306.302 40.3592C305.911 39.4219 305.753 38.4346 305.867 37.5072C305.905 37.1957 305.684 36.9119 305.372 36.8736C305.063 36.834 304.777 37.0569 304.738 37.3685C304.634 38.216 304.722 39.1004 304.969 39.9652C305.414 40.0957 305.85 40.2688 306.302 40.3592Z" fill="#45428D"/>
<path d="M317.548 46.3912C316.754 46.2581 315.947 46.1217 315.144 45.961C315.076 46.2988 315.007 46.6368 314.902 46.9668C314.891 47.0001 314.879 47.0325 314.868 47.0655C315.703 47.2335 316.538 47.3748 317.361 47.5127C317.393 47.5178 317.424 47.5206 317.455 47.5206C317.728 47.5206 317.969 47.3236 318.015 47.0456C318.067 46.7357 317.858 46.4429 317.548 46.3912Z" fill="#5752A2"/>
<path d="M319.893 45.853L317.744 45.5579C317.24 45.4889 316.775 45.8414 316.705 46.346L316.599 47.1249C316.529 47.6295 316.882 48.0946 317.387 48.1637L319.536 48.4591C320.04 48.5284 320.505 48.1754 320.574 47.671L320.681 46.8921C320.751 46.3875 320.398 45.9227 319.893 45.853Z" fill="#203661"/>
<path d="M319.055 47.6446C318.086 47.2861 317.496 46.5069 317.446 45.5699C317.068 45.6421 316.761 45.944 316.705 46.346L316.599 47.1249C316.529 47.6295 316.882 48.0946 317.387 48.1637L319.536 48.4591C319.993 48.5219 320.414 48.2368 320.541 47.8078C320.051 47.8717 319.546 47.8263 319.055 47.6446Z" fill="#1B2B4C"/>
<path d="M319.663 46.2502C319.114 46.2502 319.176 47.1008 319.722 47.1008C320.271 47.1008 320.209 46.2502 319.663 46.2502Z" fill="#2E5498"/>
<path d="M310.497 34.367C310.497 37.1274 308.259 39.3653 305.499 39.3653C302.738 39.3653 300.5 37.1274 300.5 34.367C300.5 31.6066 302.738 29.369 305.499 29.369C308.259 29.369 310.497 31.6066 310.497 34.367Z" fill="white"/>
<path d="M301.787 31.0278C300.99 31.9134 300.5 33.0815 300.5 34.367C300.5 37.1274 302.738 39.3651 305.498 39.3651C306.787 39.3651 307.958 38.8732 308.845 38.0718C306.491 35.7245 304.138 33.3771 301.787 31.0278Z" fill="#F0EEF8"/>
<path d="M308.415 34.367C308.415 35.9781 307.11 37.2838 305.499 37.2838C303.888 37.2838 302.582 35.9781 302.582 34.367C302.582 32.756 303.888 31.45 305.499 31.45C307.11 31.45 308.415 32.756 308.415 34.367Z" fill="#8997D4"/>
<path d="M307.743 36.2294C308.163 35.7242 308.415 35.0752 308.415 34.367C308.415 32.756 307.11 31.45 305.499 31.45C304.79 31.45 304.141 31.7027 303.636 32.1226C305.005 33.4914 306.374 34.8603 307.743 36.2294Z" fill="#A0AADD"/>
<path d="M430 122H0V98H430V122Z" fill="#0066B1"/>
<path d="M391.075 42.6403H370.553C370.451 42.8209 370.349 43.7688 369 45.5C368.696 45.89 367.522 46.5682 367.627 46C367.255 42.6403 367.628 38.5268 367.628 38.4003V32.24C367.628 29.8984 368.937 28 370.553 28H391.075C392.69 28 394 29.8984 394 32.24V38.4003C394 40.742 392.69 42.6403 391.075 42.6403Z" fill="white"/>
<path d="M375.777 35.3882C375.777 36.1549 375.155 36.7766 374.388 36.7766C373.622 36.7766 373 36.1549 373 35.3882C373 34.6214 373.622 34 374.388 34C375.155 34 375.777 34.6214 375.777 35.3882Z" fill="#5146A5"/>
<path d="M383.096 35.3882C383.096 36.1549 382.474 36.7766 381.708 36.7766C380.941 36.7766 380.319 36.1549 380.319 35.3882C380.319 34.6214 380.941 34 381.708 34C382.474 34 383.096 34.6214 383.096 35.3882Z" fill="#5146A5"/>
<path d="M390.415 35.3882C390.415 36.1549 389.794 36.7766 389.027 36.7766C388.26 36.7766 387.639 36.1549 387.639 35.3882C387.639 34.6214 388.26 34 389.027 34C389.794 34 390.415 34.6214 390.415 35.3882Z" fill="#5146A5"/>
<path d="M321.476 102.229H339.587C340.788 102.229 341.762 103.203 341.762 104.404C341.762 105.606 340.788 106.58 339.587 106.58H321.476C320.275 106.58 319.301 105.606 319.301 104.404C319.301 103.203 320.275 102.229 321.476 102.229Z" fill="#5146A5"/>
<path d="M396.612 106.58H340.355C338.442 106.58 336.994 104.849 337.333 102.965L343.625 67.9651C343.888 66.5018 345.161 65.4372 346.647 65.4372H402.177C404.066 65.4372 405.507 67.1256 405.21 68.9905L399.644 103.991C399.407 105.482 398.121 106.58 396.612 106.58Z" fill="#EFF0F5"/>
<path d="M386.851 106.58H396.612C398.121 106.58 399.407 105.482 399.644 103.991L405.21 68.9905C405.507 67.1258 404.066 65.4372 402.177 65.4372H346.647C346.362 65.4372 346.085 65.4773 345.822 65.5509L386.851 106.58Z" fill="white"/>
<path d="M379.293 86.0084C379.293 90.4412 375.699 94.0345 371.266 94.0345C366.834 94.0345 363.24 90.4412 363.24 86.0084C363.24 81.5758 366.834 77.9821 371.266 77.9821C375.699 77.9821 379.293 81.5758 379.293 86.0084Z" fill="#A0AADD"/>
<path d="M376.463 92.1228C378.193 90.6511 379.293 88.4586 379.293 86.0084C379.293 81.5758 375.699 77.9821 371.266 77.9821C368.816 77.9821 366.624 79.0812 365.152 80.8119L376.463 92.1228Z" fill="#B3BCE5"/>
<path d="M313.729 103.741C316.517 102.472 319.772 102.258 322.702 103.153C325.632 104.048 328.211 106.044 329.814 108.656C330.058 109.054 330.286 109.546 330.091 109.972C329.965 110.248 329.68 110.426 329.384 110.499C329.089 110.571 328.78 110.553 328.476 110.535C327.549 110.48 326.621 110.424 325.693 110.369C321.533 110.119 316.868 109.757 312.708 109.508C312.487 109.495 312.433 108.914 312.476 108.643C312.63 107.643 312.785 106.644 312.939 105.644C313.061 104.854 313.27 103.942 313.994 103.602" fill="#FFB48C"/>
<path d="M282.464 62.7714C275.77 72.7337 270.638 83.7441 267.314 95.277C266.913 96.6675 266.539 98.1605 266.979 99.5386C267.47 101.075 268.869 102.133 270.281 102.911C274.376 105.168 279.11 105.91 283.743 106.54C293.378 107.848 303.054 108.447 312.707 109.508C313.158 107.451 313.608 105.394 314.058 103.337C304.516 99.5703 294.622 96.088 284.594 93.928C285.046 94.0255 287.968 87.8255 288.304 87.1705C289.534 84.776 290.709 82.3542 291.883 79.9321C293.318 76.9715 294.959 74.0815 295.942 70.9265C296.827 68.0896 297.376 64.028 295.539 61.4038C294.208 59.5019 291.876 58.2311 289.618 57.8692C287.784 57.5753 286.201 58.0998 284.935 59.4601C284.016 60.4471 283.212 61.6576 282.464 62.7714Z" fill="#6058B1"/>
<path d="M297.983 106.615C294.277 105.671 290.525 104.914 286.82 103.968C282.893 102.965 277.514 101.894 274.893 98.4598C271.936 94.5836 273.484 88.379 275.196 84.3152C277.481 78.8882 288.073 61.8262 289.161 57.8146C287.52 57.6716 286.094 58.2143 284.935 59.4601C284.016 60.4471 283.212 61.6576 282.464 62.7714C275.77 72.7337 270.638 83.744 267.313 95.277C266.913 96.6674 266.539 98.1605 266.979 99.5386C267.47 101.075 268.869 102.133 270.281 102.911C274.376 105.168 279.11 105.91 283.743 106.539C290.538 107.462 297.354 108.033 304.168 108.661C302.134 107.895 300.092 107.152 297.983 106.615Z" fill="#5146A5"/>
<path d="M285.385 92.8892C286.118 91.4362 288.154 87.4639 288.304 87.1705C289.534 84.776 290.709 82.3542 291.883 79.932C293.319 76.9715 294.959 74.0814 295.942 70.9264C296.826 68.0896 297.376 64.028 295.539 61.4037C295.389 61.1885 295.224 60.9827 295.05 60.7843C295.104 64.7054 294.559 67.2981 293.332 71.047C291.278 77.324 286.566 86.3501 285.385 92.8892Z" fill="#766DBD"/>
<path d="M284.671 93.9516C282.948 93.6332 281.234 93.4325 279.483 93.3739C280.78 94.7653 282.434 95.7847 284.174 96.5525C286.076 97.3917 288.107 97.9418 290.067 98.5991C296.431 100.735 302.588 103.488 308.423 106.807C309.79 107.584 310.961 108.307 312.057 109.438C312.273 109.462 312.49 109.484 312.707 109.508C313.158 107.451 313.608 105.394 314.058 103.337C307.503 100.75 300.874 98.3296 294.106 96.355C291.01 95.4512 287.863 94.5412 284.671 93.9516Z" fill="#766DBD"/>
</svg>
